G04 #@! TF.GenerationSoftware,KiCad,Pcbnew,(5.1.6)-1*
G04 #@! TF.CreationDate,2020-09-09T10:35:32-07:00*
G04 #@! TF.ProjectId,MiniDAQ,4d696e69-4441-4512-9e6b-696361645f70,rev?*
G04 #@! TF.SameCoordinates,Original*
G04 #@! TF.FileFunction,Other,ECO2*
%FSLAX46Y46*%
G04 Gerber Fmt 4.6, Leading zero omitted, Abs format (unit mm)*
G04 Created by KiCad (PCBNEW (5.1.6)-1) date 2020-09-09 10:35:32*
%MOMM*%
%LPD*%
G01*
G04 APERTURE LIST*
%ADD10C,0.080000*%
G04 APERTURE END LIST*
D10*
X95275609Y-111308152D02*
X95275609Y-111593866D01*
X95256561Y-111651009D01*
X95218466Y-111689104D01*
X95161323Y-111708152D01*
X95123228Y-111708152D01*
X95370847Y-111746247D02*
X95675609Y-111746247D01*
X95770847Y-111708152D02*
X95770847Y-111308152D01*
X95999419Y-111708152D01*
X95999419Y-111308152D01*
X96170847Y-111593866D02*
X96361323Y-111593866D01*
X96132752Y-111708152D02*
X96266085Y-111308152D01*
X96399419Y-111708152D01*
X95275609Y-123308152D02*
X95275609Y-123593866D01*
X95256561Y-123651009D01*
X95218466Y-123689104D01*
X95161323Y-123708152D01*
X95123228Y-123708152D01*
X95370847Y-123746247D02*
X95675609Y-123746247D01*
X95770847Y-123708152D02*
X95770847Y-123308152D01*
X95999419Y-123708152D01*
X95999419Y-123308152D01*
X96170847Y-123593866D02*
X96361323Y-123593866D01*
X96132752Y-123708152D02*
X96266085Y-123308152D01*
X96399419Y-123708152D01*
X111881409Y-113809952D02*
X111881409Y-114095666D01*
X111862361Y-114152809D01*
X111824266Y-114190904D01*
X111767123Y-114209952D01*
X111729028Y-114209952D01*
X111976647Y-114248047D02*
X112281409Y-114248047D01*
X112376647Y-114209952D02*
X112376647Y-113809952D01*
X112605219Y-114209952D01*
X112605219Y-113809952D01*
X112776647Y-114095666D02*
X112967123Y-114095666D01*
X112738552Y-114209952D02*
X112871885Y-113809952D01*
X113005219Y-114209952D01*
X113151409Y-113809952D02*
X113151409Y-114095666D01*
X113132361Y-114152809D01*
X113094266Y-114190904D01*
X113037123Y-114209952D01*
X112999028Y-114209952D01*
X113246647Y-114248047D02*
X113551409Y-114248047D01*
X113646647Y-114209952D02*
X113646647Y-113809952D01*
X113875219Y-114209952D01*
X113875219Y-113809952D01*
X114046647Y-114095666D02*
X114237123Y-114095666D01*
X114008552Y-114209952D02*
X114141885Y-113809952D01*
X114275219Y-114209952D01*
X110611409Y-113809952D02*
X110611409Y-114095666D01*
X110592361Y-114152809D01*
X110554266Y-114190904D01*
X110497123Y-114209952D01*
X110459028Y-114209952D01*
X110706647Y-114248047D02*
X111011409Y-114248047D01*
X111106647Y-114209952D02*
X111106647Y-113809952D01*
X111335219Y-114209952D01*
X111335219Y-113809952D01*
X111506647Y-114095666D02*
X111697123Y-114095666D01*
X111468552Y-114209952D02*
X111601885Y-113809952D01*
X111735219Y-114209952D01*
X109341409Y-113809952D02*
X109341409Y-114095666D01*
X109322361Y-114152809D01*
X109284266Y-114190904D01*
X109227123Y-114209952D01*
X109189028Y-114209952D01*
X109436647Y-114248047D02*
X109741409Y-114248047D01*
X109836647Y-114209952D02*
X109836647Y-113809952D01*
X110065219Y-114209952D01*
X110065219Y-113809952D01*
X110236647Y-114095666D02*
X110427123Y-114095666D01*
X110198552Y-114209952D02*
X110331885Y-113809952D01*
X110465219Y-114209952D01*
X108275609Y-123808152D02*
X108275609Y-124093866D01*
X108256561Y-124151009D01*
X108218466Y-124189104D01*
X108161323Y-124208152D01*
X108123228Y-124208152D01*
X108370847Y-124246247D02*
X108675609Y-124246247D01*
X108770847Y-124208152D02*
X108770847Y-123808152D01*
X108999419Y-124208152D01*
X108999419Y-123808152D01*
X109170847Y-124093866D02*
X109361323Y-124093866D01*
X109132752Y-124208152D02*
X109266085Y-123808152D01*
X109399419Y-124208152D01*
X108275609Y-122808152D02*
X108275609Y-123093866D01*
X108256561Y-123151009D01*
X108218466Y-123189104D01*
X108161323Y-123208152D01*
X108123228Y-123208152D01*
X108370847Y-123246247D02*
X108675609Y-123246247D01*
X108770847Y-123208152D02*
X108770847Y-122808152D01*
X108999419Y-123208152D01*
X108999419Y-122808152D01*
X109170847Y-123093866D02*
X109361323Y-123093866D01*
X109132752Y-123208152D02*
X109266085Y-122808152D01*
X109399419Y-123208152D01*
X110326942Y-122691752D02*
X110460276Y-122501276D01*
X110555514Y-122691752D02*
X110555514Y-122291752D01*
X110403133Y-122291752D01*
X110365038Y-122310800D01*
X110345990Y-122329847D01*
X110326942Y-122367942D01*
X110326942Y-122425085D01*
X110345990Y-122463180D01*
X110365038Y-122482228D01*
X110403133Y-122501276D01*
X110555514Y-122501276D01*
X109984085Y-122425085D02*
X109984085Y-122691752D01*
X110079323Y-122272704D02*
X110174561Y-122558419D01*
X109926942Y-122558419D01*
X109793609Y-122329847D02*
X109774561Y-122310800D01*
X109736466Y-122291752D01*
X109641228Y-122291752D01*
X109603133Y-122310800D01*
X109584085Y-122329847D01*
X109565038Y-122367942D01*
X109565038Y-122406038D01*
X109584085Y-122463180D01*
X109812657Y-122691752D01*
X109565038Y-122691752D01*
X115254542Y-117179952D02*
X115387876Y-116989476D01*
X115483114Y-117179952D02*
X115483114Y-116779952D01*
X115330733Y-116779952D01*
X115292638Y-116799000D01*
X115273590Y-116818047D01*
X115254542Y-116856142D01*
X115254542Y-116913285D01*
X115273590Y-116951380D01*
X115292638Y-116970428D01*
X115330733Y-116989476D01*
X115483114Y-116989476D01*
X114911685Y-116913285D02*
X114911685Y-117179952D01*
X115006923Y-116760904D02*
X115102161Y-117046619D01*
X114854542Y-117046619D01*
X114492638Y-117179952D02*
X114721209Y-117179952D01*
X114606923Y-117179952D02*
X114606923Y-116779952D01*
X114645019Y-116837095D01*
X114683114Y-116875190D01*
X114721209Y-116894238D01*
X115673666Y-124723752D02*
X115807000Y-124533276D01*
X115902238Y-124723752D02*
X115902238Y-124323752D01*
X115749857Y-124323752D01*
X115711761Y-124342800D01*
X115692714Y-124361847D01*
X115673666Y-124399942D01*
X115673666Y-124457085D01*
X115692714Y-124495180D01*
X115711761Y-124514228D01*
X115749857Y-124533276D01*
X115902238Y-124533276D01*
X115483190Y-124723752D02*
X115407000Y-124723752D01*
X115368904Y-124704704D01*
X115349857Y-124685657D01*
X115311761Y-124628514D01*
X115292714Y-124552323D01*
X115292714Y-124399942D01*
X115311761Y-124361847D01*
X115330809Y-124342800D01*
X115368904Y-124323752D01*
X115445095Y-124323752D01*
X115483190Y-124342800D01*
X115502238Y-124361847D01*
X115521285Y-124399942D01*
X115521285Y-124495180D01*
X115502238Y-124533276D01*
X115483190Y-124552323D01*
X115445095Y-124571371D01*
X115368904Y-124571371D01*
X115330809Y-124552323D01*
X115311761Y-124533276D01*
X115292714Y-124495180D01*
X115838742Y-124101457D02*
X115857790Y-124120504D01*
X115914933Y-124139552D01*
X115953028Y-124139552D01*
X116010171Y-124120504D01*
X116048266Y-124082409D01*
X116067314Y-124044314D01*
X116086361Y-123968123D01*
X116086361Y-123910980D01*
X116067314Y-123834790D01*
X116048266Y-123796695D01*
X116010171Y-123758600D01*
X115953028Y-123739552D01*
X115914933Y-123739552D01*
X115857790Y-123758600D01*
X115838742Y-123777647D01*
X115705409Y-123739552D02*
X115438742Y-123739552D01*
X115610171Y-124139552D01*
X115267314Y-124139552D02*
X115191123Y-124139552D01*
X115153028Y-124120504D01*
X115133980Y-124101457D01*
X115095885Y-124044314D01*
X115076838Y-123968123D01*
X115076838Y-123815742D01*
X115095885Y-123777647D01*
X115114933Y-123758600D01*
X115153028Y-123739552D01*
X115229219Y-123739552D01*
X115267314Y-123758600D01*
X115286361Y-123777647D01*
X115305409Y-123815742D01*
X115305409Y-123910980D01*
X115286361Y-123949076D01*
X115267314Y-123968123D01*
X115229219Y-123987171D01*
X115153028Y-123987171D01*
X115114933Y-123968123D01*
X115095885Y-123949076D01*
X115076838Y-123910980D01*
X112059133Y-113526952D02*
X112059133Y-113812666D01*
X112078180Y-113869809D01*
X112116276Y-113907904D01*
X112173419Y-113926952D01*
X112211514Y-113926952D01*
X111697228Y-113526952D02*
X111773419Y-113526952D01*
X111811514Y-113546000D01*
X111830561Y-113565047D01*
X111868657Y-113622190D01*
X111887704Y-113698380D01*
X111887704Y-113850761D01*
X111868657Y-113888857D01*
X111849609Y-113907904D01*
X111811514Y-113926952D01*
X111735323Y-113926952D01*
X111697228Y-113907904D01*
X111678180Y-113888857D01*
X111659133Y-113850761D01*
X111659133Y-113755523D01*
X111678180Y-113717428D01*
X111697228Y-113698380D01*
X111735323Y-113679333D01*
X111811514Y-113679333D01*
X111849609Y-113698380D01*
X111868657Y-113717428D01*
X111887704Y-113755523D01*
X113454333Y-114773352D02*
X113454333Y-115059066D01*
X113473380Y-115116209D01*
X113511476Y-115154304D01*
X113568619Y-115173352D01*
X113606714Y-115173352D01*
X113073380Y-114773352D02*
X113263857Y-114773352D01*
X113282904Y-114963828D01*
X113263857Y-114944780D01*
X113225761Y-114925733D01*
X113130523Y-114925733D01*
X113092428Y-114944780D01*
X113073380Y-114963828D01*
X113054333Y-115001923D01*
X113054333Y-115097161D01*
X113073380Y-115135257D01*
X113092428Y-115154304D01*
X113130523Y-115173352D01*
X113225761Y-115173352D01*
X113263857Y-115154304D01*
X113282904Y-115135257D01*
X112057333Y-114822352D02*
X112057333Y-115108066D01*
X112076380Y-115165209D01*
X112114476Y-115203304D01*
X112171619Y-115222352D01*
X112209714Y-115222352D01*
X111695428Y-114955685D02*
X111695428Y-115222352D01*
X111790666Y-114803304D02*
X111885904Y-115089019D01*
X111638285Y-115089019D01*
X110761933Y-114798752D02*
X110761933Y-115084466D01*
X110780980Y-115141609D01*
X110819076Y-115179704D01*
X110876219Y-115198752D01*
X110914314Y-115198752D01*
X110609552Y-114798752D02*
X110361933Y-114798752D01*
X110495266Y-114951133D01*
X110438123Y-114951133D01*
X110400028Y-114970180D01*
X110380980Y-114989228D01*
X110361933Y-115027323D01*
X110361933Y-115122561D01*
X110380980Y-115160657D01*
X110400028Y-115179704D01*
X110438123Y-115198752D01*
X110552409Y-115198752D01*
X110590504Y-115179704D01*
X110609552Y-115160657D01*
X106575247Y-113210942D02*
X106765723Y-113344276D01*
X106575247Y-113439514D02*
X106975247Y-113439514D01*
X106975247Y-113287133D01*
X106956200Y-113249038D01*
X106937152Y-113229990D01*
X106899057Y-113210942D01*
X106841914Y-113210942D01*
X106803819Y-113229990D01*
X106784771Y-113249038D01*
X106765723Y-113287133D01*
X106765723Y-113439514D01*
X106841914Y-112868085D02*
X106575247Y-112868085D01*
X106994295Y-112963323D02*
X106708580Y-113058561D01*
X106708580Y-112810942D01*
X106975247Y-112582371D02*
X106975247Y-112544276D01*
X106956200Y-112506180D01*
X106937152Y-112487133D01*
X106899057Y-112468085D01*
X106822866Y-112449038D01*
X106727628Y-112449038D01*
X106651438Y-112468085D01*
X106613342Y-112487133D01*
X106594295Y-112506180D01*
X106575247Y-112544276D01*
X106575247Y-112582371D01*
X106594295Y-112620466D01*
X106613342Y-112639514D01*
X106651438Y-112658561D01*
X106727628Y-112677609D01*
X106822866Y-112677609D01*
X106899057Y-112658561D01*
X106937152Y-112639514D01*
X106956200Y-112620466D01*
X106975247Y-112582371D01*
X110867847Y-113210942D02*
X111058323Y-113344276D01*
X110867847Y-113439514D02*
X111267847Y-113439514D01*
X111267847Y-113287133D01*
X111248800Y-113249038D01*
X111229752Y-113229990D01*
X111191657Y-113210942D01*
X111134514Y-113210942D01*
X111096419Y-113229990D01*
X111077371Y-113249038D01*
X111058323Y-113287133D01*
X111058323Y-113439514D01*
X111267847Y-113077609D02*
X111267847Y-112829990D01*
X111115466Y-112963323D01*
X111115466Y-112906180D01*
X111096419Y-112868085D01*
X111077371Y-112849038D01*
X111039276Y-112829990D01*
X110944038Y-112829990D01*
X110905942Y-112849038D01*
X110886895Y-112868085D01*
X110867847Y-112906180D01*
X110867847Y-113020466D01*
X110886895Y-113058561D01*
X110905942Y-113077609D01*
X110867847Y-112639514D02*
X110867847Y-112563323D01*
X110886895Y-112525228D01*
X110905942Y-112506180D01*
X110963085Y-112468085D01*
X111039276Y-112449038D01*
X111191657Y-112449038D01*
X111229752Y-112468085D01*
X111248800Y-112487133D01*
X111267847Y-112525228D01*
X111267847Y-112601419D01*
X111248800Y-112639514D01*
X111229752Y-112658561D01*
X111191657Y-112677609D01*
X111096419Y-112677609D01*
X111058323Y-112658561D01*
X111039276Y-112639514D01*
X111020228Y-112601419D01*
X111020228Y-112525228D01*
X111039276Y-112487133D01*
X111058323Y-112468085D01*
X111096419Y-112449038D01*
X110258247Y-113210942D02*
X110448723Y-113344276D01*
X110258247Y-113439514D02*
X110658247Y-113439514D01*
X110658247Y-113287133D01*
X110639200Y-113249038D01*
X110620152Y-113229990D01*
X110582057Y-113210942D01*
X110524914Y-113210942D01*
X110486819Y-113229990D01*
X110467771Y-113249038D01*
X110448723Y-113287133D01*
X110448723Y-113439514D01*
X110658247Y-113077609D02*
X110658247Y-112829990D01*
X110505866Y-112963323D01*
X110505866Y-112906180D01*
X110486819Y-112868085D01*
X110467771Y-112849038D01*
X110429676Y-112829990D01*
X110334438Y-112829990D01*
X110296342Y-112849038D01*
X110277295Y-112868085D01*
X110258247Y-112906180D01*
X110258247Y-113020466D01*
X110277295Y-113058561D01*
X110296342Y-113077609D01*
X110486819Y-112601419D02*
X110505866Y-112639514D01*
X110524914Y-112658561D01*
X110563009Y-112677609D01*
X110582057Y-112677609D01*
X110620152Y-112658561D01*
X110639200Y-112639514D01*
X110658247Y-112601419D01*
X110658247Y-112525228D01*
X110639200Y-112487133D01*
X110620152Y-112468085D01*
X110582057Y-112449038D01*
X110563009Y-112449038D01*
X110524914Y-112468085D01*
X110505866Y-112487133D01*
X110486819Y-112525228D01*
X110486819Y-112601419D01*
X110467771Y-112639514D01*
X110448723Y-112658561D01*
X110410628Y-112677609D01*
X110334438Y-112677609D01*
X110296342Y-112658561D01*
X110277295Y-112639514D01*
X110258247Y-112601419D01*
X110258247Y-112525228D01*
X110277295Y-112487133D01*
X110296342Y-112468085D01*
X110334438Y-112449038D01*
X110410628Y-112449038D01*
X110448723Y-112468085D01*
X110467771Y-112487133D01*
X110486819Y-112525228D01*
X109623247Y-113210942D02*
X109813723Y-113344276D01*
X109623247Y-113439514D02*
X110023247Y-113439514D01*
X110023247Y-113287133D01*
X110004200Y-113249038D01*
X109985152Y-113229990D01*
X109947057Y-113210942D01*
X109889914Y-113210942D01*
X109851819Y-113229990D01*
X109832771Y-113249038D01*
X109813723Y-113287133D01*
X109813723Y-113439514D01*
X110023247Y-113077609D02*
X110023247Y-112829990D01*
X109870866Y-112963323D01*
X109870866Y-112906180D01*
X109851819Y-112868085D01*
X109832771Y-112849038D01*
X109794676Y-112829990D01*
X109699438Y-112829990D01*
X109661342Y-112849038D01*
X109642295Y-112868085D01*
X109623247Y-112906180D01*
X109623247Y-113020466D01*
X109642295Y-113058561D01*
X109661342Y-113077609D01*
X110023247Y-112696657D02*
X110023247Y-112429990D01*
X109623247Y-112601419D01*
X109013647Y-113210942D02*
X109204123Y-113344276D01*
X109013647Y-113439514D02*
X109413647Y-113439514D01*
X109413647Y-113287133D01*
X109394600Y-113249038D01*
X109375552Y-113229990D01*
X109337457Y-113210942D01*
X109280314Y-113210942D01*
X109242219Y-113229990D01*
X109223171Y-113249038D01*
X109204123Y-113287133D01*
X109204123Y-113439514D01*
X109413647Y-113077609D02*
X109413647Y-112829990D01*
X109261266Y-112963323D01*
X109261266Y-112906180D01*
X109242219Y-112868085D01*
X109223171Y-112849038D01*
X109185076Y-112829990D01*
X109089838Y-112829990D01*
X109051742Y-112849038D01*
X109032695Y-112868085D01*
X109013647Y-112906180D01*
X109013647Y-113020466D01*
X109032695Y-113058561D01*
X109051742Y-113077609D01*
X109413647Y-112487133D02*
X109413647Y-112563323D01*
X109394600Y-112601419D01*
X109375552Y-112620466D01*
X109318409Y-112658561D01*
X109242219Y-112677609D01*
X109089838Y-112677609D01*
X109051742Y-112658561D01*
X109032695Y-112639514D01*
X109013647Y-112601419D01*
X109013647Y-112525228D01*
X109032695Y-112487133D01*
X109051742Y-112468085D01*
X109089838Y-112449038D01*
X109185076Y-112449038D01*
X109223171Y-112468085D01*
X109242219Y-112487133D01*
X109261266Y-112525228D01*
X109261266Y-112601419D01*
X109242219Y-112639514D01*
X109223171Y-112658561D01*
X109185076Y-112677609D01*
X108404047Y-113215342D02*
X108594523Y-113348676D01*
X108404047Y-113443914D02*
X108804047Y-113443914D01*
X108804047Y-113291533D01*
X108785000Y-113253438D01*
X108765952Y-113234390D01*
X108727857Y-113215342D01*
X108670714Y-113215342D01*
X108632619Y-113234390D01*
X108613571Y-113253438D01*
X108594523Y-113291533D01*
X108594523Y-113443914D01*
X108804047Y-113082009D02*
X108804047Y-112834390D01*
X108651666Y-112967723D01*
X108651666Y-112910580D01*
X108632619Y-112872485D01*
X108613571Y-112853438D01*
X108575476Y-112834390D01*
X108480238Y-112834390D01*
X108442142Y-112853438D01*
X108423095Y-112872485D01*
X108404047Y-112910580D01*
X108404047Y-113024866D01*
X108423095Y-113062961D01*
X108442142Y-113082009D01*
X108804047Y-112472485D02*
X108804047Y-112662961D01*
X108613571Y-112682009D01*
X108632619Y-112662961D01*
X108651666Y-112624866D01*
X108651666Y-112529628D01*
X108632619Y-112491533D01*
X108613571Y-112472485D01*
X108575476Y-112453438D01*
X108480238Y-112453438D01*
X108442142Y-112472485D01*
X108423095Y-112491533D01*
X108404047Y-112529628D01*
X108404047Y-112624866D01*
X108423095Y-112662961D01*
X108442142Y-112682009D01*
X107794447Y-113210942D02*
X107984923Y-113344276D01*
X107794447Y-113439514D02*
X108194447Y-113439514D01*
X108194447Y-113287133D01*
X108175400Y-113249038D01*
X108156352Y-113229990D01*
X108118257Y-113210942D01*
X108061114Y-113210942D01*
X108023019Y-113229990D01*
X108003971Y-113249038D01*
X107984923Y-113287133D01*
X107984923Y-113439514D01*
X108194447Y-113077609D02*
X108194447Y-112829990D01*
X108042066Y-112963323D01*
X108042066Y-112906180D01*
X108023019Y-112868085D01*
X108003971Y-112849038D01*
X107965876Y-112829990D01*
X107870638Y-112829990D01*
X107832542Y-112849038D01*
X107813495Y-112868085D01*
X107794447Y-112906180D01*
X107794447Y-113020466D01*
X107813495Y-113058561D01*
X107832542Y-113077609D01*
X108061114Y-112487133D02*
X107794447Y-112487133D01*
X108213495Y-112582371D02*
X107927780Y-112677609D01*
X107927780Y-112429990D01*
X107184847Y-113210942D02*
X107375323Y-113344276D01*
X107184847Y-113439514D02*
X107584847Y-113439514D01*
X107584847Y-113287133D01*
X107565800Y-113249038D01*
X107546752Y-113229990D01*
X107508657Y-113210942D01*
X107451514Y-113210942D01*
X107413419Y-113229990D01*
X107394371Y-113249038D01*
X107375323Y-113287133D01*
X107375323Y-113439514D01*
X107584847Y-113077609D02*
X107584847Y-112829990D01*
X107432466Y-112963323D01*
X107432466Y-112906180D01*
X107413419Y-112868085D01*
X107394371Y-112849038D01*
X107356276Y-112829990D01*
X107261038Y-112829990D01*
X107222942Y-112849038D01*
X107203895Y-112868085D01*
X107184847Y-112906180D01*
X107184847Y-113020466D01*
X107203895Y-113058561D01*
X107222942Y-113077609D01*
X107584847Y-112696657D02*
X107584847Y-112449038D01*
X107432466Y-112582371D01*
X107432466Y-112525228D01*
X107413419Y-112487133D01*
X107394371Y-112468085D01*
X107356276Y-112449038D01*
X107261038Y-112449038D01*
X107222942Y-112468085D01*
X107203895Y-112487133D01*
X107184847Y-112525228D01*
X107184847Y-112639514D01*
X107203895Y-112677609D01*
X107222942Y-112696657D01*
X103418142Y-122920352D02*
X103551476Y-122729876D01*
X103646714Y-122920352D02*
X103646714Y-122520352D01*
X103494333Y-122520352D01*
X103456238Y-122539400D01*
X103437190Y-122558447D01*
X103418142Y-122596542D01*
X103418142Y-122653685D01*
X103437190Y-122691780D01*
X103456238Y-122710828D01*
X103494333Y-122729876D01*
X103646714Y-122729876D01*
X103265761Y-122558447D02*
X103246714Y-122539400D01*
X103208619Y-122520352D01*
X103113380Y-122520352D01*
X103075285Y-122539400D01*
X103056238Y-122558447D01*
X103037190Y-122596542D01*
X103037190Y-122634638D01*
X103056238Y-122691780D01*
X103284809Y-122920352D01*
X103037190Y-122920352D01*
X102846714Y-122920352D02*
X102770523Y-122920352D01*
X102732428Y-122901304D01*
X102713380Y-122882257D01*
X102675285Y-122825114D01*
X102656238Y-122748923D01*
X102656238Y-122596542D01*
X102675285Y-122558447D01*
X102694333Y-122539400D01*
X102732428Y-122520352D01*
X102808619Y-122520352D01*
X102846714Y-122539400D01*
X102865761Y-122558447D01*
X102884809Y-122596542D01*
X102884809Y-122691780D01*
X102865761Y-122729876D01*
X102846714Y-122748923D01*
X102808619Y-122767971D01*
X102732428Y-122767971D01*
X102694333Y-122748923D01*
X102675285Y-122729876D01*
X102656238Y-122691780D01*
X122354942Y-123828152D02*
X122488276Y-123637676D01*
X122583514Y-123828152D02*
X122583514Y-123428152D01*
X122431133Y-123428152D01*
X122393038Y-123447200D01*
X122373990Y-123466247D01*
X122354942Y-123504342D01*
X122354942Y-123561485D01*
X122373990Y-123599580D01*
X122393038Y-123618628D01*
X122431133Y-123637676D01*
X122583514Y-123637676D01*
X122221609Y-123428152D02*
X121973990Y-123428152D01*
X122107323Y-123580533D01*
X122050180Y-123580533D01*
X122012085Y-123599580D01*
X121993038Y-123618628D01*
X121973990Y-123656723D01*
X121973990Y-123751961D01*
X121993038Y-123790057D01*
X122012085Y-123809104D01*
X122050180Y-123828152D01*
X122164466Y-123828152D01*
X122202561Y-123809104D01*
X122221609Y-123790057D01*
X121726371Y-123428152D02*
X121688276Y-123428152D01*
X121650180Y-123447200D01*
X121631133Y-123466247D01*
X121612085Y-123504342D01*
X121593038Y-123580533D01*
X121593038Y-123675771D01*
X121612085Y-123751961D01*
X121631133Y-123790057D01*
X121650180Y-123809104D01*
X121688276Y-123828152D01*
X121726371Y-123828152D01*
X121764466Y-123809104D01*
X121783514Y-123790057D01*
X121802561Y-123751961D01*
X121821609Y-123675771D01*
X121821609Y-123580533D01*
X121802561Y-123504342D01*
X121783514Y-123466247D01*
X121764466Y-123447200D01*
X121726371Y-123428152D01*
X99912942Y-123072752D02*
X100046276Y-122882276D01*
X100141514Y-123072752D02*
X100141514Y-122672752D01*
X99989133Y-122672752D01*
X99951038Y-122691800D01*
X99931990Y-122710847D01*
X99912942Y-122748942D01*
X99912942Y-122806085D01*
X99931990Y-122844180D01*
X99951038Y-122863228D01*
X99989133Y-122882276D01*
X100141514Y-122882276D01*
X99531990Y-123072752D02*
X99760561Y-123072752D01*
X99646276Y-123072752D02*
X99646276Y-122672752D01*
X99684371Y-122729895D01*
X99722466Y-122767990D01*
X99760561Y-122787038D01*
X99170085Y-122672752D02*
X99360561Y-122672752D01*
X99379609Y-122863228D01*
X99360561Y-122844180D01*
X99322466Y-122825133D01*
X99227228Y-122825133D01*
X99189133Y-122844180D01*
X99170085Y-122863228D01*
X99151038Y-122901323D01*
X99151038Y-122996561D01*
X99170085Y-123034657D01*
X99189133Y-123053704D01*
X99227228Y-123072752D01*
X99322466Y-123072752D01*
X99360561Y-123053704D01*
X99379609Y-123034657D01*
X101398057Y-121383447D02*
X101264723Y-121573923D01*
X101169485Y-121383447D02*
X101169485Y-121783447D01*
X101321866Y-121783447D01*
X101359961Y-121764400D01*
X101379009Y-121745352D01*
X101398057Y-121707257D01*
X101398057Y-121650114D01*
X101379009Y-121612019D01*
X101359961Y-121592971D01*
X101321866Y-121573923D01*
X101169485Y-121573923D01*
X101779009Y-121383447D02*
X101550438Y-121383447D01*
X101664723Y-121383447D02*
X101664723Y-121783447D01*
X101626628Y-121726304D01*
X101588533Y-121688209D01*
X101550438Y-121669161D01*
X102121866Y-121650114D02*
X102121866Y-121383447D01*
X102026628Y-121802495D02*
X101931390Y-121516780D01*
X102179009Y-121516780D01*
X100700342Y-118297552D02*
X100833676Y-118107076D01*
X100928914Y-118297552D02*
X100928914Y-117897552D01*
X100776533Y-117897552D01*
X100738438Y-117916600D01*
X100719390Y-117935647D01*
X100700342Y-117973742D01*
X100700342Y-118030885D01*
X100719390Y-118068980D01*
X100738438Y-118088028D01*
X100776533Y-118107076D01*
X100928914Y-118107076D01*
X100319390Y-118297552D02*
X100547961Y-118297552D01*
X100433676Y-118297552D02*
X100433676Y-117897552D01*
X100471771Y-117954695D01*
X100509866Y-117992790D01*
X100547961Y-118011838D01*
X100186057Y-117897552D02*
X99938438Y-117897552D01*
X100071771Y-118049933D01*
X100014628Y-118049933D01*
X99976533Y-118068980D01*
X99957485Y-118088028D01*
X99938438Y-118126123D01*
X99938438Y-118221361D01*
X99957485Y-118259457D01*
X99976533Y-118278504D01*
X100014628Y-118297552D01*
X100128914Y-118297552D01*
X100167009Y-118278504D01*
X100186057Y-118259457D01*
X100776542Y-121116952D02*
X100909876Y-120926476D01*
X101005114Y-121116952D02*
X101005114Y-120716952D01*
X100852733Y-120716952D01*
X100814638Y-120736000D01*
X100795590Y-120755047D01*
X100776542Y-120793142D01*
X100776542Y-120850285D01*
X100795590Y-120888380D01*
X100814638Y-120907428D01*
X100852733Y-120926476D01*
X101005114Y-120926476D01*
X100395590Y-121116952D02*
X100624161Y-121116952D01*
X100509876Y-121116952D02*
X100509876Y-120716952D01*
X100547971Y-120774095D01*
X100586066Y-120812190D01*
X100624161Y-120831238D01*
X100243209Y-120755047D02*
X100224161Y-120736000D01*
X100186066Y-120716952D01*
X100090828Y-120716952D01*
X100052733Y-120736000D01*
X100033685Y-120755047D01*
X100014638Y-120793142D01*
X100014638Y-120831238D01*
X100033685Y-120888380D01*
X100262257Y-121116952D01*
X100014638Y-121116952D01*
X95399247Y-119141866D02*
X95399247Y-119332342D01*
X95799247Y-119332342D01*
X95399247Y-118989485D02*
X95399247Y-118913295D01*
X95418295Y-118875200D01*
X95437342Y-118856152D01*
X95494485Y-118818057D01*
X95570676Y-118799009D01*
X95723057Y-118799009D01*
X95761152Y-118818057D01*
X95780200Y-118837104D01*
X95799247Y-118875200D01*
X95799247Y-118951390D01*
X95780200Y-118989485D01*
X95761152Y-119008533D01*
X95723057Y-119027580D01*
X95627819Y-119027580D01*
X95589723Y-119008533D01*
X95570676Y-118989485D01*
X95551628Y-118951390D01*
X95551628Y-118875200D01*
X95570676Y-118837104D01*
X95589723Y-118818057D01*
X95627819Y-118799009D01*
X95761152Y-121497733D02*
X95761152Y-121307257D01*
X95361152Y-121307257D01*
X95532580Y-121688209D02*
X95513533Y-121650114D01*
X95494485Y-121631066D01*
X95456390Y-121612019D01*
X95437342Y-121612019D01*
X95399247Y-121631066D01*
X95380200Y-121650114D01*
X95361152Y-121688209D01*
X95361152Y-121764400D01*
X95380200Y-121802495D01*
X95399247Y-121821542D01*
X95437342Y-121840590D01*
X95456390Y-121840590D01*
X95494485Y-121821542D01*
X95513533Y-121802495D01*
X95532580Y-121764400D01*
X95532580Y-121688209D01*
X95551628Y-121650114D01*
X95570676Y-121631066D01*
X95608771Y-121612019D01*
X95684961Y-121612019D01*
X95723057Y-121631066D01*
X95742104Y-121650114D01*
X95761152Y-121688209D01*
X95761152Y-121764400D01*
X95742104Y-121802495D01*
X95723057Y-121821542D01*
X95684961Y-121840590D01*
X95608771Y-121840590D01*
X95570676Y-121821542D01*
X95551628Y-121802495D01*
X95532580Y-121764400D01*
X87518866Y-113820552D02*
X87709342Y-113820552D01*
X87709342Y-113420552D01*
X87423628Y-113420552D02*
X87156961Y-113420552D01*
X87328390Y-113820552D01*
X97729666Y-124005952D02*
X97920142Y-124005952D01*
X97920142Y-123605952D01*
X97424904Y-123605952D02*
X97501095Y-123605952D01*
X97539190Y-123625000D01*
X97558238Y-123644047D01*
X97596333Y-123701190D01*
X97615380Y-123777380D01*
X97615380Y-123929761D01*
X97596333Y-123967857D01*
X97577285Y-123986904D01*
X97539190Y-124005952D01*
X97463000Y-124005952D01*
X97424904Y-123986904D01*
X97405857Y-123967857D01*
X97386809Y-123929761D01*
X97386809Y-123834523D01*
X97405857Y-123796428D01*
X97424904Y-123777380D01*
X97463000Y-123758333D01*
X97539190Y-123758333D01*
X97577285Y-123777380D01*
X97596333Y-123796428D01*
X97615380Y-123834523D01*
X97805866Y-117224152D02*
X97996342Y-117224152D01*
X97996342Y-116824152D01*
X97482057Y-116824152D02*
X97672533Y-116824152D01*
X97691580Y-117014628D01*
X97672533Y-116995580D01*
X97634438Y-116976533D01*
X97539200Y-116976533D01*
X97501104Y-116995580D01*
X97482057Y-117014628D01*
X97463009Y-117052723D01*
X97463009Y-117147961D01*
X97482057Y-117186057D01*
X97501104Y-117205104D01*
X97539200Y-117224152D01*
X97634438Y-117224152D01*
X97672533Y-117205104D01*
X97691580Y-117186057D01*
X87468066Y-121567552D02*
X87658542Y-121567552D01*
X87658542Y-121167552D01*
X87163304Y-121300885D02*
X87163304Y-121567552D01*
X87258542Y-121148504D02*
X87353780Y-121434219D01*
X87106161Y-121434219D01*
X111185333Y-115973247D02*
X110994857Y-115973247D01*
X110994857Y-116373247D01*
X111280571Y-116373247D02*
X111528190Y-116373247D01*
X111394857Y-116220866D01*
X111452000Y-116220866D01*
X111490095Y-116201819D01*
X111509142Y-116182771D01*
X111528190Y-116144676D01*
X111528190Y-116049438D01*
X111509142Y-116011342D01*
X111490095Y-115992295D01*
X111452000Y-115973247D01*
X111337714Y-115973247D01*
X111299619Y-115992295D01*
X111280571Y-116011342D01*
X113807866Y-120424552D02*
X113998342Y-120424552D01*
X113998342Y-120024552D01*
X113693580Y-120062647D02*
X113674533Y-120043600D01*
X113636438Y-120024552D01*
X113541200Y-120024552D01*
X113503104Y-120043600D01*
X113484057Y-120062647D01*
X113465009Y-120100742D01*
X113465009Y-120138838D01*
X113484057Y-120195980D01*
X113712628Y-120424552D01*
X113465009Y-120424552D01*
X117484533Y-121358047D02*
X117294057Y-121358047D01*
X117294057Y-121758047D01*
X117827390Y-121358047D02*
X117598819Y-121358047D01*
X117713104Y-121358047D02*
X117713104Y-121758047D01*
X117675009Y-121700904D01*
X117636914Y-121662809D01*
X117598819Y-121643761D01*
X122350542Y-123180457D02*
X122369590Y-123199504D01*
X122426733Y-123218552D01*
X122464828Y-123218552D01*
X122521971Y-123199504D01*
X122560066Y-123161409D01*
X122579114Y-123123314D01*
X122598161Y-123047123D01*
X122598161Y-122989980D01*
X122579114Y-122913790D01*
X122560066Y-122875695D01*
X122521971Y-122837600D01*
X122464828Y-122818552D01*
X122426733Y-122818552D01*
X122369590Y-122837600D01*
X122350542Y-122856647D01*
X122217209Y-122818552D02*
X121950542Y-122818552D01*
X122121971Y-123218552D01*
X121626733Y-122951885D02*
X121626733Y-123218552D01*
X121721971Y-122799504D02*
X121817209Y-123085219D01*
X121569590Y-123085219D01*
X122354942Y-122418457D02*
X122373990Y-122437504D01*
X122431133Y-122456552D01*
X122469228Y-122456552D01*
X122526371Y-122437504D01*
X122564466Y-122399409D01*
X122583514Y-122361314D01*
X122602561Y-122285123D01*
X122602561Y-122227980D01*
X122583514Y-122151790D01*
X122564466Y-122113695D01*
X122526371Y-122075600D01*
X122469228Y-122056552D01*
X122431133Y-122056552D01*
X122373990Y-122075600D01*
X122354942Y-122094647D01*
X122221609Y-122056552D02*
X121954942Y-122056552D01*
X122126371Y-122456552D01*
X121840657Y-122056552D02*
X121593038Y-122056552D01*
X121726371Y-122208933D01*
X121669228Y-122208933D01*
X121631133Y-122227980D01*
X121612085Y-122247028D01*
X121593038Y-122285123D01*
X121593038Y-122380361D01*
X121612085Y-122418457D01*
X121631133Y-122437504D01*
X121669228Y-122456552D01*
X121783514Y-122456552D01*
X121821609Y-122437504D01*
X121840657Y-122418457D01*
X104529457Y-124272942D02*
X104510409Y-124253895D01*
X104453266Y-124234847D01*
X104415171Y-124234847D01*
X104358028Y-124253895D01*
X104319933Y-124291990D01*
X104300885Y-124330085D01*
X104281838Y-124406276D01*
X104281838Y-124463419D01*
X104300885Y-124539609D01*
X104319933Y-124577704D01*
X104358028Y-124615800D01*
X104415171Y-124634847D01*
X104453266Y-124634847D01*
X104510409Y-124615800D01*
X104529457Y-124596752D01*
X104662790Y-124634847D02*
X104929457Y-124634847D01*
X104758028Y-124234847D01*
X105062790Y-124596752D02*
X105081838Y-124615800D01*
X105119933Y-124634847D01*
X105215171Y-124634847D01*
X105253266Y-124615800D01*
X105272314Y-124596752D01*
X105291361Y-124558657D01*
X105291361Y-124520561D01*
X105272314Y-124463419D01*
X105043742Y-124234847D01*
X105291361Y-124234847D01*
X99887542Y-116659257D02*
X99906590Y-116678304D01*
X99963733Y-116697352D01*
X100001828Y-116697352D01*
X100058971Y-116678304D01*
X100097066Y-116640209D01*
X100116114Y-116602114D01*
X100135161Y-116525923D01*
X100135161Y-116468780D01*
X100116114Y-116392590D01*
X100097066Y-116354495D01*
X100058971Y-116316400D01*
X100001828Y-116297352D01*
X99963733Y-116297352D01*
X99906590Y-116316400D01*
X99887542Y-116335447D01*
X99754209Y-116297352D02*
X99487542Y-116297352D01*
X99658971Y-116697352D01*
X99125638Y-116697352D02*
X99354209Y-116697352D01*
X99239923Y-116697352D02*
X99239923Y-116297352D01*
X99278019Y-116354495D01*
X99316114Y-116392590D01*
X99354209Y-116411638D01*
X107532942Y-119453257D02*
X107551990Y-119472304D01*
X107609133Y-119491352D01*
X107647228Y-119491352D01*
X107704371Y-119472304D01*
X107742466Y-119434209D01*
X107761514Y-119396114D01*
X107780561Y-119319923D01*
X107780561Y-119262780D01*
X107761514Y-119186590D01*
X107742466Y-119148495D01*
X107704371Y-119110400D01*
X107647228Y-119091352D01*
X107609133Y-119091352D01*
X107551990Y-119110400D01*
X107532942Y-119129447D01*
X107399609Y-119091352D02*
X107132942Y-119091352D01*
X107304371Y-119491352D01*
X106904371Y-119091352D02*
X106866276Y-119091352D01*
X106828180Y-119110400D01*
X106809133Y-119129447D01*
X106790085Y-119167542D01*
X106771038Y-119243733D01*
X106771038Y-119338971D01*
X106790085Y-119415161D01*
X106809133Y-119453257D01*
X106828180Y-119472304D01*
X106866276Y-119491352D01*
X106904371Y-119491352D01*
X106942466Y-119472304D01*
X106961514Y-119453257D01*
X106980561Y-119415161D01*
X106999609Y-119338971D01*
X106999609Y-119243733D01*
X106980561Y-119167542D01*
X106961514Y-119129447D01*
X106942466Y-119110400D01*
X106904371Y-119091352D01*
X100776542Y-121688457D02*
X100795590Y-121707504D01*
X100852733Y-121726552D01*
X100890828Y-121726552D01*
X100947971Y-121707504D01*
X100986066Y-121669409D01*
X101005114Y-121631314D01*
X101024161Y-121555123D01*
X101024161Y-121497980D01*
X101005114Y-121421790D01*
X100986066Y-121383695D01*
X100947971Y-121345600D01*
X100890828Y-121326552D01*
X100852733Y-121326552D01*
X100795590Y-121345600D01*
X100776542Y-121364647D01*
X100433685Y-121326552D02*
X100509876Y-121326552D01*
X100547971Y-121345600D01*
X100567019Y-121364647D01*
X100605114Y-121421790D01*
X100624161Y-121497980D01*
X100624161Y-121650361D01*
X100605114Y-121688457D01*
X100586066Y-121707504D01*
X100547971Y-121726552D01*
X100471780Y-121726552D01*
X100433685Y-121707504D01*
X100414638Y-121688457D01*
X100395590Y-121650361D01*
X100395590Y-121555123D01*
X100414638Y-121517028D01*
X100433685Y-121497980D01*
X100471780Y-121478933D01*
X100547971Y-121478933D01*
X100586066Y-121497980D01*
X100605114Y-121517028D01*
X100624161Y-121555123D01*
X100205114Y-121726552D02*
X100128923Y-121726552D01*
X100090828Y-121707504D01*
X100071780Y-121688457D01*
X100033685Y-121631314D01*
X100014638Y-121555123D01*
X100014638Y-121402742D01*
X100033685Y-121364647D01*
X100052733Y-121345600D01*
X100090828Y-121326552D01*
X100167019Y-121326552D01*
X100205114Y-121345600D01*
X100224161Y-121364647D01*
X100243209Y-121402742D01*
X100243209Y-121497980D01*
X100224161Y-121536076D01*
X100205114Y-121555123D01*
X100167019Y-121574171D01*
X100090828Y-121574171D01*
X100052733Y-121555123D01*
X100033685Y-121536076D01*
X100014638Y-121497980D01*
X107507542Y-121078857D02*
X107526590Y-121097904D01*
X107583733Y-121116952D01*
X107621828Y-121116952D01*
X107678971Y-121097904D01*
X107717066Y-121059809D01*
X107736114Y-121021714D01*
X107755161Y-120945523D01*
X107755161Y-120888380D01*
X107736114Y-120812190D01*
X107717066Y-120774095D01*
X107678971Y-120736000D01*
X107621828Y-120716952D01*
X107583733Y-120716952D01*
X107526590Y-120736000D01*
X107507542Y-120755047D01*
X107164685Y-120716952D02*
X107240876Y-120716952D01*
X107278971Y-120736000D01*
X107298019Y-120755047D01*
X107336114Y-120812190D01*
X107355161Y-120888380D01*
X107355161Y-121040761D01*
X107336114Y-121078857D01*
X107317066Y-121097904D01*
X107278971Y-121116952D01*
X107202780Y-121116952D01*
X107164685Y-121097904D01*
X107145638Y-121078857D01*
X107126590Y-121040761D01*
X107126590Y-120945523D01*
X107145638Y-120907428D01*
X107164685Y-120888380D01*
X107202780Y-120869333D01*
X107278971Y-120869333D01*
X107317066Y-120888380D01*
X107336114Y-120907428D01*
X107355161Y-120945523D01*
X106898019Y-120888380D02*
X106936114Y-120869333D01*
X106955161Y-120850285D01*
X106974209Y-120812190D01*
X106974209Y-120793142D01*
X106955161Y-120755047D01*
X106936114Y-120736000D01*
X106898019Y-120716952D01*
X106821828Y-120716952D01*
X106783733Y-120736000D01*
X106764685Y-120755047D01*
X106745638Y-120793142D01*
X106745638Y-120812190D01*
X106764685Y-120850285D01*
X106783733Y-120869333D01*
X106821828Y-120888380D01*
X106898019Y-120888380D01*
X106936114Y-120907428D01*
X106955161Y-120926476D01*
X106974209Y-120964571D01*
X106974209Y-121040761D01*
X106955161Y-121078857D01*
X106936114Y-121097904D01*
X106898019Y-121116952D01*
X106821828Y-121116952D01*
X106783733Y-121097904D01*
X106764685Y-121078857D01*
X106745638Y-121040761D01*
X106745638Y-120964571D01*
X106764685Y-120926476D01*
X106783733Y-120907428D01*
X106821828Y-120888380D01*
X101252857Y-114951142D02*
X101233809Y-114932095D01*
X101176666Y-114913047D01*
X101138571Y-114913047D01*
X101081428Y-114932095D01*
X101043333Y-114970190D01*
X101024285Y-115008285D01*
X101005238Y-115084476D01*
X101005238Y-115141619D01*
X101024285Y-115217809D01*
X101043333Y-115255904D01*
X101081428Y-115294000D01*
X101138571Y-115313047D01*
X101176666Y-115313047D01*
X101233809Y-115294000D01*
X101252857Y-115274952D01*
X101595714Y-115313047D02*
X101519523Y-115313047D01*
X101481428Y-115294000D01*
X101462380Y-115274952D01*
X101424285Y-115217809D01*
X101405238Y-115141619D01*
X101405238Y-114989238D01*
X101424285Y-114951142D01*
X101443333Y-114932095D01*
X101481428Y-114913047D01*
X101557619Y-114913047D01*
X101595714Y-114932095D01*
X101614761Y-114951142D01*
X101633809Y-114989238D01*
X101633809Y-115084476D01*
X101614761Y-115122571D01*
X101595714Y-115141619D01*
X101557619Y-115160666D01*
X101481428Y-115160666D01*
X101443333Y-115141619D01*
X101424285Y-115122571D01*
X101405238Y-115084476D01*
X101767142Y-115313047D02*
X102033809Y-115313047D01*
X101862380Y-114913047D01*
X105463942Y-114544457D02*
X105482990Y-114563504D01*
X105540133Y-114582552D01*
X105578228Y-114582552D01*
X105635371Y-114563504D01*
X105673466Y-114525409D01*
X105692514Y-114487314D01*
X105711561Y-114411123D01*
X105711561Y-114353980D01*
X105692514Y-114277790D01*
X105673466Y-114239695D01*
X105635371Y-114201600D01*
X105578228Y-114182552D01*
X105540133Y-114182552D01*
X105482990Y-114201600D01*
X105463942Y-114220647D01*
X105121085Y-114182552D02*
X105197276Y-114182552D01*
X105235371Y-114201600D01*
X105254419Y-114220647D01*
X105292514Y-114277790D01*
X105311561Y-114353980D01*
X105311561Y-114506361D01*
X105292514Y-114544457D01*
X105273466Y-114563504D01*
X105235371Y-114582552D01*
X105159180Y-114582552D01*
X105121085Y-114563504D01*
X105102038Y-114544457D01*
X105082990Y-114506361D01*
X105082990Y-114411123D01*
X105102038Y-114373028D01*
X105121085Y-114353980D01*
X105159180Y-114334933D01*
X105235371Y-114334933D01*
X105273466Y-114353980D01*
X105292514Y-114373028D01*
X105311561Y-114411123D01*
X104740133Y-114182552D02*
X104816323Y-114182552D01*
X104854419Y-114201600D01*
X104873466Y-114220647D01*
X104911561Y-114277790D01*
X104930609Y-114353980D01*
X104930609Y-114506361D01*
X104911561Y-114544457D01*
X104892514Y-114563504D01*
X104854419Y-114582552D01*
X104778228Y-114582552D01*
X104740133Y-114563504D01*
X104721085Y-114544457D01*
X104702038Y-114506361D01*
X104702038Y-114411123D01*
X104721085Y-114373028D01*
X104740133Y-114353980D01*
X104778228Y-114334933D01*
X104854419Y-114334933D01*
X104892514Y-114353980D01*
X104911561Y-114373028D01*
X104930609Y-114411123D01*
X105463942Y-113960257D02*
X105482990Y-113979304D01*
X105540133Y-113998352D01*
X105578228Y-113998352D01*
X105635371Y-113979304D01*
X105673466Y-113941209D01*
X105692514Y-113903114D01*
X105711561Y-113826923D01*
X105711561Y-113769780D01*
X105692514Y-113693590D01*
X105673466Y-113655495D01*
X105635371Y-113617400D01*
X105578228Y-113598352D01*
X105540133Y-113598352D01*
X105482990Y-113617400D01*
X105463942Y-113636447D01*
X105121085Y-113598352D02*
X105197276Y-113598352D01*
X105235371Y-113617400D01*
X105254419Y-113636447D01*
X105292514Y-113693590D01*
X105311561Y-113769780D01*
X105311561Y-113922161D01*
X105292514Y-113960257D01*
X105273466Y-113979304D01*
X105235371Y-113998352D01*
X105159180Y-113998352D01*
X105121085Y-113979304D01*
X105102038Y-113960257D01*
X105082990Y-113922161D01*
X105082990Y-113826923D01*
X105102038Y-113788828D01*
X105121085Y-113769780D01*
X105159180Y-113750733D01*
X105235371Y-113750733D01*
X105273466Y-113769780D01*
X105292514Y-113788828D01*
X105311561Y-113826923D01*
X104721085Y-113598352D02*
X104911561Y-113598352D01*
X104930609Y-113788828D01*
X104911561Y-113769780D01*
X104873466Y-113750733D01*
X104778228Y-113750733D01*
X104740133Y-113769780D01*
X104721085Y-113788828D01*
X104702038Y-113826923D01*
X104702038Y-113922161D01*
X104721085Y-113960257D01*
X104740133Y-113979304D01*
X104778228Y-113998352D01*
X104873466Y-113998352D01*
X104911561Y-113979304D01*
X104930609Y-113960257D01*
X102351342Y-117776857D02*
X102370390Y-117795904D01*
X102427533Y-117814952D01*
X102465628Y-117814952D01*
X102522771Y-117795904D01*
X102560866Y-117757809D01*
X102579914Y-117719714D01*
X102598961Y-117643523D01*
X102598961Y-117586380D01*
X102579914Y-117510190D01*
X102560866Y-117472095D01*
X102522771Y-117434000D01*
X102465628Y-117414952D01*
X102427533Y-117414952D01*
X102370390Y-117434000D01*
X102351342Y-117453047D01*
X102008485Y-117414952D02*
X102084676Y-117414952D01*
X102122771Y-117434000D01*
X102141819Y-117453047D01*
X102179914Y-117510190D01*
X102198961Y-117586380D01*
X102198961Y-117738761D01*
X102179914Y-117776857D01*
X102160866Y-117795904D01*
X102122771Y-117814952D01*
X102046580Y-117814952D01*
X102008485Y-117795904D01*
X101989438Y-117776857D01*
X101970390Y-117738761D01*
X101970390Y-117643523D01*
X101989438Y-117605428D01*
X102008485Y-117586380D01*
X102046580Y-117567333D01*
X102122771Y-117567333D01*
X102160866Y-117586380D01*
X102179914Y-117605428D01*
X102198961Y-117643523D01*
X101627533Y-117548285D02*
X101627533Y-117814952D01*
X101722771Y-117395904D02*
X101818009Y-117681619D01*
X101570390Y-117681619D01*
X99887542Y-117268857D02*
X99906590Y-117287904D01*
X99963733Y-117306952D01*
X100001828Y-117306952D01*
X100058971Y-117287904D01*
X100097066Y-117249809D01*
X100116114Y-117211714D01*
X100135161Y-117135523D01*
X100135161Y-117078380D01*
X100116114Y-117002190D01*
X100097066Y-116964095D01*
X100058971Y-116926000D01*
X100001828Y-116906952D01*
X99963733Y-116906952D01*
X99906590Y-116926000D01*
X99887542Y-116945047D01*
X99544685Y-116906952D02*
X99620876Y-116906952D01*
X99658971Y-116926000D01*
X99678019Y-116945047D01*
X99716114Y-117002190D01*
X99735161Y-117078380D01*
X99735161Y-117230761D01*
X99716114Y-117268857D01*
X99697066Y-117287904D01*
X99658971Y-117306952D01*
X99582780Y-117306952D01*
X99544685Y-117287904D01*
X99525638Y-117268857D01*
X99506590Y-117230761D01*
X99506590Y-117135523D01*
X99525638Y-117097428D01*
X99544685Y-117078380D01*
X99582780Y-117059333D01*
X99658971Y-117059333D01*
X99697066Y-117078380D01*
X99716114Y-117097428D01*
X99735161Y-117135523D01*
X99373257Y-116906952D02*
X99125638Y-116906952D01*
X99258971Y-117059333D01*
X99201828Y-117059333D01*
X99163733Y-117078380D01*
X99144685Y-117097428D01*
X99125638Y-117135523D01*
X99125638Y-117230761D01*
X99144685Y-117268857D01*
X99163733Y-117287904D01*
X99201828Y-117306952D01*
X99316114Y-117306952D01*
X99354209Y-117287904D01*
X99373257Y-117268857D01*
X103476457Y-114080942D02*
X103457409Y-114061895D01*
X103400266Y-114042847D01*
X103362171Y-114042847D01*
X103305028Y-114061895D01*
X103266933Y-114099990D01*
X103247885Y-114138085D01*
X103228838Y-114214276D01*
X103228838Y-114271419D01*
X103247885Y-114347609D01*
X103266933Y-114385704D01*
X103305028Y-114423800D01*
X103362171Y-114442847D01*
X103400266Y-114442847D01*
X103457409Y-114423800D01*
X103476457Y-114404752D01*
X103819314Y-114442847D02*
X103743123Y-114442847D01*
X103705028Y-114423800D01*
X103685980Y-114404752D01*
X103647885Y-114347609D01*
X103628838Y-114271419D01*
X103628838Y-114119038D01*
X103647885Y-114080942D01*
X103666933Y-114061895D01*
X103705028Y-114042847D01*
X103781219Y-114042847D01*
X103819314Y-114061895D01*
X103838361Y-114080942D01*
X103857409Y-114119038D01*
X103857409Y-114214276D01*
X103838361Y-114252371D01*
X103819314Y-114271419D01*
X103781219Y-114290466D01*
X103705028Y-114290466D01*
X103666933Y-114271419D01*
X103647885Y-114252371D01*
X103628838Y-114214276D01*
X104009790Y-114404752D02*
X104028838Y-114423800D01*
X104066933Y-114442847D01*
X104162171Y-114442847D01*
X104200266Y-114423800D01*
X104219314Y-114404752D01*
X104238361Y-114366657D01*
X104238361Y-114328561D01*
X104219314Y-114271419D01*
X103990742Y-114042847D01*
X104238361Y-114042847D01*
X103640457Y-115554142D02*
X103621409Y-115535095D01*
X103564266Y-115516047D01*
X103526171Y-115516047D01*
X103469028Y-115535095D01*
X103430933Y-115573190D01*
X103411885Y-115611285D01*
X103392838Y-115687476D01*
X103392838Y-115744619D01*
X103411885Y-115820809D01*
X103430933Y-115858904D01*
X103469028Y-115897000D01*
X103526171Y-115916047D01*
X103564266Y-115916047D01*
X103621409Y-115897000D01*
X103640457Y-115877952D01*
X103983314Y-115916047D02*
X103907123Y-115916047D01*
X103869028Y-115897000D01*
X103849980Y-115877952D01*
X103811885Y-115820809D01*
X103792838Y-115744619D01*
X103792838Y-115592238D01*
X103811885Y-115554142D01*
X103830933Y-115535095D01*
X103869028Y-115516047D01*
X103945219Y-115516047D01*
X103983314Y-115535095D01*
X104002361Y-115554142D01*
X104021409Y-115592238D01*
X104021409Y-115687476D01*
X104002361Y-115725571D01*
X103983314Y-115744619D01*
X103945219Y-115763666D01*
X103869028Y-115763666D01*
X103830933Y-115744619D01*
X103811885Y-115725571D01*
X103792838Y-115687476D01*
X104269028Y-115916047D02*
X104307123Y-115916047D01*
X104345219Y-115897000D01*
X104364266Y-115877952D01*
X104383314Y-115839857D01*
X104402361Y-115763666D01*
X104402361Y-115668428D01*
X104383314Y-115592238D01*
X104364266Y-115554142D01*
X104345219Y-115535095D01*
X104307123Y-115516047D01*
X104269028Y-115516047D01*
X104230933Y-115535095D01*
X104211885Y-115554142D01*
X104192838Y-115592238D01*
X104173790Y-115668428D01*
X104173790Y-115763666D01*
X104192838Y-115839857D01*
X104211885Y-115877952D01*
X104230933Y-115897000D01*
X104269028Y-115916047D01*
X103640457Y-114944542D02*
X103621409Y-114925495D01*
X103564266Y-114906447D01*
X103526171Y-114906447D01*
X103469028Y-114925495D01*
X103430933Y-114963590D01*
X103411885Y-115001685D01*
X103392838Y-115077876D01*
X103392838Y-115135019D01*
X103411885Y-115211209D01*
X103430933Y-115249304D01*
X103469028Y-115287400D01*
X103526171Y-115306447D01*
X103564266Y-115306447D01*
X103621409Y-115287400D01*
X103640457Y-115268352D01*
X104002361Y-115306447D02*
X103811885Y-115306447D01*
X103792838Y-115115971D01*
X103811885Y-115135019D01*
X103849980Y-115154066D01*
X103945219Y-115154066D01*
X103983314Y-115135019D01*
X104002361Y-115115971D01*
X104021409Y-115077876D01*
X104021409Y-114982638D01*
X104002361Y-114944542D01*
X103983314Y-114925495D01*
X103945219Y-114906447D01*
X103849980Y-114906447D01*
X103811885Y-114925495D01*
X103792838Y-114944542D01*
X104211885Y-114906447D02*
X104288076Y-114906447D01*
X104326171Y-114925495D01*
X104345219Y-114944542D01*
X104383314Y-115001685D01*
X104402361Y-115077876D01*
X104402361Y-115230257D01*
X104383314Y-115268352D01*
X104364266Y-115287400D01*
X104326171Y-115306447D01*
X104249980Y-115306447D01*
X104211885Y-115287400D01*
X104192838Y-115268352D01*
X104173790Y-115230257D01*
X104173790Y-115135019D01*
X104192838Y-115096923D01*
X104211885Y-115077876D01*
X104249980Y-115058828D01*
X104326171Y-115058828D01*
X104364266Y-115077876D01*
X104383314Y-115096923D01*
X104402361Y-115135019D01*
X107532942Y-117903857D02*
X107551990Y-117922904D01*
X107609133Y-117941952D01*
X107647228Y-117941952D01*
X107704371Y-117922904D01*
X107742466Y-117884809D01*
X107761514Y-117846714D01*
X107780561Y-117770523D01*
X107780561Y-117713380D01*
X107761514Y-117637190D01*
X107742466Y-117599095D01*
X107704371Y-117561000D01*
X107647228Y-117541952D01*
X107609133Y-117541952D01*
X107551990Y-117561000D01*
X107532942Y-117580047D01*
X107171038Y-117541952D02*
X107361514Y-117541952D01*
X107380561Y-117732428D01*
X107361514Y-117713380D01*
X107323419Y-117694333D01*
X107228180Y-117694333D01*
X107190085Y-117713380D01*
X107171038Y-117732428D01*
X107151990Y-117770523D01*
X107151990Y-117865761D01*
X107171038Y-117903857D01*
X107190085Y-117922904D01*
X107228180Y-117941952D01*
X107323419Y-117941952D01*
X107361514Y-117922904D01*
X107380561Y-117903857D01*
X106923419Y-117713380D02*
X106961514Y-117694333D01*
X106980561Y-117675285D01*
X106999609Y-117637190D01*
X106999609Y-117618142D01*
X106980561Y-117580047D01*
X106961514Y-117561000D01*
X106923419Y-117541952D01*
X106847228Y-117541952D01*
X106809133Y-117561000D01*
X106790085Y-117580047D01*
X106771038Y-117618142D01*
X106771038Y-117637190D01*
X106790085Y-117675285D01*
X106809133Y-117694333D01*
X106847228Y-117713380D01*
X106923419Y-117713380D01*
X106961514Y-117732428D01*
X106980561Y-117751476D01*
X106999609Y-117789571D01*
X106999609Y-117865761D01*
X106980561Y-117903857D01*
X106961514Y-117922904D01*
X106923419Y-117941952D01*
X106847228Y-117941952D01*
X106809133Y-117922904D01*
X106790085Y-117903857D01*
X106771038Y-117865761D01*
X106771038Y-117789571D01*
X106790085Y-117751476D01*
X106809133Y-117732428D01*
X106847228Y-117713380D01*
X101907942Y-121072257D02*
X101926990Y-121091304D01*
X101984133Y-121110352D01*
X102022228Y-121110352D01*
X102079371Y-121091304D01*
X102117466Y-121053209D01*
X102136514Y-121015114D01*
X102155561Y-120938923D01*
X102155561Y-120881780D01*
X102136514Y-120805590D01*
X102117466Y-120767495D01*
X102079371Y-120729400D01*
X102022228Y-120710352D01*
X101984133Y-120710352D01*
X101926990Y-120729400D01*
X101907942Y-120748447D01*
X101546038Y-120710352D02*
X101736514Y-120710352D01*
X101755561Y-120900828D01*
X101736514Y-120881780D01*
X101698419Y-120862733D01*
X101603180Y-120862733D01*
X101565085Y-120881780D01*
X101546038Y-120900828D01*
X101526990Y-120938923D01*
X101526990Y-121034161D01*
X101546038Y-121072257D01*
X101565085Y-121091304D01*
X101603180Y-121110352D01*
X101698419Y-121110352D01*
X101736514Y-121091304D01*
X101755561Y-121072257D01*
X101393657Y-120710352D02*
X101126990Y-120710352D01*
X101298419Y-121110352D01*
X99887542Y-123866257D02*
X99906590Y-123885304D01*
X99963733Y-123904352D01*
X100001828Y-123904352D01*
X100058971Y-123885304D01*
X100097066Y-123847209D01*
X100116114Y-123809114D01*
X100135161Y-123732923D01*
X100135161Y-123675780D01*
X100116114Y-123599590D01*
X100097066Y-123561495D01*
X100058971Y-123523400D01*
X100001828Y-123504352D01*
X99963733Y-123504352D01*
X99906590Y-123523400D01*
X99887542Y-123542447D01*
X99525638Y-123504352D02*
X99716114Y-123504352D01*
X99735161Y-123694828D01*
X99716114Y-123675780D01*
X99678019Y-123656733D01*
X99582780Y-123656733D01*
X99544685Y-123675780D01*
X99525638Y-123694828D01*
X99506590Y-123732923D01*
X99506590Y-123828161D01*
X99525638Y-123866257D01*
X99544685Y-123885304D01*
X99582780Y-123904352D01*
X99678019Y-123904352D01*
X99716114Y-123885304D01*
X99735161Y-123866257D01*
X99163733Y-123637685D02*
X99163733Y-123904352D01*
X99258971Y-123485304D02*
X99354209Y-123771019D01*
X99106590Y-123771019D01*
X99887542Y-124482457D02*
X99906590Y-124501504D01*
X99963733Y-124520552D01*
X100001828Y-124520552D01*
X100058971Y-124501504D01*
X100097066Y-124463409D01*
X100116114Y-124425314D01*
X100135161Y-124349123D01*
X100135161Y-124291980D01*
X100116114Y-124215790D01*
X100097066Y-124177695D01*
X100058971Y-124139600D01*
X100001828Y-124120552D01*
X99963733Y-124120552D01*
X99906590Y-124139600D01*
X99887542Y-124158647D01*
X99525638Y-124120552D02*
X99716114Y-124120552D01*
X99735161Y-124311028D01*
X99716114Y-124291980D01*
X99678019Y-124272933D01*
X99582780Y-124272933D01*
X99544685Y-124291980D01*
X99525638Y-124311028D01*
X99506590Y-124349123D01*
X99506590Y-124444361D01*
X99525638Y-124482457D01*
X99544685Y-124501504D01*
X99582780Y-124520552D01*
X99678019Y-124520552D01*
X99716114Y-124501504D01*
X99735161Y-124482457D01*
X99373257Y-124120552D02*
X99125638Y-124120552D01*
X99258971Y-124272933D01*
X99201828Y-124272933D01*
X99163733Y-124291980D01*
X99144685Y-124311028D01*
X99125638Y-124349123D01*
X99125638Y-124444361D01*
X99144685Y-124482457D01*
X99163733Y-124501504D01*
X99201828Y-124520552D01*
X99316114Y-124520552D01*
X99354209Y-124501504D01*
X99373257Y-124482457D01*
X96815257Y-119173657D02*
X96834304Y-119154609D01*
X96853352Y-119097466D01*
X96853352Y-119059371D01*
X96834304Y-119002228D01*
X96796209Y-118964133D01*
X96758114Y-118945085D01*
X96681923Y-118926038D01*
X96624780Y-118926038D01*
X96548590Y-118945085D01*
X96510495Y-118964133D01*
X96472400Y-119002228D01*
X96453352Y-119059371D01*
X96453352Y-119097466D01*
X96472400Y-119154609D01*
X96491447Y-119173657D01*
X96453352Y-119535561D02*
X96453352Y-119345085D01*
X96643828Y-119326038D01*
X96624780Y-119345085D01*
X96605733Y-119383180D01*
X96605733Y-119478419D01*
X96624780Y-119516514D01*
X96643828Y-119535561D01*
X96681923Y-119554609D01*
X96777161Y-119554609D01*
X96815257Y-119535561D01*
X96834304Y-119516514D01*
X96853352Y-119478419D01*
X96853352Y-119383180D01*
X96834304Y-119345085D01*
X96815257Y-119326038D01*
X96491447Y-119706990D02*
X96472400Y-119726038D01*
X96453352Y-119764133D01*
X96453352Y-119859371D01*
X96472400Y-119897466D01*
X96491447Y-119916514D01*
X96529542Y-119935561D01*
X96567638Y-119935561D01*
X96624780Y-119916514D01*
X96853352Y-119687942D01*
X96853352Y-119935561D01*
X98040857Y-119389542D02*
X98021809Y-119370495D01*
X97964666Y-119351447D01*
X97926571Y-119351447D01*
X97869428Y-119370495D01*
X97831333Y-119408590D01*
X97812285Y-119446685D01*
X97793238Y-119522876D01*
X97793238Y-119580019D01*
X97812285Y-119656209D01*
X97831333Y-119694304D01*
X97869428Y-119732400D01*
X97926571Y-119751447D01*
X97964666Y-119751447D01*
X98021809Y-119732400D01*
X98040857Y-119713352D01*
X98402761Y-119751447D02*
X98212285Y-119751447D01*
X98193238Y-119560971D01*
X98212285Y-119580019D01*
X98250380Y-119599066D01*
X98345619Y-119599066D01*
X98383714Y-119580019D01*
X98402761Y-119560971D01*
X98421809Y-119522876D01*
X98421809Y-119427638D01*
X98402761Y-119389542D01*
X98383714Y-119370495D01*
X98345619Y-119351447D01*
X98250380Y-119351447D01*
X98212285Y-119370495D01*
X98193238Y-119389542D01*
X98802761Y-119351447D02*
X98574190Y-119351447D01*
X98688476Y-119351447D02*
X98688476Y-119751447D01*
X98650380Y-119694304D01*
X98612285Y-119656209D01*
X98574190Y-119637161D01*
X101252857Y-115554142D02*
X101233809Y-115535095D01*
X101176666Y-115516047D01*
X101138571Y-115516047D01*
X101081428Y-115535095D01*
X101043333Y-115573190D01*
X101024285Y-115611285D01*
X101005238Y-115687476D01*
X101005238Y-115744619D01*
X101024285Y-115820809D01*
X101043333Y-115858904D01*
X101081428Y-115897000D01*
X101138571Y-115916047D01*
X101176666Y-115916047D01*
X101233809Y-115897000D01*
X101252857Y-115877952D01*
X101614761Y-115916047D02*
X101424285Y-115916047D01*
X101405238Y-115725571D01*
X101424285Y-115744619D01*
X101462380Y-115763666D01*
X101557619Y-115763666D01*
X101595714Y-115744619D01*
X101614761Y-115725571D01*
X101633809Y-115687476D01*
X101633809Y-115592238D01*
X101614761Y-115554142D01*
X101595714Y-115535095D01*
X101557619Y-115516047D01*
X101462380Y-115516047D01*
X101424285Y-115535095D01*
X101405238Y-115554142D01*
X101881428Y-115916047D02*
X101919523Y-115916047D01*
X101957619Y-115897000D01*
X101976666Y-115877952D01*
X101995714Y-115839857D01*
X102014761Y-115763666D01*
X102014761Y-115668428D01*
X101995714Y-115592238D01*
X101976666Y-115554142D01*
X101957619Y-115535095D01*
X101919523Y-115516047D01*
X101881428Y-115516047D01*
X101843333Y-115535095D01*
X101824285Y-115554142D01*
X101805238Y-115592238D01*
X101786190Y-115668428D01*
X101786190Y-115763666D01*
X101805238Y-115839857D01*
X101824285Y-115877952D01*
X101843333Y-115897000D01*
X101881428Y-115916047D01*
X102300542Y-122266057D02*
X102319590Y-122285104D01*
X102376733Y-122304152D01*
X102414828Y-122304152D01*
X102471971Y-122285104D01*
X102510066Y-122247009D01*
X102529114Y-122208914D01*
X102548161Y-122132723D01*
X102548161Y-122075580D01*
X102529114Y-121999390D01*
X102510066Y-121961295D01*
X102471971Y-121923200D01*
X102414828Y-121904152D01*
X102376733Y-121904152D01*
X102319590Y-121923200D01*
X102300542Y-121942247D01*
X101957685Y-122037485D02*
X101957685Y-122304152D01*
X102052923Y-121885104D02*
X102148161Y-122170819D01*
X101900542Y-122170819D01*
X101729114Y-122304152D02*
X101652923Y-122304152D01*
X101614828Y-122285104D01*
X101595780Y-122266057D01*
X101557685Y-122208914D01*
X101538638Y-122132723D01*
X101538638Y-121980342D01*
X101557685Y-121942247D01*
X101576733Y-121923200D01*
X101614828Y-121904152D01*
X101691019Y-121904152D01*
X101729114Y-121923200D01*
X101748161Y-121942247D01*
X101767209Y-121980342D01*
X101767209Y-122075580D01*
X101748161Y-122113676D01*
X101729114Y-122132723D01*
X101691019Y-122151771D01*
X101614828Y-122151771D01*
X101576733Y-122132723D01*
X101557685Y-122113676D01*
X101538638Y-122075580D01*
X102300542Y-122882257D02*
X102319590Y-122901304D01*
X102376733Y-122920352D01*
X102414828Y-122920352D01*
X102471971Y-122901304D01*
X102510066Y-122863209D01*
X102529114Y-122825114D01*
X102548161Y-122748923D01*
X102548161Y-122691780D01*
X102529114Y-122615590D01*
X102510066Y-122577495D01*
X102471971Y-122539400D01*
X102414828Y-122520352D01*
X102376733Y-122520352D01*
X102319590Y-122539400D01*
X102300542Y-122558447D01*
X101957685Y-122653685D02*
X101957685Y-122920352D01*
X102052923Y-122501304D02*
X102148161Y-122787019D01*
X101900542Y-122787019D01*
X101691019Y-122691780D02*
X101729114Y-122672733D01*
X101748161Y-122653685D01*
X101767209Y-122615590D01*
X101767209Y-122596542D01*
X101748161Y-122558447D01*
X101729114Y-122539400D01*
X101691019Y-122520352D01*
X101614828Y-122520352D01*
X101576733Y-122539400D01*
X101557685Y-122558447D01*
X101538638Y-122596542D01*
X101538638Y-122615590D01*
X101557685Y-122653685D01*
X101576733Y-122672733D01*
X101614828Y-122691780D01*
X101691019Y-122691780D01*
X101729114Y-122710828D01*
X101748161Y-122729876D01*
X101767209Y-122767971D01*
X101767209Y-122844161D01*
X101748161Y-122882257D01*
X101729114Y-122901304D01*
X101691019Y-122920352D01*
X101614828Y-122920352D01*
X101576733Y-122901304D01*
X101557685Y-122882257D01*
X101538638Y-122844161D01*
X101538638Y-122767971D01*
X101557685Y-122729876D01*
X101576733Y-122710828D01*
X101614828Y-122691780D01*
X96529542Y-121452742D02*
X96510495Y-121471790D01*
X96491447Y-121528933D01*
X96491447Y-121567028D01*
X96510495Y-121624171D01*
X96548590Y-121662266D01*
X96586685Y-121681314D01*
X96662876Y-121700361D01*
X96720019Y-121700361D01*
X96796209Y-121681314D01*
X96834304Y-121662266D01*
X96872400Y-121624171D01*
X96891447Y-121567028D01*
X96891447Y-121528933D01*
X96872400Y-121471790D01*
X96853352Y-121452742D01*
X96758114Y-121109885D02*
X96491447Y-121109885D01*
X96910495Y-121205123D02*
X96624780Y-121300361D01*
X96624780Y-121052742D01*
X96891447Y-120938457D02*
X96891447Y-120671790D01*
X96491447Y-120843219D01*
X98015457Y-121218342D02*
X97996409Y-121199295D01*
X97939266Y-121180247D01*
X97901171Y-121180247D01*
X97844028Y-121199295D01*
X97805933Y-121237390D01*
X97786885Y-121275485D01*
X97767838Y-121351676D01*
X97767838Y-121408819D01*
X97786885Y-121485009D01*
X97805933Y-121523104D01*
X97844028Y-121561200D01*
X97901171Y-121580247D01*
X97939266Y-121580247D01*
X97996409Y-121561200D01*
X98015457Y-121542152D01*
X98358314Y-121446914D02*
X98358314Y-121180247D01*
X98263076Y-121599295D02*
X98167838Y-121313580D01*
X98415457Y-121313580D01*
X98739266Y-121580247D02*
X98663076Y-121580247D01*
X98624980Y-121561200D01*
X98605933Y-121542152D01*
X98567838Y-121485009D01*
X98548790Y-121408819D01*
X98548790Y-121256438D01*
X98567838Y-121218342D01*
X98586885Y-121199295D01*
X98624980Y-121180247D01*
X98701171Y-121180247D01*
X98739266Y-121199295D01*
X98758314Y-121218342D01*
X98777361Y-121256438D01*
X98777361Y-121351676D01*
X98758314Y-121389771D01*
X98739266Y-121408819D01*
X98701171Y-121427866D01*
X98624980Y-121427866D01*
X98586885Y-121408819D01*
X98567838Y-121389771D01*
X98548790Y-121351676D01*
X86375857Y-114982657D02*
X86394904Y-114963609D01*
X86413952Y-114906466D01*
X86413952Y-114868371D01*
X86394904Y-114811228D01*
X86356809Y-114773133D01*
X86318714Y-114754085D01*
X86242523Y-114735038D01*
X86185380Y-114735038D01*
X86109190Y-114754085D01*
X86071095Y-114773133D01*
X86033000Y-114811228D01*
X86013952Y-114868371D01*
X86013952Y-114906466D01*
X86033000Y-114963609D01*
X86052047Y-114982657D01*
X86147285Y-115325514D02*
X86413952Y-115325514D01*
X85994904Y-115230276D02*
X86280619Y-115135038D01*
X86280619Y-115382657D01*
X86013952Y-115725514D02*
X86013952Y-115535038D01*
X86204428Y-115515990D01*
X86185380Y-115535038D01*
X86166333Y-115573133D01*
X86166333Y-115668371D01*
X86185380Y-115706466D01*
X86204428Y-115725514D01*
X86242523Y-115744561D01*
X86337761Y-115744561D01*
X86375857Y-115725514D01*
X86394904Y-115706466D01*
X86413952Y-115668371D01*
X86413952Y-115573133D01*
X86394904Y-115535038D01*
X86375857Y-115515990D01*
X97761457Y-122005742D02*
X97742409Y-121986695D01*
X97685266Y-121967647D01*
X97647171Y-121967647D01*
X97590028Y-121986695D01*
X97551933Y-122024790D01*
X97532885Y-122062885D01*
X97513838Y-122139076D01*
X97513838Y-122196219D01*
X97532885Y-122272409D01*
X97551933Y-122310504D01*
X97590028Y-122348600D01*
X97647171Y-122367647D01*
X97685266Y-122367647D01*
X97742409Y-122348600D01*
X97761457Y-122329552D01*
X98104314Y-122234314D02*
X98104314Y-121967647D01*
X98009076Y-122386695D02*
X97913838Y-122100980D01*
X98161457Y-122100980D01*
X98485266Y-122234314D02*
X98485266Y-121967647D01*
X98390028Y-122386695D02*
X98294790Y-122100980D01*
X98542409Y-122100980D01*
X98015457Y-122767742D02*
X97996409Y-122748695D01*
X97939266Y-122729647D01*
X97901171Y-122729647D01*
X97844028Y-122748695D01*
X97805933Y-122786790D01*
X97786885Y-122824885D01*
X97767838Y-122901076D01*
X97767838Y-122958219D01*
X97786885Y-123034409D01*
X97805933Y-123072504D01*
X97844028Y-123110600D01*
X97901171Y-123129647D01*
X97939266Y-123129647D01*
X97996409Y-123110600D01*
X98015457Y-123091552D01*
X98358314Y-122996314D02*
X98358314Y-122729647D01*
X98263076Y-123148695D02*
X98167838Y-122862980D01*
X98415457Y-122862980D01*
X98529742Y-123129647D02*
X98777361Y-123129647D01*
X98644028Y-122977266D01*
X98701171Y-122977266D01*
X98739266Y-122958219D01*
X98758314Y-122939171D01*
X98777361Y-122901076D01*
X98777361Y-122805838D01*
X98758314Y-122767742D01*
X98739266Y-122748695D01*
X98701171Y-122729647D01*
X98586885Y-122729647D01*
X98548790Y-122748695D01*
X98529742Y-122767742D01*
X103406542Y-123942457D02*
X103425590Y-123961504D01*
X103482733Y-123980552D01*
X103520828Y-123980552D01*
X103577971Y-123961504D01*
X103616066Y-123923409D01*
X103635114Y-123885314D01*
X103654161Y-123809123D01*
X103654161Y-123751980D01*
X103635114Y-123675790D01*
X103616066Y-123637695D01*
X103577971Y-123599600D01*
X103520828Y-123580552D01*
X103482733Y-123580552D01*
X103425590Y-123599600D01*
X103406542Y-123618647D01*
X103063685Y-123713885D02*
X103063685Y-123980552D01*
X103158923Y-123561504D02*
X103254161Y-123847219D01*
X103006542Y-123847219D01*
X102873209Y-123618647D02*
X102854161Y-123599600D01*
X102816066Y-123580552D01*
X102720828Y-123580552D01*
X102682733Y-123599600D01*
X102663685Y-123618647D01*
X102644638Y-123656742D01*
X102644638Y-123694838D01*
X102663685Y-123751980D01*
X102892257Y-123980552D01*
X102644638Y-123980552D01*
X103406542Y-124552057D02*
X103425590Y-124571104D01*
X103482733Y-124590152D01*
X103520828Y-124590152D01*
X103577971Y-124571104D01*
X103616066Y-124533009D01*
X103635114Y-124494914D01*
X103654161Y-124418723D01*
X103654161Y-124361580D01*
X103635114Y-124285390D01*
X103616066Y-124247295D01*
X103577971Y-124209200D01*
X103520828Y-124190152D01*
X103482733Y-124190152D01*
X103425590Y-124209200D01*
X103406542Y-124228247D01*
X103063685Y-124323485D02*
X103063685Y-124590152D01*
X103158923Y-124171104D02*
X103254161Y-124456819D01*
X103006542Y-124456819D01*
X102644638Y-124590152D02*
X102873209Y-124590152D01*
X102758923Y-124590152D02*
X102758923Y-124190152D01*
X102797019Y-124247295D01*
X102835114Y-124285390D01*
X102873209Y-124304438D01*
X98879057Y-114792142D02*
X98860009Y-114773095D01*
X98802866Y-114754047D01*
X98764771Y-114754047D01*
X98707628Y-114773095D01*
X98669533Y-114811190D01*
X98650485Y-114849285D01*
X98631438Y-114925476D01*
X98631438Y-114982619D01*
X98650485Y-115058809D01*
X98669533Y-115096904D01*
X98707628Y-115135000D01*
X98764771Y-115154047D01*
X98802866Y-115154047D01*
X98860009Y-115135000D01*
X98879057Y-115115952D01*
X99012390Y-115154047D02*
X99260009Y-115154047D01*
X99126676Y-115001666D01*
X99183819Y-115001666D01*
X99221914Y-114982619D01*
X99240961Y-114963571D01*
X99260009Y-114925476D01*
X99260009Y-114830238D01*
X99240961Y-114792142D01*
X99221914Y-114773095D01*
X99183819Y-114754047D01*
X99069533Y-114754047D01*
X99031438Y-114773095D01*
X99012390Y-114792142D01*
X99488580Y-114982619D02*
X99450485Y-115001666D01*
X99431438Y-115020714D01*
X99412390Y-115058809D01*
X99412390Y-115077857D01*
X99431438Y-115115952D01*
X99450485Y-115135000D01*
X99488580Y-115154047D01*
X99564771Y-115154047D01*
X99602866Y-115135000D01*
X99621914Y-115115952D01*
X99640961Y-115077857D01*
X99640961Y-115058809D01*
X99621914Y-115020714D01*
X99602866Y-115001666D01*
X99564771Y-114982619D01*
X99488580Y-114982619D01*
X99450485Y-114963571D01*
X99431438Y-114944523D01*
X99412390Y-114906428D01*
X99412390Y-114830238D01*
X99431438Y-114792142D01*
X99450485Y-114773095D01*
X99488580Y-114754047D01*
X99564771Y-114754047D01*
X99602866Y-114773095D01*
X99621914Y-114792142D01*
X99640961Y-114830238D01*
X99640961Y-114906428D01*
X99621914Y-114944523D01*
X99602866Y-114963571D01*
X99564771Y-114982619D01*
X98879057Y-114189142D02*
X98860009Y-114170095D01*
X98802866Y-114151047D01*
X98764771Y-114151047D01*
X98707628Y-114170095D01*
X98669533Y-114208190D01*
X98650485Y-114246285D01*
X98631438Y-114322476D01*
X98631438Y-114379619D01*
X98650485Y-114455809D01*
X98669533Y-114493904D01*
X98707628Y-114532000D01*
X98764771Y-114551047D01*
X98802866Y-114551047D01*
X98860009Y-114532000D01*
X98879057Y-114512952D01*
X99012390Y-114551047D02*
X99260009Y-114551047D01*
X99126676Y-114398666D01*
X99183819Y-114398666D01*
X99221914Y-114379619D01*
X99240961Y-114360571D01*
X99260009Y-114322476D01*
X99260009Y-114227238D01*
X99240961Y-114189142D01*
X99221914Y-114170095D01*
X99183819Y-114151047D01*
X99069533Y-114151047D01*
X99031438Y-114170095D01*
X99012390Y-114189142D01*
X99393342Y-114551047D02*
X99660009Y-114551047D01*
X99488580Y-114151047D01*
X97837657Y-118017942D02*
X97818609Y-117998895D01*
X97761466Y-117979847D01*
X97723371Y-117979847D01*
X97666228Y-117998895D01*
X97628133Y-118036990D01*
X97609085Y-118075085D01*
X97590038Y-118151276D01*
X97590038Y-118208419D01*
X97609085Y-118284609D01*
X97628133Y-118322704D01*
X97666228Y-118360800D01*
X97723371Y-118379847D01*
X97761466Y-118379847D01*
X97818609Y-118360800D01*
X97837657Y-118341752D01*
X97970990Y-118379847D02*
X98218609Y-118379847D01*
X98085276Y-118227466D01*
X98142419Y-118227466D01*
X98180514Y-118208419D01*
X98199561Y-118189371D01*
X98218609Y-118151276D01*
X98218609Y-118056038D01*
X98199561Y-118017942D01*
X98180514Y-117998895D01*
X98142419Y-117979847D01*
X98028133Y-117979847D01*
X97990038Y-117998895D01*
X97970990Y-118017942D01*
X98561466Y-118379847D02*
X98485276Y-118379847D01*
X98447180Y-118360800D01*
X98428133Y-118341752D01*
X98390038Y-118284609D01*
X98370990Y-118208419D01*
X98370990Y-118056038D01*
X98390038Y-118017942D01*
X98409085Y-117998895D01*
X98447180Y-117979847D01*
X98523371Y-117979847D01*
X98561466Y-117998895D01*
X98580514Y-118017942D01*
X98599561Y-118056038D01*
X98599561Y-118151276D01*
X98580514Y-118189371D01*
X98561466Y-118208419D01*
X98523371Y-118227466D01*
X98447180Y-118227466D01*
X98409085Y-118208419D01*
X98390038Y-118189371D01*
X98370990Y-118151276D01*
X98040857Y-118779942D02*
X98021809Y-118760895D01*
X97964666Y-118741847D01*
X97926571Y-118741847D01*
X97869428Y-118760895D01*
X97831333Y-118798990D01*
X97812285Y-118837085D01*
X97793238Y-118913276D01*
X97793238Y-118970419D01*
X97812285Y-119046609D01*
X97831333Y-119084704D01*
X97869428Y-119122800D01*
X97926571Y-119141847D01*
X97964666Y-119141847D01*
X98021809Y-119122800D01*
X98040857Y-119103752D01*
X98174190Y-119141847D02*
X98421809Y-119141847D01*
X98288476Y-118989466D01*
X98345619Y-118989466D01*
X98383714Y-118970419D01*
X98402761Y-118951371D01*
X98421809Y-118913276D01*
X98421809Y-118818038D01*
X98402761Y-118779942D01*
X98383714Y-118760895D01*
X98345619Y-118741847D01*
X98231333Y-118741847D01*
X98193238Y-118760895D01*
X98174190Y-118779942D01*
X98783714Y-119141847D02*
X98593238Y-119141847D01*
X98574190Y-118951371D01*
X98593238Y-118970419D01*
X98631333Y-118989466D01*
X98726571Y-118989466D01*
X98764666Y-118970419D01*
X98783714Y-118951371D01*
X98802761Y-118913276D01*
X98802761Y-118818038D01*
X98783714Y-118779942D01*
X98764666Y-118760895D01*
X98726571Y-118741847D01*
X98631333Y-118741847D01*
X98593238Y-118760895D01*
X98574190Y-118779942D01*
X110137542Y-119776857D02*
X110156590Y-119795904D01*
X110213733Y-119814952D01*
X110251828Y-119814952D01*
X110308971Y-119795904D01*
X110347066Y-119757809D01*
X110366114Y-119719714D01*
X110385161Y-119643523D01*
X110385161Y-119586380D01*
X110366114Y-119510190D01*
X110347066Y-119472095D01*
X110308971Y-119434000D01*
X110251828Y-119414952D01*
X110213733Y-119414952D01*
X110156590Y-119434000D01*
X110137542Y-119453047D01*
X110004209Y-119414952D02*
X109756590Y-119414952D01*
X109889923Y-119567333D01*
X109832780Y-119567333D01*
X109794685Y-119586380D01*
X109775638Y-119605428D01*
X109756590Y-119643523D01*
X109756590Y-119738761D01*
X109775638Y-119776857D01*
X109794685Y-119795904D01*
X109832780Y-119814952D01*
X109947066Y-119814952D01*
X109985161Y-119795904D01*
X110004209Y-119776857D01*
X109604209Y-119453047D02*
X109585161Y-119434000D01*
X109547066Y-119414952D01*
X109451828Y-119414952D01*
X109413733Y-119434000D01*
X109394685Y-119453047D01*
X109375638Y-119491142D01*
X109375638Y-119529238D01*
X109394685Y-119586380D01*
X109623257Y-119814952D01*
X109375638Y-119814952D01*
X110366142Y-117744857D02*
X110385190Y-117763904D01*
X110442333Y-117782952D01*
X110480428Y-117782952D01*
X110537571Y-117763904D01*
X110575666Y-117725809D01*
X110594714Y-117687714D01*
X110613761Y-117611523D01*
X110613761Y-117554380D01*
X110594714Y-117478190D01*
X110575666Y-117440095D01*
X110537571Y-117402000D01*
X110480428Y-117382952D01*
X110442333Y-117382952D01*
X110385190Y-117402000D01*
X110366142Y-117421047D01*
X110232809Y-117382952D02*
X109985190Y-117382952D01*
X110118523Y-117535333D01*
X110061380Y-117535333D01*
X110023285Y-117554380D01*
X110004238Y-117573428D01*
X109985190Y-117611523D01*
X109985190Y-117706761D01*
X110004238Y-117744857D01*
X110023285Y-117763904D01*
X110061380Y-117782952D01*
X110175666Y-117782952D01*
X110213761Y-117763904D01*
X110232809Y-117744857D01*
X109604238Y-117782952D02*
X109832809Y-117782952D01*
X109718523Y-117782952D02*
X109718523Y-117382952D01*
X109756619Y-117440095D01*
X109794714Y-117478190D01*
X109832809Y-117497238D01*
X110361742Y-118379857D02*
X110380790Y-118398904D01*
X110437933Y-118417952D01*
X110476028Y-118417952D01*
X110533171Y-118398904D01*
X110571266Y-118360809D01*
X110590314Y-118322714D01*
X110609361Y-118246523D01*
X110609361Y-118189380D01*
X110590314Y-118113190D01*
X110571266Y-118075095D01*
X110533171Y-118037000D01*
X110476028Y-118017952D01*
X110437933Y-118017952D01*
X110380790Y-118037000D01*
X110361742Y-118056047D01*
X110228409Y-118017952D02*
X109980790Y-118017952D01*
X110114123Y-118170333D01*
X110056980Y-118170333D01*
X110018885Y-118189380D01*
X109999838Y-118208428D01*
X109980790Y-118246523D01*
X109980790Y-118341761D01*
X109999838Y-118379857D01*
X110018885Y-118398904D01*
X110056980Y-118417952D01*
X110171266Y-118417952D01*
X110209361Y-118398904D01*
X110228409Y-118379857D01*
X109733171Y-118017952D02*
X109695076Y-118017952D01*
X109656980Y-118037000D01*
X109637933Y-118056047D01*
X109618885Y-118094142D01*
X109599838Y-118170333D01*
X109599838Y-118265571D01*
X109618885Y-118341761D01*
X109637933Y-118379857D01*
X109656980Y-118398904D01*
X109695076Y-118417952D01*
X109733171Y-118417952D01*
X109771266Y-118398904D01*
X109790314Y-118379857D01*
X109809361Y-118341761D01*
X109828409Y-118265571D01*
X109828409Y-118170333D01*
X109809361Y-118094142D01*
X109790314Y-118056047D01*
X109771266Y-118037000D01*
X109733171Y-118017952D01*
X110366142Y-118989457D02*
X110385190Y-119008504D01*
X110442333Y-119027552D01*
X110480428Y-119027552D01*
X110537571Y-119008504D01*
X110575666Y-118970409D01*
X110594714Y-118932314D01*
X110613761Y-118856123D01*
X110613761Y-118798980D01*
X110594714Y-118722790D01*
X110575666Y-118684695D01*
X110537571Y-118646600D01*
X110480428Y-118627552D01*
X110442333Y-118627552D01*
X110385190Y-118646600D01*
X110366142Y-118665647D01*
X110213761Y-118665647D02*
X110194714Y-118646600D01*
X110156619Y-118627552D01*
X110061380Y-118627552D01*
X110023285Y-118646600D01*
X110004238Y-118665647D01*
X109985190Y-118703742D01*
X109985190Y-118741838D01*
X110004238Y-118798980D01*
X110232809Y-119027552D01*
X109985190Y-119027552D01*
X109794714Y-119027552D02*
X109718523Y-119027552D01*
X109680428Y-119008504D01*
X109661380Y-118989457D01*
X109623285Y-118932314D01*
X109604238Y-118856123D01*
X109604238Y-118703742D01*
X109623285Y-118665647D01*
X109642333Y-118646600D01*
X109680428Y-118627552D01*
X109756619Y-118627552D01*
X109794714Y-118646600D01*
X109813761Y-118665647D01*
X109832809Y-118703742D01*
X109832809Y-118798980D01*
X109813761Y-118837076D01*
X109794714Y-118856123D01*
X109756619Y-118875171D01*
X109680428Y-118875171D01*
X109642333Y-118856123D01*
X109623285Y-118837076D01*
X109604238Y-118798980D01*
X113845942Y-122189857D02*
X113864990Y-122208904D01*
X113922133Y-122227952D01*
X113960228Y-122227952D01*
X114017371Y-122208904D01*
X114055466Y-122170809D01*
X114074514Y-122132714D01*
X114093561Y-122056523D01*
X114093561Y-121999380D01*
X114074514Y-121923190D01*
X114055466Y-121885095D01*
X114017371Y-121847000D01*
X113960228Y-121827952D01*
X113922133Y-121827952D01*
X113864990Y-121847000D01*
X113845942Y-121866047D01*
X113693561Y-121866047D02*
X113674514Y-121847000D01*
X113636419Y-121827952D01*
X113541180Y-121827952D01*
X113503085Y-121847000D01*
X113484038Y-121866047D01*
X113464990Y-121904142D01*
X113464990Y-121942238D01*
X113484038Y-121999380D01*
X113712609Y-122227952D01*
X113464990Y-122227952D01*
X113236419Y-121999380D02*
X113274514Y-121980333D01*
X113293561Y-121961285D01*
X113312609Y-121923190D01*
X113312609Y-121904142D01*
X113293561Y-121866047D01*
X113274514Y-121847000D01*
X113236419Y-121827952D01*
X113160228Y-121827952D01*
X113122133Y-121847000D01*
X113103085Y-121866047D01*
X113084038Y-121904142D01*
X113084038Y-121923190D01*
X113103085Y-121961285D01*
X113122133Y-121980333D01*
X113160228Y-121999380D01*
X113236419Y-121999380D01*
X113274514Y-122018428D01*
X113293561Y-122037476D01*
X113312609Y-122075571D01*
X113312609Y-122151761D01*
X113293561Y-122189857D01*
X113274514Y-122208904D01*
X113236419Y-122227952D01*
X113160228Y-122227952D01*
X113122133Y-122208904D01*
X113103085Y-122189857D01*
X113084038Y-122151761D01*
X113084038Y-122075571D01*
X113103085Y-122037476D01*
X113122133Y-122018428D01*
X113160228Y-121999380D01*
X113896742Y-124196457D02*
X113915790Y-124215504D01*
X113972933Y-124234552D01*
X114011028Y-124234552D01*
X114068171Y-124215504D01*
X114106266Y-124177409D01*
X114125314Y-124139314D01*
X114144361Y-124063123D01*
X114144361Y-124005980D01*
X114125314Y-123929790D01*
X114106266Y-123891695D01*
X114068171Y-123853600D01*
X114011028Y-123834552D01*
X113972933Y-123834552D01*
X113915790Y-123853600D01*
X113896742Y-123872647D01*
X113744361Y-123872647D02*
X113725314Y-123853600D01*
X113687219Y-123834552D01*
X113591980Y-123834552D01*
X113553885Y-123853600D01*
X113534838Y-123872647D01*
X113515790Y-123910742D01*
X113515790Y-123948838D01*
X113534838Y-124005980D01*
X113763409Y-124234552D01*
X113515790Y-124234552D01*
X113382457Y-123834552D02*
X113115790Y-123834552D01*
X113287219Y-124234552D01*
X113875742Y-123586857D02*
X113894790Y-123605904D01*
X113951933Y-123624952D01*
X113990028Y-123624952D01*
X114047171Y-123605904D01*
X114085266Y-123567809D01*
X114104314Y-123529714D01*
X114123361Y-123453523D01*
X114123361Y-123396380D01*
X114104314Y-123320190D01*
X114085266Y-123282095D01*
X114047171Y-123244000D01*
X113990028Y-123224952D01*
X113951933Y-123224952D01*
X113894790Y-123244000D01*
X113875742Y-123263047D01*
X113723361Y-123263047D02*
X113704314Y-123244000D01*
X113666219Y-123224952D01*
X113570980Y-123224952D01*
X113532885Y-123244000D01*
X113513838Y-123263047D01*
X113494790Y-123301142D01*
X113494790Y-123339238D01*
X113513838Y-123396380D01*
X113742409Y-123624952D01*
X113494790Y-123624952D01*
X113151933Y-123224952D02*
X113228123Y-123224952D01*
X113266219Y-123244000D01*
X113285266Y-123263047D01*
X113323361Y-123320190D01*
X113342409Y-123396380D01*
X113342409Y-123548761D01*
X113323361Y-123586857D01*
X113304314Y-123605904D01*
X113266219Y-123624952D01*
X113190028Y-123624952D01*
X113151933Y-123605904D01*
X113132885Y-123586857D01*
X113113838Y-123548761D01*
X113113838Y-123453523D01*
X113132885Y-123415428D01*
X113151933Y-123396380D01*
X113190028Y-123377333D01*
X113266219Y-123377333D01*
X113304314Y-123396380D01*
X113323361Y-123415428D01*
X113342409Y-123453523D01*
X113901142Y-122951857D02*
X113920190Y-122970904D01*
X113977333Y-122989952D01*
X114015428Y-122989952D01*
X114072571Y-122970904D01*
X114110666Y-122932809D01*
X114129714Y-122894714D01*
X114148761Y-122818523D01*
X114148761Y-122761380D01*
X114129714Y-122685190D01*
X114110666Y-122647095D01*
X114072571Y-122609000D01*
X114015428Y-122589952D01*
X113977333Y-122589952D01*
X113920190Y-122609000D01*
X113901142Y-122628047D01*
X113748761Y-122628047D02*
X113729714Y-122609000D01*
X113691619Y-122589952D01*
X113596380Y-122589952D01*
X113558285Y-122609000D01*
X113539238Y-122628047D01*
X113520190Y-122666142D01*
X113520190Y-122704238D01*
X113539238Y-122761380D01*
X113767809Y-122989952D01*
X113520190Y-122989952D01*
X113158285Y-122589952D02*
X113348761Y-122589952D01*
X113367809Y-122780428D01*
X113348761Y-122761380D01*
X113310666Y-122742333D01*
X113215428Y-122742333D01*
X113177333Y-122761380D01*
X113158285Y-122780428D01*
X113139238Y-122818523D01*
X113139238Y-122913761D01*
X113158285Y-122951857D01*
X113177333Y-122970904D01*
X113215428Y-122989952D01*
X113310666Y-122989952D01*
X113348761Y-122970904D01*
X113367809Y-122951857D01*
X114557142Y-121326257D02*
X114576190Y-121345304D01*
X114633333Y-121364352D01*
X114671428Y-121364352D01*
X114728571Y-121345304D01*
X114766666Y-121307209D01*
X114785714Y-121269114D01*
X114804761Y-121192923D01*
X114804761Y-121135780D01*
X114785714Y-121059590D01*
X114766666Y-121021495D01*
X114728571Y-120983400D01*
X114671428Y-120964352D01*
X114633333Y-120964352D01*
X114576190Y-120983400D01*
X114557142Y-121002447D01*
X114404761Y-121002447D02*
X114385714Y-120983400D01*
X114347619Y-120964352D01*
X114252380Y-120964352D01*
X114214285Y-120983400D01*
X114195238Y-121002447D01*
X114176190Y-121040542D01*
X114176190Y-121078638D01*
X114195238Y-121135780D01*
X114423809Y-121364352D01*
X114176190Y-121364352D01*
X113833333Y-121097685D02*
X113833333Y-121364352D01*
X113928571Y-120945304D02*
X114023809Y-121231019D01*
X113776190Y-121231019D01*
X116963857Y-120278542D02*
X116944809Y-120259495D01*
X116887666Y-120240447D01*
X116849571Y-120240447D01*
X116792428Y-120259495D01*
X116754333Y-120297590D01*
X116735285Y-120335685D01*
X116716238Y-120411876D01*
X116716238Y-120469019D01*
X116735285Y-120545209D01*
X116754333Y-120583304D01*
X116792428Y-120621400D01*
X116849571Y-120640447D01*
X116887666Y-120640447D01*
X116944809Y-120621400D01*
X116963857Y-120602352D01*
X117116238Y-120602352D02*
X117135285Y-120621400D01*
X117173380Y-120640447D01*
X117268619Y-120640447D01*
X117306714Y-120621400D01*
X117325761Y-120602352D01*
X117344809Y-120564257D01*
X117344809Y-120526161D01*
X117325761Y-120469019D01*
X117097190Y-120240447D01*
X117344809Y-120240447D01*
X117497190Y-120602352D02*
X117516238Y-120621400D01*
X117554333Y-120640447D01*
X117649571Y-120640447D01*
X117687666Y-120621400D01*
X117706714Y-120602352D01*
X117725761Y-120564257D01*
X117725761Y-120526161D01*
X117706714Y-120469019D01*
X117478142Y-120240447D01*
X117725761Y-120240447D01*
X116735257Y-119491142D02*
X116716209Y-119472095D01*
X116659066Y-119453047D01*
X116620971Y-119453047D01*
X116563828Y-119472095D01*
X116525733Y-119510190D01*
X116506685Y-119548285D01*
X116487638Y-119624476D01*
X116487638Y-119681619D01*
X116506685Y-119757809D01*
X116525733Y-119795904D01*
X116563828Y-119834000D01*
X116620971Y-119853047D01*
X116659066Y-119853047D01*
X116716209Y-119834000D01*
X116735257Y-119814952D01*
X116887638Y-119814952D02*
X116906685Y-119834000D01*
X116944780Y-119853047D01*
X117040019Y-119853047D01*
X117078114Y-119834000D01*
X117097161Y-119814952D01*
X117116209Y-119776857D01*
X117116209Y-119738761D01*
X117097161Y-119681619D01*
X116868590Y-119453047D01*
X117116209Y-119453047D01*
X117497161Y-119453047D02*
X117268590Y-119453047D01*
X117382876Y-119453047D02*
X117382876Y-119853047D01*
X117344780Y-119795904D01*
X117306685Y-119757809D01*
X117268590Y-119738761D01*
X116735257Y-118856142D02*
X116716209Y-118837095D01*
X116659066Y-118818047D01*
X116620971Y-118818047D01*
X116563828Y-118837095D01*
X116525733Y-118875190D01*
X116506685Y-118913285D01*
X116487638Y-118989476D01*
X116487638Y-119046619D01*
X116506685Y-119122809D01*
X116525733Y-119160904D01*
X116563828Y-119199000D01*
X116620971Y-119218047D01*
X116659066Y-119218047D01*
X116716209Y-119199000D01*
X116735257Y-119179952D01*
X116887638Y-119179952D02*
X116906685Y-119199000D01*
X116944780Y-119218047D01*
X117040019Y-119218047D01*
X117078114Y-119199000D01*
X117097161Y-119179952D01*
X117116209Y-119141857D01*
X117116209Y-119103761D01*
X117097161Y-119046619D01*
X116868590Y-118818047D01*
X117116209Y-118818047D01*
X117363828Y-119218047D02*
X117401923Y-119218047D01*
X117440019Y-119199000D01*
X117459066Y-119179952D01*
X117478114Y-119141857D01*
X117497161Y-119065666D01*
X117497161Y-118970428D01*
X117478114Y-118894238D01*
X117459066Y-118856142D01*
X117440019Y-118837095D01*
X117401923Y-118818047D01*
X117363828Y-118818047D01*
X117325733Y-118837095D01*
X117306685Y-118856142D01*
X117287638Y-118894238D01*
X117268590Y-118970428D01*
X117268590Y-119065666D01*
X117287638Y-119141857D01*
X117306685Y-119179952D01*
X117325733Y-119199000D01*
X117363828Y-119218047D01*
X116557457Y-122615342D02*
X116538409Y-122596295D01*
X116481266Y-122577247D01*
X116443171Y-122577247D01*
X116386028Y-122596295D01*
X116347933Y-122634390D01*
X116328885Y-122672485D01*
X116309838Y-122748676D01*
X116309838Y-122805819D01*
X116328885Y-122882009D01*
X116347933Y-122920104D01*
X116386028Y-122958200D01*
X116443171Y-122977247D01*
X116481266Y-122977247D01*
X116538409Y-122958200D01*
X116557457Y-122939152D01*
X116938409Y-122577247D02*
X116709838Y-122577247D01*
X116824123Y-122577247D02*
X116824123Y-122977247D01*
X116786028Y-122920104D01*
X116747933Y-122882009D01*
X116709838Y-122862961D01*
X117128885Y-122577247D02*
X117205076Y-122577247D01*
X117243171Y-122596295D01*
X117262219Y-122615342D01*
X117300314Y-122672485D01*
X117319361Y-122748676D01*
X117319361Y-122901057D01*
X117300314Y-122939152D01*
X117281266Y-122958200D01*
X117243171Y-122977247D01*
X117166980Y-122977247D01*
X117128885Y-122958200D01*
X117109838Y-122939152D01*
X117090790Y-122901057D01*
X117090790Y-122805819D01*
X117109838Y-122767723D01*
X117128885Y-122748676D01*
X117166980Y-122729628D01*
X117243171Y-122729628D01*
X117281266Y-122748676D01*
X117300314Y-122767723D01*
X117319361Y-122805819D01*
X116735257Y-118221142D02*
X116716209Y-118202095D01*
X116659066Y-118183047D01*
X116620971Y-118183047D01*
X116563828Y-118202095D01*
X116525733Y-118240190D01*
X116506685Y-118278285D01*
X116487638Y-118354476D01*
X116487638Y-118411619D01*
X116506685Y-118487809D01*
X116525733Y-118525904D01*
X116563828Y-118564000D01*
X116620971Y-118583047D01*
X116659066Y-118583047D01*
X116716209Y-118564000D01*
X116735257Y-118544952D01*
X117116209Y-118183047D02*
X116887638Y-118183047D01*
X117001923Y-118183047D02*
X117001923Y-118583047D01*
X116963828Y-118525904D01*
X116925733Y-118487809D01*
X116887638Y-118468761D01*
X117344780Y-118411619D02*
X117306685Y-118430666D01*
X117287638Y-118449714D01*
X117268590Y-118487809D01*
X117268590Y-118506857D01*
X117287638Y-118544952D01*
X117306685Y-118564000D01*
X117344780Y-118583047D01*
X117420971Y-118583047D01*
X117459066Y-118564000D01*
X117478114Y-118544952D01*
X117497161Y-118506857D01*
X117497161Y-118487809D01*
X117478114Y-118449714D01*
X117459066Y-118430666D01*
X117420971Y-118411619D01*
X117344780Y-118411619D01*
X117306685Y-118392571D01*
X117287638Y-118373523D01*
X117268590Y-118335428D01*
X117268590Y-118259238D01*
X117287638Y-118221142D01*
X117306685Y-118202095D01*
X117344780Y-118183047D01*
X117420971Y-118183047D01*
X117459066Y-118202095D01*
X117478114Y-118221142D01*
X117497161Y-118259238D01*
X117497161Y-118335428D01*
X117478114Y-118373523D01*
X117459066Y-118392571D01*
X117420971Y-118411619D01*
X112753742Y-124196457D02*
X112772790Y-124215504D01*
X112829933Y-124234552D01*
X112868028Y-124234552D01*
X112925171Y-124215504D01*
X112963266Y-124177409D01*
X112982314Y-124139314D01*
X113001361Y-124063123D01*
X113001361Y-124005980D01*
X112982314Y-123929790D01*
X112963266Y-123891695D01*
X112925171Y-123853600D01*
X112868028Y-123834552D01*
X112829933Y-123834552D01*
X112772790Y-123853600D01*
X112753742Y-123872647D01*
X112372790Y-124234552D02*
X112601361Y-124234552D01*
X112487076Y-124234552D02*
X112487076Y-123834552D01*
X112525171Y-123891695D01*
X112563266Y-123929790D01*
X112601361Y-123948838D01*
X112029933Y-123834552D02*
X112106123Y-123834552D01*
X112144219Y-123853600D01*
X112163266Y-123872647D01*
X112201361Y-123929790D01*
X112220409Y-124005980D01*
X112220409Y-124158361D01*
X112201361Y-124196457D01*
X112182314Y-124215504D01*
X112144219Y-124234552D01*
X112068028Y-124234552D01*
X112029933Y-124215504D01*
X112010885Y-124196457D01*
X111991838Y-124158361D01*
X111991838Y-124063123D01*
X112010885Y-124025028D01*
X112029933Y-124005980D01*
X112068028Y-123986933D01*
X112144219Y-123986933D01*
X112182314Y-124005980D01*
X112201361Y-124025028D01*
X112220409Y-124063123D01*
X112753742Y-123561457D02*
X112772790Y-123580504D01*
X112829933Y-123599552D01*
X112868028Y-123599552D01*
X112925171Y-123580504D01*
X112963266Y-123542409D01*
X112982314Y-123504314D01*
X113001361Y-123428123D01*
X113001361Y-123370980D01*
X112982314Y-123294790D01*
X112963266Y-123256695D01*
X112925171Y-123218600D01*
X112868028Y-123199552D01*
X112829933Y-123199552D01*
X112772790Y-123218600D01*
X112753742Y-123237647D01*
X112372790Y-123599552D02*
X112601361Y-123599552D01*
X112487076Y-123599552D02*
X112487076Y-123199552D01*
X112525171Y-123256695D01*
X112563266Y-123294790D01*
X112601361Y-123313838D01*
X112010885Y-123199552D02*
X112201361Y-123199552D01*
X112220409Y-123390028D01*
X112201361Y-123370980D01*
X112163266Y-123351933D01*
X112068028Y-123351933D01*
X112029933Y-123370980D01*
X112010885Y-123390028D01*
X111991838Y-123428123D01*
X111991838Y-123523361D01*
X112010885Y-123561457D01*
X112029933Y-123580504D01*
X112068028Y-123599552D01*
X112163266Y-123599552D01*
X112201361Y-123580504D01*
X112220409Y-123561457D01*
X113327257Y-116239942D02*
X113308209Y-116220895D01*
X113251066Y-116201847D01*
X113212971Y-116201847D01*
X113155828Y-116220895D01*
X113117733Y-116258990D01*
X113098685Y-116297085D01*
X113079638Y-116373276D01*
X113079638Y-116430419D01*
X113098685Y-116506609D01*
X113117733Y-116544704D01*
X113155828Y-116582800D01*
X113212971Y-116601847D01*
X113251066Y-116601847D01*
X113308209Y-116582800D01*
X113327257Y-116563752D01*
X113708209Y-116201847D02*
X113479638Y-116201847D01*
X113593923Y-116201847D02*
X113593923Y-116601847D01*
X113555828Y-116544704D01*
X113517733Y-116506609D01*
X113479638Y-116487561D01*
X114051066Y-116468514D02*
X114051066Y-116201847D01*
X113955828Y-116620895D02*
X113860590Y-116335180D01*
X114108209Y-116335180D01*
X112753742Y-122951857D02*
X112772790Y-122970904D01*
X112829933Y-122989952D01*
X112868028Y-122989952D01*
X112925171Y-122970904D01*
X112963266Y-122932809D01*
X112982314Y-122894714D01*
X113001361Y-122818523D01*
X113001361Y-122761380D01*
X112982314Y-122685190D01*
X112963266Y-122647095D01*
X112925171Y-122609000D01*
X112868028Y-122589952D01*
X112829933Y-122589952D01*
X112772790Y-122609000D01*
X112753742Y-122628047D01*
X112372790Y-122989952D02*
X112601361Y-122989952D01*
X112487076Y-122989952D02*
X112487076Y-122589952D01*
X112525171Y-122647095D01*
X112563266Y-122685190D01*
X112601361Y-122704238D01*
X112239457Y-122589952D02*
X111991838Y-122589952D01*
X112125171Y-122742333D01*
X112068028Y-122742333D01*
X112029933Y-122761380D01*
X112010885Y-122780428D01*
X111991838Y-122818523D01*
X111991838Y-122913761D01*
X112010885Y-122951857D01*
X112029933Y-122970904D01*
X112068028Y-122989952D01*
X112182314Y-122989952D01*
X112220409Y-122970904D01*
X112239457Y-122951857D01*
X110162942Y-121885057D02*
X110181990Y-121904104D01*
X110239133Y-121923152D01*
X110277228Y-121923152D01*
X110334371Y-121904104D01*
X110372466Y-121866009D01*
X110391514Y-121827914D01*
X110410561Y-121751723D01*
X110410561Y-121694580D01*
X110391514Y-121618390D01*
X110372466Y-121580295D01*
X110334371Y-121542200D01*
X110277228Y-121523152D01*
X110239133Y-121523152D01*
X110181990Y-121542200D01*
X110162942Y-121561247D01*
X109781990Y-121923152D02*
X110010561Y-121923152D01*
X109896276Y-121923152D02*
X109896276Y-121523152D01*
X109934371Y-121580295D01*
X109972466Y-121618390D01*
X110010561Y-121637438D01*
X109401038Y-121923152D02*
X109629609Y-121923152D01*
X109515323Y-121923152D02*
X109515323Y-121523152D01*
X109553419Y-121580295D01*
X109591514Y-121618390D01*
X109629609Y-121637438D01*
X110442342Y-121123057D02*
X110461390Y-121142104D01*
X110518533Y-121161152D01*
X110556628Y-121161152D01*
X110613771Y-121142104D01*
X110651866Y-121104009D01*
X110670914Y-121065914D01*
X110689961Y-120989723D01*
X110689961Y-120932580D01*
X110670914Y-120856390D01*
X110651866Y-120818295D01*
X110613771Y-120780200D01*
X110556628Y-120761152D01*
X110518533Y-120761152D01*
X110461390Y-120780200D01*
X110442342Y-120799247D01*
X110061390Y-121161152D02*
X110289961Y-121161152D01*
X110175676Y-121161152D02*
X110175676Y-120761152D01*
X110213771Y-120818295D01*
X110251866Y-120856390D01*
X110289961Y-120875438D01*
X109813771Y-120761152D02*
X109775676Y-120761152D01*
X109737580Y-120780200D01*
X109718533Y-120799247D01*
X109699485Y-120837342D01*
X109680438Y-120913533D01*
X109680438Y-121008771D01*
X109699485Y-121084961D01*
X109718533Y-121123057D01*
X109737580Y-121142104D01*
X109775676Y-121161152D01*
X109813771Y-121161152D01*
X109851866Y-121142104D01*
X109870914Y-121123057D01*
X109889961Y-121084961D01*
X109909009Y-121008771D01*
X109909009Y-120913533D01*
X109889961Y-120837342D01*
X109870914Y-120799247D01*
X109851866Y-120780200D01*
X109813771Y-120761152D01*
X110251866Y-120513457D02*
X110270914Y-120532504D01*
X110328057Y-120551552D01*
X110366152Y-120551552D01*
X110423295Y-120532504D01*
X110461390Y-120494409D01*
X110480438Y-120456314D01*
X110499485Y-120380123D01*
X110499485Y-120322980D01*
X110480438Y-120246790D01*
X110461390Y-120208695D01*
X110423295Y-120170600D01*
X110366152Y-120151552D01*
X110328057Y-120151552D01*
X110270914Y-120170600D01*
X110251866Y-120189647D01*
X110061390Y-120551552D02*
X109985200Y-120551552D01*
X109947104Y-120532504D01*
X109928057Y-120513457D01*
X109889961Y-120456314D01*
X109870914Y-120380123D01*
X109870914Y-120227742D01*
X109889961Y-120189647D01*
X109909009Y-120170600D01*
X109947104Y-120151552D01*
X110023295Y-120151552D01*
X110061390Y-120170600D01*
X110080438Y-120189647D01*
X110099485Y-120227742D01*
X110099485Y-120322980D01*
X110080438Y-120361076D01*
X110061390Y-120380123D01*
X110023295Y-120399171D01*
X109947104Y-120399171D01*
X109909009Y-120380123D01*
X109889961Y-120361076D01*
X109870914Y-120322980D01*
X114823866Y-115128657D02*
X114842914Y-115147704D01*
X114900057Y-115166752D01*
X114938152Y-115166752D01*
X114995295Y-115147704D01*
X115033390Y-115109609D01*
X115052438Y-115071514D01*
X115071485Y-114995323D01*
X115071485Y-114938180D01*
X115052438Y-114861990D01*
X115033390Y-114823895D01*
X114995295Y-114785800D01*
X114938152Y-114766752D01*
X114900057Y-114766752D01*
X114842914Y-114785800D01*
X114823866Y-114804847D01*
X114595295Y-114938180D02*
X114633390Y-114919133D01*
X114652438Y-114900085D01*
X114671485Y-114861990D01*
X114671485Y-114842942D01*
X114652438Y-114804847D01*
X114633390Y-114785800D01*
X114595295Y-114766752D01*
X114519104Y-114766752D01*
X114481009Y-114785800D01*
X114461961Y-114804847D01*
X114442914Y-114842942D01*
X114442914Y-114861990D01*
X114461961Y-114900085D01*
X114481009Y-114919133D01*
X114519104Y-114938180D01*
X114595295Y-114938180D01*
X114633390Y-114957228D01*
X114652438Y-114976276D01*
X114671485Y-115014371D01*
X114671485Y-115090561D01*
X114652438Y-115128657D01*
X114633390Y-115147704D01*
X114595295Y-115166752D01*
X114519104Y-115166752D01*
X114481009Y-115147704D01*
X114461961Y-115128657D01*
X114442914Y-115090561D01*
X114442914Y-115014371D01*
X114461961Y-114976276D01*
X114481009Y-114957228D01*
X114519104Y-114938180D01*
X115077866Y-115916057D02*
X115096914Y-115935104D01*
X115154057Y-115954152D01*
X115192152Y-115954152D01*
X115249295Y-115935104D01*
X115287390Y-115897009D01*
X115306438Y-115858914D01*
X115325485Y-115782723D01*
X115325485Y-115725580D01*
X115306438Y-115649390D01*
X115287390Y-115611295D01*
X115249295Y-115573200D01*
X115192152Y-115554152D01*
X115154057Y-115554152D01*
X115096914Y-115573200D01*
X115077866Y-115592247D01*
X114944533Y-115554152D02*
X114677866Y-115554152D01*
X114849295Y-115954152D01*
X115077866Y-116525657D02*
X115096914Y-116544704D01*
X115154057Y-116563752D01*
X115192152Y-116563752D01*
X115249295Y-116544704D01*
X115287390Y-116506609D01*
X115306438Y-116468514D01*
X115325485Y-116392323D01*
X115325485Y-116335180D01*
X115306438Y-116258990D01*
X115287390Y-116220895D01*
X115249295Y-116182800D01*
X115192152Y-116163752D01*
X115154057Y-116163752D01*
X115096914Y-116182800D01*
X115077866Y-116201847D01*
X114735009Y-116163752D02*
X114811200Y-116163752D01*
X114849295Y-116182800D01*
X114868342Y-116201847D01*
X114906438Y-116258990D01*
X114925485Y-116335180D01*
X114925485Y-116487561D01*
X114906438Y-116525657D01*
X114887390Y-116544704D01*
X114849295Y-116563752D01*
X114773104Y-116563752D01*
X114735009Y-116544704D01*
X114715961Y-116525657D01*
X114696914Y-116487561D01*
X114696914Y-116392323D01*
X114715961Y-116354228D01*
X114735009Y-116335180D01*
X114773104Y-116316133D01*
X114849295Y-116316133D01*
X114887390Y-116335180D01*
X114906438Y-116354228D01*
X114925485Y-116392323D01*
X115262533Y-121904142D02*
X115243485Y-121885095D01*
X115186342Y-121866047D01*
X115148247Y-121866047D01*
X115091104Y-121885095D01*
X115053009Y-121923190D01*
X115033961Y-121961285D01*
X115014914Y-122037476D01*
X115014914Y-122094619D01*
X115033961Y-122170809D01*
X115053009Y-122208904D01*
X115091104Y-122247000D01*
X115148247Y-122266047D01*
X115186342Y-122266047D01*
X115243485Y-122247000D01*
X115262533Y-122227952D01*
X115395866Y-122266047D02*
X115643485Y-122266047D01*
X115510152Y-122113666D01*
X115567295Y-122113666D01*
X115605390Y-122094619D01*
X115624438Y-122075571D01*
X115643485Y-122037476D01*
X115643485Y-121942238D01*
X115624438Y-121904142D01*
X115605390Y-121885095D01*
X115567295Y-121866047D01*
X115453009Y-121866047D01*
X115414914Y-121885095D01*
X115395866Y-121904142D01*
X115503333Y-123224942D02*
X115484285Y-123205895D01*
X115427142Y-123186847D01*
X115389047Y-123186847D01*
X115331904Y-123205895D01*
X115293809Y-123243990D01*
X115274761Y-123282085D01*
X115255714Y-123358276D01*
X115255714Y-123415419D01*
X115274761Y-123491609D01*
X115293809Y-123529704D01*
X115331904Y-123567800D01*
X115389047Y-123586847D01*
X115427142Y-123586847D01*
X115484285Y-123567800D01*
X115503333Y-123548752D01*
X115655714Y-123548752D02*
X115674761Y-123567800D01*
X115712857Y-123586847D01*
X115808095Y-123586847D01*
X115846190Y-123567800D01*
X115865238Y-123548752D01*
X115884285Y-123510657D01*
X115884285Y-123472561D01*
X115865238Y-123415419D01*
X115636666Y-123186847D01*
X115884285Y-123186847D01*
X115503333Y-122615342D02*
X115484285Y-122596295D01*
X115427142Y-122577247D01*
X115389047Y-122577247D01*
X115331904Y-122596295D01*
X115293809Y-122634390D01*
X115274761Y-122672485D01*
X115255714Y-122748676D01*
X115255714Y-122805819D01*
X115274761Y-122882009D01*
X115293809Y-122920104D01*
X115331904Y-122958200D01*
X115389047Y-122977247D01*
X115427142Y-122977247D01*
X115484285Y-122958200D01*
X115503333Y-122939152D01*
X115884285Y-122577247D02*
X115655714Y-122577247D01*
X115770000Y-122577247D02*
X115770000Y-122977247D01*
X115731904Y-122920104D01*
X115693809Y-122882009D01*
X115655714Y-122862961D01*
M02*
