G04 #@! TF.GenerationSoftware,KiCad,Pcbnew,(5.1.5)-3*
G04 #@! TF.CreationDate,2020-07-15T21:49:10-07:00*
G04 #@! TF.ProjectId,MiniDAQ,4d696e69-4441-4512-9e6b-696361645f70,rev?*
G04 #@! TF.SameCoordinates,Original*
G04 #@! TF.FileFunction,Legend,Bot*
G04 #@! TF.FilePolarity,Positive*
%FSLAX46Y46*%
G04 Gerber Fmt 4.6, Leading zero omitted, Abs format (unit mm)*
G04 Created by KiCad (PCBNEW (5.1.5)-3) date 2020-07-15 21:49:10*
%MOMM*%
%LPD*%
G04 APERTURE LIST*
%ADD10C,0.150000*%
%ADD11C,0.120000*%
%ADD12C,0.010000*%
G04 APERTURE END LIST*
D10*
X109841123Y-113805000D02*
X109917314Y-113766904D01*
X110031600Y-113766904D01*
X110145885Y-113805000D01*
X110222076Y-113881190D01*
X110260171Y-113957380D01*
X110298266Y-114109761D01*
X110298266Y-114224047D01*
X110260171Y-114376428D01*
X110222076Y-114452619D01*
X110145885Y-114528809D01*
X110031600Y-114566904D01*
X109955409Y-114566904D01*
X109841123Y-114528809D01*
X109803028Y-114490714D01*
X109803028Y-114224047D01*
X109955409Y-114224047D01*
X109460171Y-114566904D02*
X109460171Y-113766904D01*
X109003028Y-114566904D01*
X109003028Y-113766904D01*
X108622076Y-114566904D02*
X108622076Y-113766904D01*
X108431600Y-113766904D01*
X108317314Y-113805000D01*
X108241123Y-113881190D01*
X108203028Y-113957380D01*
X108164933Y-114109761D01*
X108164933Y-114224047D01*
X108203028Y-114376428D01*
X108241123Y-114452619D01*
X108317314Y-114528809D01*
X108431600Y-114566904D01*
X108622076Y-114566904D01*
D11*
X113854400Y-114459000D02*
X114324300Y-114052600D01*
X110501600Y-113925600D02*
X111187400Y-113925600D01*
X112474000Y-113773200D02*
G75*
G03X112474000Y-113773200I-550000J0D01*
G01*
D10*
X117143533Y-114439904D02*
X117143533Y-113639904D01*
X116838771Y-113639904D01*
X116762580Y-113678000D01*
X116724485Y-113716095D01*
X116686390Y-113792285D01*
X116686390Y-113906571D01*
X116724485Y-113982761D01*
X116762580Y-114020857D01*
X116838771Y-114058952D01*
X117143533Y-114058952D01*
X115886390Y-114363714D02*
X115924485Y-114401809D01*
X116038771Y-114439904D01*
X116114961Y-114439904D01*
X116229247Y-114401809D01*
X116305438Y-114325619D01*
X116343533Y-114249428D01*
X116381628Y-114097047D01*
X116381628Y-113982761D01*
X116343533Y-113830380D01*
X116305438Y-113754190D01*
X116229247Y-113678000D01*
X116114961Y-113639904D01*
X116038771Y-113639904D01*
X115924485Y-113678000D01*
X115886390Y-113716095D01*
X115162580Y-114439904D02*
X115543533Y-114439904D01*
X115543533Y-113639904D01*
X114895914Y-114439904D02*
X114895914Y-113639904D01*
X114438771Y-114439904D02*
X114781628Y-113982761D01*
X114438771Y-113639904D02*
X114895914Y-114097047D01*
D11*
X113862200Y-115043200D02*
G75*
G03X113862200Y-115043200I-550000J0D01*
G01*
X106793200Y-112249200D02*
X106793200Y-111563400D01*
X111111200Y-112198400D02*
X111111200Y-111512600D01*
D10*
X107764628Y-111290304D02*
X107764628Y-110490304D01*
X107574152Y-110490304D01*
X107459866Y-110528400D01*
X107383676Y-110604590D01*
X107345580Y-110680780D01*
X107307485Y-110833161D01*
X107307485Y-110947447D01*
X107345580Y-111099828D01*
X107383676Y-111176019D01*
X107459866Y-111252209D01*
X107574152Y-111290304D01*
X107764628Y-111290304D01*
X106545580Y-111290304D02*
X107002723Y-111290304D01*
X106774152Y-111290304D02*
X106774152Y-110490304D01*
X106850342Y-110604590D01*
X106926533Y-110680780D01*
X107002723Y-110718876D01*
X105821771Y-110490304D02*
X106202723Y-110490304D01*
X106240819Y-110871257D01*
X106202723Y-110833161D01*
X106126533Y-110795066D01*
X105936057Y-110795066D01*
X105859866Y-110833161D01*
X105821771Y-110871257D01*
X105783676Y-110947447D01*
X105783676Y-111137923D01*
X105821771Y-111214114D01*
X105859866Y-111252209D01*
X105936057Y-111290304D01*
X106126533Y-111290304D01*
X106202723Y-111252209D01*
X106240819Y-111214114D01*
X111650876Y-111290304D02*
X111650876Y-110490304D01*
X111460400Y-110490304D01*
X111346114Y-110528400D01*
X111269923Y-110604590D01*
X111231828Y-110680780D01*
X111193733Y-110833161D01*
X111193733Y-110947447D01*
X111231828Y-111099828D01*
X111269923Y-111176019D01*
X111346114Y-111252209D01*
X111460400Y-111290304D01*
X111650876Y-111290304D01*
X110736590Y-110833161D02*
X110812780Y-110795066D01*
X110850876Y-110756971D01*
X110888971Y-110680780D01*
X110888971Y-110642685D01*
X110850876Y-110566495D01*
X110812780Y-110528400D01*
X110736590Y-110490304D01*
X110584209Y-110490304D01*
X110508019Y-110528400D01*
X110469923Y-110566495D01*
X110431828Y-110642685D01*
X110431828Y-110680780D01*
X110469923Y-110756971D01*
X110508019Y-110795066D01*
X110584209Y-110833161D01*
X110736590Y-110833161D01*
X110812780Y-110871257D01*
X110850876Y-110909352D01*
X110888971Y-110985542D01*
X110888971Y-111137923D01*
X110850876Y-111214114D01*
X110812780Y-111252209D01*
X110736590Y-111290304D01*
X110584209Y-111290304D01*
X110508019Y-111252209D01*
X110469923Y-111214114D01*
X110431828Y-111137923D01*
X110431828Y-110985542D01*
X110469923Y-110909352D01*
X110508019Y-110871257D01*
X110584209Y-110833161D01*
D12*
G36*
X90387187Y-117668181D02*
G01*
X90393571Y-117695252D01*
X90405469Y-117719654D01*
X90423075Y-117741926D01*
X90423711Y-117742584D01*
X90445477Y-117760834D01*
X90469560Y-117773756D01*
X90495153Y-117781479D01*
X90521448Y-117784134D01*
X90547636Y-117781851D01*
X90572911Y-117774760D01*
X90596466Y-117762991D01*
X90617491Y-117746675D01*
X90635180Y-117725941D01*
X90646164Y-117706740D01*
X90653895Y-117686812D01*
X90659233Y-117666037D01*
X90661534Y-117647067D01*
X90661566Y-117643222D01*
X90660659Y-117634923D01*
X90658484Y-117623273D01*
X90655989Y-117612700D01*
X90645637Y-117585064D01*
X90630219Y-117560866D01*
X90610307Y-117540625D01*
X90586474Y-117524858D01*
X90559293Y-117514086D01*
X90543107Y-117510475D01*
X90515157Y-117508936D01*
X90487858Y-117513300D01*
X90462053Y-117523124D01*
X90438583Y-117537965D01*
X90418290Y-117557379D01*
X90402016Y-117580922D01*
X90399218Y-117586288D01*
X90393094Y-117599500D01*
X90389355Y-117610443D01*
X90387288Y-117621928D01*
X90386179Y-117636767D01*
X90386123Y-117637902D01*
X90387187Y-117668181D01*
G37*
X90387187Y-117668181D02*
X90393571Y-117695252D01*
X90405469Y-117719654D01*
X90423075Y-117741926D01*
X90423711Y-117742584D01*
X90445477Y-117760834D01*
X90469560Y-117773756D01*
X90495153Y-117781479D01*
X90521448Y-117784134D01*
X90547636Y-117781851D01*
X90572911Y-117774760D01*
X90596466Y-117762991D01*
X90617491Y-117746675D01*
X90635180Y-117725941D01*
X90646164Y-117706740D01*
X90653895Y-117686812D01*
X90659233Y-117666037D01*
X90661534Y-117647067D01*
X90661566Y-117643222D01*
X90660659Y-117634923D01*
X90658484Y-117623273D01*
X90655989Y-117612700D01*
X90645637Y-117585064D01*
X90630219Y-117560866D01*
X90610307Y-117540625D01*
X90586474Y-117524858D01*
X90559293Y-117514086D01*
X90543107Y-117510475D01*
X90515157Y-117508936D01*
X90487858Y-117513300D01*
X90462053Y-117523124D01*
X90438583Y-117537965D01*
X90418290Y-117557379D01*
X90402016Y-117580922D01*
X90399218Y-117586288D01*
X90393094Y-117599500D01*
X90389355Y-117610443D01*
X90387288Y-117621928D01*
X90386179Y-117636767D01*
X90386123Y-117637902D01*
X90387187Y-117668181D01*
G36*
X90483179Y-118121615D02*
G01*
X90487196Y-118135195D01*
X90499126Y-118160626D01*
X90515735Y-118182436D01*
X90536236Y-118200235D01*
X90559842Y-118213633D01*
X90585766Y-118222240D01*
X90613221Y-118225667D01*
X90641419Y-118223525D01*
X90657673Y-118219616D01*
X90683654Y-118208553D01*
X90706716Y-118192418D01*
X90726013Y-118172047D01*
X90740698Y-118148278D01*
X90747531Y-118130882D01*
X90751516Y-118112692D01*
X90753411Y-118092210D01*
X90753162Y-118071899D01*
X90750712Y-118054219D01*
X90749373Y-118049262D01*
X90737973Y-118022982D01*
X90721904Y-117999984D01*
X90701957Y-117980769D01*
X90678926Y-117965837D01*
X90653602Y-117955689D01*
X90626779Y-117950826D01*
X90599249Y-117951749D01*
X90595906Y-117952277D01*
X90568850Y-117959284D01*
X90545399Y-117970725D01*
X90523953Y-117987397D01*
X90522453Y-117988811D01*
X90502782Y-118011644D01*
X90488899Y-118036843D01*
X90480924Y-118063904D01*
X90478977Y-118092329D01*
X90483179Y-118121615D01*
G37*
X90483179Y-118121615D02*
X90487196Y-118135195D01*
X90499126Y-118160626D01*
X90515735Y-118182436D01*
X90536236Y-118200235D01*
X90559842Y-118213633D01*
X90585766Y-118222240D01*
X90613221Y-118225667D01*
X90641419Y-118223525D01*
X90657673Y-118219616D01*
X90683654Y-118208553D01*
X90706716Y-118192418D01*
X90726013Y-118172047D01*
X90740698Y-118148278D01*
X90747531Y-118130882D01*
X90751516Y-118112692D01*
X90753411Y-118092210D01*
X90753162Y-118071899D01*
X90750712Y-118054219D01*
X90749373Y-118049262D01*
X90737973Y-118022982D01*
X90721904Y-117999984D01*
X90701957Y-117980769D01*
X90678926Y-117965837D01*
X90653602Y-117955689D01*
X90626779Y-117950826D01*
X90599249Y-117951749D01*
X90595906Y-117952277D01*
X90568850Y-117959284D01*
X90545399Y-117970725D01*
X90523953Y-117987397D01*
X90522453Y-117988811D01*
X90502782Y-118011644D01*
X90488899Y-118036843D01*
X90480924Y-118063904D01*
X90478977Y-118092329D01*
X90483179Y-118121615D01*
G36*
X90507647Y-117327617D02*
G01*
X90516119Y-117353407D01*
X90529724Y-117377380D01*
X90548408Y-117398687D01*
X90556915Y-117405978D01*
X90580168Y-117420474D01*
X90606162Y-117429951D01*
X90633679Y-117434325D01*
X90661499Y-117433508D01*
X90688402Y-117427414D01*
X90711534Y-117416934D01*
X90734110Y-117400206D01*
X90752545Y-117379399D01*
X90766471Y-117355467D01*
X90775521Y-117329363D01*
X90779326Y-117302040D01*
X90777519Y-117274451D01*
X90773248Y-117257100D01*
X90766893Y-117239631D01*
X90759864Y-117225770D01*
X90750687Y-117212823D01*
X90745873Y-117207050D01*
X90725082Y-117187489D01*
X90701460Y-117173132D01*
X90675851Y-117164003D01*
X90649101Y-117160127D01*
X90622053Y-117161531D01*
X90595554Y-117168239D01*
X90570446Y-117180277D01*
X90547576Y-117197669D01*
X90544115Y-117201017D01*
X90526134Y-117223202D01*
X90513550Y-117247801D01*
X90506309Y-117273967D01*
X90504359Y-117300855D01*
X90507647Y-117327617D01*
G37*
X90507647Y-117327617D02*
X90516119Y-117353407D01*
X90529724Y-117377380D01*
X90548408Y-117398687D01*
X90556915Y-117405978D01*
X90580168Y-117420474D01*
X90606162Y-117429951D01*
X90633679Y-117434325D01*
X90661499Y-117433508D01*
X90688402Y-117427414D01*
X90711534Y-117416934D01*
X90734110Y-117400206D01*
X90752545Y-117379399D01*
X90766471Y-117355467D01*
X90775521Y-117329363D01*
X90779326Y-117302040D01*
X90777519Y-117274451D01*
X90773248Y-117257100D01*
X90766893Y-117239631D01*
X90759864Y-117225770D01*
X90750687Y-117212823D01*
X90745873Y-117207050D01*
X90725082Y-117187489D01*
X90701460Y-117173132D01*
X90675851Y-117164003D01*
X90649101Y-117160127D01*
X90622053Y-117161531D01*
X90595554Y-117168239D01*
X90570446Y-117180277D01*
X90547576Y-117197669D01*
X90544115Y-117201017D01*
X90526134Y-117223202D01*
X90513550Y-117247801D01*
X90506309Y-117273967D01*
X90504359Y-117300855D01*
X90507647Y-117327617D01*
G36*
X90550733Y-116980281D02*
G01*
X90550988Y-116981512D01*
X90559715Y-117009075D01*
X90573103Y-117033093D01*
X90590423Y-117053333D01*
X90610948Y-117069562D01*
X90633948Y-117081550D01*
X90658697Y-117089063D01*
X90684466Y-117091869D01*
X90710527Y-117089737D01*
X90736152Y-117082434D01*
X90760612Y-117069728D01*
X90779943Y-117054508D01*
X90798832Y-117032684D01*
X90812547Y-117007862D01*
X90820853Y-116980974D01*
X90823515Y-116952951D01*
X90820296Y-116924725D01*
X90816321Y-116910568D01*
X90804273Y-116884147D01*
X90787992Y-116861800D01*
X90768229Y-116843701D01*
X90745735Y-116830028D01*
X90721262Y-116820957D01*
X90695561Y-116816665D01*
X90669385Y-116817327D01*
X90643484Y-116823122D01*
X90618611Y-116834224D01*
X90595517Y-116850811D01*
X90588787Y-116857144D01*
X90573538Y-116874680D01*
X90562476Y-116893208D01*
X90554314Y-116915024D01*
X90552370Y-116922041D01*
X90548395Y-116942018D01*
X90547876Y-116960271D01*
X90550733Y-116980281D01*
G37*
X90550733Y-116980281D02*
X90550988Y-116981512D01*
X90559715Y-117009075D01*
X90573103Y-117033093D01*
X90590423Y-117053333D01*
X90610948Y-117069562D01*
X90633948Y-117081550D01*
X90658697Y-117089063D01*
X90684466Y-117091869D01*
X90710527Y-117089737D01*
X90736152Y-117082434D01*
X90760612Y-117069728D01*
X90779943Y-117054508D01*
X90798832Y-117032684D01*
X90812547Y-117007862D01*
X90820853Y-116980974D01*
X90823515Y-116952951D01*
X90820296Y-116924725D01*
X90816321Y-116910568D01*
X90804273Y-116884147D01*
X90787992Y-116861800D01*
X90768229Y-116843701D01*
X90745735Y-116830028D01*
X90721262Y-116820957D01*
X90695561Y-116816665D01*
X90669385Y-116817327D01*
X90643484Y-116823122D01*
X90618611Y-116834224D01*
X90595517Y-116850811D01*
X90588787Y-116857144D01*
X90573538Y-116874680D01*
X90562476Y-116893208D01*
X90554314Y-116915024D01*
X90552370Y-116922041D01*
X90548395Y-116942018D01*
X90547876Y-116960271D01*
X90550733Y-116980281D01*
G36*
X90737596Y-117839799D02*
G01*
X90745613Y-117865751D01*
X90758152Y-117888709D01*
X90774541Y-117908390D01*
X90794107Y-117924512D01*
X90816177Y-117936791D01*
X90840079Y-117944945D01*
X90865141Y-117948690D01*
X90890688Y-117947743D01*
X90916050Y-117941822D01*
X90940553Y-117930643D01*
X90963525Y-117913924D01*
X90968366Y-117909416D01*
X90986528Y-117887475D01*
X90999750Y-117862308D01*
X91007682Y-117835033D01*
X91009972Y-117806769D01*
X91007565Y-117784493D01*
X91000641Y-117762035D01*
X90989287Y-117739596D01*
X90974894Y-117719735D01*
X90968818Y-117713299D01*
X90945994Y-117695186D01*
X90920860Y-117682473D01*
X90894259Y-117675180D01*
X90867035Y-117673326D01*
X90840031Y-117676930D01*
X90814090Y-117686014D01*
X90790056Y-117700596D01*
X90780153Y-117708896D01*
X90759996Y-117731240D01*
X90745790Y-117755726D01*
X90737421Y-117782609D01*
X90734775Y-117811137D01*
X90737596Y-117839799D01*
G37*
X90737596Y-117839799D02*
X90745613Y-117865751D01*
X90758152Y-117888709D01*
X90774541Y-117908390D01*
X90794107Y-117924512D01*
X90816177Y-117936791D01*
X90840079Y-117944945D01*
X90865141Y-117948690D01*
X90890688Y-117947743D01*
X90916050Y-117941822D01*
X90940553Y-117930643D01*
X90963525Y-117913924D01*
X90968366Y-117909416D01*
X90986528Y-117887475D01*
X90999750Y-117862308D01*
X91007682Y-117835033D01*
X91009972Y-117806769D01*
X91007565Y-117784493D01*
X91000641Y-117762035D01*
X90989287Y-117739596D01*
X90974894Y-117719735D01*
X90968818Y-117713299D01*
X90945994Y-117695186D01*
X90920860Y-117682473D01*
X90894259Y-117675180D01*
X90867035Y-117673326D01*
X90840031Y-117676930D01*
X90814090Y-117686014D01*
X90790056Y-117700596D01*
X90780153Y-117708896D01*
X90759996Y-117731240D01*
X90745790Y-117755726D01*
X90737421Y-117782609D01*
X90734775Y-117811137D01*
X90737596Y-117839799D01*
G36*
X90784680Y-118240893D02*
G01*
X90791834Y-118267187D01*
X90804265Y-118291881D01*
X90821982Y-118314111D01*
X90826131Y-118318158D01*
X90849332Y-118335714D01*
X90875030Y-118347781D01*
X90902382Y-118354271D01*
X90930546Y-118355095D01*
X90958679Y-118350165D01*
X90985939Y-118339393D01*
X90992812Y-118335605D01*
X91013946Y-118319681D01*
X91031482Y-118299358D01*
X91044974Y-118275747D01*
X91053972Y-118249962D01*
X91058030Y-118223117D01*
X91056699Y-118196325D01*
X91053958Y-118183605D01*
X91044142Y-118157202D01*
X91029890Y-118134420D01*
X91017525Y-118120487D01*
X90995255Y-118102422D01*
X90970405Y-118089698D01*
X90943863Y-118082336D01*
X90916520Y-118080358D01*
X90889266Y-118083787D01*
X90862989Y-118092646D01*
X90838580Y-118106955D01*
X90827827Y-118115732D01*
X90808700Y-118137037D01*
X90794814Y-118161072D01*
X90786178Y-118186969D01*
X90782797Y-118213865D01*
X90784680Y-118240893D01*
G37*
X90784680Y-118240893D02*
X90791834Y-118267187D01*
X90804265Y-118291881D01*
X90821982Y-118314111D01*
X90826131Y-118318158D01*
X90849332Y-118335714D01*
X90875030Y-118347781D01*
X90902382Y-118354271D01*
X90930546Y-118355095D01*
X90958679Y-118350165D01*
X90985939Y-118339393D01*
X90992812Y-118335605D01*
X91013946Y-118319681D01*
X91031482Y-118299358D01*
X91044974Y-118275747D01*
X91053972Y-118249962D01*
X91058030Y-118223117D01*
X91056699Y-118196325D01*
X91053958Y-118183605D01*
X91044142Y-118157202D01*
X91029890Y-118134420D01*
X91017525Y-118120487D01*
X90995255Y-118102422D01*
X90970405Y-118089698D01*
X90943863Y-118082336D01*
X90916520Y-118080358D01*
X90889266Y-118083787D01*
X90862989Y-118092646D01*
X90838580Y-118106955D01*
X90827827Y-118115732D01*
X90808700Y-118137037D01*
X90794814Y-118161072D01*
X90786178Y-118186969D01*
X90782797Y-118213865D01*
X90784680Y-118240893D01*
G36*
X90800294Y-118584414D02*
G01*
X90802403Y-118596302D01*
X90806082Y-118607350D01*
X90812030Y-118620311D01*
X90812204Y-118620663D01*
X90827755Y-118645605D01*
X90847462Y-118665806D01*
X90871451Y-118681365D01*
X90899846Y-118692380D01*
X90904510Y-118693651D01*
X90921465Y-118697234D01*
X90936445Y-118698205D01*
X90952282Y-118696565D01*
X90966274Y-118693656D01*
X90994348Y-118683938D01*
X91019009Y-118669087D01*
X91039734Y-118649627D01*
X91056003Y-118626077D01*
X91067295Y-118598959D01*
X91069606Y-118590324D01*
X91073356Y-118568716D01*
X91073525Y-118549458D01*
X91072308Y-118539800D01*
X91068111Y-118522909D01*
X91061404Y-118504719D01*
X91053334Y-118488053D01*
X91047485Y-118478797D01*
X91028602Y-118458053D01*
X91006308Y-118441907D01*
X90981525Y-118430502D01*
X90955179Y-118423984D01*
X90928192Y-118422497D01*
X90901489Y-118426185D01*
X90875993Y-118435194D01*
X90854103Y-118448529D01*
X90831738Y-118469013D01*
X90815166Y-118492073D01*
X90804342Y-118517811D01*
X90799220Y-118546325D01*
X90799055Y-118568931D01*
X90800294Y-118584414D01*
G37*
X90800294Y-118584414D02*
X90802403Y-118596302D01*
X90806082Y-118607350D01*
X90812030Y-118620311D01*
X90812204Y-118620663D01*
X90827755Y-118645605D01*
X90847462Y-118665806D01*
X90871451Y-118681365D01*
X90899846Y-118692380D01*
X90904510Y-118693651D01*
X90921465Y-118697234D01*
X90936445Y-118698205D01*
X90952282Y-118696565D01*
X90966274Y-118693656D01*
X90994348Y-118683938D01*
X91019009Y-118669087D01*
X91039734Y-118649627D01*
X91056003Y-118626077D01*
X91067295Y-118598959D01*
X91069606Y-118590324D01*
X91073356Y-118568716D01*
X91073525Y-118549458D01*
X91072308Y-118539800D01*
X91068111Y-118522909D01*
X91061404Y-118504719D01*
X91053334Y-118488053D01*
X91047485Y-118478797D01*
X91028602Y-118458053D01*
X91006308Y-118441907D01*
X90981525Y-118430502D01*
X90955179Y-118423984D01*
X90928192Y-118422497D01*
X90901489Y-118426185D01*
X90875993Y-118435194D01*
X90854103Y-118448529D01*
X90831738Y-118469013D01*
X90815166Y-118492073D01*
X90804342Y-118517811D01*
X90799220Y-118546325D01*
X90799055Y-118568931D01*
X90800294Y-118584414D01*
G36*
X90805588Y-117505887D02*
G01*
X90809305Y-117525707D01*
X90809344Y-117525840D01*
X90818581Y-117547757D01*
X90832510Y-117569046D01*
X90849642Y-117587621D01*
X90858779Y-117595118D01*
X90883556Y-117609722D01*
X90909815Y-117618678D01*
X90936748Y-117622188D01*
X90963549Y-117620457D01*
X90989411Y-117613689D01*
X91013527Y-117602088D01*
X91035090Y-117585859D01*
X91053294Y-117565205D01*
X91066309Y-117542628D01*
X91070277Y-117532097D01*
X91074139Y-117518825D01*
X91077435Y-117504837D01*
X91079703Y-117492163D01*
X91080482Y-117482829D01*
X91080350Y-117480937D01*
X91079632Y-117475700D01*
X91078632Y-117468237D01*
X91071725Y-117439982D01*
X91058948Y-117413756D01*
X91040618Y-117390167D01*
X91034810Y-117384379D01*
X91012165Y-117366965D01*
X90987565Y-117355093D01*
X90961778Y-117348570D01*
X90935574Y-117347202D01*
X90909722Y-117350797D01*
X90884992Y-117359159D01*
X90862153Y-117372096D01*
X90841974Y-117389415D01*
X90825224Y-117410922D01*
X90812673Y-117436423D01*
X90811187Y-117440619D01*
X90806589Y-117460545D01*
X90804703Y-117483234D01*
X90805588Y-117505887D01*
G37*
X90805588Y-117505887D02*
X90809305Y-117525707D01*
X90809344Y-117525840D01*
X90818581Y-117547757D01*
X90832510Y-117569046D01*
X90849642Y-117587621D01*
X90858779Y-117595118D01*
X90883556Y-117609722D01*
X90909815Y-117618678D01*
X90936748Y-117622188D01*
X90963549Y-117620457D01*
X90989411Y-117613689D01*
X91013527Y-117602088D01*
X91035090Y-117585859D01*
X91053294Y-117565205D01*
X91066309Y-117542628D01*
X91070277Y-117532097D01*
X91074139Y-117518825D01*
X91077435Y-117504837D01*
X91079703Y-117492163D01*
X91080482Y-117482829D01*
X91080350Y-117480937D01*
X91079632Y-117475700D01*
X91078632Y-117468237D01*
X91071725Y-117439982D01*
X91058948Y-117413756D01*
X91040618Y-117390167D01*
X91034810Y-117384379D01*
X91012165Y-117366965D01*
X90987565Y-117355093D01*
X90961778Y-117348570D01*
X90935574Y-117347202D01*
X90909722Y-117350797D01*
X90884992Y-117359159D01*
X90862153Y-117372096D01*
X90841974Y-117389415D01*
X90825224Y-117410922D01*
X90812673Y-117436423D01*
X90811187Y-117440619D01*
X90806589Y-117460545D01*
X90804703Y-117483234D01*
X90805588Y-117505887D01*
G36*
X90852153Y-116863602D02*
G01*
X90862593Y-116889491D01*
X90877491Y-116912109D01*
X90896173Y-116931070D01*
X90917966Y-116945986D01*
X90942195Y-116956472D01*
X90968186Y-116962140D01*
X90995267Y-116962605D01*
X91022762Y-116957479D01*
X91045387Y-116948717D01*
X91069225Y-116933746D01*
X91089158Y-116914356D01*
X91104772Y-116891431D01*
X91115653Y-116865855D01*
X91121385Y-116838514D01*
X91121556Y-116810293D01*
X91118597Y-116792357D01*
X91109267Y-116765918D01*
X91094789Y-116742427D01*
X91075911Y-116722464D01*
X91053379Y-116706610D01*
X91027938Y-116695449D01*
X91000335Y-116689560D01*
X90985679Y-116688775D01*
X90956392Y-116691155D01*
X90930600Y-116698532D01*
X90907464Y-116711255D01*
X90886150Y-116729676D01*
X90884743Y-116731148D01*
X90866605Y-116754571D01*
X90854098Y-116780263D01*
X90847460Y-116807568D01*
X90846846Y-116834828D01*
X90852153Y-116863602D01*
G37*
X90852153Y-116863602D02*
X90862593Y-116889491D01*
X90877491Y-116912109D01*
X90896173Y-116931070D01*
X90917966Y-116945986D01*
X90942195Y-116956472D01*
X90968186Y-116962140D01*
X90995267Y-116962605D01*
X91022762Y-116957479D01*
X91045387Y-116948717D01*
X91069225Y-116933746D01*
X91089158Y-116914356D01*
X91104772Y-116891431D01*
X91115653Y-116865855D01*
X91121385Y-116838514D01*
X91121556Y-116810293D01*
X91118597Y-116792357D01*
X91109267Y-116765918D01*
X91094789Y-116742427D01*
X91075911Y-116722464D01*
X91053379Y-116706610D01*
X91027938Y-116695449D01*
X91000335Y-116689560D01*
X90985679Y-116688775D01*
X90956392Y-116691155D01*
X90930600Y-116698532D01*
X90907464Y-116711255D01*
X90886150Y-116729676D01*
X90884743Y-116731148D01*
X90866605Y-116754571D01*
X90854098Y-116780263D01*
X90847460Y-116807568D01*
X90846846Y-116834828D01*
X90852153Y-116863602D01*
G36*
X91061620Y-118041081D02*
G01*
X91063372Y-118048692D01*
X91070962Y-118071378D01*
X91081546Y-118090646D01*
X91096600Y-118109153D01*
X91097468Y-118110076D01*
X91118647Y-118128974D01*
X91141275Y-118142044D01*
X91166181Y-118149609D01*
X91194194Y-118151992D01*
X91204362Y-118151690D01*
X91233842Y-118147574D01*
X91259607Y-118138475D01*
X91282219Y-118124104D01*
X91302242Y-118104170D01*
X91306152Y-118099273D01*
X91318908Y-118078332D01*
X91328067Y-118054198D01*
X91333267Y-118028641D01*
X91334144Y-118003430D01*
X91330426Y-117980641D01*
X91319643Y-117953678D01*
X91304191Y-117930016D01*
X91284814Y-117910145D01*
X91262255Y-117894553D01*
X91237256Y-117883730D01*
X91210561Y-117878164D01*
X91182913Y-117878344D01*
X91176369Y-117879271D01*
X91148326Y-117886931D01*
X91123273Y-117899567D01*
X91101672Y-117916486D01*
X91083985Y-117936996D01*
X91070674Y-117960403D01*
X91062202Y-117986015D01*
X91059030Y-118013139D01*
X91061620Y-118041081D01*
G37*
X91061620Y-118041081D02*
X91063372Y-118048692D01*
X91070962Y-118071378D01*
X91081546Y-118090646D01*
X91096600Y-118109153D01*
X91097468Y-118110076D01*
X91118647Y-118128974D01*
X91141275Y-118142044D01*
X91166181Y-118149609D01*
X91194194Y-118151992D01*
X91204362Y-118151690D01*
X91233842Y-118147574D01*
X91259607Y-118138475D01*
X91282219Y-118124104D01*
X91302242Y-118104170D01*
X91306152Y-118099273D01*
X91318908Y-118078332D01*
X91328067Y-118054198D01*
X91333267Y-118028641D01*
X91334144Y-118003430D01*
X91330426Y-117980641D01*
X91319643Y-117953678D01*
X91304191Y-117930016D01*
X91284814Y-117910145D01*
X91262255Y-117894553D01*
X91237256Y-117883730D01*
X91210561Y-117878164D01*
X91182913Y-117878344D01*
X91176369Y-117879271D01*
X91148326Y-117886931D01*
X91123273Y-117899567D01*
X91101672Y-117916486D01*
X91083985Y-117936996D01*
X91070674Y-117960403D01*
X91062202Y-117986015D01*
X91059030Y-118013139D01*
X91061620Y-118041081D01*
G36*
X91063374Y-117271587D02*
G01*
X91073322Y-117299154D01*
X91074835Y-117302207D01*
X91083135Y-117315095D01*
X91094961Y-117329279D01*
X91108417Y-117342758D01*
X91121602Y-117353528D01*
X91126486Y-117356694D01*
X91150469Y-117367332D01*
X91176878Y-117373188D01*
X91204259Y-117374282D01*
X91231158Y-117370632D01*
X91256121Y-117362258D01*
X91269762Y-117354847D01*
X91291930Y-117337102D01*
X91309891Y-117315512D01*
X91323263Y-117291041D01*
X91331660Y-117264655D01*
X91334701Y-117237317D01*
X91332000Y-117209993D01*
X91330243Y-117202766D01*
X91319504Y-117175261D01*
X91303695Y-117151152D01*
X91283418Y-117130980D01*
X91259274Y-117115288D01*
X91231867Y-117104618D01*
X91217644Y-117101424D01*
X91191230Y-117099912D01*
X91164341Y-117104030D01*
X91138345Y-117113328D01*
X91114609Y-117127359D01*
X91099759Y-117140068D01*
X91081437Y-117162678D01*
X91068505Y-117187991D01*
X91061097Y-117215150D01*
X91059343Y-117243301D01*
X91063374Y-117271587D01*
G37*
X91063374Y-117271587D02*
X91073322Y-117299154D01*
X91074835Y-117302207D01*
X91083135Y-117315095D01*
X91094961Y-117329279D01*
X91108417Y-117342758D01*
X91121602Y-117353528D01*
X91126486Y-117356694D01*
X91150469Y-117367332D01*
X91176878Y-117373188D01*
X91204259Y-117374282D01*
X91231158Y-117370632D01*
X91256121Y-117362258D01*
X91269762Y-117354847D01*
X91291930Y-117337102D01*
X91309891Y-117315512D01*
X91323263Y-117291041D01*
X91331660Y-117264655D01*
X91334701Y-117237317D01*
X91332000Y-117209993D01*
X91330243Y-117202766D01*
X91319504Y-117175261D01*
X91303695Y-117151152D01*
X91283418Y-117130980D01*
X91259274Y-117115288D01*
X91231867Y-117104618D01*
X91217644Y-117101424D01*
X91191230Y-117099912D01*
X91164341Y-117104030D01*
X91138345Y-117113328D01*
X91114609Y-117127359D01*
X91099759Y-117140068D01*
X91081437Y-117162678D01*
X91068505Y-117187991D01*
X91061097Y-117215150D01*
X91059343Y-117243301D01*
X91063374Y-117271587D01*
G36*
X91071813Y-116608931D02*
G01*
X91078509Y-116629301D01*
X91091866Y-116651189D01*
X91110068Y-116670269D01*
X91131872Y-116685542D01*
X91156036Y-116696007D01*
X91164062Y-116698176D01*
X91178467Y-116700282D01*
X91196805Y-116701240D01*
X91216768Y-116701092D01*
X91236049Y-116699877D01*
X91252344Y-116697636D01*
X91257157Y-116696554D01*
X91282430Y-116686781D01*
X91304825Y-116671705D01*
X91323495Y-116652042D01*
X91337445Y-116628831D01*
X91343468Y-116610401D01*
X91346699Y-116588814D01*
X91347022Y-116566541D01*
X91344317Y-116546054D01*
X91341818Y-116537326D01*
X91329698Y-116511761D01*
X91313258Y-116490817D01*
X91292587Y-116474544D01*
X91267774Y-116462993D01*
X91238907Y-116456214D01*
X91206074Y-116454257D01*
X91195897Y-116454594D01*
X91164466Y-116458731D01*
X91137210Y-116467627D01*
X91114157Y-116481263D01*
X91095336Y-116499619D01*
X91080775Y-116522673D01*
X91072902Y-116542302D01*
X91068845Y-116562892D01*
X91068537Y-116585947D01*
X91071813Y-116608931D01*
G37*
X91071813Y-116608931D02*
X91078509Y-116629301D01*
X91091866Y-116651189D01*
X91110068Y-116670269D01*
X91131872Y-116685542D01*
X91156036Y-116696007D01*
X91164062Y-116698176D01*
X91178467Y-116700282D01*
X91196805Y-116701240D01*
X91216768Y-116701092D01*
X91236049Y-116699877D01*
X91252344Y-116697636D01*
X91257157Y-116696554D01*
X91282430Y-116686781D01*
X91304825Y-116671705D01*
X91323495Y-116652042D01*
X91337445Y-116628831D01*
X91343468Y-116610401D01*
X91346699Y-116588814D01*
X91347022Y-116566541D01*
X91344317Y-116546054D01*
X91341818Y-116537326D01*
X91329698Y-116511761D01*
X91313258Y-116490817D01*
X91292587Y-116474544D01*
X91267774Y-116462993D01*
X91238907Y-116456214D01*
X91206074Y-116454257D01*
X91195897Y-116454594D01*
X91164466Y-116458731D01*
X91137210Y-116467627D01*
X91114157Y-116481263D01*
X91095336Y-116499619D01*
X91080775Y-116522673D01*
X91072902Y-116542302D01*
X91068845Y-116562892D01*
X91068537Y-116585947D01*
X91071813Y-116608931D01*
G36*
X91070169Y-115131654D02*
G01*
X91077254Y-115157779D01*
X91089633Y-115181072D01*
X91106931Y-115200946D01*
X91128774Y-115216814D01*
X91146724Y-115225283D01*
X91162205Y-115229568D01*
X91181705Y-115232577D01*
X91202998Y-115234164D01*
X91223856Y-115234183D01*
X91242049Y-115232489D01*
X91245985Y-115231768D01*
X91272746Y-115223315D01*
X91296685Y-115209987D01*
X91316928Y-115192449D01*
X91332602Y-115171365D01*
X91337276Y-115162348D01*
X91342632Y-115146126D01*
X91345966Y-115126492D01*
X91347122Y-115105852D01*
X91345939Y-115086616D01*
X91343122Y-115073608D01*
X91332497Y-115050090D01*
X91317182Y-115028868D01*
X91298307Y-115011172D01*
X91277001Y-114998232D01*
X91271990Y-114996103D01*
X91256570Y-114991794D01*
X91236962Y-114988823D01*
X91215204Y-114987269D01*
X91193332Y-114987212D01*
X91173383Y-114988730D01*
X91158161Y-114991677D01*
X91131766Y-115002300D01*
X91109421Y-115017571D01*
X91091531Y-115036988D01*
X91078499Y-115060049D01*
X91070726Y-115086250D01*
X91068754Y-115103284D01*
X91070169Y-115131654D01*
G37*
X91070169Y-115131654D02*
X91077254Y-115157779D01*
X91089633Y-115181072D01*
X91106931Y-115200946D01*
X91128774Y-115216814D01*
X91146724Y-115225283D01*
X91162205Y-115229568D01*
X91181705Y-115232577D01*
X91202998Y-115234164D01*
X91223856Y-115234183D01*
X91242049Y-115232489D01*
X91245985Y-115231768D01*
X91272746Y-115223315D01*
X91296685Y-115209987D01*
X91316928Y-115192449D01*
X91332602Y-115171365D01*
X91337276Y-115162348D01*
X91342632Y-115146126D01*
X91345966Y-115126492D01*
X91347122Y-115105852D01*
X91345939Y-115086616D01*
X91343122Y-115073608D01*
X91332497Y-115050090D01*
X91317182Y-115028868D01*
X91298307Y-115011172D01*
X91277001Y-114998232D01*
X91271990Y-114996103D01*
X91256570Y-114991794D01*
X91236962Y-114988823D01*
X91215204Y-114987269D01*
X91193332Y-114987212D01*
X91173383Y-114988730D01*
X91158161Y-114991677D01*
X91131766Y-115002300D01*
X91109421Y-115017571D01*
X91091531Y-115036988D01*
X91078499Y-115060049D01*
X91070726Y-115086250D01*
X91068754Y-115103284D01*
X91070169Y-115131654D01*
G36*
X90131735Y-117594775D02*
G01*
X90132267Y-117631688D01*
X90133287Y-117667109D01*
X90134784Y-117699472D01*
X90136352Y-117722520D01*
X90147918Y-117828328D01*
X90165296Y-117931697D01*
X90188569Y-118032928D01*
X90217822Y-118132327D01*
X90253138Y-118230195D01*
X90294604Y-118326835D01*
X90317623Y-118374700D01*
X90367676Y-118468096D01*
X90422920Y-118557903D01*
X90483196Y-118643950D01*
X90548346Y-118726069D01*
X90618209Y-118804090D01*
X90692627Y-118877845D01*
X90771442Y-118947163D01*
X90854493Y-119011876D01*
X90941624Y-119071814D01*
X91013906Y-119116068D01*
X91033119Y-119126898D01*
X91054964Y-119138675D01*
X91078539Y-119150961D01*
X91102943Y-119163319D01*
X91127275Y-119175310D01*
X91150633Y-119186499D01*
X91172116Y-119196446D01*
X91190823Y-119204716D01*
X91205853Y-119210870D01*
X91216304Y-119214471D01*
X91217115Y-119214687D01*
X91241216Y-119217716D01*
X91265009Y-119214896D01*
X91287491Y-119206691D01*
X91307655Y-119193564D01*
X91324496Y-119175978D01*
X91333980Y-119160854D01*
X91341117Y-119140881D01*
X91344144Y-119118231D01*
X91342960Y-119095155D01*
X91337844Y-119074885D01*
X91331358Y-119060662D01*
X91322954Y-119048309D01*
X91311806Y-119037142D01*
X91297089Y-119026476D01*
X91277977Y-119015628D01*
X91253645Y-119003913D01*
X91250575Y-119002524D01*
X91171951Y-118964048D01*
X91093718Y-118919643D01*
X91016541Y-118869722D01*
X90941082Y-118814701D01*
X90907812Y-118788346D01*
X90893204Y-118775921D01*
X90875185Y-118759710D01*
X90854625Y-118740572D01*
X90832394Y-118719365D01*
X90809364Y-118696948D01*
X90786405Y-118674178D01*
X90764387Y-118651915D01*
X90744182Y-118631016D01*
X90726660Y-118612339D01*
X90712692Y-118596744D01*
X90708817Y-118592187D01*
X90646053Y-118512196D01*
X90588993Y-118429450D01*
X90537680Y-118344054D01*
X90492157Y-118256113D01*
X90452466Y-118165730D01*
X90418649Y-118073010D01*
X90390749Y-117978058D01*
X90368809Y-117880977D01*
X90352870Y-117781873D01*
X90344006Y-117695250D01*
X90342936Y-117676047D01*
X90342208Y-117652042D01*
X90341805Y-117624435D01*
X90341714Y-117594429D01*
X90341919Y-117563224D01*
X90342405Y-117532023D01*
X90343159Y-117502028D01*
X90344164Y-117474439D01*
X90345406Y-117450458D01*
X90346871Y-117431287D01*
X90347317Y-117426962D01*
X90359798Y-117334862D01*
X90376409Y-117246871D01*
X90397416Y-117162062D01*
X90423082Y-117079508D01*
X90453670Y-116998283D01*
X90489445Y-116917459D01*
X90496355Y-116903087D01*
X90533311Y-116831088D01*
X90571972Y-116763868D01*
X90613339Y-116699916D01*
X90658411Y-116637719D01*
X90708187Y-116575766D01*
X90728288Y-116552267D01*
X90788300Y-116487590D01*
X90853579Y-116425401D01*
X90923333Y-116366282D01*
X90996774Y-116310811D01*
X91073110Y-116259568D01*
X91151553Y-116213132D01*
X91231311Y-116172084D01*
X91271554Y-116153710D01*
X91291783Y-116144504D01*
X91307153Y-116136487D01*
X91318832Y-116128844D01*
X91327988Y-116120763D01*
X91335788Y-116111431D01*
X91339143Y-116106642D01*
X91351449Y-116083535D01*
X91357515Y-116059947D01*
X91357451Y-116035412D01*
X91356908Y-116031550D01*
X91350002Y-116006923D01*
X91337937Y-115985451D01*
X91321371Y-115967738D01*
X91300962Y-115954387D01*
X91277366Y-115946003D01*
X91261201Y-115943547D01*
X91251507Y-115943205D01*
X91241789Y-115943932D01*
X91231191Y-115946006D01*
X91218856Y-115949703D01*
X91203928Y-115955303D01*
X91185549Y-115963082D01*
X91162864Y-115973319D01*
X91147650Y-115980374D01*
X91057652Y-116025707D01*
X90969738Y-116076758D01*
X90883669Y-116133680D01*
X90799205Y-116196623D01*
X90775520Y-116215583D01*
X90756792Y-116231427D01*
X90734828Y-116251044D01*
X90710509Y-116273562D01*
X90684718Y-116298112D01*
X90658336Y-116323824D01*
X90632244Y-116349827D01*
X90607324Y-116375253D01*
X90584457Y-116399230D01*
X90564526Y-116420890D01*
X90548412Y-116439361D01*
X90546848Y-116441236D01*
X90479864Y-116526811D01*
X90418633Y-116615055D01*
X90363185Y-116705891D01*
X90313551Y-116799242D01*
X90269763Y-116895032D01*
X90231851Y-116993185D01*
X90199846Y-117093623D01*
X90173779Y-117196270D01*
X90153680Y-117301049D01*
X90139581Y-117407884D01*
X90134686Y-117463475D01*
X90133167Y-117490719D01*
X90132175Y-117522726D01*
X90131701Y-117557933D01*
X90131735Y-117594775D01*
G37*
X90131735Y-117594775D02*
X90132267Y-117631688D01*
X90133287Y-117667109D01*
X90134784Y-117699472D01*
X90136352Y-117722520D01*
X90147918Y-117828328D01*
X90165296Y-117931697D01*
X90188569Y-118032928D01*
X90217822Y-118132327D01*
X90253138Y-118230195D01*
X90294604Y-118326835D01*
X90317623Y-118374700D01*
X90367676Y-118468096D01*
X90422920Y-118557903D01*
X90483196Y-118643950D01*
X90548346Y-118726069D01*
X90618209Y-118804090D01*
X90692627Y-118877845D01*
X90771442Y-118947163D01*
X90854493Y-119011876D01*
X90941624Y-119071814D01*
X91013906Y-119116068D01*
X91033119Y-119126898D01*
X91054964Y-119138675D01*
X91078539Y-119150961D01*
X91102943Y-119163319D01*
X91127275Y-119175310D01*
X91150633Y-119186499D01*
X91172116Y-119196446D01*
X91190823Y-119204716D01*
X91205853Y-119210870D01*
X91216304Y-119214471D01*
X91217115Y-119214687D01*
X91241216Y-119217716D01*
X91265009Y-119214896D01*
X91287491Y-119206691D01*
X91307655Y-119193564D01*
X91324496Y-119175978D01*
X91333980Y-119160854D01*
X91341117Y-119140881D01*
X91344144Y-119118231D01*
X91342960Y-119095155D01*
X91337844Y-119074885D01*
X91331358Y-119060662D01*
X91322954Y-119048309D01*
X91311806Y-119037142D01*
X91297089Y-119026476D01*
X91277977Y-119015628D01*
X91253645Y-119003913D01*
X91250575Y-119002524D01*
X91171951Y-118964048D01*
X91093718Y-118919643D01*
X91016541Y-118869722D01*
X90941082Y-118814701D01*
X90907812Y-118788346D01*
X90893204Y-118775921D01*
X90875185Y-118759710D01*
X90854625Y-118740572D01*
X90832394Y-118719365D01*
X90809364Y-118696948D01*
X90786405Y-118674178D01*
X90764387Y-118651915D01*
X90744182Y-118631016D01*
X90726660Y-118612339D01*
X90712692Y-118596744D01*
X90708817Y-118592187D01*
X90646053Y-118512196D01*
X90588993Y-118429450D01*
X90537680Y-118344054D01*
X90492157Y-118256113D01*
X90452466Y-118165730D01*
X90418649Y-118073010D01*
X90390749Y-117978058D01*
X90368809Y-117880977D01*
X90352870Y-117781873D01*
X90344006Y-117695250D01*
X90342936Y-117676047D01*
X90342208Y-117652042D01*
X90341805Y-117624435D01*
X90341714Y-117594429D01*
X90341919Y-117563224D01*
X90342405Y-117532023D01*
X90343159Y-117502028D01*
X90344164Y-117474439D01*
X90345406Y-117450458D01*
X90346871Y-117431287D01*
X90347317Y-117426962D01*
X90359798Y-117334862D01*
X90376409Y-117246871D01*
X90397416Y-117162062D01*
X90423082Y-117079508D01*
X90453670Y-116998283D01*
X90489445Y-116917459D01*
X90496355Y-116903087D01*
X90533311Y-116831088D01*
X90571972Y-116763868D01*
X90613339Y-116699916D01*
X90658411Y-116637719D01*
X90708187Y-116575766D01*
X90728288Y-116552267D01*
X90788300Y-116487590D01*
X90853579Y-116425401D01*
X90923333Y-116366282D01*
X90996774Y-116310811D01*
X91073110Y-116259568D01*
X91151553Y-116213132D01*
X91231311Y-116172084D01*
X91271554Y-116153710D01*
X91291783Y-116144504D01*
X91307153Y-116136487D01*
X91318832Y-116128844D01*
X91327988Y-116120763D01*
X91335788Y-116111431D01*
X91339143Y-116106642D01*
X91351449Y-116083535D01*
X91357515Y-116059947D01*
X91357451Y-116035412D01*
X91356908Y-116031550D01*
X91350002Y-116006923D01*
X91337937Y-115985451D01*
X91321371Y-115967738D01*
X91300962Y-115954387D01*
X91277366Y-115946003D01*
X91261201Y-115943547D01*
X91251507Y-115943205D01*
X91241789Y-115943932D01*
X91231191Y-115946006D01*
X91218856Y-115949703D01*
X91203928Y-115955303D01*
X91185549Y-115963082D01*
X91162864Y-115973319D01*
X91147650Y-115980374D01*
X91057652Y-116025707D01*
X90969738Y-116076758D01*
X90883669Y-116133680D01*
X90799205Y-116196623D01*
X90775520Y-116215583D01*
X90756792Y-116231427D01*
X90734828Y-116251044D01*
X90710509Y-116273562D01*
X90684718Y-116298112D01*
X90658336Y-116323824D01*
X90632244Y-116349827D01*
X90607324Y-116375253D01*
X90584457Y-116399230D01*
X90564526Y-116420890D01*
X90548412Y-116439361D01*
X90546848Y-116441236D01*
X90479864Y-116526811D01*
X90418633Y-116615055D01*
X90363185Y-116705891D01*
X90313551Y-116799242D01*
X90269763Y-116895032D01*
X90231851Y-116993185D01*
X90199846Y-117093623D01*
X90173779Y-117196270D01*
X90153680Y-117301049D01*
X90139581Y-117407884D01*
X90134686Y-117463475D01*
X90133167Y-117490719D01*
X90132175Y-117522726D01*
X90131701Y-117557933D01*
X90131735Y-117594775D01*
G36*
X91108400Y-118454058D02*
G01*
X91117767Y-118480110D01*
X91131994Y-118503925D01*
X91150610Y-118524434D01*
X91166748Y-118536736D01*
X91192109Y-118549567D01*
X91218619Y-118556771D01*
X91245489Y-118558624D01*
X91271930Y-118555400D01*
X91297152Y-118547377D01*
X91320367Y-118534829D01*
X91340786Y-118518032D01*
X91357620Y-118497262D01*
X91370079Y-118472794D01*
X91372861Y-118464725D01*
X91377487Y-118443333D01*
X91379140Y-118420303D01*
X91377802Y-118398058D01*
X91373588Y-118379421D01*
X91361215Y-118352152D01*
X91344305Y-118329116D01*
X91334748Y-118319648D01*
X91311387Y-118302498D01*
X91286405Y-118291007D01*
X91260513Y-118284926D01*
X91234421Y-118284008D01*
X91208839Y-118288004D01*
X91184477Y-118296666D01*
X91162046Y-118309746D01*
X91142255Y-118326996D01*
X91125815Y-118348168D01*
X91113436Y-118373014D01*
X91106134Y-118399514D01*
X91104365Y-118426836D01*
X91108400Y-118454058D01*
G37*
X91108400Y-118454058D02*
X91117767Y-118480110D01*
X91131994Y-118503925D01*
X91150610Y-118524434D01*
X91166748Y-118536736D01*
X91192109Y-118549567D01*
X91218619Y-118556771D01*
X91245489Y-118558624D01*
X91271930Y-118555400D01*
X91297152Y-118547377D01*
X91320367Y-118534829D01*
X91340786Y-118518032D01*
X91357620Y-118497262D01*
X91370079Y-118472794D01*
X91372861Y-118464725D01*
X91377487Y-118443333D01*
X91379140Y-118420303D01*
X91377802Y-118398058D01*
X91373588Y-118379421D01*
X91361215Y-118352152D01*
X91344305Y-118329116D01*
X91334748Y-118319648D01*
X91311387Y-118302498D01*
X91286405Y-118291007D01*
X91260513Y-118284926D01*
X91234421Y-118284008D01*
X91208839Y-118288004D01*
X91184477Y-118296666D01*
X91162046Y-118309746D01*
X91142255Y-118326996D01*
X91125815Y-118348168D01*
X91113436Y-118373014D01*
X91106134Y-118399514D01*
X91104365Y-118426836D01*
X91108400Y-118454058D01*
G36*
X91151455Y-118818174D02*
G01*
X91157811Y-118844288D01*
X91169197Y-118868871D01*
X91185580Y-118891073D01*
X91204401Y-118908187D01*
X91225435Y-118921613D01*
X91246916Y-118930070D01*
X91270785Y-118934196D01*
X91285637Y-118934849D01*
X91309470Y-118933731D01*
X91329822Y-118929471D01*
X91349076Y-118921366D01*
X91365970Y-118911191D01*
X91386257Y-118893977D01*
X91402885Y-118872436D01*
X91415291Y-118847781D01*
X91422914Y-118821227D01*
X91425194Y-118793988D01*
X91424601Y-118784275D01*
X91418740Y-118756948D01*
X91407289Y-118731238D01*
X91390976Y-118708220D01*
X91370527Y-118688969D01*
X91352312Y-118677333D01*
X91325311Y-118666535D01*
X91297282Y-118661489D01*
X91269170Y-118662091D01*
X91241917Y-118668236D01*
X91216467Y-118679822D01*
X91196263Y-118694480D01*
X91176982Y-118715462D01*
X91162893Y-118739175D01*
X91153964Y-118764766D01*
X91150162Y-118791383D01*
X91151455Y-118818174D01*
G37*
X91151455Y-118818174D02*
X91157811Y-118844288D01*
X91169197Y-118868871D01*
X91185580Y-118891073D01*
X91204401Y-118908187D01*
X91225435Y-118921613D01*
X91246916Y-118930070D01*
X91270785Y-118934196D01*
X91285637Y-118934849D01*
X91309470Y-118933731D01*
X91329822Y-118929471D01*
X91349076Y-118921366D01*
X91365970Y-118911191D01*
X91386257Y-118893977D01*
X91402885Y-118872436D01*
X91415291Y-118847781D01*
X91422914Y-118821227D01*
X91425194Y-118793988D01*
X91424601Y-118784275D01*
X91418740Y-118756948D01*
X91407289Y-118731238D01*
X91390976Y-118708220D01*
X91370527Y-118688969D01*
X91352312Y-118677333D01*
X91325311Y-118666535D01*
X91297282Y-118661489D01*
X91269170Y-118662091D01*
X91241917Y-118668236D01*
X91216467Y-118679822D01*
X91196263Y-118694480D01*
X91176982Y-118715462D01*
X91162893Y-118739175D01*
X91153964Y-118764766D01*
X91150162Y-118791383D01*
X91151455Y-118818174D01*
G36*
X91176055Y-117693662D02*
G01*
X91183700Y-117721468D01*
X91196882Y-117747027D01*
X91214936Y-117769459D01*
X91237197Y-117787884D01*
X91254765Y-117797850D01*
X91264478Y-117802262D01*
X91272555Y-117805162D01*
X91280801Y-117806867D01*
X91291017Y-117807690D01*
X91305006Y-117807947D01*
X91312625Y-117807962D01*
X91328778Y-117807853D01*
X91340387Y-117807313D01*
X91349259Y-117806026D01*
X91357197Y-117803676D01*
X91366008Y-117799944D01*
X91370644Y-117797775D01*
X91394619Y-117783092D01*
X91415574Y-117763646D01*
X91432208Y-117740738D01*
X91437291Y-117731044D01*
X91442164Y-117719942D01*
X91445269Y-117710310D01*
X91447070Y-117699924D01*
X91448028Y-117686560D01*
X91448343Y-117677787D01*
X91448487Y-117660013D01*
X91447563Y-117646615D01*
X91445381Y-117635678D01*
X91443613Y-117630121D01*
X91430599Y-117602378D01*
X91413064Y-117578944D01*
X91391389Y-117560135D01*
X91365953Y-117546268D01*
X91337135Y-117537658D01*
X91331586Y-117536686D01*
X91303653Y-117535289D01*
X91276948Y-117539608D01*
X91252068Y-117549041D01*
X91229610Y-117562987D01*
X91210168Y-117580843D01*
X91194341Y-117602007D01*
X91182724Y-117625878D01*
X91175915Y-117651852D01*
X91174509Y-117679329D01*
X91176055Y-117693662D01*
G37*
X91176055Y-117693662D02*
X91183700Y-117721468D01*
X91196882Y-117747027D01*
X91214936Y-117769459D01*
X91237197Y-117787884D01*
X91254765Y-117797850D01*
X91264478Y-117802262D01*
X91272555Y-117805162D01*
X91280801Y-117806867D01*
X91291017Y-117807690D01*
X91305006Y-117807947D01*
X91312625Y-117807962D01*
X91328778Y-117807853D01*
X91340387Y-117807313D01*
X91349259Y-117806026D01*
X91357197Y-117803676D01*
X91366008Y-117799944D01*
X91370644Y-117797775D01*
X91394619Y-117783092D01*
X91415574Y-117763646D01*
X91432208Y-117740738D01*
X91437291Y-117731044D01*
X91442164Y-117719942D01*
X91445269Y-117710310D01*
X91447070Y-117699924D01*
X91448028Y-117686560D01*
X91448343Y-117677787D01*
X91448487Y-117660013D01*
X91447563Y-117646615D01*
X91445381Y-117635678D01*
X91443613Y-117630121D01*
X91430599Y-117602378D01*
X91413064Y-117578944D01*
X91391389Y-117560135D01*
X91365953Y-117546268D01*
X91337135Y-117537658D01*
X91331586Y-117536686D01*
X91303653Y-117535289D01*
X91276948Y-117539608D01*
X91252068Y-117549041D01*
X91229610Y-117562987D01*
X91210168Y-117580843D01*
X91194341Y-117602007D01*
X91182724Y-117625878D01*
X91175915Y-117651852D01*
X91174509Y-117679329D01*
X91176055Y-117693662D01*
G36*
X91182617Y-116899404D02*
G01*
X91189563Y-116927975D01*
X91190037Y-116929316D01*
X91200365Y-116950224D01*
X91215423Y-116970337D01*
X91233665Y-116987992D01*
X91253546Y-117001527D01*
X91260268Y-117004835D01*
X91288570Y-117014158D01*
X91316946Y-117017516D01*
X91344664Y-117015169D01*
X91370992Y-117007375D01*
X91395199Y-116994394D01*
X91416553Y-116976487D01*
X91434322Y-116953913D01*
X91441915Y-116940390D01*
X91447451Y-116928731D01*
X91450992Y-116919396D01*
X91453036Y-116910188D01*
X91454079Y-116898909D01*
X91454595Y-116884326D01*
X91454381Y-116861559D01*
X91452416Y-116844402D01*
X91450666Y-116837461D01*
X91443301Y-116820594D01*
X91432212Y-116802594D01*
X91419028Y-116785747D01*
X91405374Y-116772343D01*
X91403112Y-116770563D01*
X91379099Y-116756036D01*
X91352589Y-116747024D01*
X91327513Y-116743496D01*
X91298377Y-116744522D01*
X91271450Y-116751042D01*
X91247182Y-116762447D01*
X91226023Y-116778128D01*
X91208424Y-116797479D01*
X91194834Y-116819889D01*
X91185703Y-116844753D01*
X91181481Y-116871460D01*
X91182617Y-116899404D01*
G37*
X91182617Y-116899404D02*
X91189563Y-116927975D01*
X91190037Y-116929316D01*
X91200365Y-116950224D01*
X91215423Y-116970337D01*
X91233665Y-116987992D01*
X91253546Y-117001527D01*
X91260268Y-117004835D01*
X91288570Y-117014158D01*
X91316946Y-117017516D01*
X91344664Y-117015169D01*
X91370992Y-117007375D01*
X91395199Y-116994394D01*
X91416553Y-116976487D01*
X91434322Y-116953913D01*
X91441915Y-116940390D01*
X91447451Y-116928731D01*
X91450992Y-116919396D01*
X91453036Y-116910188D01*
X91454079Y-116898909D01*
X91454595Y-116884326D01*
X91454381Y-116861559D01*
X91452416Y-116844402D01*
X91450666Y-116837461D01*
X91443301Y-116820594D01*
X91432212Y-116802594D01*
X91419028Y-116785747D01*
X91405374Y-116772343D01*
X91403112Y-116770563D01*
X91379099Y-116756036D01*
X91352589Y-116747024D01*
X91327513Y-116743496D01*
X91298377Y-116744522D01*
X91271450Y-116751042D01*
X91247182Y-116762447D01*
X91226023Y-116778128D01*
X91208424Y-116797479D01*
X91194834Y-116819889D01*
X91185703Y-116844753D01*
X91181481Y-116871460D01*
X91182617Y-116899404D01*
G36*
X91224656Y-116335263D02*
G01*
X91232970Y-116361983D01*
X91246952Y-116386773D01*
X91264775Y-116407314D01*
X91287931Y-116425398D01*
X91312976Y-116437851D01*
X91339153Y-116444816D01*
X91365706Y-116446435D01*
X91391881Y-116442850D01*
X91416922Y-116434206D01*
X91440074Y-116420643D01*
X91460581Y-116402305D01*
X91477687Y-116379335D01*
X91484923Y-116365745D01*
X91489941Y-116354214D01*
X91493076Y-116344159D01*
X91494835Y-116333190D01*
X91495727Y-116318918D01*
X91495887Y-116314125D01*
X91495952Y-116296195D01*
X91494750Y-116282189D01*
X91492026Y-116269762D01*
X91490623Y-116265220D01*
X91479118Y-116239262D01*
X91463514Y-116217448D01*
X91444540Y-116199820D01*
X91422929Y-116186417D01*
X91399410Y-116177283D01*
X91374714Y-116172456D01*
X91349573Y-116171980D01*
X91324717Y-116175895D01*
X91300877Y-116184241D01*
X91278783Y-116197060D01*
X91259167Y-116214394D01*
X91242760Y-116236283D01*
X91235108Y-116250846D01*
X91225586Y-116278961D01*
X91222148Y-116307345D01*
X91224656Y-116335263D01*
G37*
X91224656Y-116335263D02*
X91232970Y-116361983D01*
X91246952Y-116386773D01*
X91264775Y-116407314D01*
X91287931Y-116425398D01*
X91312976Y-116437851D01*
X91339153Y-116444816D01*
X91365706Y-116446435D01*
X91391881Y-116442850D01*
X91416922Y-116434206D01*
X91440074Y-116420643D01*
X91460581Y-116402305D01*
X91477687Y-116379335D01*
X91484923Y-116365745D01*
X91489941Y-116354214D01*
X91493076Y-116344159D01*
X91494835Y-116333190D01*
X91495727Y-116318918D01*
X91495887Y-116314125D01*
X91495952Y-116296195D01*
X91494750Y-116282189D01*
X91492026Y-116269762D01*
X91490623Y-116265220D01*
X91479118Y-116239262D01*
X91463514Y-116217448D01*
X91444540Y-116199820D01*
X91422929Y-116186417D01*
X91399410Y-116177283D01*
X91374714Y-116172456D01*
X91349573Y-116171980D01*
X91324717Y-116175895D01*
X91300877Y-116184241D01*
X91278783Y-116197060D01*
X91259167Y-116214394D01*
X91242760Y-116236283D01*
X91235108Y-116250846D01*
X91225586Y-116278961D01*
X91222148Y-116307345D01*
X91224656Y-116335263D01*
G36*
X91406238Y-118224483D02*
G01*
X91417610Y-118275947D01*
X91434736Y-118325487D01*
X91448843Y-118356105D01*
X91464545Y-118383938D01*
X91481286Y-118408231D01*
X91498512Y-118428229D01*
X91515665Y-118443177D01*
X91526068Y-118449602D01*
X91549494Y-118458286D01*
X91573410Y-118461169D01*
X91596924Y-118458625D01*
X91619147Y-118451032D01*
X91639188Y-118438765D01*
X91656158Y-118422200D01*
X91669166Y-118401712D01*
X91674995Y-118386731D01*
X91679722Y-118362503D01*
X91678679Y-118339184D01*
X91671730Y-118316111D01*
X91658735Y-118292621D01*
X91653992Y-118285874D01*
X91640991Y-118265128D01*
X91629305Y-118240774D01*
X91620208Y-118215552D01*
X91618532Y-118209600D01*
X91615255Y-118191913D01*
X91613311Y-118169993D01*
X91612700Y-118145815D01*
X91613423Y-118121357D01*
X91615479Y-118098592D01*
X91618510Y-118081012D01*
X91625845Y-118056561D01*
X91636608Y-118030280D01*
X91649613Y-118004703D01*
X91663674Y-117982362D01*
X91666533Y-117978473D01*
X91680899Y-117955316D01*
X91689851Y-117931294D01*
X91693163Y-117907294D01*
X91690608Y-117884198D01*
X91690599Y-117884162D01*
X91681699Y-117860822D01*
X91667705Y-117839900D01*
X91649628Y-117822682D01*
X91635014Y-117813486D01*
X91622918Y-117808405D01*
X91609574Y-117805401D01*
X91593612Y-117803937D01*
X91571137Y-117804437D01*
X91551221Y-117808822D01*
X91533051Y-117817577D01*
X91515815Y-117831189D01*
X91498700Y-117850145D01*
X91484885Y-117868991D01*
X91457168Y-117914954D01*
X91434832Y-117963551D01*
X91417945Y-118014165D01*
X91406574Y-118066182D01*
X91400788Y-118118984D01*
X91400653Y-118171957D01*
X91406238Y-118224483D01*
G37*
X91406238Y-118224483D02*
X91417610Y-118275947D01*
X91434736Y-118325487D01*
X91448843Y-118356105D01*
X91464545Y-118383938D01*
X91481286Y-118408231D01*
X91498512Y-118428229D01*
X91515665Y-118443177D01*
X91526068Y-118449602D01*
X91549494Y-118458286D01*
X91573410Y-118461169D01*
X91596924Y-118458625D01*
X91619147Y-118451032D01*
X91639188Y-118438765D01*
X91656158Y-118422200D01*
X91669166Y-118401712D01*
X91674995Y-118386731D01*
X91679722Y-118362503D01*
X91678679Y-118339184D01*
X91671730Y-118316111D01*
X91658735Y-118292621D01*
X91653992Y-118285874D01*
X91640991Y-118265128D01*
X91629305Y-118240774D01*
X91620208Y-118215552D01*
X91618532Y-118209600D01*
X91615255Y-118191913D01*
X91613311Y-118169993D01*
X91612700Y-118145815D01*
X91613423Y-118121357D01*
X91615479Y-118098592D01*
X91618510Y-118081012D01*
X91625845Y-118056561D01*
X91636608Y-118030280D01*
X91649613Y-118004703D01*
X91663674Y-117982362D01*
X91666533Y-117978473D01*
X91680899Y-117955316D01*
X91689851Y-117931294D01*
X91693163Y-117907294D01*
X91690608Y-117884198D01*
X91690599Y-117884162D01*
X91681699Y-117860822D01*
X91667705Y-117839900D01*
X91649628Y-117822682D01*
X91635014Y-117813486D01*
X91622918Y-117808405D01*
X91609574Y-117805401D01*
X91593612Y-117803937D01*
X91571137Y-117804437D01*
X91551221Y-117808822D01*
X91533051Y-117817577D01*
X91515815Y-117831189D01*
X91498700Y-117850145D01*
X91484885Y-117868991D01*
X91457168Y-117914954D01*
X91434832Y-117963551D01*
X91417945Y-118014165D01*
X91406574Y-118066182D01*
X91400788Y-118118984D01*
X91400653Y-118171957D01*
X91406238Y-118224483D01*
G36*
X91402401Y-117243047D02*
G01*
X91410500Y-117296875D01*
X91424404Y-117353080D01*
X91444121Y-117411727D01*
X91453234Y-117434900D01*
X91460460Y-117452095D01*
X91466436Y-117464799D01*
X91472039Y-117474499D01*
X91478147Y-117482685D01*
X91485641Y-117490847D01*
X91487111Y-117492335D01*
X91503695Y-117506546D01*
X91520605Y-117515468D01*
X91539513Y-117519719D01*
X91561931Y-117519927D01*
X91586199Y-117515423D01*
X91607512Y-117505494D01*
X91625316Y-117490596D01*
X91639055Y-117471184D01*
X91647631Y-117449714D01*
X91650727Y-117435055D01*
X91651233Y-117420889D01*
X91648928Y-117405763D01*
X91643590Y-117388226D01*
X91634998Y-117366828D01*
X91634991Y-117366813D01*
X91619946Y-117329462D01*
X91608780Y-117295555D01*
X91601197Y-117263754D01*
X91596902Y-117232719D01*
X91595599Y-117201110D01*
X91595807Y-117189285D01*
X91596570Y-117170736D01*
X91597644Y-117157049D01*
X91599247Y-117146737D01*
X91601598Y-117138313D01*
X91604257Y-117131727D01*
X91615490Y-117112782D01*
X91629324Y-117099225D01*
X91645102Y-117091228D01*
X91662171Y-117088963D01*
X91679875Y-117092599D01*
X91697558Y-117102309D01*
X91702363Y-117106094D01*
X91712323Y-117116519D01*
X91723434Y-117131507D01*
X91734800Y-117149610D01*
X91745524Y-117169382D01*
X91754708Y-117189374D01*
X91756104Y-117192823D01*
X91764456Y-117211586D01*
X91773269Y-117227280D01*
X91780115Y-117236578D01*
X91797712Y-117251977D01*
X91818431Y-117262515D01*
X91841036Y-117267943D01*
X91864286Y-117268017D01*
X91886944Y-117262488D01*
X91894244Y-117259312D01*
X91914325Y-117246141D01*
X91930240Y-117228812D01*
X91941461Y-117208328D01*
X91947460Y-117185692D01*
X91947708Y-117161905D01*
X91947274Y-117158675D01*
X91943283Y-117141886D01*
X91936135Y-117121367D01*
X91926479Y-117098472D01*
X91914960Y-117074556D01*
X91902224Y-117050975D01*
X91888919Y-117029083D01*
X91877797Y-117013021D01*
X91848988Y-116978800D01*
X91817903Y-116950373D01*
X91784667Y-116927803D01*
X91749407Y-116911154D01*
X91712248Y-116900490D01*
X91673317Y-116895876D01*
X91647803Y-116896111D01*
X91607970Y-116901388D01*
X91570540Y-116912367D01*
X91535884Y-116928736D01*
X91504370Y-116950182D01*
X91476368Y-116976392D01*
X91452246Y-117007052D01*
X91432375Y-117041850D01*
X91417124Y-117080473D01*
X91412856Y-117095175D01*
X91403587Y-117142262D01*
X91400099Y-117191531D01*
X91402401Y-117243047D01*
G37*
X91402401Y-117243047D02*
X91410500Y-117296875D01*
X91424404Y-117353080D01*
X91444121Y-117411727D01*
X91453234Y-117434900D01*
X91460460Y-117452095D01*
X91466436Y-117464799D01*
X91472039Y-117474499D01*
X91478147Y-117482685D01*
X91485641Y-117490847D01*
X91487111Y-117492335D01*
X91503695Y-117506546D01*
X91520605Y-117515468D01*
X91539513Y-117519719D01*
X91561931Y-117519927D01*
X91586199Y-117515423D01*
X91607512Y-117505494D01*
X91625316Y-117490596D01*
X91639055Y-117471184D01*
X91647631Y-117449714D01*
X91650727Y-117435055D01*
X91651233Y-117420889D01*
X91648928Y-117405763D01*
X91643590Y-117388226D01*
X91634998Y-117366828D01*
X91634991Y-117366813D01*
X91619946Y-117329462D01*
X91608780Y-117295555D01*
X91601197Y-117263754D01*
X91596902Y-117232719D01*
X91595599Y-117201110D01*
X91595807Y-117189285D01*
X91596570Y-117170736D01*
X91597644Y-117157049D01*
X91599247Y-117146737D01*
X91601598Y-117138313D01*
X91604257Y-117131727D01*
X91615490Y-117112782D01*
X91629324Y-117099225D01*
X91645102Y-117091228D01*
X91662171Y-117088963D01*
X91679875Y-117092599D01*
X91697558Y-117102309D01*
X91702363Y-117106094D01*
X91712323Y-117116519D01*
X91723434Y-117131507D01*
X91734800Y-117149610D01*
X91745524Y-117169382D01*
X91754708Y-117189374D01*
X91756104Y-117192823D01*
X91764456Y-117211586D01*
X91773269Y-117227280D01*
X91780115Y-117236578D01*
X91797712Y-117251977D01*
X91818431Y-117262515D01*
X91841036Y-117267943D01*
X91864286Y-117268017D01*
X91886944Y-117262488D01*
X91894244Y-117259312D01*
X91914325Y-117246141D01*
X91930240Y-117228812D01*
X91941461Y-117208328D01*
X91947460Y-117185692D01*
X91947708Y-117161905D01*
X91947274Y-117158675D01*
X91943283Y-117141886D01*
X91936135Y-117121367D01*
X91926479Y-117098472D01*
X91914960Y-117074556D01*
X91902224Y-117050975D01*
X91888919Y-117029083D01*
X91877797Y-117013021D01*
X91848988Y-116978800D01*
X91817903Y-116950373D01*
X91784667Y-116927803D01*
X91749407Y-116911154D01*
X91712248Y-116900490D01*
X91673317Y-116895876D01*
X91647803Y-116896111D01*
X91607970Y-116901388D01*
X91570540Y-116912367D01*
X91535884Y-116928736D01*
X91504370Y-116950182D01*
X91476368Y-116976392D01*
X91452246Y-117007052D01*
X91432375Y-117041850D01*
X91417124Y-117080473D01*
X91412856Y-117095175D01*
X91403587Y-117142262D01*
X91400099Y-117191531D01*
X91402401Y-117243047D01*
G36*
X91705096Y-118103206D02*
G01*
X91709420Y-118121159D01*
X91720603Y-118147372D01*
X91736197Y-118169747D01*
X91755432Y-118188076D01*
X91777539Y-118202154D01*
X91801748Y-118211776D01*
X91827291Y-118216735D01*
X91853397Y-118216826D01*
X91879299Y-118211843D01*
X91904225Y-118201581D01*
X91927408Y-118185833D01*
X91932925Y-118180937D01*
X91951117Y-118161273D01*
X91964060Y-118140705D01*
X91972797Y-118117476D01*
X91974481Y-118110899D01*
X91978266Y-118089395D01*
X91978496Y-118070148D01*
X91975195Y-118050168D01*
X91974946Y-118049130D01*
X91964977Y-118020983D01*
X91949748Y-117996199D01*
X91929653Y-117975269D01*
X91905087Y-117958689D01*
X91900931Y-117956553D01*
X91888367Y-117950677D01*
X91878058Y-117947005D01*
X91867463Y-117944912D01*
X91854040Y-117943775D01*
X91847566Y-117943459D01*
X91831185Y-117943102D01*
X91818571Y-117943889D01*
X91807200Y-117946101D01*
X91797421Y-117949047D01*
X91771034Y-117960975D01*
X91748402Y-117977530D01*
X91729910Y-117997955D01*
X91715946Y-118021492D01*
X91706898Y-118047385D01*
X91703152Y-118074875D01*
X91705096Y-118103206D01*
G37*
X91705096Y-118103206D02*
X91709420Y-118121159D01*
X91720603Y-118147372D01*
X91736197Y-118169747D01*
X91755432Y-118188076D01*
X91777539Y-118202154D01*
X91801748Y-118211776D01*
X91827291Y-118216735D01*
X91853397Y-118216826D01*
X91879299Y-118211843D01*
X91904225Y-118201581D01*
X91927408Y-118185833D01*
X91932925Y-118180937D01*
X91951117Y-118161273D01*
X91964060Y-118140705D01*
X91972797Y-118117476D01*
X91974481Y-118110899D01*
X91978266Y-118089395D01*
X91978496Y-118070148D01*
X91975195Y-118050168D01*
X91974946Y-118049130D01*
X91964977Y-118020983D01*
X91949748Y-117996199D01*
X91929653Y-117975269D01*
X91905087Y-117958689D01*
X91900931Y-117956553D01*
X91888367Y-117950677D01*
X91878058Y-117947005D01*
X91867463Y-117944912D01*
X91854040Y-117943775D01*
X91847566Y-117943459D01*
X91831185Y-117943102D01*
X91818571Y-117943889D01*
X91807200Y-117946101D01*
X91797421Y-117949047D01*
X91771034Y-117960975D01*
X91748402Y-117977530D01*
X91729910Y-117997955D01*
X91715946Y-118021492D01*
X91706898Y-118047385D01*
X91703152Y-118074875D01*
X91705096Y-118103206D01*
G36*
X91743670Y-118422535D02*
G01*
X91751521Y-118446543D01*
X91763504Y-118468798D01*
X91779324Y-118488624D01*
X91798683Y-118505344D01*
X91821284Y-118518280D01*
X91846832Y-118526756D01*
X91875027Y-118530094D01*
X91877775Y-118530119D01*
X91907173Y-118527102D01*
X91934481Y-118518274D01*
X91959068Y-118503971D01*
X91980302Y-118484529D01*
X91991924Y-118469419D01*
X92005358Y-118444044D01*
X92013379Y-118416817D01*
X92015689Y-118389018D01*
X92014290Y-118373112D01*
X92006831Y-118344759D01*
X91994005Y-118319170D01*
X91976423Y-118296964D01*
X91954693Y-118278755D01*
X91929425Y-118265161D01*
X91901228Y-118256797D01*
X91898882Y-118256375D01*
X91870789Y-118254688D01*
X91843249Y-118259089D01*
X91816986Y-118269321D01*
X91792728Y-118285124D01*
X91776812Y-118299911D01*
X91759542Y-118322524D01*
X91747889Y-118346770D01*
X91741558Y-118371971D01*
X91740251Y-118397452D01*
X91743670Y-118422535D01*
G37*
X91743670Y-118422535D02*
X91751521Y-118446543D01*
X91763504Y-118468798D01*
X91779324Y-118488624D01*
X91798683Y-118505344D01*
X91821284Y-118518280D01*
X91846832Y-118526756D01*
X91875027Y-118530094D01*
X91877775Y-118530119D01*
X91907173Y-118527102D01*
X91934481Y-118518274D01*
X91959068Y-118503971D01*
X91980302Y-118484529D01*
X91991924Y-118469419D01*
X92005358Y-118444044D01*
X92013379Y-118416817D01*
X92015689Y-118389018D01*
X92014290Y-118373112D01*
X92006831Y-118344759D01*
X91994005Y-118319170D01*
X91976423Y-118296964D01*
X91954693Y-118278755D01*
X91929425Y-118265161D01*
X91901228Y-118256797D01*
X91898882Y-118256375D01*
X91870789Y-118254688D01*
X91843249Y-118259089D01*
X91816986Y-118269321D01*
X91792728Y-118285124D01*
X91776812Y-118299911D01*
X91759542Y-118322524D01*
X91747889Y-118346770D01*
X91741558Y-118371971D01*
X91740251Y-118397452D01*
X91743670Y-118422535D01*
G36*
X91772458Y-119054531D02*
G01*
X91779659Y-119078707D01*
X91791072Y-119101203D01*
X91806412Y-119121352D01*
X91825397Y-119138486D01*
X91847745Y-119151936D01*
X91873173Y-119161036D01*
X91901396Y-119165116D01*
X91908372Y-119165275D01*
X91936707Y-119162356D01*
X91962875Y-119154040D01*
X91986364Y-119140981D01*
X92006664Y-119123837D01*
X92023264Y-119103264D01*
X92035651Y-119079920D01*
X92043317Y-119054459D01*
X92045748Y-119027540D01*
X92042435Y-118999818D01*
X92041155Y-118994664D01*
X92030475Y-118966572D01*
X92014809Y-118942114D01*
X91994678Y-118921768D01*
X91970605Y-118906011D01*
X91943112Y-118895319D01*
X91928844Y-118892124D01*
X91902556Y-118890622D01*
X91875716Y-118894693D01*
X91849728Y-118903870D01*
X91825998Y-118917686D01*
X91809512Y-118931838D01*
X91791417Y-118954392D01*
X91778946Y-118978607D01*
X91771818Y-119003813D01*
X91769750Y-119029344D01*
X91772458Y-119054531D01*
G37*
X91772458Y-119054531D02*
X91779659Y-119078707D01*
X91791072Y-119101203D01*
X91806412Y-119121352D01*
X91825397Y-119138486D01*
X91847745Y-119151936D01*
X91873173Y-119161036D01*
X91901396Y-119165116D01*
X91908372Y-119165275D01*
X91936707Y-119162356D01*
X91962875Y-119154040D01*
X91986364Y-119140981D01*
X92006664Y-119123837D01*
X92023264Y-119103264D01*
X92035651Y-119079920D01*
X92043317Y-119054459D01*
X92045748Y-119027540D01*
X92042435Y-118999818D01*
X92041155Y-118994664D01*
X92030475Y-118966572D01*
X92014809Y-118942114D01*
X91994678Y-118921768D01*
X91970605Y-118906011D01*
X91943112Y-118895319D01*
X91928844Y-118892124D01*
X91902556Y-118890622D01*
X91875716Y-118894693D01*
X91849728Y-118903870D01*
X91825998Y-118917686D01*
X91809512Y-118931838D01*
X91791417Y-118954392D01*
X91778946Y-118978607D01*
X91771818Y-119003813D01*
X91769750Y-119029344D01*
X91772458Y-119054531D01*
G36*
X91416346Y-115580267D02*
G01*
X91422462Y-115603519D01*
X91423972Y-115607687D01*
X91434195Y-115626996D01*
X91449156Y-115644828D01*
X91467245Y-115659594D01*
X91486852Y-115669709D01*
X91486948Y-115669744D01*
X91505994Y-115676689D01*
X91490752Y-115699338D01*
X91463113Y-115744912D01*
X91441316Y-115791026D01*
X91424873Y-115838732D01*
X91423193Y-115844773D01*
X91420273Y-115856557D01*
X91418262Y-115867725D01*
X91417010Y-115879898D01*
X91416366Y-115894696D01*
X91416181Y-115913739D01*
X91416192Y-115920425D01*
X91416400Y-115940857D01*
X91416989Y-115956673D01*
X91418138Y-115969601D01*
X91420029Y-115981370D01*
X91422842Y-115993711D01*
X91424528Y-116000177D01*
X91439392Y-116043943D01*
X91459513Y-116084453D01*
X91484515Y-116121352D01*
X91514024Y-116154286D01*
X91547666Y-116182901D01*
X91585066Y-116206841D01*
X91625850Y-116225753D01*
X91669643Y-116239282D01*
X91679337Y-116241437D01*
X91684844Y-116242510D01*
X91690632Y-116243446D01*
X91697153Y-116244255D01*
X91704859Y-116244945D01*
X91714203Y-116245526D01*
X91725635Y-116246008D01*
X91739609Y-116246399D01*
X91756576Y-116246710D01*
X91776988Y-116246950D01*
X91801297Y-116247127D01*
X91829955Y-116247252D01*
X91863414Y-116247333D01*
X91902127Y-116247380D01*
X91946544Y-116247403D01*
X91967349Y-116247408D01*
X92013979Y-116247413D01*
X92054694Y-116247404D01*
X92089928Y-116247372D01*
X92120117Y-116247305D01*
X92145694Y-116247194D01*
X92167095Y-116247027D01*
X92184754Y-116246795D01*
X92199107Y-116246486D01*
X92210587Y-116246091D01*
X92219630Y-116245598D01*
X92226670Y-116244998D01*
X92232142Y-116244280D01*
X92236480Y-116243432D01*
X92240120Y-116242446D01*
X92243496Y-116241310D01*
X92245162Y-116240705D01*
X92265306Y-116230144D01*
X92283128Y-116214712D01*
X92297306Y-116195811D01*
X92306160Y-116176041D01*
X92310918Y-116157532D01*
X92312375Y-116141688D01*
X92310539Y-116125751D01*
X92306367Y-116109978D01*
X92296315Y-116087857D01*
X92281104Y-116068542D01*
X92261691Y-116053143D01*
X92253068Y-116048378D01*
X92234962Y-116039487D01*
X91976128Y-116037900D01*
X91717293Y-116036312D01*
X91696036Y-116025844D01*
X91672055Y-116010830D01*
X91652383Y-115991760D01*
X91637750Y-115969345D01*
X91637485Y-115968810D01*
X91633033Y-115958783D01*
X91630190Y-115949280D01*
X91628519Y-115938157D01*
X91627584Y-115923271D01*
X91627443Y-115919547D01*
X91627777Y-115892452D01*
X91631102Y-115867451D01*
X91637866Y-115842607D01*
X91648511Y-115815987D01*
X91653893Y-115804537D01*
X91674310Y-115768561D01*
X91697905Y-115738068D01*
X91724708Y-115713026D01*
X91754750Y-115693403D01*
X91763475Y-115689004D01*
X91780937Y-115680712D01*
X92006362Y-115679054D01*
X92050884Y-115678733D01*
X92089526Y-115678443D01*
X92122760Y-115678142D01*
X92151054Y-115677788D01*
X92174880Y-115677341D01*
X92194708Y-115676758D01*
X92211008Y-115675999D01*
X92224250Y-115675022D01*
X92234904Y-115673785D01*
X92243441Y-115672248D01*
X92250331Y-115670368D01*
X92256045Y-115668105D01*
X92261052Y-115665416D01*
X92265822Y-115662261D01*
X92270827Y-115658597D01*
X92275181Y-115655371D01*
X92293024Y-115638601D01*
X92306876Y-115617990D01*
X92316259Y-115594849D01*
X92320697Y-115570487D01*
X92319714Y-115546215D01*
X92317962Y-115537837D01*
X92308208Y-115512014D01*
X92293366Y-115489808D01*
X92273801Y-115471671D01*
X92255621Y-115460699D01*
X92238137Y-115452112D01*
X91872442Y-115451279D01*
X91816506Y-115451154D01*
X91766562Y-115451050D01*
X91722252Y-115450973D01*
X91683218Y-115450928D01*
X91649104Y-115450920D01*
X91619550Y-115450954D01*
X91594200Y-115451036D01*
X91572695Y-115451171D01*
X91554677Y-115451363D01*
X91539790Y-115451619D01*
X91527674Y-115451943D01*
X91517972Y-115452340D01*
X91510327Y-115452816D01*
X91504380Y-115453375D01*
X91499774Y-115454024D01*
X91496151Y-115454767D01*
X91493153Y-115455609D01*
X91490423Y-115456556D01*
X91489703Y-115456823D01*
X91465658Y-115469048D01*
X91445699Y-115485969D01*
X91430289Y-115507068D01*
X91419895Y-115531826D01*
X91418705Y-115536181D01*
X91415143Y-115558487D01*
X91416346Y-115580267D01*
G37*
X91416346Y-115580267D02*
X91422462Y-115603519D01*
X91423972Y-115607687D01*
X91434195Y-115626996D01*
X91449156Y-115644828D01*
X91467245Y-115659594D01*
X91486852Y-115669709D01*
X91486948Y-115669744D01*
X91505994Y-115676689D01*
X91490752Y-115699338D01*
X91463113Y-115744912D01*
X91441316Y-115791026D01*
X91424873Y-115838732D01*
X91423193Y-115844773D01*
X91420273Y-115856557D01*
X91418262Y-115867725D01*
X91417010Y-115879898D01*
X91416366Y-115894696D01*
X91416181Y-115913739D01*
X91416192Y-115920425D01*
X91416400Y-115940857D01*
X91416989Y-115956673D01*
X91418138Y-115969601D01*
X91420029Y-115981370D01*
X91422842Y-115993711D01*
X91424528Y-116000177D01*
X91439392Y-116043943D01*
X91459513Y-116084453D01*
X91484515Y-116121352D01*
X91514024Y-116154286D01*
X91547666Y-116182901D01*
X91585066Y-116206841D01*
X91625850Y-116225753D01*
X91669643Y-116239282D01*
X91679337Y-116241437D01*
X91684844Y-116242510D01*
X91690632Y-116243446D01*
X91697153Y-116244255D01*
X91704859Y-116244945D01*
X91714203Y-116245526D01*
X91725635Y-116246008D01*
X91739609Y-116246399D01*
X91756576Y-116246710D01*
X91776988Y-116246950D01*
X91801297Y-116247127D01*
X91829955Y-116247252D01*
X91863414Y-116247333D01*
X91902127Y-116247380D01*
X91946544Y-116247403D01*
X91967349Y-116247408D01*
X92013979Y-116247413D01*
X92054694Y-116247404D01*
X92089928Y-116247372D01*
X92120117Y-116247305D01*
X92145694Y-116247194D01*
X92167095Y-116247027D01*
X92184754Y-116246795D01*
X92199107Y-116246486D01*
X92210587Y-116246091D01*
X92219630Y-116245598D01*
X92226670Y-116244998D01*
X92232142Y-116244280D01*
X92236480Y-116243432D01*
X92240120Y-116242446D01*
X92243496Y-116241310D01*
X92245162Y-116240705D01*
X92265306Y-116230144D01*
X92283128Y-116214712D01*
X92297306Y-116195811D01*
X92306160Y-116176041D01*
X92310918Y-116157532D01*
X92312375Y-116141688D01*
X92310539Y-116125751D01*
X92306367Y-116109978D01*
X92296315Y-116087857D01*
X92281104Y-116068542D01*
X92261691Y-116053143D01*
X92253068Y-116048378D01*
X92234962Y-116039487D01*
X91976128Y-116037900D01*
X91717293Y-116036312D01*
X91696036Y-116025844D01*
X91672055Y-116010830D01*
X91652383Y-115991760D01*
X91637750Y-115969345D01*
X91637485Y-115968810D01*
X91633033Y-115958783D01*
X91630190Y-115949280D01*
X91628519Y-115938157D01*
X91627584Y-115923271D01*
X91627443Y-115919547D01*
X91627777Y-115892452D01*
X91631102Y-115867451D01*
X91637866Y-115842607D01*
X91648511Y-115815987D01*
X91653893Y-115804537D01*
X91674310Y-115768561D01*
X91697905Y-115738068D01*
X91724708Y-115713026D01*
X91754750Y-115693403D01*
X91763475Y-115689004D01*
X91780937Y-115680712D01*
X92006362Y-115679054D01*
X92050884Y-115678733D01*
X92089526Y-115678443D01*
X92122760Y-115678142D01*
X92151054Y-115677788D01*
X92174880Y-115677341D01*
X92194708Y-115676758D01*
X92211008Y-115675999D01*
X92224250Y-115675022D01*
X92234904Y-115673785D01*
X92243441Y-115672248D01*
X92250331Y-115670368D01*
X92256045Y-115668105D01*
X92261052Y-115665416D01*
X92265822Y-115662261D01*
X92270827Y-115658597D01*
X92275181Y-115655371D01*
X92293024Y-115638601D01*
X92306876Y-115617990D01*
X92316259Y-115594849D01*
X92320697Y-115570487D01*
X92319714Y-115546215D01*
X92317962Y-115537837D01*
X92308208Y-115512014D01*
X92293366Y-115489808D01*
X92273801Y-115471671D01*
X92255621Y-115460699D01*
X92238137Y-115452112D01*
X91872442Y-115451279D01*
X91816506Y-115451154D01*
X91766562Y-115451050D01*
X91722252Y-115450973D01*
X91683218Y-115450928D01*
X91649104Y-115450920D01*
X91619550Y-115450954D01*
X91594200Y-115451036D01*
X91572695Y-115451171D01*
X91554677Y-115451363D01*
X91539790Y-115451619D01*
X91527674Y-115451943D01*
X91517972Y-115452340D01*
X91510327Y-115452816D01*
X91504380Y-115453375D01*
X91499774Y-115454024D01*
X91496151Y-115454767D01*
X91493153Y-115455609D01*
X91490423Y-115456556D01*
X91489703Y-115456823D01*
X91465658Y-115469048D01*
X91445699Y-115485969D01*
X91430289Y-115507068D01*
X91419895Y-115531826D01*
X91418705Y-115536181D01*
X91415143Y-115558487D01*
X91416346Y-115580267D01*
G36*
X91410082Y-116607159D02*
G01*
X91418539Y-116631355D01*
X91419903Y-116634229D01*
X91430564Y-116650760D01*
X91445502Y-116666964D01*
X91462807Y-116681086D01*
X91480568Y-116691365D01*
X91483171Y-116692474D01*
X91501537Y-116699887D01*
X92234962Y-116699887D01*
X92253208Y-116692519D01*
X92274190Y-116680980D01*
X92293456Y-116664566D01*
X92309457Y-116644750D01*
X92316642Y-116632253D01*
X92321890Y-116620821D01*
X92325105Y-116611053D01*
X92326840Y-116600480D01*
X92327646Y-116586632D01*
X92327764Y-116582496D01*
X92327560Y-116564476D01*
X92326106Y-116549270D01*
X92324164Y-116540458D01*
X92312828Y-116515321D01*
X92296535Y-116493759D01*
X92275921Y-116476336D01*
X92251621Y-116463617D01*
X92230837Y-116457394D01*
X92224882Y-116456811D01*
X92213088Y-116456276D01*
X92195966Y-116455791D01*
X92174027Y-116455354D01*
X92147782Y-116454966D01*
X92117742Y-116454627D01*
X92084417Y-116454337D01*
X92048319Y-116454096D01*
X92009958Y-116453904D01*
X91969845Y-116453761D01*
X91928491Y-116453667D01*
X91886407Y-116453622D01*
X91844104Y-116453625D01*
X91802093Y-116453678D01*
X91760884Y-116453779D01*
X91720988Y-116453930D01*
X91682917Y-116454129D01*
X91647180Y-116454377D01*
X91614290Y-116454674D01*
X91584756Y-116455020D01*
X91559091Y-116455415D01*
X91537803Y-116455859D01*
X91521405Y-116456352D01*
X91510408Y-116456893D01*
X91505662Y-116457398D01*
X91478829Y-116466160D01*
X91455393Y-116480052D01*
X91435855Y-116498555D01*
X91420712Y-116521149D01*
X91410466Y-116547313D01*
X91407725Y-116559335D01*
X91406374Y-116582513D01*
X91410082Y-116607159D01*
G37*
X91410082Y-116607159D02*
X91418539Y-116631355D01*
X91419903Y-116634229D01*
X91430564Y-116650760D01*
X91445502Y-116666964D01*
X91462807Y-116681086D01*
X91480568Y-116691365D01*
X91483171Y-116692474D01*
X91501537Y-116699887D01*
X92234962Y-116699887D01*
X92253208Y-116692519D01*
X92274190Y-116680980D01*
X92293456Y-116664566D01*
X92309457Y-116644750D01*
X92316642Y-116632253D01*
X92321890Y-116620821D01*
X92325105Y-116611053D01*
X92326840Y-116600480D01*
X92327646Y-116586632D01*
X92327764Y-116582496D01*
X92327560Y-116564476D01*
X92326106Y-116549270D01*
X92324164Y-116540458D01*
X92312828Y-116515321D01*
X92296535Y-116493759D01*
X92275921Y-116476336D01*
X92251621Y-116463617D01*
X92230837Y-116457394D01*
X92224882Y-116456811D01*
X92213088Y-116456276D01*
X92195966Y-116455791D01*
X92174027Y-116455354D01*
X92147782Y-116454966D01*
X92117742Y-116454627D01*
X92084417Y-116454337D01*
X92048319Y-116454096D01*
X92009958Y-116453904D01*
X91969845Y-116453761D01*
X91928491Y-116453667D01*
X91886407Y-116453622D01*
X91844104Y-116453625D01*
X91802093Y-116453678D01*
X91760884Y-116453779D01*
X91720988Y-116453930D01*
X91682917Y-116454129D01*
X91647180Y-116454377D01*
X91614290Y-116454674D01*
X91584756Y-116455020D01*
X91559091Y-116455415D01*
X91537803Y-116455859D01*
X91521405Y-116456352D01*
X91510408Y-116456893D01*
X91505662Y-116457398D01*
X91478829Y-116466160D01*
X91455393Y-116480052D01*
X91435855Y-116498555D01*
X91420712Y-116521149D01*
X91410466Y-116547313D01*
X91407725Y-116559335D01*
X91406374Y-116582513D01*
X91410082Y-116607159D01*
G36*
X91409199Y-115135360D02*
G01*
X91418322Y-115162620D01*
X91418679Y-115163407D01*
X91432022Y-115185204D01*
X91450224Y-115203955D01*
X91472187Y-115218804D01*
X91496809Y-115228895D01*
X91505662Y-115231104D01*
X91511224Y-115231731D01*
X91521691Y-115232293D01*
X91537206Y-115232790D01*
X91557911Y-115233225D01*
X91583949Y-115233598D01*
X91615463Y-115233911D01*
X91652593Y-115234166D01*
X91695484Y-115234363D01*
X91744277Y-115234504D01*
X91799115Y-115234591D01*
X91860140Y-115234624D01*
X91869326Y-115234625D01*
X91925229Y-115234627D01*
X91975152Y-115234622D01*
X92019466Y-115234593D01*
X92058541Y-115234524D01*
X92092748Y-115234397D01*
X92122456Y-115234195D01*
X92148037Y-115233902D01*
X92169861Y-115233500D01*
X92188297Y-115232974D01*
X92203718Y-115232305D01*
X92216491Y-115231476D01*
X92226990Y-115230472D01*
X92235582Y-115229275D01*
X92242640Y-115227868D01*
X92248533Y-115226235D01*
X92253632Y-115224357D01*
X92258307Y-115222219D01*
X92262928Y-115219804D01*
X92267866Y-115217094D01*
X92269190Y-115216371D01*
X92287241Y-115203478D01*
X92303590Y-115185962D01*
X92316681Y-115165545D01*
X92318617Y-115161600D01*
X92324156Y-115145028D01*
X92327434Y-115125237D01*
X92328352Y-115104473D01*
X92326812Y-115084978D01*
X92322715Y-115068996D01*
X92322689Y-115068932D01*
X92309396Y-115043399D01*
X92291975Y-115021909D01*
X92271064Y-115005132D01*
X92253065Y-114995876D01*
X92234962Y-114988562D01*
X91501537Y-114988562D01*
X91483171Y-114995975D01*
X91465507Y-115005521D01*
X91448011Y-115019175D01*
X91432593Y-115035178D01*
X91421163Y-115051772D01*
X91419903Y-115054220D01*
X91409991Y-115081076D01*
X91406423Y-115108151D01*
X91409199Y-115135360D01*
G37*
X91409199Y-115135360D02*
X91418322Y-115162620D01*
X91418679Y-115163407D01*
X91432022Y-115185204D01*
X91450224Y-115203955D01*
X91472187Y-115218804D01*
X91496809Y-115228895D01*
X91505662Y-115231104D01*
X91511224Y-115231731D01*
X91521691Y-115232293D01*
X91537206Y-115232790D01*
X91557911Y-115233225D01*
X91583949Y-115233598D01*
X91615463Y-115233911D01*
X91652593Y-115234166D01*
X91695484Y-115234363D01*
X91744277Y-115234504D01*
X91799115Y-115234591D01*
X91860140Y-115234624D01*
X91869326Y-115234625D01*
X91925229Y-115234627D01*
X91975152Y-115234622D01*
X92019466Y-115234593D01*
X92058541Y-115234524D01*
X92092748Y-115234397D01*
X92122456Y-115234195D01*
X92148037Y-115233902D01*
X92169861Y-115233500D01*
X92188297Y-115232974D01*
X92203718Y-115232305D01*
X92216491Y-115231476D01*
X92226990Y-115230472D01*
X92235582Y-115229275D01*
X92242640Y-115227868D01*
X92248533Y-115226235D01*
X92253632Y-115224357D01*
X92258307Y-115222219D01*
X92262928Y-115219804D01*
X92267866Y-115217094D01*
X92269190Y-115216371D01*
X92287241Y-115203478D01*
X92303590Y-115185962D01*
X92316681Y-115165545D01*
X92318617Y-115161600D01*
X92324156Y-115145028D01*
X92327434Y-115125237D01*
X92328352Y-115104473D01*
X92326812Y-115084978D01*
X92322715Y-115068996D01*
X92322689Y-115068932D01*
X92309396Y-115043399D01*
X92291975Y-115021909D01*
X92271064Y-115005132D01*
X92253065Y-114995876D01*
X92234962Y-114988562D01*
X91501537Y-114988562D01*
X91483171Y-114995975D01*
X91465507Y-115005521D01*
X91448011Y-115019175D01*
X91432593Y-115035178D01*
X91421163Y-115051772D01*
X91419903Y-115054220D01*
X91409991Y-115081076D01*
X91406423Y-115108151D01*
X91409199Y-115135360D01*
G36*
X91762728Y-117802137D02*
G01*
X91764539Y-117813151D01*
X91768358Y-117823956D01*
X91772569Y-117832969D01*
X91786438Y-117854657D01*
X91804579Y-117871746D01*
X91823367Y-117882829D01*
X91831581Y-117886051D01*
X91841541Y-117888499D01*
X91854597Y-117890403D01*
X91872097Y-117891991D01*
X91880950Y-117892610D01*
X91917663Y-117896171D01*
X91949330Y-117901804D01*
X91976982Y-117909740D01*
X91999467Y-117919129D01*
X92029940Y-117937264D01*
X92056062Y-117959876D01*
X92077923Y-117987082D01*
X92095617Y-118018996D01*
X92109234Y-118055736D01*
X92110122Y-118058787D01*
X92113056Y-118069997D01*
X92115089Y-118080626D01*
X92116373Y-118092250D01*
X92117060Y-118106449D01*
X92117303Y-118124802D01*
X92117310Y-118133400D01*
X92116681Y-118161955D01*
X92114601Y-118186822D01*
X92110660Y-118209447D01*
X92104445Y-118231279D01*
X92095544Y-118253766D01*
X92083544Y-118278354D01*
X92068067Y-118306437D01*
X92062928Y-118315821D01*
X92059721Y-118323478D01*
X92057993Y-118331453D01*
X92057292Y-118341790D01*
X92057164Y-118355650D01*
X92058213Y-118377345D01*
X92061824Y-118394753D01*
X92068701Y-118409657D01*
X92079547Y-118423840D01*
X92087134Y-118431664D01*
X92106378Y-118446709D01*
X92127751Y-118456108D01*
X92152085Y-118460188D01*
X92160350Y-118460425D01*
X92183936Y-118458305D01*
X92204832Y-118451668D01*
X92223661Y-118440090D01*
X92241045Y-118423154D01*
X92257609Y-118400437D01*
X92263401Y-118390917D01*
X92286531Y-118345283D01*
X92304924Y-118296101D01*
X92318381Y-118244264D01*
X92326706Y-118190663D01*
X92329701Y-118136190D01*
X92328443Y-118096887D01*
X92321780Y-118042061D01*
X92309647Y-117989907D01*
X92292166Y-117940700D01*
X92269456Y-117894716D01*
X92241639Y-117852232D01*
X92208833Y-117813524D01*
X92201800Y-117806375D01*
X92163795Y-117772998D01*
X92122312Y-117744846D01*
X92077291Y-117721892D01*
X92028672Y-117704112D01*
X91976394Y-117691480D01*
X91920397Y-117683970D01*
X91905735Y-117682886D01*
X91888778Y-117682149D01*
X91872286Y-117681994D01*
X91858322Y-117682409D01*
X91850035Y-117683192D01*
X91825452Y-117690089D01*
X91803984Y-117702416D01*
X91786032Y-117719863D01*
X91771999Y-117742119D01*
X91770888Y-117744462D01*
X91765922Y-117756602D01*
X91763250Y-117767669D01*
X91762270Y-117780681D01*
X91762221Y-117787858D01*
X91762728Y-117802137D01*
G37*
X91762728Y-117802137D02*
X91764539Y-117813151D01*
X91768358Y-117823956D01*
X91772569Y-117832969D01*
X91786438Y-117854657D01*
X91804579Y-117871746D01*
X91823367Y-117882829D01*
X91831581Y-117886051D01*
X91841541Y-117888499D01*
X91854597Y-117890403D01*
X91872097Y-117891991D01*
X91880950Y-117892610D01*
X91917663Y-117896171D01*
X91949330Y-117901804D01*
X91976982Y-117909740D01*
X91999467Y-117919129D01*
X92029940Y-117937264D01*
X92056062Y-117959876D01*
X92077923Y-117987082D01*
X92095617Y-118018996D01*
X92109234Y-118055736D01*
X92110122Y-118058787D01*
X92113056Y-118069997D01*
X92115089Y-118080626D01*
X92116373Y-118092250D01*
X92117060Y-118106449D01*
X92117303Y-118124802D01*
X92117310Y-118133400D01*
X92116681Y-118161955D01*
X92114601Y-118186822D01*
X92110660Y-118209447D01*
X92104445Y-118231279D01*
X92095544Y-118253766D01*
X92083544Y-118278354D01*
X92068067Y-118306437D01*
X92062928Y-118315821D01*
X92059721Y-118323478D01*
X92057993Y-118331453D01*
X92057292Y-118341790D01*
X92057164Y-118355650D01*
X92058213Y-118377345D01*
X92061824Y-118394753D01*
X92068701Y-118409657D01*
X92079547Y-118423840D01*
X92087134Y-118431664D01*
X92106378Y-118446709D01*
X92127751Y-118456108D01*
X92152085Y-118460188D01*
X92160350Y-118460425D01*
X92183936Y-118458305D01*
X92204832Y-118451668D01*
X92223661Y-118440090D01*
X92241045Y-118423154D01*
X92257609Y-118400437D01*
X92263401Y-118390917D01*
X92286531Y-118345283D01*
X92304924Y-118296101D01*
X92318381Y-118244264D01*
X92326706Y-118190663D01*
X92329701Y-118136190D01*
X92328443Y-118096887D01*
X92321780Y-118042061D01*
X92309647Y-117989907D01*
X92292166Y-117940700D01*
X92269456Y-117894716D01*
X92241639Y-117852232D01*
X92208833Y-117813524D01*
X92201800Y-117806375D01*
X92163795Y-117772998D01*
X92122312Y-117744846D01*
X92077291Y-117721892D01*
X92028672Y-117704112D01*
X91976394Y-117691480D01*
X91920397Y-117683970D01*
X91905735Y-117682886D01*
X91888778Y-117682149D01*
X91872286Y-117681994D01*
X91858322Y-117682409D01*
X91850035Y-117683192D01*
X91825452Y-117690089D01*
X91803984Y-117702416D01*
X91786032Y-117719863D01*
X91771999Y-117742119D01*
X91770888Y-117744462D01*
X91765922Y-117756602D01*
X91763250Y-117767669D01*
X91762270Y-117780681D01*
X91762221Y-117787858D01*
X91762728Y-117802137D01*
G36*
X91854333Y-117424662D02*
G01*
X91864304Y-117446365D01*
X91872491Y-117457902D01*
X91895700Y-117481945D01*
X91923568Y-117503432D01*
X91954619Y-117521447D01*
X91987378Y-117535070D01*
X92004657Y-117540129D01*
X92017959Y-117543122D01*
X92030051Y-117544940D01*
X92043010Y-117545744D01*
X92058911Y-117545695D01*
X92071332Y-117545300D01*
X92090114Y-117544354D01*
X92104772Y-117542916D01*
X92117532Y-117540616D01*
X92130618Y-117537081D01*
X92141300Y-117533628D01*
X92180036Y-117517470D01*
X92214657Y-117496487D01*
X92245103Y-117470739D01*
X92271314Y-117440284D01*
X92293233Y-117405182D01*
X92310800Y-117365493D01*
X92312557Y-117360584D01*
X92323048Y-117323297D01*
X92329968Y-117282480D01*
X92333104Y-117239993D01*
X92332245Y-117197695D01*
X92331790Y-117191849D01*
X92325432Y-117143794D01*
X92314476Y-117093224D01*
X92299628Y-117042787D01*
X92292516Y-117022821D01*
X92283915Y-117000896D01*
X92274362Y-116978188D01*
X92264394Y-116955872D01*
X92254546Y-116935121D01*
X92245355Y-116917111D01*
X92237359Y-116903017D01*
X92232427Y-116895669D01*
X92216000Y-116879218D01*
X92195264Y-116866876D01*
X92181225Y-116861740D01*
X92157579Y-116857887D01*
X92134839Y-116859787D01*
X92113753Y-116866845D01*
X92095069Y-116878464D01*
X92079536Y-116894052D01*
X92067901Y-116913011D01*
X92060912Y-116934747D01*
X92059318Y-116958666D01*
X92059322Y-116958727D01*
X92060057Y-116967060D01*
X92061560Y-116975096D01*
X92064246Y-116983996D01*
X92068530Y-116994920D01*
X92074825Y-117009030D01*
X92083548Y-117027486D01*
X92084833Y-117030165D01*
X92097652Y-117057522D01*
X92107795Y-117080924D01*
X92115807Y-117101889D01*
X92122231Y-117121936D01*
X92127610Y-117142582D01*
X92131569Y-117160761D01*
X92135126Y-117183272D01*
X92137331Y-117208004D01*
X92138135Y-117232987D01*
X92137488Y-117256253D01*
X92135341Y-117275831D01*
X92134555Y-117279962D01*
X92127141Y-117303750D01*
X92116127Y-117323322D01*
X92101969Y-117338227D01*
X92085122Y-117348009D01*
X92066042Y-117352217D01*
X92061818Y-117352350D01*
X92052500Y-117351765D01*
X92044419Y-117349476D01*
X92036046Y-117344684D01*
X92025852Y-117336588D01*
X92017475Y-117329127D01*
X92001062Y-117315638D01*
X91985861Y-117306838D01*
X91969896Y-117301921D01*
X91951193Y-117300082D01*
X91946037Y-117300009D01*
X91931025Y-117300429D01*
X91919817Y-117302066D01*
X91909913Y-117305385D01*
X91905007Y-117307655D01*
X91884390Y-117321036D01*
X91868380Y-117338078D01*
X91857172Y-117357870D01*
X91850964Y-117379505D01*
X91849952Y-117402072D01*
X91854333Y-117424662D01*
G37*
X91854333Y-117424662D02*
X91864304Y-117446365D01*
X91872491Y-117457902D01*
X91895700Y-117481945D01*
X91923568Y-117503432D01*
X91954619Y-117521447D01*
X91987378Y-117535070D01*
X92004657Y-117540129D01*
X92017959Y-117543122D01*
X92030051Y-117544940D01*
X92043010Y-117545744D01*
X92058911Y-117545695D01*
X92071332Y-117545300D01*
X92090114Y-117544354D01*
X92104772Y-117542916D01*
X92117532Y-117540616D01*
X92130618Y-117537081D01*
X92141300Y-117533628D01*
X92180036Y-117517470D01*
X92214657Y-117496487D01*
X92245103Y-117470739D01*
X92271314Y-117440284D01*
X92293233Y-117405182D01*
X92310800Y-117365493D01*
X92312557Y-117360584D01*
X92323048Y-117323297D01*
X92329968Y-117282480D01*
X92333104Y-117239993D01*
X92332245Y-117197695D01*
X92331790Y-117191849D01*
X92325432Y-117143794D01*
X92314476Y-117093224D01*
X92299628Y-117042787D01*
X92292516Y-117022821D01*
X92283915Y-117000896D01*
X92274362Y-116978188D01*
X92264394Y-116955872D01*
X92254546Y-116935121D01*
X92245355Y-116917111D01*
X92237359Y-116903017D01*
X92232427Y-116895669D01*
X92216000Y-116879218D01*
X92195264Y-116866876D01*
X92181225Y-116861740D01*
X92157579Y-116857887D01*
X92134839Y-116859787D01*
X92113753Y-116866845D01*
X92095069Y-116878464D01*
X92079536Y-116894052D01*
X92067901Y-116913011D01*
X92060912Y-116934747D01*
X92059318Y-116958666D01*
X92059322Y-116958727D01*
X92060057Y-116967060D01*
X92061560Y-116975096D01*
X92064246Y-116983996D01*
X92068530Y-116994920D01*
X92074825Y-117009030D01*
X92083548Y-117027486D01*
X92084833Y-117030165D01*
X92097652Y-117057522D01*
X92107795Y-117080924D01*
X92115807Y-117101889D01*
X92122231Y-117121936D01*
X92127610Y-117142582D01*
X92131569Y-117160761D01*
X92135126Y-117183272D01*
X92137331Y-117208004D01*
X92138135Y-117232987D01*
X92137488Y-117256253D01*
X92135341Y-117275831D01*
X92134555Y-117279962D01*
X92127141Y-117303750D01*
X92116127Y-117323322D01*
X92101969Y-117338227D01*
X92085122Y-117348009D01*
X92066042Y-117352217D01*
X92061818Y-117352350D01*
X92052500Y-117351765D01*
X92044419Y-117349476D01*
X92036046Y-117344684D01*
X92025852Y-117336588D01*
X92017475Y-117329127D01*
X92001062Y-117315638D01*
X91985861Y-117306838D01*
X91969896Y-117301921D01*
X91951193Y-117300082D01*
X91946037Y-117300009D01*
X91931025Y-117300429D01*
X91919817Y-117302066D01*
X91909913Y-117305385D01*
X91905007Y-117307655D01*
X91884390Y-117321036D01*
X91868380Y-117338078D01*
X91857172Y-117357870D01*
X91850964Y-117379505D01*
X91849952Y-117402072D01*
X91854333Y-117424662D01*
G36*
X91147744Y-114625278D02*
G01*
X91148138Y-114639377D01*
X91148965Y-114650427D01*
X91150281Y-114659527D01*
X91152142Y-114667776D01*
X91152412Y-114668786D01*
X91161694Y-114691639D01*
X91176195Y-114712610D01*
X91194792Y-114730116D01*
X91197156Y-114731845D01*
X91200546Y-114734357D01*
X91203528Y-114736652D01*
X91206386Y-114738741D01*
X91209406Y-114740632D01*
X91212875Y-114742336D01*
X91217079Y-114743861D01*
X91222304Y-114745219D01*
X91228836Y-114746419D01*
X91236961Y-114747469D01*
X91246964Y-114748381D01*
X91259133Y-114749164D01*
X91273753Y-114749827D01*
X91291109Y-114750381D01*
X91311489Y-114750835D01*
X91335179Y-114751199D01*
X91362463Y-114751483D01*
X91393629Y-114751695D01*
X91428962Y-114751847D01*
X91468749Y-114751948D01*
X91513275Y-114752008D01*
X91562827Y-114752036D01*
X91617690Y-114752042D01*
X91678151Y-114752035D01*
X91744496Y-114752027D01*
X91789451Y-114752025D01*
X92334975Y-114752025D01*
X92334975Y-114523448D01*
X91922134Y-114522643D01*
X91509294Y-114521837D01*
X91708583Y-114391529D01*
X91747568Y-114366035D01*
X91781603Y-114343740D01*
X91811044Y-114324356D01*
X91836251Y-114307598D01*
X91857581Y-114293180D01*
X91875393Y-114280816D01*
X91890045Y-114270221D01*
X91901895Y-114261108D01*
X91911301Y-114253192D01*
X91918621Y-114246187D01*
X91924213Y-114239806D01*
X91928437Y-114233764D01*
X91931648Y-114227775D01*
X91934207Y-114221554D01*
X91936471Y-114214814D01*
X91938595Y-114207928D01*
X91943205Y-114182953D01*
X91942225Y-114157716D01*
X91935960Y-114133460D01*
X91924719Y-114111426D01*
X91910495Y-114094420D01*
X91905867Y-114090798D01*
X91896372Y-114084022D01*
X91882469Y-114074401D01*
X91864614Y-114062241D01*
X91843266Y-114047850D01*
X91818883Y-114031537D01*
X91791921Y-114013607D01*
X91762840Y-113994369D01*
X91732095Y-113974131D01*
X91707912Y-113958279D01*
X91676467Y-113937686D01*
X91646514Y-113918035D01*
X91618487Y-113899613D01*
X91592820Y-113882708D01*
X91569948Y-113867607D01*
X91550306Y-113854596D01*
X91534326Y-113843963D01*
X91522445Y-113835995D01*
X91515095Y-113830978D01*
X91512763Y-113829277D01*
X91512827Y-113828639D01*
X91514650Y-113828065D01*
X91518528Y-113827551D01*
X91524757Y-113827094D01*
X91533634Y-113826691D01*
X91545455Y-113826339D01*
X91560516Y-113826035D01*
X91579114Y-113825775D01*
X91601545Y-113825557D01*
X91628105Y-113825378D01*
X91659090Y-113825233D01*
X91694798Y-113825120D01*
X91735523Y-113825036D01*
X91781563Y-113824978D01*
X91833213Y-113824943D01*
X91890770Y-113824926D01*
X91921544Y-113824925D01*
X92334975Y-113824925D01*
X92334975Y-113596325D01*
X91721908Y-113596325D01*
X91659079Y-113596331D01*
X91602017Y-113596343D01*
X91550433Y-113596367D01*
X91504036Y-113596404D01*
X91462533Y-113596459D01*
X91425635Y-113596535D01*
X91393051Y-113596635D01*
X91364489Y-113596763D01*
X91339659Y-113596921D01*
X91318269Y-113597113D01*
X91300029Y-113597343D01*
X91284648Y-113597613D01*
X91271836Y-113597928D01*
X91261300Y-113598289D01*
X91252750Y-113598702D01*
X91245895Y-113599169D01*
X91240444Y-113599692D01*
X91236107Y-113600277D01*
X91232592Y-113600926D01*
X91229609Y-113601642D01*
X91226866Y-113602428D01*
X91225711Y-113602782D01*
X91204271Y-113612530D01*
X91184718Y-113627438D01*
X91168338Y-113646342D01*
X91158322Y-113663692D01*
X91149112Y-113683637D01*
X91149112Y-113829687D01*
X91158237Y-113849443D01*
X91170684Y-113869953D01*
X91183643Y-113884368D01*
X91188867Y-113888502D01*
X91198970Y-113895794D01*
X91213507Y-113905943D01*
X91232033Y-113918649D01*
X91254101Y-113933612D01*
X91279267Y-113950530D01*
X91307084Y-113969103D01*
X91337106Y-113989030D01*
X91368889Y-114010012D01*
X91401986Y-114031747D01*
X91408578Y-114036062D01*
X91441358Y-114057554D01*
X91472533Y-114078081D01*
X91501703Y-114097372D01*
X91528469Y-114115160D01*
X91552430Y-114131175D01*
X91573185Y-114145150D01*
X91590336Y-114156815D01*
X91603481Y-114165903D01*
X91612220Y-114172143D01*
X91616154Y-114175268D01*
X91616339Y-114175555D01*
X91613603Y-114177716D01*
X91605947Y-114183075D01*
X91593774Y-114191365D01*
X91577485Y-114202319D01*
X91557480Y-114215669D01*
X91534164Y-114231149D01*
X91507936Y-114248492D01*
X91479198Y-114267431D01*
X91448353Y-114287698D01*
X91415801Y-114309026D01*
X91403850Y-114316843D01*
X91370465Y-114338711D01*
X91338416Y-114359792D01*
X91308131Y-114379799D01*
X91280040Y-114398443D01*
X91254571Y-114415437D01*
X91232155Y-114430494D01*
X91213219Y-114443326D01*
X91198194Y-114453645D01*
X91187508Y-114461165D01*
X91181590Y-114465597D01*
X91180816Y-114466275D01*
X91173366Y-114475091D01*
X91165339Y-114487001D01*
X91159245Y-114497946D01*
X91149112Y-114518504D01*
X91148027Y-114583541D01*
X91147726Y-114607032D01*
X91147744Y-114625278D01*
G37*
X91147744Y-114625278D02*
X91148138Y-114639377D01*
X91148965Y-114650427D01*
X91150281Y-114659527D01*
X91152142Y-114667776D01*
X91152412Y-114668786D01*
X91161694Y-114691639D01*
X91176195Y-114712610D01*
X91194792Y-114730116D01*
X91197156Y-114731845D01*
X91200546Y-114734357D01*
X91203528Y-114736652D01*
X91206386Y-114738741D01*
X91209406Y-114740632D01*
X91212875Y-114742336D01*
X91217079Y-114743861D01*
X91222304Y-114745219D01*
X91228836Y-114746419D01*
X91236961Y-114747469D01*
X91246964Y-114748381D01*
X91259133Y-114749164D01*
X91273753Y-114749827D01*
X91291109Y-114750381D01*
X91311489Y-114750835D01*
X91335179Y-114751199D01*
X91362463Y-114751483D01*
X91393629Y-114751695D01*
X91428962Y-114751847D01*
X91468749Y-114751948D01*
X91513275Y-114752008D01*
X91562827Y-114752036D01*
X91617690Y-114752042D01*
X91678151Y-114752035D01*
X91744496Y-114752027D01*
X91789451Y-114752025D01*
X92334975Y-114752025D01*
X92334975Y-114523448D01*
X91922134Y-114522643D01*
X91509294Y-114521837D01*
X91708583Y-114391529D01*
X91747568Y-114366035D01*
X91781603Y-114343740D01*
X91811044Y-114324356D01*
X91836251Y-114307598D01*
X91857581Y-114293180D01*
X91875393Y-114280816D01*
X91890045Y-114270221D01*
X91901895Y-114261108D01*
X91911301Y-114253192D01*
X91918621Y-114246187D01*
X91924213Y-114239806D01*
X91928437Y-114233764D01*
X91931648Y-114227775D01*
X91934207Y-114221554D01*
X91936471Y-114214814D01*
X91938595Y-114207928D01*
X91943205Y-114182953D01*
X91942225Y-114157716D01*
X91935960Y-114133460D01*
X91924719Y-114111426D01*
X91910495Y-114094420D01*
X91905867Y-114090798D01*
X91896372Y-114084022D01*
X91882469Y-114074401D01*
X91864614Y-114062241D01*
X91843266Y-114047850D01*
X91818883Y-114031537D01*
X91791921Y-114013607D01*
X91762840Y-113994369D01*
X91732095Y-113974131D01*
X91707912Y-113958279D01*
X91676467Y-113937686D01*
X91646514Y-113918035D01*
X91618487Y-113899613D01*
X91592820Y-113882708D01*
X91569948Y-113867607D01*
X91550306Y-113854596D01*
X91534326Y-113843963D01*
X91522445Y-113835995D01*
X91515095Y-113830978D01*
X91512763Y-113829277D01*
X91512827Y-113828639D01*
X91514650Y-113828065D01*
X91518528Y-113827551D01*
X91524757Y-113827094D01*
X91533634Y-113826691D01*
X91545455Y-113826339D01*
X91560516Y-113826035D01*
X91579114Y-113825775D01*
X91601545Y-113825557D01*
X91628105Y-113825378D01*
X91659090Y-113825233D01*
X91694798Y-113825120D01*
X91735523Y-113825036D01*
X91781563Y-113824978D01*
X91833213Y-113824943D01*
X91890770Y-113824926D01*
X91921544Y-113824925D01*
X92334975Y-113824925D01*
X92334975Y-113596325D01*
X91721908Y-113596325D01*
X91659079Y-113596331D01*
X91602017Y-113596343D01*
X91550433Y-113596367D01*
X91504036Y-113596404D01*
X91462533Y-113596459D01*
X91425635Y-113596535D01*
X91393051Y-113596635D01*
X91364489Y-113596763D01*
X91339659Y-113596921D01*
X91318269Y-113597113D01*
X91300029Y-113597343D01*
X91284648Y-113597613D01*
X91271836Y-113597928D01*
X91261300Y-113598289D01*
X91252750Y-113598702D01*
X91245895Y-113599169D01*
X91240444Y-113599692D01*
X91236107Y-113600277D01*
X91232592Y-113600926D01*
X91229609Y-113601642D01*
X91226866Y-113602428D01*
X91225711Y-113602782D01*
X91204271Y-113612530D01*
X91184718Y-113627438D01*
X91168338Y-113646342D01*
X91158322Y-113663692D01*
X91149112Y-113683637D01*
X91149112Y-113829687D01*
X91158237Y-113849443D01*
X91170684Y-113869953D01*
X91183643Y-113884368D01*
X91188867Y-113888502D01*
X91198970Y-113895794D01*
X91213507Y-113905943D01*
X91232033Y-113918649D01*
X91254101Y-113933612D01*
X91279267Y-113950530D01*
X91307084Y-113969103D01*
X91337106Y-113989030D01*
X91368889Y-114010012D01*
X91401986Y-114031747D01*
X91408578Y-114036062D01*
X91441358Y-114057554D01*
X91472533Y-114078081D01*
X91501703Y-114097372D01*
X91528469Y-114115160D01*
X91552430Y-114131175D01*
X91573185Y-114145150D01*
X91590336Y-114156815D01*
X91603481Y-114165903D01*
X91612220Y-114172143D01*
X91616154Y-114175268D01*
X91616339Y-114175555D01*
X91613603Y-114177716D01*
X91605947Y-114183075D01*
X91593774Y-114191365D01*
X91577485Y-114202319D01*
X91557480Y-114215669D01*
X91534164Y-114231149D01*
X91507936Y-114248492D01*
X91479198Y-114267431D01*
X91448353Y-114287698D01*
X91415801Y-114309026D01*
X91403850Y-114316843D01*
X91370465Y-114338711D01*
X91338416Y-114359792D01*
X91308131Y-114379799D01*
X91280040Y-114398443D01*
X91254571Y-114415437D01*
X91232155Y-114430494D01*
X91213219Y-114443326D01*
X91198194Y-114453645D01*
X91187508Y-114461165D01*
X91181590Y-114465597D01*
X91180816Y-114466275D01*
X91173366Y-114475091D01*
X91165339Y-114487001D01*
X91159245Y-114497946D01*
X91149112Y-114518504D01*
X91148027Y-114583541D01*
X91147726Y-114607032D01*
X91147744Y-114625278D01*
G36*
X91411412Y-121248109D02*
G01*
X91421912Y-121296208D01*
X91437943Y-121341995D01*
X91459283Y-121385161D01*
X91485709Y-121425394D01*
X91517000Y-121462385D01*
X91552933Y-121495822D01*
X91593285Y-121525396D01*
X91637834Y-121550795D01*
X91686358Y-121571709D01*
X91720612Y-121582951D01*
X91739026Y-121588089D01*
X91755667Y-121592191D01*
X91771675Y-121595392D01*
X91788187Y-121597828D01*
X91806342Y-121599634D01*
X91827280Y-121600946D01*
X91852137Y-121601900D01*
X91882053Y-121602631D01*
X91886506Y-121602719D01*
X91973025Y-121604402D01*
X91973025Y-121280188D01*
X91973047Y-121235403D01*
X91973114Y-121192450D01*
X91973220Y-121151750D01*
X91973365Y-121113724D01*
X91973543Y-121078792D01*
X91973753Y-121047375D01*
X91973991Y-121019893D01*
X91974253Y-120996767D01*
X91974538Y-120978418D01*
X91974841Y-120965266D01*
X91975161Y-120957731D01*
X91975406Y-120956019D01*
X91980547Y-120957744D01*
X91989577Y-120962279D01*
X92001162Y-120968825D01*
X92013966Y-120976579D01*
X92026658Y-120984739D01*
X92037903Y-120992505D01*
X92044585Y-120997589D01*
X92072692Y-121024339D01*
X92095941Y-121054663D01*
X92114187Y-121087880D01*
X92127287Y-121123309D01*
X92135094Y-121160269D01*
X92137466Y-121198080D01*
X92134258Y-121236060D01*
X92125326Y-121273529D01*
X92110717Y-121309419D01*
X92104151Y-121321892D01*
X92097459Y-121333521D01*
X92091986Y-121341977D01*
X92091544Y-121342577D01*
X92077344Y-121366083D01*
X92069186Y-121390597D01*
X92067125Y-121411587D01*
X92070175Y-121437054D01*
X92078470Y-121459967D01*
X92091309Y-121479784D01*
X92107992Y-121495965D01*
X92127816Y-121507970D01*
X92150082Y-121515259D01*
X92174087Y-121517291D01*
X92199132Y-121513525D01*
X92199316Y-121513476D01*
X92216805Y-121507052D01*
X92232913Y-121497390D01*
X92248163Y-121483923D01*
X92263080Y-121466089D01*
X92278189Y-121443322D01*
X92294014Y-121415058D01*
X92298071Y-121407209D01*
X92317251Y-121364970D01*
X92331646Y-121322350D01*
X92341751Y-121277624D01*
X92347619Y-121233787D01*
X92349177Y-121216512D01*
X92350016Y-121202845D01*
X92350129Y-121190534D01*
X92349512Y-121177328D01*
X92348157Y-121160976D01*
X92347401Y-121152983D01*
X92339083Y-121098037D01*
X92324996Y-121045668D01*
X92305200Y-120996010D01*
X92279758Y-120949197D01*
X92248734Y-120905362D01*
X92212890Y-120865340D01*
X92171957Y-120828784D01*
X92127800Y-120797542D01*
X92080835Y-120771724D01*
X92031476Y-120751439D01*
X91980136Y-120736797D01*
X91927231Y-120727905D01*
X91873175Y-120724875D01*
X91818381Y-120727814D01*
X91763265Y-120736833D01*
X91758586Y-120737953D01*
X91758586Y-120959150D01*
X91758880Y-120962237D01*
X91759158Y-120971149D01*
X91759416Y-120985361D01*
X91759649Y-121004346D01*
X91759854Y-121027580D01*
X91760025Y-121054538D01*
X91760159Y-121084694D01*
X91760250Y-121117522D01*
X91760295Y-121152498D01*
X91760300Y-121167033D01*
X91760300Y-121374917D01*
X91752560Y-121371975D01*
X91720764Y-121356785D01*
X91691867Y-121336795D01*
X91666744Y-121312785D01*
X91646271Y-121285537D01*
X91637024Y-121268870D01*
X91625658Y-121238639D01*
X91619359Y-121205915D01*
X91617930Y-121171741D01*
X91621177Y-121137157D01*
X91628906Y-121103207D01*
X91640923Y-121070931D01*
X91657033Y-121041372D01*
X91677041Y-121015571D01*
X91685978Y-121006643D01*
X91697375Y-120996881D01*
X91710574Y-120986797D01*
X91724334Y-120977200D01*
X91737414Y-120968904D01*
X91748575Y-120962718D01*
X91756575Y-120959455D01*
X91758586Y-120959150D01*
X91758586Y-120737953D01*
X91743593Y-120741546D01*
X91691481Y-120758181D01*
X91642795Y-120780086D01*
X91597684Y-120807172D01*
X91556299Y-120839352D01*
X91524293Y-120870502D01*
X91491146Y-120910739D01*
X91463435Y-120954243D01*
X91441155Y-121001023D01*
X91424304Y-121051091D01*
X91412875Y-121104456D01*
X91407895Y-121146221D01*
X91406665Y-121198010D01*
X91411412Y-121248109D01*
G37*
X91411412Y-121248109D02*
X91421912Y-121296208D01*
X91437943Y-121341995D01*
X91459283Y-121385161D01*
X91485709Y-121425394D01*
X91517000Y-121462385D01*
X91552933Y-121495822D01*
X91593285Y-121525396D01*
X91637834Y-121550795D01*
X91686358Y-121571709D01*
X91720612Y-121582951D01*
X91739026Y-121588089D01*
X91755667Y-121592191D01*
X91771675Y-121595392D01*
X91788187Y-121597828D01*
X91806342Y-121599634D01*
X91827280Y-121600946D01*
X91852137Y-121601900D01*
X91882053Y-121602631D01*
X91886506Y-121602719D01*
X91973025Y-121604402D01*
X91973025Y-121280188D01*
X91973047Y-121235403D01*
X91973114Y-121192450D01*
X91973220Y-121151750D01*
X91973365Y-121113724D01*
X91973543Y-121078792D01*
X91973753Y-121047375D01*
X91973991Y-121019893D01*
X91974253Y-120996767D01*
X91974538Y-120978418D01*
X91974841Y-120965266D01*
X91975161Y-120957731D01*
X91975406Y-120956019D01*
X91980547Y-120957744D01*
X91989577Y-120962279D01*
X92001162Y-120968825D01*
X92013966Y-120976579D01*
X92026658Y-120984739D01*
X92037903Y-120992505D01*
X92044585Y-120997589D01*
X92072692Y-121024339D01*
X92095941Y-121054663D01*
X92114187Y-121087880D01*
X92127287Y-121123309D01*
X92135094Y-121160269D01*
X92137466Y-121198080D01*
X92134258Y-121236060D01*
X92125326Y-121273529D01*
X92110717Y-121309419D01*
X92104151Y-121321892D01*
X92097459Y-121333521D01*
X92091986Y-121341977D01*
X92091544Y-121342577D01*
X92077344Y-121366083D01*
X92069186Y-121390597D01*
X92067125Y-121411587D01*
X92070175Y-121437054D01*
X92078470Y-121459967D01*
X92091309Y-121479784D01*
X92107992Y-121495965D01*
X92127816Y-121507970D01*
X92150082Y-121515259D01*
X92174087Y-121517291D01*
X92199132Y-121513525D01*
X92199316Y-121513476D01*
X92216805Y-121507052D01*
X92232913Y-121497390D01*
X92248163Y-121483923D01*
X92263080Y-121466089D01*
X92278189Y-121443322D01*
X92294014Y-121415058D01*
X92298071Y-121407209D01*
X92317251Y-121364970D01*
X92331646Y-121322350D01*
X92341751Y-121277624D01*
X92347619Y-121233787D01*
X92349177Y-121216512D01*
X92350016Y-121202845D01*
X92350129Y-121190534D01*
X92349512Y-121177328D01*
X92348157Y-121160976D01*
X92347401Y-121152983D01*
X92339083Y-121098037D01*
X92324996Y-121045668D01*
X92305200Y-120996010D01*
X92279758Y-120949197D01*
X92248734Y-120905362D01*
X92212890Y-120865340D01*
X92171957Y-120828784D01*
X92127800Y-120797542D01*
X92080835Y-120771724D01*
X92031476Y-120751439D01*
X91980136Y-120736797D01*
X91927231Y-120727905D01*
X91873175Y-120724875D01*
X91818381Y-120727814D01*
X91763265Y-120736833D01*
X91758586Y-120737953D01*
X91758586Y-120959150D01*
X91758880Y-120962237D01*
X91759158Y-120971149D01*
X91759416Y-120985361D01*
X91759649Y-121004346D01*
X91759854Y-121027580D01*
X91760025Y-121054538D01*
X91760159Y-121084694D01*
X91760250Y-121117522D01*
X91760295Y-121152498D01*
X91760300Y-121167033D01*
X91760300Y-121374917D01*
X91752560Y-121371975D01*
X91720764Y-121356785D01*
X91691867Y-121336795D01*
X91666744Y-121312785D01*
X91646271Y-121285537D01*
X91637024Y-121268870D01*
X91625658Y-121238639D01*
X91619359Y-121205915D01*
X91617930Y-121171741D01*
X91621177Y-121137157D01*
X91628906Y-121103207D01*
X91640923Y-121070931D01*
X91657033Y-121041372D01*
X91677041Y-121015571D01*
X91685978Y-121006643D01*
X91697375Y-120996881D01*
X91710574Y-120986797D01*
X91724334Y-120977200D01*
X91737414Y-120968904D01*
X91748575Y-120962718D01*
X91756575Y-120959455D01*
X91758586Y-120959150D01*
X91758586Y-120737953D01*
X91743593Y-120741546D01*
X91691481Y-120758181D01*
X91642795Y-120780086D01*
X91597684Y-120807172D01*
X91556299Y-120839352D01*
X91524293Y-120870502D01*
X91491146Y-120910739D01*
X91463435Y-120954243D01*
X91441155Y-121001023D01*
X91424304Y-121051091D01*
X91412875Y-121104456D01*
X91407895Y-121146221D01*
X91406665Y-121198010D01*
X91411412Y-121248109D01*
G36*
X91409580Y-119106665D02*
G01*
X91418254Y-119158447D01*
X91432635Y-119208884D01*
X91452619Y-119257512D01*
X91478102Y-119303864D01*
X91508979Y-119347477D01*
X91544592Y-119387332D01*
X91584603Y-119422908D01*
X91628598Y-119453809D01*
X91675925Y-119479696D01*
X91725928Y-119500233D01*
X91777954Y-119515079D01*
X91799987Y-119519490D01*
X91826844Y-119522925D01*
X91857509Y-119524749D01*
X91889647Y-119524960D01*
X91920925Y-119523560D01*
X91949008Y-119520548D01*
X91955562Y-119519490D01*
X92008915Y-119507026D01*
X92059559Y-119489022D01*
X92107184Y-119465816D01*
X92151478Y-119437747D01*
X92192129Y-119405156D01*
X92228828Y-119368380D01*
X92261261Y-119327760D01*
X92289119Y-119283635D01*
X92312090Y-119236343D01*
X92329863Y-119186225D01*
X92342126Y-119133619D01*
X92347569Y-119092191D01*
X92348980Y-119075939D01*
X92349857Y-119063775D01*
X92350196Y-119053746D01*
X92349991Y-119043900D01*
X92349238Y-119032283D01*
X92347932Y-119016945D01*
X92347373Y-119010670D01*
X92339583Y-118958243D01*
X92325917Y-118907488D01*
X92306721Y-118858843D01*
X92282342Y-118812749D01*
X92253130Y-118769644D01*
X92219430Y-118729969D01*
X92181590Y-118694162D01*
X92139958Y-118662663D01*
X92094881Y-118635910D01*
X92046706Y-118614345D01*
X92029067Y-118608067D01*
X92004612Y-118600304D01*
X91983263Y-118594529D01*
X91963243Y-118590472D01*
X91942775Y-118587858D01*
X91920079Y-118586417D01*
X91893380Y-118585874D01*
X91884125Y-118585846D01*
X91863327Y-118585879D01*
X91847750Y-118586066D01*
X91836268Y-118586532D01*
X91827751Y-118587401D01*
X91821072Y-118588795D01*
X91815101Y-118590839D01*
X91808713Y-118593656D01*
X91807431Y-118594255D01*
X91787002Y-118607016D01*
X91769420Y-118624231D01*
X91756526Y-118643962D01*
X91752863Y-118652521D01*
X91750639Y-118661293D01*
X91749532Y-118672260D01*
X91749220Y-118687402D01*
X91749220Y-118689025D01*
X91750277Y-118710671D01*
X91753842Y-118728016D01*
X91760595Y-118742836D01*
X91771212Y-118756910D01*
X91777678Y-118763721D01*
X91788252Y-118773499D01*
X91798510Y-118780813D01*
X91809699Y-118786071D01*
X91823067Y-118789685D01*
X91839863Y-118792065D01*
X91861335Y-118793621D01*
X91869837Y-118794031D01*
X91899018Y-118795898D01*
X91923516Y-118798880D01*
X91944951Y-118803311D01*
X91964943Y-118809527D01*
X91985111Y-118817863D01*
X91985217Y-118817912D01*
X92020267Y-118837352D01*
X92051588Y-118861645D01*
X92078739Y-118890218D01*
X92101281Y-118922501D01*
X92118771Y-118957923D01*
X92130769Y-118995912D01*
X92133660Y-119010117D01*
X92137451Y-119049509D01*
X92135235Y-119088160D01*
X92127354Y-119125536D01*
X92114148Y-119161102D01*
X92095959Y-119194324D01*
X92073127Y-119224666D01*
X92045992Y-119251594D01*
X92014896Y-119274573D01*
X91980179Y-119293067D01*
X91945399Y-119305643D01*
X91923017Y-119310246D01*
X91896869Y-119312747D01*
X91869182Y-119313148D01*
X91842185Y-119311448D01*
X91818103Y-119307647D01*
X91810150Y-119305643D01*
X91772410Y-119291679D01*
X91737550Y-119272460D01*
X91706097Y-119248514D01*
X91678580Y-119220370D01*
X91655526Y-119188558D01*
X91637462Y-119153606D01*
X91626277Y-119121280D01*
X91622305Y-119101106D01*
X91619928Y-119077099D01*
X91619167Y-119051420D01*
X91620046Y-119026229D01*
X91622587Y-119003688D01*
X91624943Y-118992237D01*
X91632755Y-118968486D01*
X91644064Y-118942961D01*
X91657625Y-118918112D01*
X91672191Y-118896387D01*
X91676453Y-118890987D01*
X91691571Y-118870963D01*
X91701909Y-118852879D01*
X91708071Y-118835307D01*
X91710660Y-118816819D01*
X91710834Y-118809675D01*
X91707923Y-118784477D01*
X91699735Y-118761853D01*
X91686992Y-118742296D01*
X91670417Y-118726301D01*
X91650732Y-118714361D01*
X91628660Y-118706970D01*
X91604923Y-118704622D01*
X91580244Y-118707811D01*
X91567537Y-118711725D01*
X91551443Y-118720340D01*
X91534169Y-118734289D01*
X91516278Y-118752802D01*
X91498331Y-118775105D01*
X91480887Y-118800426D01*
X91464510Y-118827994D01*
X91449760Y-118857036D01*
X91437197Y-118886780D01*
X91434053Y-118895400D01*
X91418851Y-118947907D01*
X91409774Y-119000930D01*
X91406719Y-119054005D01*
X91409580Y-119106665D01*
G37*
X91409580Y-119106665D02*
X91418254Y-119158447D01*
X91432635Y-119208884D01*
X91452619Y-119257512D01*
X91478102Y-119303864D01*
X91508979Y-119347477D01*
X91544592Y-119387332D01*
X91584603Y-119422908D01*
X91628598Y-119453809D01*
X91675925Y-119479696D01*
X91725928Y-119500233D01*
X91777954Y-119515079D01*
X91799987Y-119519490D01*
X91826844Y-119522925D01*
X91857509Y-119524749D01*
X91889647Y-119524960D01*
X91920925Y-119523560D01*
X91949008Y-119520548D01*
X91955562Y-119519490D01*
X92008915Y-119507026D01*
X92059559Y-119489022D01*
X92107184Y-119465816D01*
X92151478Y-119437747D01*
X92192129Y-119405156D01*
X92228828Y-119368380D01*
X92261261Y-119327760D01*
X92289119Y-119283635D01*
X92312090Y-119236343D01*
X92329863Y-119186225D01*
X92342126Y-119133619D01*
X92347569Y-119092191D01*
X92348980Y-119075939D01*
X92349857Y-119063775D01*
X92350196Y-119053746D01*
X92349991Y-119043900D01*
X92349238Y-119032283D01*
X92347932Y-119016945D01*
X92347373Y-119010670D01*
X92339583Y-118958243D01*
X92325917Y-118907488D01*
X92306721Y-118858843D01*
X92282342Y-118812749D01*
X92253130Y-118769644D01*
X92219430Y-118729969D01*
X92181590Y-118694162D01*
X92139958Y-118662663D01*
X92094881Y-118635910D01*
X92046706Y-118614345D01*
X92029067Y-118608067D01*
X92004612Y-118600304D01*
X91983263Y-118594529D01*
X91963243Y-118590472D01*
X91942775Y-118587858D01*
X91920079Y-118586417D01*
X91893380Y-118585874D01*
X91884125Y-118585846D01*
X91863327Y-118585879D01*
X91847750Y-118586066D01*
X91836268Y-118586532D01*
X91827751Y-118587401D01*
X91821072Y-118588795D01*
X91815101Y-118590839D01*
X91808713Y-118593656D01*
X91807431Y-118594255D01*
X91787002Y-118607016D01*
X91769420Y-118624231D01*
X91756526Y-118643962D01*
X91752863Y-118652521D01*
X91750639Y-118661293D01*
X91749532Y-118672260D01*
X91749220Y-118687402D01*
X91749220Y-118689025D01*
X91750277Y-118710671D01*
X91753842Y-118728016D01*
X91760595Y-118742836D01*
X91771212Y-118756910D01*
X91777678Y-118763721D01*
X91788252Y-118773499D01*
X91798510Y-118780813D01*
X91809699Y-118786071D01*
X91823067Y-118789685D01*
X91839863Y-118792065D01*
X91861335Y-118793621D01*
X91869837Y-118794031D01*
X91899018Y-118795898D01*
X91923516Y-118798880D01*
X91944951Y-118803311D01*
X91964943Y-118809527D01*
X91985111Y-118817863D01*
X91985217Y-118817912D01*
X92020267Y-118837352D01*
X92051588Y-118861645D01*
X92078739Y-118890218D01*
X92101281Y-118922501D01*
X92118771Y-118957923D01*
X92130769Y-118995912D01*
X92133660Y-119010117D01*
X92137451Y-119049509D01*
X92135235Y-119088160D01*
X92127354Y-119125536D01*
X92114148Y-119161102D01*
X92095959Y-119194324D01*
X92073127Y-119224666D01*
X92045992Y-119251594D01*
X92014896Y-119274573D01*
X91980179Y-119293067D01*
X91945399Y-119305643D01*
X91923017Y-119310246D01*
X91896869Y-119312747D01*
X91869182Y-119313148D01*
X91842185Y-119311448D01*
X91818103Y-119307647D01*
X91810150Y-119305643D01*
X91772410Y-119291679D01*
X91737550Y-119272460D01*
X91706097Y-119248514D01*
X91678580Y-119220370D01*
X91655526Y-119188558D01*
X91637462Y-119153606D01*
X91626277Y-119121280D01*
X91622305Y-119101106D01*
X91619928Y-119077099D01*
X91619167Y-119051420D01*
X91620046Y-119026229D01*
X91622587Y-119003688D01*
X91624943Y-118992237D01*
X91632755Y-118968486D01*
X91644064Y-118942961D01*
X91657625Y-118918112D01*
X91672191Y-118896387D01*
X91676453Y-118890987D01*
X91691571Y-118870963D01*
X91701909Y-118852879D01*
X91708071Y-118835307D01*
X91710660Y-118816819D01*
X91710834Y-118809675D01*
X91707923Y-118784477D01*
X91699735Y-118761853D01*
X91686992Y-118742296D01*
X91670417Y-118726301D01*
X91650732Y-118714361D01*
X91628660Y-118706970D01*
X91604923Y-118704622D01*
X91580244Y-118707811D01*
X91567537Y-118711725D01*
X91551443Y-118720340D01*
X91534169Y-118734289D01*
X91516278Y-118752802D01*
X91498331Y-118775105D01*
X91480887Y-118800426D01*
X91464510Y-118827994D01*
X91449760Y-118857036D01*
X91437197Y-118886780D01*
X91434053Y-118895400D01*
X91418851Y-118947907D01*
X91409774Y-119000930D01*
X91406719Y-119054005D01*
X91409580Y-119106665D01*
G36*
X92266792Y-117616063D02*
G01*
X92267269Y-117627494D01*
X92268496Y-117636205D01*
X92270827Y-117644010D01*
X92274616Y-117652725D01*
X92278541Y-117660777D01*
X92293921Y-117685414D01*
X92312921Y-117705397D01*
X92334789Y-117720673D01*
X92358772Y-117731193D01*
X92384116Y-117736903D01*
X92410069Y-117737755D01*
X92435878Y-117733695D01*
X92460790Y-117724674D01*
X92484052Y-117710640D01*
X92504911Y-117691541D01*
X92516442Y-117676940D01*
X92528037Y-117655409D01*
X92535891Y-117630557D01*
X92539549Y-117604496D01*
X92538557Y-117579338D01*
X92538082Y-117576355D01*
X92530417Y-117550201D01*
X92517231Y-117525691D01*
X92499324Y-117503846D01*
X92477495Y-117485689D01*
X92458800Y-117474996D01*
X92436834Y-117467493D01*
X92412117Y-117463759D01*
X92386984Y-117463920D01*
X92363773Y-117468101D01*
X92359043Y-117469612D01*
X92332087Y-117481706D01*
X92309784Y-117497713D01*
X92291401Y-117518288D01*
X92276840Y-117542783D01*
X92272445Y-117552079D01*
X92269547Y-117559828D01*
X92267836Y-117567783D01*
X92267000Y-117577699D01*
X92266731Y-117591332D01*
X92266712Y-117600097D01*
X92266792Y-117616063D01*
G37*
X92266792Y-117616063D02*
X92267269Y-117627494D01*
X92268496Y-117636205D01*
X92270827Y-117644010D01*
X92274616Y-117652725D01*
X92278541Y-117660777D01*
X92293921Y-117685414D01*
X92312921Y-117705397D01*
X92334789Y-117720673D01*
X92358772Y-117731193D01*
X92384116Y-117736903D01*
X92410069Y-117737755D01*
X92435878Y-117733695D01*
X92460790Y-117724674D01*
X92484052Y-117710640D01*
X92504911Y-117691541D01*
X92516442Y-117676940D01*
X92528037Y-117655409D01*
X92535891Y-117630557D01*
X92539549Y-117604496D01*
X92538557Y-117579338D01*
X92538082Y-117576355D01*
X92530417Y-117550201D01*
X92517231Y-117525691D01*
X92499324Y-117503846D01*
X92477495Y-117485689D01*
X92458800Y-117474996D01*
X92436834Y-117467493D01*
X92412117Y-117463759D01*
X92386984Y-117463920D01*
X92363773Y-117468101D01*
X92359043Y-117469612D01*
X92332087Y-117481706D01*
X92309784Y-117497713D01*
X92291401Y-117518288D01*
X92276840Y-117542783D01*
X92272445Y-117552079D01*
X92269547Y-117559828D01*
X92267836Y-117567783D01*
X92267000Y-117577699D01*
X92266731Y-117591332D01*
X92266712Y-117600097D01*
X92266792Y-117616063D01*
G36*
X92266826Y-116831967D02*
G01*
X92267371Y-116843595D01*
X92268656Y-116852444D01*
X92270987Y-116860299D01*
X92274672Y-116868945D01*
X92276546Y-116872925D01*
X92291776Y-116898040D01*
X92311075Y-116918878D01*
X92333666Y-116935125D01*
X92358774Y-116946465D01*
X92385623Y-116952587D01*
X92413437Y-116953174D01*
X92441441Y-116947914D01*
X92452450Y-116944130D01*
X92477414Y-116931124D01*
X92498898Y-116913432D01*
X92516403Y-116891934D01*
X92529433Y-116867509D01*
X92537488Y-116841038D01*
X92540072Y-116813400D01*
X92538156Y-116792645D01*
X92530316Y-116765742D01*
X92516956Y-116740811D01*
X92498828Y-116718845D01*
X92476689Y-116700842D01*
X92462427Y-116692666D01*
X92451873Y-116687574D01*
X92443567Y-116684204D01*
X92435691Y-116682200D01*
X92426425Y-116681207D01*
X92413953Y-116680871D01*
X92401814Y-116680837D01*
X92385628Y-116680945D01*
X92373994Y-116681478D01*
X92365117Y-116682750D01*
X92357198Y-116685077D01*
X92348443Y-116688773D01*
X92343630Y-116691024D01*
X92319640Y-116705729D01*
X92298627Y-116725242D01*
X92281913Y-116748241D01*
X92276899Y-116757755D01*
X92272457Y-116767526D01*
X92269535Y-116775627D01*
X92267818Y-116783864D01*
X92266988Y-116794042D01*
X92266728Y-116807967D01*
X92266712Y-116815775D01*
X92266826Y-116831967D01*
G37*
X92266826Y-116831967D02*
X92267371Y-116843595D01*
X92268656Y-116852444D01*
X92270987Y-116860299D01*
X92274672Y-116868945D01*
X92276546Y-116872925D01*
X92291776Y-116898040D01*
X92311075Y-116918878D01*
X92333666Y-116935125D01*
X92358774Y-116946465D01*
X92385623Y-116952587D01*
X92413437Y-116953174D01*
X92441441Y-116947914D01*
X92452450Y-116944130D01*
X92477414Y-116931124D01*
X92498898Y-116913432D01*
X92516403Y-116891934D01*
X92529433Y-116867509D01*
X92537488Y-116841038D01*
X92540072Y-116813400D01*
X92538156Y-116792645D01*
X92530316Y-116765742D01*
X92516956Y-116740811D01*
X92498828Y-116718845D01*
X92476689Y-116700842D01*
X92462427Y-116692666D01*
X92451873Y-116687574D01*
X92443567Y-116684204D01*
X92435691Y-116682200D01*
X92426425Y-116681207D01*
X92413953Y-116680871D01*
X92401814Y-116680837D01*
X92385628Y-116680945D01*
X92373994Y-116681478D01*
X92365117Y-116682750D01*
X92357198Y-116685077D01*
X92348443Y-116688773D01*
X92343630Y-116691024D01*
X92319640Y-116705729D01*
X92298627Y-116725242D01*
X92281913Y-116748241D01*
X92276899Y-116757755D01*
X92272457Y-116767526D01*
X92269535Y-116775627D01*
X92267818Y-116783864D01*
X92266988Y-116794042D01*
X92266728Y-116807967D01*
X92266712Y-116815775D01*
X92266826Y-116831967D01*
G36*
X91409518Y-120180167D02*
G01*
X91409729Y-120197788D01*
X91410222Y-120211592D01*
X91411108Y-120222847D01*
X91412500Y-120232817D01*
X91414509Y-120242771D01*
X91417248Y-120253973D01*
X91418413Y-120258474D01*
X91426417Y-120287079D01*
X91434664Y-120311712D01*
X91444046Y-120334716D01*
X91455452Y-120358436D01*
X91458863Y-120365018D01*
X91486086Y-120410182D01*
X91518197Y-120451561D01*
X91554770Y-120488847D01*
X91595378Y-120521729D01*
X91639594Y-120549900D01*
X91686993Y-120573049D01*
X91737148Y-120590868D01*
X91786369Y-120602471D01*
X91827855Y-120607415D01*
X91872170Y-120608116D01*
X91917553Y-120604716D01*
X91962239Y-120597355D01*
X92004466Y-120586176D01*
X92009302Y-120584579D01*
X92058498Y-120564679D01*
X92104511Y-120539506D01*
X92147009Y-120509461D01*
X92185661Y-120474943D01*
X92220137Y-120436354D01*
X92250104Y-120394094D01*
X92275233Y-120348563D01*
X92295191Y-120300161D01*
X92309648Y-120249290D01*
X92316169Y-120213480D01*
X92317811Y-120195845D01*
X92318554Y-120173955D01*
X92318457Y-120149632D01*
X92317579Y-120124695D01*
X92315978Y-120100966D01*
X92313713Y-120080267D01*
X92311433Y-120066975D01*
X92303070Y-120034768D01*
X92292004Y-120001721D01*
X92279028Y-119969869D01*
X92264937Y-119941250D01*
X92257275Y-119928068D01*
X92248890Y-119914575D01*
X92364374Y-119914575D01*
X92396143Y-119914474D01*
X92424844Y-119914182D01*
X92449857Y-119913715D01*
X92470564Y-119913088D01*
X92486349Y-119912319D01*
X92496591Y-119911422D01*
X92498525Y-119911124D01*
X92525218Y-119903312D01*
X92548221Y-119890708D01*
X92567081Y-119873817D01*
X92581350Y-119853142D01*
X92590575Y-119829188D01*
X92594249Y-119804038D01*
X92594118Y-119786779D01*
X92592374Y-119772076D01*
X92590906Y-119766258D01*
X92579780Y-119741666D01*
X92563874Y-119720313D01*
X92544020Y-119703108D01*
X92522767Y-119691637D01*
X92504837Y-119684387D01*
X92016130Y-119683534D01*
X91948101Y-119683436D01*
X91884281Y-119683385D01*
X91851423Y-119683383D01*
X91851423Y-119914835D01*
X91865394Y-119915204D01*
X91883951Y-119916101D01*
X91898290Y-119917480D01*
X91910544Y-119919692D01*
X91922842Y-119923090D01*
X91932455Y-119926307D01*
X91964821Y-119939431D01*
X91992974Y-119955086D01*
X92018926Y-119974526D01*
X92038169Y-119992362D01*
X92062271Y-120019115D01*
X92080749Y-120046039D01*
X92094243Y-120074346D01*
X92103394Y-120105251D01*
X92106524Y-120121950D01*
X92107812Y-120137338D01*
X92107790Y-120156523D01*
X92106593Y-120177117D01*
X92104359Y-120196735D01*
X92101327Y-120212585D01*
X92095132Y-120231334D01*
X92085730Y-120252656D01*
X92074218Y-120274455D01*
X92061688Y-120294633D01*
X92051069Y-120308926D01*
X92026468Y-120334210D01*
X91997586Y-120356380D01*
X91965976Y-120374432D01*
X91933189Y-120387364D01*
X91926987Y-120389150D01*
X91904128Y-120393634D01*
X91877919Y-120396046D01*
X91851045Y-120396290D01*
X91826190Y-120394272D01*
X91818468Y-120393013D01*
X91785911Y-120384885D01*
X91756718Y-120373181D01*
X91729531Y-120357163D01*
X91702992Y-120336093D01*
X91688541Y-120322443D01*
X91675114Y-120308708D01*
X91665146Y-120297283D01*
X91657277Y-120286341D01*
X91650149Y-120274055D01*
X91644888Y-120263705D01*
X91634249Y-120240562D01*
X91626879Y-120220346D01*
X91622268Y-120200880D01*
X91619906Y-120179986D01*
X91619285Y-120155486D01*
X91619290Y-120154287D01*
X91620220Y-120127745D01*
X91623054Y-120105194D01*
X91628288Y-120084435D01*
X91636420Y-120063266D01*
X91642976Y-120049292D01*
X91661901Y-120017108D01*
X91684997Y-119989112D01*
X91712741Y-119964839D01*
X91745617Y-119943824D01*
X91758712Y-119937009D01*
X91778735Y-119927692D01*
X91796050Y-119921218D01*
X91812625Y-119917185D01*
X91830427Y-119915192D01*
X91851423Y-119914835D01*
X91851423Y-119683383D01*
X91824849Y-119683381D01*
X91769982Y-119683422D01*
X91719858Y-119683509D01*
X91674655Y-119683640D01*
X91634549Y-119683814D01*
X91599720Y-119684031D01*
X91570344Y-119684290D01*
X91546601Y-119684590D01*
X91528666Y-119684931D01*
X91516718Y-119685311D01*
X91510936Y-119685730D01*
X91510832Y-119685748D01*
X91485996Y-119693234D01*
X91463484Y-119705672D01*
X91444407Y-119722247D01*
X91429877Y-119742143D01*
X91427297Y-119747098D01*
X91418158Y-119772722D01*
X91415097Y-119798449D01*
X91417891Y-119823584D01*
X91426319Y-119847432D01*
X91440157Y-119869300D01*
X91459184Y-119888491D01*
X91476369Y-119900500D01*
X91479070Y-119902685D01*
X91479535Y-119905748D01*
X91477400Y-119911048D01*
X91472301Y-119919946D01*
X91470261Y-119923319D01*
X91452333Y-119956745D01*
X91436331Y-119994323D01*
X91423074Y-120033953D01*
X91415252Y-120064536D01*
X91413118Y-120075745D01*
X91411551Y-120087912D01*
X91410478Y-120102211D01*
X91409826Y-120119817D01*
X91409521Y-120141904D01*
X91409475Y-120157462D01*
X91409518Y-120180167D01*
G37*
X91409518Y-120180167D02*
X91409729Y-120197788D01*
X91410222Y-120211592D01*
X91411108Y-120222847D01*
X91412500Y-120232817D01*
X91414509Y-120242771D01*
X91417248Y-120253973D01*
X91418413Y-120258474D01*
X91426417Y-120287079D01*
X91434664Y-120311712D01*
X91444046Y-120334716D01*
X91455452Y-120358436D01*
X91458863Y-120365018D01*
X91486086Y-120410182D01*
X91518197Y-120451561D01*
X91554770Y-120488847D01*
X91595378Y-120521729D01*
X91639594Y-120549900D01*
X91686993Y-120573049D01*
X91737148Y-120590868D01*
X91786369Y-120602471D01*
X91827855Y-120607415D01*
X91872170Y-120608116D01*
X91917553Y-120604716D01*
X91962239Y-120597355D01*
X92004466Y-120586176D01*
X92009302Y-120584579D01*
X92058498Y-120564679D01*
X92104511Y-120539506D01*
X92147009Y-120509461D01*
X92185661Y-120474943D01*
X92220137Y-120436354D01*
X92250104Y-120394094D01*
X92275233Y-120348563D01*
X92295191Y-120300161D01*
X92309648Y-120249290D01*
X92316169Y-120213480D01*
X92317811Y-120195845D01*
X92318554Y-120173955D01*
X92318457Y-120149632D01*
X92317579Y-120124695D01*
X92315978Y-120100966D01*
X92313713Y-120080267D01*
X92311433Y-120066975D01*
X92303070Y-120034768D01*
X92292004Y-120001721D01*
X92279028Y-119969869D01*
X92264937Y-119941250D01*
X92257275Y-119928068D01*
X92248890Y-119914575D01*
X92364374Y-119914575D01*
X92396143Y-119914474D01*
X92424844Y-119914182D01*
X92449857Y-119913715D01*
X92470564Y-119913088D01*
X92486349Y-119912319D01*
X92496591Y-119911422D01*
X92498525Y-119911124D01*
X92525218Y-119903312D01*
X92548221Y-119890708D01*
X92567081Y-119873817D01*
X92581350Y-119853142D01*
X92590575Y-119829188D01*
X92594249Y-119804038D01*
X92594118Y-119786779D01*
X92592374Y-119772076D01*
X92590906Y-119766258D01*
X92579780Y-119741666D01*
X92563874Y-119720313D01*
X92544020Y-119703108D01*
X92522767Y-119691637D01*
X92504837Y-119684387D01*
X92016130Y-119683534D01*
X91948101Y-119683436D01*
X91884281Y-119683385D01*
X91851423Y-119683383D01*
X91851423Y-119914835D01*
X91865394Y-119915204D01*
X91883951Y-119916101D01*
X91898290Y-119917480D01*
X91910544Y-119919692D01*
X91922842Y-119923090D01*
X91932455Y-119926307D01*
X91964821Y-119939431D01*
X91992974Y-119955086D01*
X92018926Y-119974526D01*
X92038169Y-119992362D01*
X92062271Y-120019115D01*
X92080749Y-120046039D01*
X92094243Y-120074346D01*
X92103394Y-120105251D01*
X92106524Y-120121950D01*
X92107812Y-120137338D01*
X92107790Y-120156523D01*
X92106593Y-120177117D01*
X92104359Y-120196735D01*
X92101327Y-120212585D01*
X92095132Y-120231334D01*
X92085730Y-120252656D01*
X92074218Y-120274455D01*
X92061688Y-120294633D01*
X92051069Y-120308926D01*
X92026468Y-120334210D01*
X91997586Y-120356380D01*
X91965976Y-120374432D01*
X91933189Y-120387364D01*
X91926987Y-120389150D01*
X91904128Y-120393634D01*
X91877919Y-120396046D01*
X91851045Y-120396290D01*
X91826190Y-120394272D01*
X91818468Y-120393013D01*
X91785911Y-120384885D01*
X91756718Y-120373181D01*
X91729531Y-120357163D01*
X91702992Y-120336093D01*
X91688541Y-120322443D01*
X91675114Y-120308708D01*
X91665146Y-120297283D01*
X91657277Y-120286341D01*
X91650149Y-120274055D01*
X91644888Y-120263705D01*
X91634249Y-120240562D01*
X91626879Y-120220346D01*
X91622268Y-120200880D01*
X91619906Y-120179986D01*
X91619285Y-120155486D01*
X91619290Y-120154287D01*
X91620220Y-120127745D01*
X91623054Y-120105194D01*
X91628288Y-120084435D01*
X91636420Y-120063266D01*
X91642976Y-120049292D01*
X91661901Y-120017108D01*
X91684997Y-119989112D01*
X91712741Y-119964839D01*
X91745617Y-119943824D01*
X91758712Y-119937009D01*
X91778735Y-119927692D01*
X91796050Y-119921218D01*
X91812625Y-119917185D01*
X91830427Y-119915192D01*
X91851423Y-119914835D01*
X91851423Y-119683383D01*
X91824849Y-119683381D01*
X91769982Y-119683422D01*
X91719858Y-119683509D01*
X91674655Y-119683640D01*
X91634549Y-119683814D01*
X91599720Y-119684031D01*
X91570344Y-119684290D01*
X91546601Y-119684590D01*
X91528666Y-119684931D01*
X91516718Y-119685311D01*
X91510936Y-119685730D01*
X91510832Y-119685748D01*
X91485996Y-119693234D01*
X91463484Y-119705672D01*
X91444407Y-119722247D01*
X91429877Y-119742143D01*
X91427297Y-119747098D01*
X91418158Y-119772722D01*
X91415097Y-119798449D01*
X91417891Y-119823584D01*
X91426319Y-119847432D01*
X91440157Y-119869300D01*
X91459184Y-119888491D01*
X91476369Y-119900500D01*
X91479070Y-119902685D01*
X91479535Y-119905748D01*
X91477400Y-119911048D01*
X91472301Y-119919946D01*
X91470261Y-119923319D01*
X91452333Y-119956745D01*
X91436331Y-119994323D01*
X91423074Y-120033953D01*
X91415252Y-120064536D01*
X91413118Y-120075745D01*
X91411551Y-120087912D01*
X91410478Y-120102211D01*
X91409826Y-120119817D01*
X91409521Y-120141904D01*
X91409475Y-120157462D01*
X91409518Y-120180167D01*
G36*
X92359333Y-118761342D02*
G01*
X92369032Y-118786481D01*
X92382055Y-118806613D01*
X92399979Y-118825014D01*
X92421387Y-118840562D01*
X92444858Y-118852135D01*
X92457212Y-118856159D01*
X92485012Y-118860563D01*
X92511984Y-118859172D01*
X92537547Y-118852535D01*
X92561122Y-118841203D01*
X92582129Y-118825725D01*
X92599989Y-118806652D01*
X92614120Y-118784533D01*
X92623944Y-118759917D01*
X92628881Y-118733356D01*
X92628350Y-118705398D01*
X92626763Y-118695375D01*
X92618988Y-118670870D01*
X92605976Y-118647392D01*
X92588808Y-118626328D01*
X92568570Y-118609068D01*
X92551913Y-118599401D01*
X92523648Y-118589359D01*
X92495158Y-118585265D01*
X92467176Y-118586991D01*
X92440440Y-118594411D01*
X92415682Y-118607397D01*
X92393639Y-118625822D01*
X92392480Y-118627033D01*
X92374278Y-118650646D01*
X92361758Y-118676587D01*
X92355025Y-118704152D01*
X92354182Y-118732638D01*
X92359333Y-118761342D01*
G37*
X92359333Y-118761342D02*
X92369032Y-118786481D01*
X92382055Y-118806613D01*
X92399979Y-118825014D01*
X92421387Y-118840562D01*
X92444858Y-118852135D01*
X92457212Y-118856159D01*
X92485012Y-118860563D01*
X92511984Y-118859172D01*
X92537547Y-118852535D01*
X92561122Y-118841203D01*
X92582129Y-118825725D01*
X92599989Y-118806652D01*
X92614120Y-118784533D01*
X92623944Y-118759917D01*
X92628881Y-118733356D01*
X92628350Y-118705398D01*
X92626763Y-118695375D01*
X92618988Y-118670870D01*
X92605976Y-118647392D01*
X92588808Y-118626328D01*
X92568570Y-118609068D01*
X92551913Y-118599401D01*
X92523648Y-118589359D01*
X92495158Y-118585265D01*
X92467176Y-118586991D01*
X92440440Y-118594411D01*
X92415682Y-118607397D01*
X92393639Y-118625822D01*
X92392480Y-118627033D01*
X92374278Y-118650646D01*
X92361758Y-118676587D01*
X92355025Y-118704152D01*
X92354182Y-118732638D01*
X92359333Y-118761342D01*
G36*
X92357809Y-117991580D02*
G01*
X92365616Y-118015525D01*
X92377900Y-118037814D01*
X92394714Y-118057714D01*
X92416110Y-118074496D01*
X92431732Y-118083028D01*
X92459935Y-118093001D01*
X92488329Y-118096913D01*
X92516218Y-118094888D01*
X92542908Y-118087051D01*
X92567704Y-118073525D01*
X92589562Y-118054802D01*
X92604433Y-118037453D01*
X92614906Y-118020538D01*
X92622283Y-118001697D01*
X92625454Y-117989831D01*
X92629018Y-117970205D01*
X92629473Y-117952895D01*
X92626950Y-117934962D01*
X92617997Y-117905522D01*
X92604046Y-117879971D01*
X92585181Y-117858416D01*
X92561485Y-117840965D01*
X92548146Y-117833950D01*
X92523167Y-117825544D01*
X92495942Y-117822181D01*
X92468220Y-117823964D01*
X92450176Y-117828108D01*
X92424071Y-117838987D01*
X92402021Y-117854058D01*
X92384077Y-117872591D01*
X92370293Y-117893853D01*
X92360721Y-117917114D01*
X92355415Y-117941643D01*
X92354427Y-117966709D01*
X92357809Y-117991580D01*
G37*
X92357809Y-117991580D02*
X92365616Y-118015525D01*
X92377900Y-118037814D01*
X92394714Y-118057714D01*
X92416110Y-118074496D01*
X92431732Y-118083028D01*
X92459935Y-118093001D01*
X92488329Y-118096913D01*
X92516218Y-118094888D01*
X92542908Y-118087051D01*
X92567704Y-118073525D01*
X92589562Y-118054802D01*
X92604433Y-118037453D01*
X92614906Y-118020538D01*
X92622283Y-118001697D01*
X92625454Y-117989831D01*
X92629018Y-117970205D01*
X92629473Y-117952895D01*
X92626950Y-117934962D01*
X92617997Y-117905522D01*
X92604046Y-117879971D01*
X92585181Y-117858416D01*
X92561485Y-117840965D01*
X92548146Y-117833950D01*
X92523167Y-117825544D01*
X92495942Y-117822181D01*
X92468220Y-117823964D01*
X92450176Y-117828108D01*
X92424071Y-117838987D01*
X92402021Y-117854058D01*
X92384077Y-117872591D01*
X92370293Y-117893853D01*
X92360721Y-117917114D01*
X92355415Y-117941643D01*
X92354427Y-117966709D01*
X92357809Y-117991580D01*
G36*
X92396667Y-118351465D02*
G01*
X92399366Y-118363977D01*
X92400238Y-118366881D01*
X92411445Y-118393162D01*
X92426771Y-118415344D01*
X92445494Y-118433380D01*
X92466893Y-118447220D01*
X92490245Y-118456817D01*
X92514828Y-118462123D01*
X92539920Y-118463089D01*
X92564798Y-118459668D01*
X92588741Y-118451811D01*
X92611027Y-118439469D01*
X92630934Y-118422596D01*
X92647738Y-118401142D01*
X92656984Y-118384003D01*
X92660952Y-118373472D01*
X92664814Y-118360200D01*
X92668110Y-118346212D01*
X92670378Y-118333538D01*
X92671157Y-118324204D01*
X92671025Y-118322312D01*
X92670307Y-118317075D01*
X92669307Y-118309612D01*
X92662674Y-118282031D01*
X92650878Y-118256973D01*
X92634638Y-118234985D01*
X92614673Y-118216614D01*
X92591705Y-118202407D01*
X92566453Y-118192912D01*
X92539637Y-118188676D01*
X92512230Y-118190204D01*
X92482915Y-118198020D01*
X92456994Y-118211093D01*
X92434811Y-118229171D01*
X92416711Y-118252001D01*
X92408953Y-118265818D01*
X92403088Y-118278355D01*
X92399418Y-118288641D01*
X92397323Y-118299206D01*
X92396183Y-118312581D01*
X92395855Y-118319269D01*
X92395568Y-118337332D01*
X92396667Y-118351465D01*
G37*
X92396667Y-118351465D02*
X92399366Y-118363977D01*
X92400238Y-118366881D01*
X92411445Y-118393162D01*
X92426771Y-118415344D01*
X92445494Y-118433380D01*
X92466893Y-118447220D01*
X92490245Y-118456817D01*
X92514828Y-118462123D01*
X92539920Y-118463089D01*
X92564798Y-118459668D01*
X92588741Y-118451811D01*
X92611027Y-118439469D01*
X92630934Y-118422596D01*
X92647738Y-118401142D01*
X92656984Y-118384003D01*
X92660952Y-118373472D01*
X92664814Y-118360200D01*
X92668110Y-118346212D01*
X92670378Y-118333538D01*
X92671157Y-118324204D01*
X92671025Y-118322312D01*
X92670307Y-118317075D01*
X92669307Y-118309612D01*
X92662674Y-118282031D01*
X92650878Y-118256973D01*
X92634638Y-118234985D01*
X92614673Y-118216614D01*
X92591705Y-118202407D01*
X92566453Y-118192912D01*
X92539637Y-118188676D01*
X92512230Y-118190204D01*
X92482915Y-118198020D01*
X92456994Y-118211093D01*
X92434811Y-118229171D01*
X92416711Y-118252001D01*
X92408953Y-118265818D01*
X92403088Y-118278355D01*
X92399418Y-118288641D01*
X92397323Y-118299206D01*
X92396183Y-118312581D01*
X92395855Y-118319269D01*
X92395568Y-118337332D01*
X92396667Y-118351465D01*
G36*
X92397183Y-116396858D02*
G01*
X92401680Y-116415010D01*
X92413770Y-116440981D01*
X92429854Y-116462740D01*
X92449207Y-116480250D01*
X92471103Y-116493472D01*
X92494815Y-116502369D01*
X92519619Y-116506904D01*
X92544789Y-116507040D01*
X92569598Y-116502738D01*
X92593321Y-116493962D01*
X92615231Y-116480674D01*
X92634604Y-116462835D01*
X92650714Y-116440410D01*
X92656984Y-116428203D01*
X92660952Y-116417672D01*
X92664814Y-116404400D01*
X92668110Y-116390412D01*
X92670378Y-116377738D01*
X92671157Y-116368404D01*
X92671025Y-116366512D01*
X92670307Y-116361275D01*
X92669307Y-116353812D01*
X92662400Y-116325557D01*
X92649623Y-116299331D01*
X92631293Y-116275742D01*
X92625485Y-116269954D01*
X92602840Y-116252540D01*
X92578240Y-116240668D01*
X92552453Y-116234145D01*
X92526249Y-116232777D01*
X92500397Y-116236372D01*
X92475667Y-116244734D01*
X92452828Y-116257671D01*
X92432649Y-116274990D01*
X92415899Y-116296497D01*
X92403348Y-116321998D01*
X92401862Y-116326194D01*
X92396768Y-116348483D01*
X92395206Y-116372901D01*
X92397183Y-116396858D01*
G37*
X92397183Y-116396858D02*
X92401680Y-116415010D01*
X92413770Y-116440981D01*
X92429854Y-116462740D01*
X92449207Y-116480250D01*
X92471103Y-116493472D01*
X92494815Y-116502369D01*
X92519619Y-116506904D01*
X92544789Y-116507040D01*
X92569598Y-116502738D01*
X92593321Y-116493962D01*
X92615231Y-116480674D01*
X92634604Y-116462835D01*
X92650714Y-116440410D01*
X92656984Y-116428203D01*
X92660952Y-116417672D01*
X92664814Y-116404400D01*
X92668110Y-116390412D01*
X92670378Y-116377738D01*
X92671157Y-116368404D01*
X92671025Y-116366512D01*
X92670307Y-116361275D01*
X92669307Y-116353812D01*
X92662400Y-116325557D01*
X92649623Y-116299331D01*
X92631293Y-116275742D01*
X92625485Y-116269954D01*
X92602840Y-116252540D01*
X92578240Y-116240668D01*
X92552453Y-116234145D01*
X92526249Y-116232777D01*
X92500397Y-116236372D01*
X92475667Y-116244734D01*
X92452828Y-116257671D01*
X92432649Y-116274990D01*
X92415899Y-116296497D01*
X92403348Y-116321998D01*
X92401862Y-116326194D01*
X92396768Y-116348483D01*
X92395206Y-116372901D01*
X92397183Y-116396858D01*
G36*
X92447316Y-117277538D02*
G01*
X92453379Y-117303246D01*
X92464828Y-117328059D01*
X92481907Y-117351274D01*
X92483700Y-117353231D01*
X92505736Y-117372825D01*
X92529936Y-117386502D01*
X92556689Y-117394432D01*
X92584212Y-117396800D01*
X92613653Y-117393972D01*
X92640453Y-117385416D01*
X92664867Y-117371018D01*
X92686453Y-117351421D01*
X92702682Y-117329418D01*
X92714216Y-117304356D01*
X92720727Y-117277550D01*
X92721890Y-117250313D01*
X92717775Y-117225350D01*
X92707238Y-117198405D01*
X92691966Y-117174739D01*
X92672703Y-117154842D01*
X92650197Y-117139204D01*
X92625193Y-117128318D01*
X92598435Y-117122673D01*
X92570671Y-117122760D01*
X92563463Y-117123768D01*
X92535212Y-117131400D01*
X92510397Y-117143745D01*
X92489262Y-117160103D01*
X92472051Y-117179772D01*
X92459007Y-117202052D01*
X92450374Y-117226240D01*
X92446396Y-117251636D01*
X92447316Y-117277538D01*
G37*
X92447316Y-117277538D02*
X92453379Y-117303246D01*
X92464828Y-117328059D01*
X92481907Y-117351274D01*
X92483700Y-117353231D01*
X92505736Y-117372825D01*
X92529936Y-117386502D01*
X92556689Y-117394432D01*
X92584212Y-117396800D01*
X92613653Y-117393972D01*
X92640453Y-117385416D01*
X92664867Y-117371018D01*
X92686453Y-117351421D01*
X92702682Y-117329418D01*
X92714216Y-117304356D01*
X92720727Y-117277550D01*
X92721890Y-117250313D01*
X92717775Y-117225350D01*
X92707238Y-117198405D01*
X92691966Y-117174739D01*
X92672703Y-117154842D01*
X92650197Y-117139204D01*
X92625193Y-117128318D01*
X92598435Y-117122673D01*
X92570671Y-117122760D01*
X92563463Y-117123768D01*
X92535212Y-117131400D01*
X92510397Y-117143745D01*
X92489262Y-117160103D01*
X92472051Y-117179772D01*
X92459007Y-117202052D01*
X92450374Y-117226240D01*
X92446396Y-117251636D01*
X92447316Y-117277538D01*
G36*
X92571273Y-116985464D02*
G01*
X92580186Y-117011306D01*
X92593778Y-117035008D01*
X92603057Y-117046572D01*
X92624439Y-117065775D01*
X92648572Y-117079722D01*
X92674592Y-117088378D01*
X92701637Y-117091709D01*
X92728842Y-117089678D01*
X92755345Y-117082252D01*
X92780282Y-117069394D01*
X92799243Y-117054508D01*
X92817760Y-117033061D01*
X92831398Y-117008459D01*
X92839872Y-116981763D01*
X92842899Y-116954035D01*
X92840197Y-116926336D01*
X92836844Y-116913557D01*
X92826431Y-116888295D01*
X92812331Y-116867171D01*
X92798423Y-116852798D01*
X92774825Y-116835411D01*
X92749697Y-116823730D01*
X92723731Y-116817513D01*
X92697618Y-116816519D01*
X92672049Y-116820505D01*
X92647716Y-116829228D01*
X92625310Y-116842447D01*
X92605522Y-116859919D01*
X92589044Y-116881403D01*
X92576567Y-116906655D01*
X92569197Y-116933112D01*
X92567467Y-116958919D01*
X92571273Y-116985464D01*
G37*
X92571273Y-116985464D02*
X92580186Y-117011306D01*
X92593778Y-117035008D01*
X92603057Y-117046572D01*
X92624439Y-117065775D01*
X92648572Y-117079722D01*
X92674592Y-117088378D01*
X92701637Y-117091709D01*
X92728842Y-117089678D01*
X92755345Y-117082252D01*
X92780282Y-117069394D01*
X92799243Y-117054508D01*
X92817760Y-117033061D01*
X92831398Y-117008459D01*
X92839872Y-116981763D01*
X92842899Y-116954035D01*
X92840197Y-116926336D01*
X92836844Y-116913557D01*
X92826431Y-116888295D01*
X92812331Y-116867171D01*
X92798423Y-116852798D01*
X92774825Y-116835411D01*
X92749697Y-116823730D01*
X92723731Y-116817513D01*
X92697618Y-116816519D01*
X92672049Y-116820505D01*
X92647716Y-116829228D01*
X92625310Y-116842447D01*
X92605522Y-116859919D01*
X92589044Y-116881403D01*
X92576567Y-116906655D01*
X92569197Y-116933112D01*
X92567467Y-116958919D01*
X92571273Y-116985464D01*
G36*
X92588220Y-117711335D02*
G01*
X92596071Y-117735343D01*
X92608054Y-117757598D01*
X92623874Y-117777424D01*
X92643233Y-117794144D01*
X92665834Y-117807080D01*
X92691382Y-117815556D01*
X92719577Y-117818894D01*
X92722325Y-117818919D01*
X92751213Y-117815940D01*
X92778329Y-117807297D01*
X92802814Y-117793433D01*
X92823808Y-117774789D01*
X92834560Y-117761218D01*
X92848588Y-117735617D01*
X92857165Y-117708036D01*
X92859995Y-117679695D01*
X92858682Y-117661912D01*
X92851562Y-117633995D01*
X92839028Y-117608657D01*
X92821713Y-117586539D01*
X92800249Y-117568281D01*
X92775270Y-117554526D01*
X92747408Y-117545914D01*
X92743432Y-117545175D01*
X92715339Y-117543488D01*
X92687799Y-117547889D01*
X92661536Y-117558121D01*
X92637278Y-117573924D01*
X92621362Y-117588711D01*
X92604092Y-117611324D01*
X92592439Y-117635570D01*
X92586108Y-117660771D01*
X92584801Y-117686252D01*
X92588220Y-117711335D01*
G37*
X92588220Y-117711335D02*
X92596071Y-117735343D01*
X92608054Y-117757598D01*
X92623874Y-117777424D01*
X92643233Y-117794144D01*
X92665834Y-117807080D01*
X92691382Y-117815556D01*
X92719577Y-117818894D01*
X92722325Y-117818919D01*
X92751213Y-117815940D01*
X92778329Y-117807297D01*
X92802814Y-117793433D01*
X92823808Y-117774789D01*
X92834560Y-117761218D01*
X92848588Y-117735617D01*
X92857165Y-117708036D01*
X92859995Y-117679695D01*
X92858682Y-117661912D01*
X92851562Y-117633995D01*
X92839028Y-117608657D01*
X92821713Y-117586539D01*
X92800249Y-117568281D01*
X92775270Y-117554526D01*
X92747408Y-117545914D01*
X92743432Y-117545175D01*
X92715339Y-117543488D01*
X92687799Y-117547889D01*
X92661536Y-117558121D01*
X92637278Y-117573924D01*
X92621362Y-117588711D01*
X92604092Y-117611324D01*
X92592439Y-117635570D01*
X92586108Y-117660771D01*
X92584801Y-117686252D01*
X92588220Y-117711335D01*
G36*
X92676587Y-116684524D02*
G01*
X92686494Y-116710452D01*
X92696912Y-116727684D01*
X92716135Y-116749314D01*
X92738982Y-116765874D01*
X92764982Y-116777144D01*
X92793662Y-116782905D01*
X92817061Y-116783460D01*
X92833272Y-116782212D01*
X92845952Y-116779850D01*
X92857900Y-116775734D01*
X92865254Y-116772454D01*
X92890983Y-116757135D01*
X92911968Y-116737669D01*
X92928071Y-116714190D01*
X92930240Y-116709957D01*
X92940411Y-116685762D01*
X92945808Y-116663554D01*
X92946718Y-116641488D01*
X92944125Y-116621184D01*
X92935701Y-116593931D01*
X92921366Y-116568657D01*
X92907590Y-116552026D01*
X92885513Y-116533170D01*
X92860983Y-116519745D01*
X92834819Y-116511736D01*
X92807834Y-116509128D01*
X92780846Y-116511909D01*
X92754671Y-116520063D01*
X92730125Y-116533577D01*
X92708023Y-116552435D01*
X92705119Y-116555558D01*
X92689170Y-116577769D01*
X92678293Y-116602818D01*
X92672536Y-116629659D01*
X92671951Y-116657244D01*
X92676587Y-116684524D01*
G37*
X92676587Y-116684524D02*
X92686494Y-116710452D01*
X92696912Y-116727684D01*
X92716135Y-116749314D01*
X92738982Y-116765874D01*
X92764982Y-116777144D01*
X92793662Y-116782905D01*
X92817061Y-116783460D01*
X92833272Y-116782212D01*
X92845952Y-116779850D01*
X92857900Y-116775734D01*
X92865254Y-116772454D01*
X92890983Y-116757135D01*
X92911968Y-116737669D01*
X92928071Y-116714190D01*
X92930240Y-116709957D01*
X92940411Y-116685762D01*
X92945808Y-116663554D01*
X92946718Y-116641488D01*
X92944125Y-116621184D01*
X92935701Y-116593931D01*
X92921366Y-116568657D01*
X92907590Y-116552026D01*
X92885513Y-116533170D01*
X92860983Y-116519745D01*
X92834819Y-116511736D01*
X92807834Y-116509128D01*
X92780846Y-116511909D01*
X92754671Y-116520063D01*
X92730125Y-116533577D01*
X92708023Y-116552435D01*
X92705119Y-116555558D01*
X92689170Y-116577769D01*
X92678293Y-116602818D01*
X92672536Y-116629659D01*
X92671951Y-116657244D01*
X92676587Y-116684524D01*
G36*
X92707039Y-118531282D02*
G01*
X92711546Y-118559466D01*
X92721625Y-118585449D01*
X92736694Y-118608586D01*
X92756168Y-118628232D01*
X92779464Y-118643743D01*
X92806000Y-118654474D01*
X92821867Y-118658124D01*
X92849717Y-118659899D01*
X92876406Y-118655952D01*
X92901349Y-118646885D01*
X92923965Y-118633300D01*
X92943669Y-118615797D01*
X92959881Y-118594978D01*
X92972016Y-118571445D01*
X92979491Y-118545800D01*
X92981725Y-118518643D01*
X92979240Y-118495693D01*
X92970888Y-118468891D01*
X92957227Y-118444387D01*
X92939052Y-118423030D01*
X92917156Y-118405670D01*
X92892335Y-118393157D01*
X92879614Y-118389121D01*
X92849897Y-118384453D01*
X92821256Y-118386010D01*
X92793963Y-118393723D01*
X92768286Y-118407518D01*
X92747595Y-118424294D01*
X92728932Y-118445918D01*
X92716012Y-118469868D01*
X92708695Y-118496514D01*
X92706839Y-118526229D01*
X92707039Y-118531282D01*
G37*
X92707039Y-118531282D02*
X92711546Y-118559466D01*
X92721625Y-118585449D01*
X92736694Y-118608586D01*
X92756168Y-118628232D01*
X92779464Y-118643743D01*
X92806000Y-118654474D01*
X92821867Y-118658124D01*
X92849717Y-118659899D01*
X92876406Y-118655952D01*
X92901349Y-118646885D01*
X92923965Y-118633300D01*
X92943669Y-118615797D01*
X92959881Y-118594978D01*
X92972016Y-118571445D01*
X92979491Y-118545800D01*
X92981725Y-118518643D01*
X92979240Y-118495693D01*
X92970888Y-118468891D01*
X92957227Y-118444387D01*
X92939052Y-118423030D01*
X92917156Y-118405670D01*
X92892335Y-118393157D01*
X92879614Y-118389121D01*
X92849897Y-118384453D01*
X92821256Y-118386010D01*
X92793963Y-118393723D01*
X92768286Y-118407518D01*
X92747595Y-118424294D01*
X92728932Y-118445918D01*
X92716012Y-118469868D01*
X92708695Y-118496514D01*
X92706839Y-118526229D01*
X92707039Y-118531282D01*
G36*
X92707217Y-118030792D02*
G01*
X92712969Y-118057812D01*
X92723881Y-118082934D01*
X92739569Y-118105406D01*
X92759649Y-118124478D01*
X92783738Y-118139398D01*
X92800721Y-118146302D01*
X92825969Y-118151743D01*
X92852851Y-118152355D01*
X92879245Y-118148255D01*
X92900516Y-118140781D01*
X92926322Y-118125460D01*
X92947598Y-118105930D01*
X92963986Y-118082585D01*
X92973286Y-118061566D01*
X92978663Y-118040192D01*
X92981073Y-118017405D01*
X92980278Y-117996064D01*
X92979229Y-117989609D01*
X92970694Y-117962352D01*
X92957201Y-117938029D01*
X92939486Y-117917140D01*
X92918289Y-117900186D01*
X92894350Y-117887668D01*
X92868405Y-117880086D01*
X92841195Y-117877941D01*
X92818392Y-117880603D01*
X92789058Y-117889613D01*
X92763600Y-117903462D01*
X92742332Y-117921874D01*
X92725564Y-117944574D01*
X92713608Y-117971286D01*
X92712724Y-117974056D01*
X92707007Y-118002622D01*
X92707217Y-118030792D01*
G37*
X92707217Y-118030792D02*
X92712969Y-118057812D01*
X92723881Y-118082934D01*
X92739569Y-118105406D01*
X92759649Y-118124478D01*
X92783738Y-118139398D01*
X92800721Y-118146302D01*
X92825969Y-118151743D01*
X92852851Y-118152355D01*
X92879245Y-118148255D01*
X92900516Y-118140781D01*
X92926322Y-118125460D01*
X92947598Y-118105930D01*
X92963986Y-118082585D01*
X92973286Y-118061566D01*
X92978663Y-118040192D01*
X92981073Y-118017405D01*
X92980278Y-117996064D01*
X92979229Y-117989609D01*
X92970694Y-117962352D01*
X92957201Y-117938029D01*
X92939486Y-117917140D01*
X92918289Y-117900186D01*
X92894350Y-117887668D01*
X92868405Y-117880086D01*
X92841195Y-117877941D01*
X92818392Y-117880603D01*
X92789058Y-117889613D01*
X92763600Y-117903462D01*
X92742332Y-117921874D01*
X92725564Y-117944574D01*
X92713608Y-117971286D01*
X92712724Y-117974056D01*
X92707007Y-118002622D01*
X92707217Y-118030792D01*
G36*
X92767292Y-117406976D02*
G01*
X92775231Y-117434395D01*
X92777827Y-117440424D01*
X92792817Y-117465928D01*
X92812409Y-117487087D01*
X92827580Y-117498461D01*
X92852730Y-117511248D01*
X92879096Y-117518413D01*
X92905877Y-117520238D01*
X92932275Y-117517001D01*
X92957490Y-117508983D01*
X92980724Y-117496464D01*
X93001177Y-117479723D01*
X93018050Y-117459040D01*
X93030543Y-117434696D01*
X93033425Y-117426375D01*
X93038019Y-117405098D01*
X93039663Y-117382143D01*
X93038338Y-117359946D01*
X93034113Y-117341196D01*
X93021823Y-117314430D01*
X93005115Y-117291356D01*
X92984710Y-117272423D01*
X92961326Y-117258076D01*
X92935681Y-117248763D01*
X92908496Y-117244932D01*
X92882192Y-117246725D01*
X92853996Y-117254491D01*
X92829001Y-117267158D01*
X92807581Y-117284028D01*
X92790114Y-117304403D01*
X92776975Y-117327583D01*
X92768541Y-117352871D01*
X92765188Y-117379568D01*
X92767292Y-117406976D01*
G37*
X92767292Y-117406976D02*
X92775231Y-117434395D01*
X92777827Y-117440424D01*
X92792817Y-117465928D01*
X92812409Y-117487087D01*
X92827580Y-117498461D01*
X92852730Y-117511248D01*
X92879096Y-117518413D01*
X92905877Y-117520238D01*
X92932275Y-117517001D01*
X92957490Y-117508983D01*
X92980724Y-117496464D01*
X93001177Y-117479723D01*
X93018050Y-117459040D01*
X93030543Y-117434696D01*
X93033425Y-117426375D01*
X93038019Y-117405098D01*
X93039663Y-117382143D01*
X93038338Y-117359946D01*
X93034113Y-117341196D01*
X93021823Y-117314430D01*
X93005115Y-117291356D01*
X92984710Y-117272423D01*
X92961326Y-117258076D01*
X92935681Y-117248763D01*
X92908496Y-117244932D01*
X92882192Y-117246725D01*
X92853996Y-117254491D01*
X92829001Y-117267158D01*
X92807581Y-117284028D01*
X92790114Y-117304403D01*
X92776975Y-117327583D01*
X92768541Y-117352871D01*
X92765188Y-117379568D01*
X92767292Y-117406976D01*
G36*
X92908131Y-116976913D02*
G01*
X92917375Y-117001984D01*
X92931232Y-117024880D01*
X92949406Y-117044835D01*
X92971598Y-117061084D01*
X92997508Y-117072863D01*
X93003040Y-117074595D01*
X93028098Y-117078998D01*
X93054742Y-117078664D01*
X93080668Y-117073769D01*
X93097850Y-117067399D01*
X93122860Y-117052477D01*
X93143764Y-117033447D01*
X93160179Y-117011097D01*
X93171726Y-116986213D01*
X93178024Y-116959583D01*
X93178691Y-116931996D01*
X93174630Y-116908689D01*
X93163948Y-116880550D01*
X93148303Y-116856105D01*
X93128188Y-116835800D01*
X93104096Y-116820082D01*
X93076521Y-116809399D01*
X93061218Y-116806023D01*
X93034067Y-116804558D01*
X93007001Y-116808860D01*
X92981106Y-116818423D01*
X92957466Y-116832743D01*
X92937167Y-116851316D01*
X92923278Y-116870187D01*
X92911076Y-116896305D01*
X92904683Y-116923308D01*
X92903801Y-116950433D01*
X92908131Y-116976913D01*
G37*
X92908131Y-116976913D02*
X92917375Y-117001984D01*
X92931232Y-117024880D01*
X92949406Y-117044835D01*
X92971598Y-117061084D01*
X92997508Y-117072863D01*
X93003040Y-117074595D01*
X93028098Y-117078998D01*
X93054742Y-117078664D01*
X93080668Y-117073769D01*
X93097850Y-117067399D01*
X93122860Y-117052477D01*
X93143764Y-117033447D01*
X93160179Y-117011097D01*
X93171726Y-116986213D01*
X93178024Y-116959583D01*
X93178691Y-116931996D01*
X93174630Y-116908689D01*
X93163948Y-116880550D01*
X93148303Y-116856105D01*
X93128188Y-116835800D01*
X93104096Y-116820082D01*
X93076521Y-116809399D01*
X93061218Y-116806023D01*
X93034067Y-116804558D01*
X93007001Y-116808860D01*
X92981106Y-116818423D01*
X92957466Y-116832743D01*
X92937167Y-116851316D01*
X92923278Y-116870187D01*
X92911076Y-116896305D01*
X92904683Y-116923308D01*
X92903801Y-116950433D01*
X92908131Y-116976913D01*
G36*
X92930989Y-118261248D02*
G01*
X92938422Y-118287437D01*
X92951282Y-118311975D01*
X92958531Y-118321816D01*
X92978685Y-118341842D01*
X93002376Y-118357223D01*
X93028571Y-118367639D01*
X93056233Y-118372772D01*
X93084327Y-118372303D01*
X93106888Y-118367535D01*
X93132368Y-118356509D01*
X93155384Y-118340248D01*
X93174942Y-118319698D01*
X93190047Y-118295801D01*
X93195392Y-118283503D01*
X93200466Y-118264761D01*
X93203154Y-118243525D01*
X93203272Y-118222519D01*
X93200698Y-118204705D01*
X93190356Y-118176242D01*
X93174956Y-118151361D01*
X93154855Y-118130508D01*
X93130410Y-118114129D01*
X93126937Y-118112354D01*
X93114394Y-118106524D01*
X93103899Y-118102867D01*
X93092888Y-118100749D01*
X93078797Y-118099535D01*
X93074047Y-118099276D01*
X93045427Y-118100066D01*
X93019915Y-118105756D01*
X92996232Y-118116657D01*
X92992129Y-118119157D01*
X92970087Y-118136608D01*
X92952590Y-118157735D01*
X92939785Y-118181651D01*
X92931818Y-118207467D01*
X92928837Y-118234295D01*
X92930989Y-118261248D01*
G37*
X92930989Y-118261248D02*
X92938422Y-118287437D01*
X92951282Y-118311975D01*
X92958531Y-118321816D01*
X92978685Y-118341842D01*
X93002376Y-118357223D01*
X93028571Y-118367639D01*
X93056233Y-118372772D01*
X93084327Y-118372303D01*
X93106888Y-118367535D01*
X93132368Y-118356509D01*
X93155384Y-118340248D01*
X93174942Y-118319698D01*
X93190047Y-118295801D01*
X93195392Y-118283503D01*
X93200466Y-118264761D01*
X93203154Y-118243525D01*
X93203272Y-118222519D01*
X93200698Y-118204705D01*
X93190356Y-118176242D01*
X93174956Y-118151361D01*
X93154855Y-118130508D01*
X93130410Y-118114129D01*
X93126937Y-118112354D01*
X93114394Y-118106524D01*
X93103899Y-118102867D01*
X93092888Y-118100749D01*
X93078797Y-118099535D01*
X93074047Y-118099276D01*
X93045427Y-118100066D01*
X93019915Y-118105756D01*
X92996232Y-118116657D01*
X92992129Y-118119157D01*
X92970087Y-118136608D01*
X92952590Y-118157735D01*
X92939785Y-118181651D01*
X92931818Y-118207467D01*
X92928837Y-118234295D01*
X92930989Y-118261248D01*
G36*
X93079619Y-117952113D02*
G01*
X93088077Y-117977133D01*
X93101592Y-118000585D01*
X93120223Y-118021725D01*
X93137437Y-118035508D01*
X93161822Y-118048618D01*
X93187989Y-118056171D01*
X93215008Y-118058351D01*
X93241947Y-118055341D01*
X93267876Y-118047324D01*
X93291862Y-118034485D01*
X93312975Y-118017007D01*
X93328513Y-117997823D01*
X93340487Y-117974408D01*
X93347964Y-117948030D01*
X93350705Y-117920439D01*
X93348472Y-117893383D01*
X93344809Y-117878644D01*
X93333278Y-117851872D01*
X93316987Y-117829136D01*
X93295698Y-117810162D01*
X93271600Y-117795850D01*
X93262234Y-117791447D01*
X93254426Y-117788549D01*
X93246406Y-117786843D01*
X93236402Y-117786016D01*
X93222646Y-117785754D01*
X93214450Y-117785737D01*
X93198266Y-117785850D01*
X93186636Y-117786395D01*
X93177763Y-117787683D01*
X93169852Y-117790026D01*
X93161107Y-117793735D01*
X93156908Y-117795701D01*
X93131665Y-117810822D01*
X93111056Y-117829594D01*
X93095140Y-117851269D01*
X93083977Y-117875105D01*
X93077630Y-117900354D01*
X93076156Y-117926272D01*
X93079619Y-117952113D01*
G37*
X93079619Y-117952113D02*
X93088077Y-117977133D01*
X93101592Y-118000585D01*
X93120223Y-118021725D01*
X93137437Y-118035508D01*
X93161822Y-118048618D01*
X93187989Y-118056171D01*
X93215008Y-118058351D01*
X93241947Y-118055341D01*
X93267876Y-118047324D01*
X93291862Y-118034485D01*
X93312975Y-118017007D01*
X93328513Y-117997823D01*
X93340487Y-117974408D01*
X93347964Y-117948030D01*
X93350705Y-117920439D01*
X93348472Y-117893383D01*
X93344809Y-117878644D01*
X93333278Y-117851872D01*
X93316987Y-117829136D01*
X93295698Y-117810162D01*
X93271600Y-117795850D01*
X93262234Y-117791447D01*
X93254426Y-117788549D01*
X93246406Y-117786843D01*
X93236402Y-117786016D01*
X93222646Y-117785754D01*
X93214450Y-117785737D01*
X93198266Y-117785850D01*
X93186636Y-117786395D01*
X93177763Y-117787683D01*
X93169852Y-117790026D01*
X93161107Y-117793735D01*
X93156908Y-117795701D01*
X93131665Y-117810822D01*
X93111056Y-117829594D01*
X93095140Y-117851269D01*
X93083977Y-117875105D01*
X93077630Y-117900354D01*
X93076156Y-117926272D01*
X93079619Y-117952113D01*
G36*
X93079652Y-117269486D02*
G01*
X93088268Y-117294549D01*
X93101767Y-117317728D01*
X93120006Y-117338263D01*
X93142838Y-117355391D01*
X93156853Y-117362874D01*
X93181832Y-117371280D01*
X93209057Y-117374643D01*
X93236779Y-117372860D01*
X93254823Y-117368716D01*
X93280804Y-117357653D01*
X93303866Y-117341518D01*
X93323163Y-117321147D01*
X93337848Y-117297378D01*
X93344681Y-117279982D01*
X93348666Y-117261792D01*
X93350561Y-117241310D01*
X93350312Y-117220999D01*
X93347862Y-117203319D01*
X93346523Y-117198362D01*
X93334741Y-117171324D01*
X93317947Y-117147717D01*
X93296800Y-117128110D01*
X93271956Y-117113074D01*
X93244073Y-117103179D01*
X93234331Y-117101141D01*
X93207441Y-117099574D01*
X93180457Y-117103857D01*
X93154490Y-117113605D01*
X93130650Y-117128432D01*
X93114909Y-117142576D01*
X93096930Y-117165632D01*
X93084559Y-117190613D01*
X93077653Y-117216756D01*
X93076066Y-117243301D01*
X93079652Y-117269486D01*
G37*
X93079652Y-117269486D02*
X93088268Y-117294549D01*
X93101767Y-117317728D01*
X93120006Y-117338263D01*
X93142838Y-117355391D01*
X93156853Y-117362874D01*
X93181832Y-117371280D01*
X93209057Y-117374643D01*
X93236779Y-117372860D01*
X93254823Y-117368716D01*
X93280804Y-117357653D01*
X93303866Y-117341518D01*
X93323163Y-117321147D01*
X93337848Y-117297378D01*
X93344681Y-117279982D01*
X93348666Y-117261792D01*
X93350561Y-117241310D01*
X93350312Y-117220999D01*
X93347862Y-117203319D01*
X93346523Y-117198362D01*
X93334741Y-117171324D01*
X93317947Y-117147717D01*
X93296800Y-117128110D01*
X93271956Y-117113074D01*
X93244073Y-117103179D01*
X93234331Y-117101141D01*
X93207441Y-117099574D01*
X93180457Y-117103857D01*
X93154490Y-117113605D01*
X93130650Y-117128432D01*
X93114909Y-117142576D01*
X93096930Y-117165632D01*
X93084559Y-117190613D01*
X93077653Y-117216756D01*
X93076066Y-117243301D01*
X93079652Y-117269486D01*
G36*
X93103884Y-117601541D02*
G01*
X93104819Y-117616734D01*
X93106469Y-117628119D01*
X93109459Y-117638237D01*
X93114411Y-117649629D01*
X93116978Y-117654906D01*
X93132498Y-117679581D01*
X93152059Y-117699856D01*
X93174874Y-117715454D01*
X93200154Y-117726098D01*
X93227113Y-117731512D01*
X93254962Y-117731419D01*
X93282914Y-117725543D01*
X93299614Y-117719031D01*
X93314784Y-117710041D01*
X93330763Y-117697362D01*
X93345383Y-117682917D01*
X93356479Y-117668626D01*
X93356496Y-117668599D01*
X93368203Y-117644823D01*
X93375385Y-117618487D01*
X93377699Y-117591491D01*
X93374933Y-117566309D01*
X93365598Y-117538060D01*
X93351296Y-117513245D01*
X93332630Y-117492353D01*
X93310203Y-117475868D01*
X93284615Y-117464278D01*
X93256470Y-117458069D01*
X93239850Y-117457125D01*
X93210742Y-117460140D01*
X93183712Y-117468868D01*
X93159415Y-117482835D01*
X93138505Y-117501565D01*
X93121637Y-117524584D01*
X93109466Y-117551416D01*
X93109327Y-117551831D01*
X93105849Y-117563891D01*
X93104006Y-117575378D01*
X93103522Y-117588792D01*
X93103884Y-117601541D01*
G37*
X93103884Y-117601541D02*
X93104819Y-117616734D01*
X93106469Y-117628119D01*
X93109459Y-117638237D01*
X93114411Y-117649629D01*
X93116978Y-117654906D01*
X93132498Y-117679581D01*
X93152059Y-117699856D01*
X93174874Y-117715454D01*
X93200154Y-117726098D01*
X93227113Y-117731512D01*
X93254962Y-117731419D01*
X93282914Y-117725543D01*
X93299614Y-117719031D01*
X93314784Y-117710041D01*
X93330763Y-117697362D01*
X93345383Y-117682917D01*
X93356479Y-117668626D01*
X93356496Y-117668599D01*
X93368203Y-117644823D01*
X93375385Y-117618487D01*
X93377699Y-117591491D01*
X93374933Y-117566309D01*
X93365598Y-117538060D01*
X93351296Y-117513245D01*
X93332630Y-117492353D01*
X93310203Y-117475868D01*
X93284615Y-117464278D01*
X93256470Y-117458069D01*
X93239850Y-117457125D01*
X93210742Y-117460140D01*
X93183712Y-117468868D01*
X93159415Y-117482835D01*
X93138505Y-117501565D01*
X93121637Y-117524584D01*
X93109466Y-117551416D01*
X93109327Y-117551831D01*
X93105849Y-117563891D01*
X93104006Y-117575378D01*
X93103522Y-117588792D01*
X93103884Y-117601541D01*
G36*
X92465123Y-119146088D02*
G01*
X92474865Y-119167354D01*
X92489325Y-119186026D01*
X92508266Y-119201198D01*
X92518376Y-119206732D01*
X92536974Y-119212870D01*
X92558486Y-119215630D01*
X92580386Y-119214919D01*
X92600152Y-119210640D01*
X92602209Y-119209901D01*
X92613416Y-119205236D01*
X92629170Y-119198068D01*
X92648435Y-119188917D01*
X92670172Y-119178305D01*
X92693346Y-119166752D01*
X92716920Y-119154780D01*
X92739856Y-119142908D01*
X92761119Y-119131659D01*
X92779670Y-119121553D01*
X92792175Y-119114460D01*
X92882350Y-119058293D01*
X92968537Y-118997230D01*
X93050585Y-118931432D01*
X93128344Y-118861061D01*
X93201664Y-118786277D01*
X93270394Y-118707243D01*
X93334383Y-118624119D01*
X93393481Y-118537068D01*
X93447538Y-118446250D01*
X93489141Y-118366762D01*
X93533227Y-118270678D01*
X93571119Y-118174114D01*
X93602885Y-118076760D01*
X93628591Y-117978301D01*
X93648305Y-117878425D01*
X93662094Y-117776818D01*
X93670025Y-117673169D01*
X93672165Y-117567164D01*
X93671220Y-117517450D01*
X93664910Y-117415474D01*
X93652338Y-117313458D01*
X93633582Y-117211782D01*
X93608716Y-117110827D01*
X93577815Y-117010972D01*
X93561940Y-116966440D01*
X93522231Y-116868552D01*
X93476977Y-116773640D01*
X93426339Y-116681896D01*
X93370480Y-116593512D01*
X93309561Y-116508681D01*
X93243744Y-116427594D01*
X93173192Y-116350445D01*
X93098065Y-116277425D01*
X93018527Y-116208726D01*
X92934739Y-116144541D01*
X92846862Y-116085062D01*
X92790587Y-116050744D01*
X92773402Y-116040974D01*
X92753291Y-116030010D01*
X92731253Y-116018353D01*
X92708291Y-116006506D01*
X92685404Y-115994969D01*
X92663593Y-115984245D01*
X92643859Y-115974835D01*
X92627202Y-115967239D01*
X92614623Y-115961961D01*
X92610295Y-115960386D01*
X92586017Y-115955512D01*
X92561751Y-115956501D01*
X92538468Y-115962940D01*
X92517135Y-115974413D01*
X92498721Y-115990508D01*
X92484196Y-116010809D01*
X92481872Y-116015279D01*
X92474804Y-116036353D01*
X92472580Y-116059532D01*
X92475207Y-116082806D01*
X92481584Y-116101869D01*
X92486668Y-116111942D01*
X92492273Y-116120689D01*
X92499121Y-116128648D01*
X92507930Y-116136357D01*
X92519420Y-116144352D01*
X92534311Y-116153171D01*
X92553324Y-116163353D01*
X92577177Y-116175433D01*
X92585904Y-116179765D01*
X92608979Y-116191396D01*
X92633278Y-116204017D01*
X92657210Y-116216775D01*
X92679181Y-116228818D01*
X92697599Y-116239290D01*
X92703148Y-116242569D01*
X92786529Y-116296182D01*
X92865935Y-116354629D01*
X92941194Y-116417677D01*
X93012131Y-116485090D01*
X93078572Y-116556633D01*
X93140343Y-116632071D01*
X93197270Y-116711168D01*
X93249180Y-116793691D01*
X93295897Y-116879403D01*
X93337248Y-116968069D01*
X93373059Y-117059455D01*
X93403156Y-117153325D01*
X93417696Y-117207887D01*
X93438525Y-117305154D01*
X93453089Y-117402722D01*
X93461451Y-117500340D01*
X93463673Y-117597754D01*
X93459815Y-117694714D01*
X93449940Y-117790967D01*
X93434110Y-117886261D01*
X93412385Y-117980344D01*
X93384828Y-118072964D01*
X93351501Y-118163868D01*
X93312465Y-118252806D01*
X93267781Y-118339524D01*
X93217512Y-118423771D01*
X93161719Y-118505294D01*
X93100465Y-118583842D01*
X93073023Y-118616000D01*
X93055857Y-118634900D01*
X93035101Y-118656642D01*
X93011859Y-118680156D01*
X92987231Y-118704375D01*
X92962319Y-118728231D01*
X92938226Y-118750656D01*
X92916052Y-118770584D01*
X92896899Y-118786945D01*
X92895253Y-118788294D01*
X92822516Y-118844337D01*
X92747042Y-118896086D01*
X92669774Y-118942949D01*
X92591658Y-118984332D01*
X92558016Y-119000305D01*
X92535600Y-119010810D01*
X92518188Y-119019616D01*
X92504867Y-119027329D01*
X92494724Y-119034553D01*
X92486845Y-119041892D01*
X92480318Y-119049951D01*
X92478090Y-119053195D01*
X92466583Y-119075782D01*
X92460744Y-119099397D01*
X92460337Y-119123134D01*
X92465123Y-119146088D01*
G37*
X92465123Y-119146088D02*
X92474865Y-119167354D01*
X92489325Y-119186026D01*
X92508266Y-119201198D01*
X92518376Y-119206732D01*
X92536974Y-119212870D01*
X92558486Y-119215630D01*
X92580386Y-119214919D01*
X92600152Y-119210640D01*
X92602209Y-119209901D01*
X92613416Y-119205236D01*
X92629170Y-119198068D01*
X92648435Y-119188917D01*
X92670172Y-119178305D01*
X92693346Y-119166752D01*
X92716920Y-119154780D01*
X92739856Y-119142908D01*
X92761119Y-119131659D01*
X92779670Y-119121553D01*
X92792175Y-119114460D01*
X92882350Y-119058293D01*
X92968537Y-118997230D01*
X93050585Y-118931432D01*
X93128344Y-118861061D01*
X93201664Y-118786277D01*
X93270394Y-118707243D01*
X93334383Y-118624119D01*
X93393481Y-118537068D01*
X93447538Y-118446250D01*
X93489141Y-118366762D01*
X93533227Y-118270678D01*
X93571119Y-118174114D01*
X93602885Y-118076760D01*
X93628591Y-117978301D01*
X93648305Y-117878425D01*
X93662094Y-117776818D01*
X93670025Y-117673169D01*
X93672165Y-117567164D01*
X93671220Y-117517450D01*
X93664910Y-117415474D01*
X93652338Y-117313458D01*
X93633582Y-117211782D01*
X93608716Y-117110827D01*
X93577815Y-117010972D01*
X93561940Y-116966440D01*
X93522231Y-116868552D01*
X93476977Y-116773640D01*
X93426339Y-116681896D01*
X93370480Y-116593512D01*
X93309561Y-116508681D01*
X93243744Y-116427594D01*
X93173192Y-116350445D01*
X93098065Y-116277425D01*
X93018527Y-116208726D01*
X92934739Y-116144541D01*
X92846862Y-116085062D01*
X92790587Y-116050744D01*
X92773402Y-116040974D01*
X92753291Y-116030010D01*
X92731253Y-116018353D01*
X92708291Y-116006506D01*
X92685404Y-115994969D01*
X92663593Y-115984245D01*
X92643859Y-115974835D01*
X92627202Y-115967239D01*
X92614623Y-115961961D01*
X92610295Y-115960386D01*
X92586017Y-115955512D01*
X92561751Y-115956501D01*
X92538468Y-115962940D01*
X92517135Y-115974413D01*
X92498721Y-115990508D01*
X92484196Y-116010809D01*
X92481872Y-116015279D01*
X92474804Y-116036353D01*
X92472580Y-116059532D01*
X92475207Y-116082806D01*
X92481584Y-116101869D01*
X92486668Y-116111942D01*
X92492273Y-116120689D01*
X92499121Y-116128648D01*
X92507930Y-116136357D01*
X92519420Y-116144352D01*
X92534311Y-116153171D01*
X92553324Y-116163353D01*
X92577177Y-116175433D01*
X92585904Y-116179765D01*
X92608979Y-116191396D01*
X92633278Y-116204017D01*
X92657210Y-116216775D01*
X92679181Y-116228818D01*
X92697599Y-116239290D01*
X92703148Y-116242569D01*
X92786529Y-116296182D01*
X92865935Y-116354629D01*
X92941194Y-116417677D01*
X93012131Y-116485090D01*
X93078572Y-116556633D01*
X93140343Y-116632071D01*
X93197270Y-116711168D01*
X93249180Y-116793691D01*
X93295897Y-116879403D01*
X93337248Y-116968069D01*
X93373059Y-117059455D01*
X93403156Y-117153325D01*
X93417696Y-117207887D01*
X93438525Y-117305154D01*
X93453089Y-117402722D01*
X93461451Y-117500340D01*
X93463673Y-117597754D01*
X93459815Y-117694714D01*
X93449940Y-117790967D01*
X93434110Y-117886261D01*
X93412385Y-117980344D01*
X93384828Y-118072964D01*
X93351501Y-118163868D01*
X93312465Y-118252806D01*
X93267781Y-118339524D01*
X93217512Y-118423771D01*
X93161719Y-118505294D01*
X93100465Y-118583842D01*
X93073023Y-118616000D01*
X93055857Y-118634900D01*
X93035101Y-118656642D01*
X93011859Y-118680156D01*
X92987231Y-118704375D01*
X92962319Y-118728231D01*
X92938226Y-118750656D01*
X92916052Y-118770584D01*
X92896899Y-118786945D01*
X92895253Y-118788294D01*
X92822516Y-118844337D01*
X92747042Y-118896086D01*
X92669774Y-118942949D01*
X92591658Y-118984332D01*
X92558016Y-119000305D01*
X92535600Y-119010810D01*
X92518188Y-119019616D01*
X92504867Y-119027329D01*
X92494724Y-119034553D01*
X92486845Y-119041892D01*
X92480318Y-119049951D01*
X92478090Y-119053195D01*
X92466583Y-119075782D01*
X92460744Y-119099397D01*
X92460337Y-119123134D01*
X92465123Y-119146088D01*
D11*
X87195922Y-112878800D02*
X87713078Y-112878800D01*
X87195922Y-114298800D02*
X87713078Y-114298800D01*
X87168222Y-122045800D02*
X87685378Y-122045800D01*
X87168222Y-120625800D02*
X87685378Y-120625800D01*
M02*
