G04 #@! TF.GenerationSoftware,KiCad,Pcbnew,(5.1.6)-1*
G04 #@! TF.CreationDate,2020-09-01T21:00:33-07:00*
G04 #@! TF.ProjectId,MiniDAQ,4d696e69-4441-4512-9e6b-696361645f70,rev?*
G04 #@! TF.SameCoordinates,Original*
G04 #@! TF.FileFunction,Copper,L3,Inr*
G04 #@! TF.FilePolarity,Positive*
%FSLAX46Y46*%
G04 Gerber Fmt 4.6, Leading zero omitted, Abs format (unit mm)*
G04 Created by KiCad (PCBNEW (5.1.6)-1) date 2020-09-01 21:00:33*
%MOMM*%
%LPD*%
G01*
G04 APERTURE LIST*
G04 #@! TA.AperFunction,ViaPad*
%ADD10O,1.000000X1.000000*%
G04 #@! TD*
G04 #@! TA.AperFunction,ViaPad*
%ADD11R,1.000000X1.000000*%
G04 #@! TD*
G04 #@! TA.AperFunction,ViaPad*
%ADD12O,4.000000X1.600000*%
G04 #@! TD*
G04 #@! TA.AperFunction,ViaPad*
%ADD13C,0.350000*%
G04 #@! TD*
G04 #@! TA.AperFunction,ViaPad*
%ADD14C,0.762000*%
G04 #@! TD*
G04 #@! TA.AperFunction,Conductor*
%ADD15C,0.203200*%
G04 #@! TD*
G04 #@! TA.AperFunction,Conductor*
%ADD16C,0.152400*%
G04 #@! TD*
G04 APERTURE END LIST*
D10*
X93864600Y-123603000D03*
X92594600Y-123603000D03*
D11*
X91324600Y-123603000D03*
D10*
X91324600Y-111436400D03*
D11*
X92594600Y-111436400D03*
D12*
X87666200Y-123350000D03*
X87666200Y-111650000D03*
D13*
X114884200Y-122047000D03*
X111709200Y-119634000D03*
X115341400Y-117779800D03*
X113690400Y-117805200D03*
X111734600Y-117754400D03*
X113944400Y-112979200D03*
X113055400Y-112979200D03*
X107111800Y-110871000D03*
X107086400Y-111709200D03*
X113538000Y-111404400D03*
X113538000Y-111963200D03*
X117500400Y-112699800D03*
X117525800Y-110871000D03*
D14*
X122885200Y-114675400D03*
X122885200Y-120325400D03*
X105435400Y-110947200D03*
D13*
X98882200Y-110718600D03*
X100736400Y-112141000D03*
X102463600Y-113411000D03*
D14*
X87706200Y-116636800D03*
D13*
X117678200Y-123190000D03*
X111328200Y-124383800D03*
X113157000Y-122047000D03*
X114858800Y-124510800D03*
X115786400Y-122059200D03*
X119126000Y-118643400D03*
X117500400Y-114071400D03*
X117906800Y-118592600D03*
X113728500Y-119418100D03*
X115362800Y-119358600D03*
X113868200Y-117017800D03*
X106553000Y-115722400D03*
X109846828Y-116414800D03*
X106209000Y-121745000D03*
X107123400Y-120123200D03*
X106922651Y-118519200D03*
X103846800Y-113468400D03*
X103034000Y-115094000D03*
X101408400Y-118548400D03*
X98868400Y-113773200D03*
X99365200Y-118110200D03*
X96938000Y-118142000D03*
X96811000Y-122409200D03*
X99732000Y-122460000D03*
X108698200Y-122180600D03*
X102094200Y-123250190D03*
X103923000Y-124161800D03*
X92010400Y-119767600D03*
X114286200Y-113773200D03*
X100999210Y-114382800D03*
X115290600Y-116967000D03*
X110972600Y-120345200D03*
D14*
X118897400Y-113411000D03*
D13*
X101904800Y-113360200D03*
X111328200Y-123901200D03*
X118237000Y-122402600D03*
X113284000Y-117017800D03*
X117449600Y-114884200D03*
X104470200Y-113461800D03*
X105701000Y-112808000D03*
X112482800Y-121935212D03*
X111072996Y-120978996D03*
X106996400Y-117735600D03*
X104165200Y-115710200D03*
X99353790Y-114941600D03*
X95642600Y-117557800D03*
X101765200Y-122110200D03*
X99365200Y-123710200D03*
X102983200Y-123250190D03*
X112355800Y-116973600D03*
X118401000Y-124136400D03*
X94677410Y-111334800D03*
X116738400Y-123291600D03*
X116128800Y-118364000D03*
X113856000Y-122047000D03*
X116027200Y-120853200D03*
X116556200Y-123901200D03*
X110998000Y-118846600D03*
D14*
X105537000Y-112090200D03*
D13*
X118922800Y-110845600D03*
D14*
X123190000Y-123190000D03*
X108788200Y-111912400D03*
X122377200Y-111836200D03*
X115214400Y-111226600D03*
D13*
X101765200Y-115710200D03*
X98565200Y-118910200D03*
X98547600Y-122910600D03*
X98995400Y-120885200D03*
X98995400Y-120097800D03*
X100519400Y-118548400D03*
X100189200Y-113646200D03*
X99427200Y-113671600D03*
X99782800Y-119310398D03*
X101375800Y-120929400D03*
D14*
X111785400Y-112115600D03*
D13*
X106971000Y-120926600D03*
X107000800Y-119310400D03*
X104939000Y-115094000D03*
X101357600Y-117659400D03*
X99353790Y-116516400D03*
X97090400Y-116160800D03*
X95871200Y-123501400D03*
X100544800Y-122536200D03*
X103821400Y-123250190D03*
X102551400Y-115094000D03*
D14*
X96988800Y-112935000D03*
D13*
X107656800Y-124006600D03*
D14*
X87706200Y-118364000D03*
D13*
X121080800Y-123240800D03*
X116115000Y-117126000D03*
X106132800Y-120932200D03*
X99757408Y-121723400D03*
X100163800Y-118110200D03*
X99365200Y-122910200D03*
X108619200Y-121412000D03*
X102184200Y-116128800D03*
X102971600Y-117729000D03*
X108614800Y-120751600D03*
X102971600Y-119303800D03*
X108614800Y-120116600D03*
X102920800Y-116916200D03*
X108614800Y-119507000D03*
X103759000Y-116941600D03*
X108619200Y-118897400D03*
X104546400Y-117729000D03*
X108614800Y-118262400D03*
X103809800Y-116179600D03*
X108610400Y-117652800D03*
X105333800Y-116916200D03*
X108614800Y-117043200D03*
X116230400Y-115392200D03*
X103592800Y-111360200D03*
X116789200Y-115392200D03*
X104177000Y-111334800D03*
X105333800Y-119329200D03*
X108614800Y-115214400D03*
X112635200Y-115043200D03*
X105359200Y-120926600D03*
X108619200Y-116433600D03*
X104597200Y-120142000D03*
X108614800Y-115824000D03*
X111099600Y-117043200D03*
X111734600Y-117043200D03*
X104597200Y-120926600D03*
X103733600Y-120932200D03*
X99046200Y-119285000D03*
X90119200Y-118516400D03*
X95425000Y-114681000D03*
X90119200Y-116484400D03*
X94871800Y-114681000D03*
X118262400Y-117983000D03*
X103784400Y-120091200D03*
X118262400Y-116408200D03*
X104608800Y-119310400D03*
X105384600Y-116128800D03*
X106146600Y-118513600D03*
X108000800Y-113715800D03*
X108610400Y-113715788D03*
X109245400Y-113715800D03*
X106172000Y-116078000D03*
X107111800Y-116538000D03*
X105359200Y-118513600D03*
X103756200Y-117729000D03*
X111484393Y-122080837D03*
X101383000Y-120123200D03*
X110474295Y-124108210D03*
X101357600Y-124136400D03*
X101332200Y-123323600D03*
X111985821Y-122005050D03*
X105345400Y-120123200D03*
X106183600Y-124009400D03*
X106158200Y-119301000D03*
X106996400Y-124006600D03*
D15*
X110594399Y-119250201D02*
X110594399Y-121844399D01*
X110998000Y-118846600D02*
X110594399Y-119250201D01*
X112651200Y-123901200D02*
X116556200Y-123901200D01*
X110594399Y-121844399D02*
X112651200Y-123901200D01*
X107206200Y-122123200D02*
X107917400Y-121412000D01*
X103555800Y-122123200D02*
X107206200Y-122123200D01*
X107917400Y-121412000D02*
X108619200Y-121412000D01*
X102184200Y-116128800D02*
X102184200Y-120751600D01*
X102184200Y-120751600D02*
X103555800Y-122123200D01*
X107859700Y-120751600D02*
X108614800Y-120751600D01*
X102539800Y-118160800D02*
X102539800Y-120421400D01*
X102971600Y-117729000D02*
X102539800Y-118160800D01*
X102539800Y-120421400D02*
X103428800Y-121310400D01*
X103428800Y-121310400D02*
X107300900Y-121310400D01*
X107300900Y-121310400D02*
X107859700Y-120751600D01*
X107765000Y-120116600D02*
X108614800Y-120116600D01*
X107333200Y-120548400D02*
X107765000Y-120116600D01*
X103657400Y-120548400D02*
X107333200Y-120548400D01*
X102971600Y-119303800D02*
X102971600Y-119862600D01*
X102971600Y-119862600D02*
X103657400Y-120548400D01*
X108608200Y-119513600D02*
X108614800Y-119507000D01*
X107529800Y-119513600D02*
X108608200Y-119513600D01*
X103378000Y-117373400D02*
X103378000Y-119176800D01*
X103378000Y-119176800D02*
X103911400Y-119710200D01*
X107333200Y-119710200D02*
X107529800Y-119513600D01*
X102920800Y-116916200D02*
X103378000Y-117373400D01*
X103911400Y-119710200D02*
X107333200Y-119710200D01*
X104546400Y-118897400D02*
X108619200Y-118897400D01*
X104140000Y-118491000D02*
X104546400Y-118897400D01*
X103759000Y-116941600D02*
X104140000Y-117322600D01*
X104140000Y-117322600D02*
X104140000Y-118491000D01*
X104959400Y-118116600D02*
X108469000Y-118116600D01*
X108469000Y-118116600D02*
X108614800Y-118262400D01*
X104546400Y-117729000D02*
X104571800Y-117729000D01*
X104571800Y-117729000D02*
X104959400Y-118116600D01*
X104934000Y-117303800D02*
X103809800Y-116179600D01*
X108610400Y-117652800D02*
X108261400Y-117303800D01*
X108261400Y-117303800D02*
X104934000Y-117303800D01*
X108487800Y-116916200D02*
X108614800Y-117043200D01*
X105333800Y-116916200D02*
X108487800Y-116916200D01*
X115348000Y-114509800D02*
X116230400Y-115392200D01*
X106259800Y-114509800D02*
X115348000Y-114509800D01*
X103592800Y-111360200D02*
X103592800Y-111842800D01*
X103592800Y-111842800D02*
X106259800Y-114509800D01*
X115576600Y-114179600D02*
X116614201Y-115217201D01*
X106412200Y-114179600D02*
X115576600Y-114179600D01*
X116614201Y-115217201D02*
X116789200Y-115392200D01*
X104177000Y-111334800D02*
X104177000Y-111944400D01*
X104177000Y-111944400D02*
X106412200Y-114179600D01*
X94550400Y-124288800D02*
X93864600Y-123603000D01*
X104354800Y-124009400D02*
X104103599Y-123758199D01*
X104103599Y-123758199D02*
X100161001Y-123758199D01*
X106183600Y-124009400D02*
X104354800Y-124009400D01*
X100161001Y-123758199D02*
X99630400Y-124288800D01*
X99630400Y-124288800D02*
X94550400Y-124288800D01*
X93094599Y-124102999D02*
X92594600Y-123603000D01*
X93636000Y-124644400D02*
X93094599Y-124102999D01*
X106996400Y-124006600D02*
X106358600Y-124644400D01*
X106358600Y-124644400D02*
X93636000Y-124644400D01*
D16*
G36*
X104356030Y-113073003D02*
G01*
X104352474Y-113073710D01*
X104279024Y-113104134D01*
X104212920Y-113148303D01*
X104156703Y-113204520D01*
X104155499Y-113206322D01*
X104104080Y-113154903D01*
X104037976Y-113110734D01*
X103964526Y-113080310D01*
X103886551Y-113064800D01*
X103807049Y-113064800D01*
X103729074Y-113080310D01*
X103655624Y-113110734D01*
X103589520Y-113154903D01*
X103533303Y-113211120D01*
X103489134Y-113277224D01*
X103458710Y-113350674D01*
X103443200Y-113428649D01*
X103443200Y-113508151D01*
X103458710Y-113586126D01*
X103489134Y-113659576D01*
X103533303Y-113725680D01*
X103589520Y-113781897D01*
X103655624Y-113826066D01*
X103729074Y-113856490D01*
X103807049Y-113872000D01*
X103886551Y-113872000D01*
X103964526Y-113856490D01*
X104037976Y-113826066D01*
X104104080Y-113781897D01*
X104160297Y-113725680D01*
X104161501Y-113723878D01*
X104212920Y-113775297D01*
X104279024Y-113819466D01*
X104352474Y-113849890D01*
X104430449Y-113865400D01*
X104509951Y-113865400D01*
X104587926Y-113849890D01*
X104661376Y-113819466D01*
X104727480Y-113775297D01*
X104783697Y-113719080D01*
X104827866Y-113652976D01*
X104858290Y-113579526D01*
X104858997Y-113575970D01*
X106014845Y-114731818D01*
X106025184Y-114744416D01*
X106057443Y-114770890D01*
X106075463Y-114785679D01*
X106132827Y-114816340D01*
X106195070Y-114835222D01*
X106259800Y-114841597D01*
X106276015Y-114840000D01*
X107767925Y-114840000D01*
X107775200Y-116586000D01*
X107513759Y-116586000D01*
X107515400Y-116577751D01*
X107515400Y-116498249D01*
X107499890Y-116420274D01*
X107469466Y-116346824D01*
X107425297Y-116280720D01*
X107369080Y-116224503D01*
X107302976Y-116180334D01*
X107229526Y-116149910D01*
X107151551Y-116134400D01*
X107072049Y-116134400D01*
X106994074Y-116149910D01*
X106920624Y-116180334D01*
X106854520Y-116224503D01*
X106798303Y-116280720D01*
X106754134Y-116346824D01*
X106723710Y-116420274D01*
X106708200Y-116498249D01*
X106708200Y-116577751D01*
X106709841Y-116586000D01*
X105566082Y-116586000D01*
X105524976Y-116558534D01*
X105451526Y-116528110D01*
X105448722Y-116527552D01*
X105502326Y-116516890D01*
X105575776Y-116486466D01*
X105641880Y-116442297D01*
X105698097Y-116386080D01*
X105742266Y-116319976D01*
X105772690Y-116246526D01*
X105783352Y-116192922D01*
X105783910Y-116195726D01*
X105814334Y-116269176D01*
X105858503Y-116335280D01*
X105914720Y-116391497D01*
X105980824Y-116435666D01*
X106054274Y-116466090D01*
X106132249Y-116481600D01*
X106211751Y-116481600D01*
X106289726Y-116466090D01*
X106363176Y-116435666D01*
X106429280Y-116391497D01*
X106485497Y-116335280D01*
X106529666Y-116269176D01*
X106560090Y-116195726D01*
X106573959Y-116126000D01*
X106592751Y-116126000D01*
X106670726Y-116110490D01*
X106744176Y-116080066D01*
X106810280Y-116035897D01*
X106866497Y-115979680D01*
X106910666Y-115913576D01*
X106941090Y-115840126D01*
X106956600Y-115762151D01*
X106956600Y-115682649D01*
X106941090Y-115604674D01*
X106910666Y-115531224D01*
X106866497Y-115465120D01*
X106810280Y-115408903D01*
X106744176Y-115364734D01*
X106670726Y-115334310D01*
X106592751Y-115318800D01*
X106513249Y-115318800D01*
X106435274Y-115334310D01*
X106361824Y-115364734D01*
X106295720Y-115408903D01*
X106239503Y-115465120D01*
X106195334Y-115531224D01*
X106164910Y-115604674D01*
X106151041Y-115674400D01*
X106132249Y-115674400D01*
X106054274Y-115689910D01*
X105980824Y-115720334D01*
X105914720Y-115764503D01*
X105858503Y-115820720D01*
X105814334Y-115886824D01*
X105783910Y-115960274D01*
X105773248Y-116013878D01*
X105772690Y-116011074D01*
X105742266Y-115937624D01*
X105698097Y-115871520D01*
X105641880Y-115815303D01*
X105575776Y-115771134D01*
X105502326Y-115740710D01*
X105424351Y-115725200D01*
X105344849Y-115725200D01*
X105266874Y-115740710D01*
X105193424Y-115771134D01*
X105127320Y-115815303D01*
X105071103Y-115871520D01*
X105026934Y-115937624D01*
X104996510Y-116011074D01*
X104981000Y-116089049D01*
X104981000Y-116168551D01*
X104996510Y-116246526D01*
X105026934Y-116319976D01*
X105071103Y-116386080D01*
X105127320Y-116442297D01*
X105193424Y-116486466D01*
X105266874Y-116516890D01*
X105269678Y-116517448D01*
X105216074Y-116528110D01*
X105142624Y-116558534D01*
X105076520Y-116602703D01*
X105020303Y-116658920D01*
X104976134Y-116725024D01*
X104945710Y-116798474D01*
X104937404Y-116840231D01*
X104209973Y-116112801D01*
X104282926Y-116098290D01*
X104356376Y-116067866D01*
X104422480Y-116023697D01*
X104478697Y-115967480D01*
X104522866Y-115901376D01*
X104553290Y-115827926D01*
X104568800Y-115749951D01*
X104568800Y-115670449D01*
X104553290Y-115592474D01*
X104522866Y-115519024D01*
X104478697Y-115452920D01*
X104422480Y-115396703D01*
X104356376Y-115352534D01*
X104282926Y-115322110D01*
X104204951Y-115306600D01*
X104125449Y-115306600D01*
X104047474Y-115322110D01*
X103974024Y-115352534D01*
X103907920Y-115396703D01*
X103851703Y-115452920D01*
X103807534Y-115519024D01*
X103777110Y-115592474D01*
X103761600Y-115670449D01*
X103761600Y-115749951D01*
X103766906Y-115776625D01*
X103692074Y-115791510D01*
X103618624Y-115821934D01*
X103552520Y-115866103D01*
X103496303Y-115922320D01*
X103452134Y-115988424D01*
X103421710Y-116061874D01*
X103406200Y-116139849D01*
X103406200Y-116219351D01*
X103421710Y-116297326D01*
X103452134Y-116370776D01*
X103496303Y-116436880D01*
X103552520Y-116493097D01*
X103618624Y-116537266D01*
X103652466Y-116551284D01*
X103641274Y-116553510D01*
X103567824Y-116583934D01*
X103501720Y-116628103D01*
X103445503Y-116684320D01*
X103401334Y-116750424D01*
X103370910Y-116823874D01*
X103358390Y-116886817D01*
X103318535Y-116846962D01*
X103308890Y-116798474D01*
X103278466Y-116725024D01*
X103234297Y-116658920D01*
X103178080Y-116602703D01*
X103111976Y-116558534D01*
X103038526Y-116528110D01*
X102960551Y-116512600D01*
X102881049Y-116512600D01*
X102803074Y-116528110D01*
X102729624Y-116558534D01*
X102663520Y-116602703D01*
X102607303Y-116658920D01*
X102563134Y-116725024D01*
X102532710Y-116798474D01*
X102517200Y-116876449D01*
X102517200Y-116955951D01*
X102532710Y-117033926D01*
X102563134Y-117107376D01*
X102607303Y-117173480D01*
X102663520Y-117229697D01*
X102729624Y-117273866D01*
X102803074Y-117304290D01*
X102851562Y-117313935D01*
X102874445Y-117336818D01*
X102853874Y-117340910D01*
X102780424Y-117371334D01*
X102714320Y-117415503D01*
X102658103Y-117471720D01*
X102613934Y-117537824D01*
X102583510Y-117611274D01*
X102573865Y-117659761D01*
X102514400Y-117719227D01*
X102514400Y-116361082D01*
X102541866Y-116319976D01*
X102572290Y-116246526D01*
X102587800Y-116168551D01*
X102587800Y-116089049D01*
X102572290Y-116011074D01*
X102541866Y-115937624D01*
X102497697Y-115871520D01*
X102441480Y-115815303D01*
X102375376Y-115771134D01*
X102301926Y-115740710D01*
X102223951Y-115725200D01*
X102168800Y-115725200D01*
X102168800Y-115670449D01*
X102153290Y-115592474D01*
X102122866Y-115519024D01*
X102078697Y-115452920D01*
X102022480Y-115396703D01*
X101956376Y-115352534D01*
X101882926Y-115322110D01*
X101804951Y-115306600D01*
X101725449Y-115306600D01*
X101647474Y-115322110D01*
X101574024Y-115352534D01*
X101507920Y-115396703D01*
X101451703Y-115452920D01*
X101407534Y-115519024D01*
X101377110Y-115592474D01*
X101361600Y-115670449D01*
X101361600Y-115749951D01*
X101377110Y-115827926D01*
X101407534Y-115901376D01*
X101451703Y-115967480D01*
X101507920Y-116023697D01*
X101574024Y-116067866D01*
X101647474Y-116098290D01*
X101725449Y-116113800D01*
X101780600Y-116113800D01*
X101780600Y-116168551D01*
X101796110Y-116246526D01*
X101826534Y-116319976D01*
X101854000Y-116361082D01*
X101854001Y-120735377D01*
X101852403Y-120751600D01*
X101855498Y-120783016D01*
X101858779Y-120816330D01*
X101870492Y-120854940D01*
X101877661Y-120878573D01*
X101908321Y-120935937D01*
X101932242Y-120965084D01*
X101949585Y-120986216D01*
X101962182Y-120996554D01*
X103310850Y-122345224D01*
X103321184Y-122357816D01*
X103333776Y-122368150D01*
X103333778Y-122368152D01*
X103358659Y-122388571D01*
X103371463Y-122399079D01*
X103428827Y-122429740D01*
X103491070Y-122448622D01*
X103539585Y-122453400D01*
X103539594Y-122453400D01*
X103555799Y-122454996D01*
X103572004Y-122453400D01*
X107189987Y-122453400D01*
X107206200Y-122454997D01*
X107222413Y-122453400D01*
X107222415Y-122453400D01*
X107270930Y-122448622D01*
X107333173Y-122429740D01*
X107390537Y-122399079D01*
X107440816Y-122357816D01*
X107451159Y-122345213D01*
X107488772Y-122307600D01*
X107782791Y-122307600D01*
X107759396Y-124085600D01*
X107392193Y-124085600D01*
X107400000Y-124046351D01*
X107400000Y-123966849D01*
X107384490Y-123888874D01*
X107354066Y-123815424D01*
X107309897Y-123749320D01*
X107253680Y-123693103D01*
X107187576Y-123648934D01*
X107114126Y-123618510D01*
X107036151Y-123603000D01*
X106956649Y-123603000D01*
X106878674Y-123618510D01*
X106805224Y-123648934D01*
X106739120Y-123693103D01*
X106682903Y-123749320D01*
X106638734Y-123815424D01*
X106608310Y-123888874D01*
X106598665Y-123937361D01*
X106583745Y-123952281D01*
X106571690Y-123891674D01*
X106541266Y-123818224D01*
X106497097Y-123752120D01*
X106440880Y-123695903D01*
X106374776Y-123651734D01*
X106301326Y-123621310D01*
X106223351Y-123605800D01*
X106143849Y-123605800D01*
X106065874Y-123621310D01*
X105992424Y-123651734D01*
X105951318Y-123679200D01*
X104491573Y-123679200D01*
X104348558Y-123536186D01*
X104338215Y-123523583D01*
X104287936Y-123482320D01*
X104230572Y-123451659D01*
X104168329Y-123432777D01*
X104119814Y-123427999D01*
X104119812Y-123427999D01*
X104103599Y-123426402D01*
X104087386Y-123427999D01*
X103346403Y-123427999D01*
X103371290Y-123367916D01*
X103386800Y-123289941D01*
X103386800Y-123210439D01*
X103371290Y-123132464D01*
X103340866Y-123059014D01*
X103296697Y-122992910D01*
X103240480Y-122936693D01*
X103174376Y-122892524D01*
X103100926Y-122862100D01*
X103022951Y-122846590D01*
X102943449Y-122846590D01*
X102865474Y-122862100D01*
X102792024Y-122892524D01*
X102725920Y-122936693D01*
X102669703Y-122992910D01*
X102625534Y-123059014D01*
X102595110Y-123132464D01*
X102579600Y-123210439D01*
X102579600Y-123289941D01*
X102595110Y-123367916D01*
X102619997Y-123427999D01*
X102457403Y-123427999D01*
X102482290Y-123367916D01*
X102497800Y-123289941D01*
X102497800Y-123210439D01*
X102482290Y-123132464D01*
X102451866Y-123059014D01*
X102407697Y-122992910D01*
X102351480Y-122936693D01*
X102285376Y-122892524D01*
X102211926Y-122862100D01*
X102133951Y-122846590D01*
X102054449Y-122846590D01*
X101976474Y-122862100D01*
X101903024Y-122892524D01*
X101836920Y-122936693D01*
X101780703Y-122992910D01*
X101736534Y-123059014D01*
X101706110Y-123132464D01*
X101700845Y-123158931D01*
X101689866Y-123132424D01*
X101645697Y-123066320D01*
X101589480Y-123010103D01*
X101523376Y-122965934D01*
X101449926Y-122935510D01*
X101371951Y-122920000D01*
X101292449Y-122920000D01*
X101214474Y-122935510D01*
X101141024Y-122965934D01*
X101074920Y-123010103D01*
X101018703Y-123066320D01*
X100974534Y-123132424D01*
X100944110Y-123205874D01*
X100928600Y-123283849D01*
X100928600Y-123363351D01*
X100941459Y-123427999D01*
X100177213Y-123427999D01*
X100161000Y-123426402D01*
X100144787Y-123427999D01*
X100144786Y-123427999D01*
X100096271Y-123432777D01*
X100034028Y-123451659D01*
X100007324Y-123465932D01*
X99976663Y-123482320D01*
X99938979Y-123513247D01*
X99926385Y-123523583D01*
X99916051Y-123536176D01*
X99768800Y-123683427D01*
X99768800Y-123670449D01*
X99753290Y-123592474D01*
X99722866Y-123519024D01*
X99678697Y-123452920D01*
X99622480Y-123396703D01*
X99556376Y-123352534D01*
X99482926Y-123322110D01*
X99423050Y-123310200D01*
X99482926Y-123298290D01*
X99556376Y-123267866D01*
X99622480Y-123223697D01*
X99678697Y-123167480D01*
X99722866Y-123101376D01*
X99753290Y-123027926D01*
X99768800Y-122949951D01*
X99768800Y-122870449D01*
X99767438Y-122863600D01*
X99771751Y-122863600D01*
X99849726Y-122848090D01*
X99923176Y-122817666D01*
X99989280Y-122773497D01*
X100045497Y-122717280D01*
X100089666Y-122651176D01*
X100120090Y-122577726D01*
X100135600Y-122499751D01*
X100135600Y-122420249D01*
X100120090Y-122342274D01*
X100089666Y-122268824D01*
X100045497Y-122202720D01*
X99989280Y-122146503D01*
X99923176Y-122102334D01*
X99910207Y-122096962D01*
X99948584Y-122081066D01*
X99964473Y-122070449D01*
X101361600Y-122070449D01*
X101361600Y-122149951D01*
X101377110Y-122227926D01*
X101407534Y-122301376D01*
X101451703Y-122367480D01*
X101507920Y-122423697D01*
X101574024Y-122467866D01*
X101647474Y-122498290D01*
X101725449Y-122513800D01*
X101804951Y-122513800D01*
X101882926Y-122498290D01*
X101956376Y-122467866D01*
X102022480Y-122423697D01*
X102078697Y-122367480D01*
X102122866Y-122301376D01*
X102153290Y-122227926D01*
X102168800Y-122149951D01*
X102168800Y-122070449D01*
X102153290Y-121992474D01*
X102122866Y-121919024D01*
X102078697Y-121852920D01*
X102022480Y-121796703D01*
X101956376Y-121752534D01*
X101882926Y-121722110D01*
X101804951Y-121706600D01*
X101725449Y-121706600D01*
X101647474Y-121722110D01*
X101574024Y-121752534D01*
X101507920Y-121796703D01*
X101451703Y-121852920D01*
X101407534Y-121919024D01*
X101377110Y-121992474D01*
X101361600Y-122070449D01*
X99964473Y-122070449D01*
X100014688Y-122036897D01*
X100070905Y-121980680D01*
X100115074Y-121914576D01*
X100145498Y-121841126D01*
X100161008Y-121763151D01*
X100161008Y-121683649D01*
X100145498Y-121605674D01*
X100115074Y-121532224D01*
X100070905Y-121466120D01*
X100014688Y-121409903D01*
X99948584Y-121365734D01*
X99875134Y-121335310D01*
X99797159Y-121319800D01*
X99717657Y-121319800D01*
X99639682Y-121335310D01*
X99566232Y-121365734D01*
X99500128Y-121409903D01*
X99443911Y-121466120D01*
X99399742Y-121532224D01*
X99369318Y-121605674D01*
X99353808Y-121683649D01*
X99353808Y-121763151D01*
X99369318Y-121841126D01*
X99399742Y-121914576D01*
X99443911Y-121980680D01*
X99500128Y-122036897D01*
X99566232Y-122081066D01*
X99579201Y-122086438D01*
X99540824Y-122102334D01*
X99474720Y-122146503D01*
X99418503Y-122202720D01*
X99374334Y-122268824D01*
X99343910Y-122342274D01*
X99328400Y-122420249D01*
X99328400Y-122499751D01*
X99329762Y-122506600D01*
X99325449Y-122506600D01*
X99247474Y-122522110D01*
X99174024Y-122552534D01*
X99107920Y-122596703D01*
X99051703Y-122652920D01*
X99007534Y-122719024D01*
X98977110Y-122792474D01*
X98961600Y-122870449D01*
X98961600Y-122949951D01*
X98977110Y-123027926D01*
X99007534Y-123101376D01*
X99051703Y-123167480D01*
X99107920Y-123223697D01*
X99174024Y-123267866D01*
X99247474Y-123298290D01*
X99307350Y-123310200D01*
X99247474Y-123322110D01*
X99174024Y-123352534D01*
X99107920Y-123396703D01*
X99051703Y-123452920D01*
X99007534Y-123519024D01*
X98977110Y-123592474D01*
X98961600Y-123670449D01*
X98961600Y-123749951D01*
X98977110Y-123827926D01*
X99007534Y-123901376D01*
X99045770Y-123958600D01*
X95236200Y-123958600D01*
X95236200Y-122870849D01*
X98144000Y-122870849D01*
X98144000Y-122950351D01*
X98159510Y-123028326D01*
X98189934Y-123101776D01*
X98234103Y-123167880D01*
X98290320Y-123224097D01*
X98356424Y-123268266D01*
X98429874Y-123298690D01*
X98507849Y-123314200D01*
X98587351Y-123314200D01*
X98665326Y-123298690D01*
X98738776Y-123268266D01*
X98804880Y-123224097D01*
X98861097Y-123167880D01*
X98905266Y-123101776D01*
X98935690Y-123028326D01*
X98951200Y-122950351D01*
X98951200Y-122870849D01*
X98935690Y-122792874D01*
X98905266Y-122719424D01*
X98861097Y-122653320D01*
X98804880Y-122597103D01*
X98738776Y-122552934D01*
X98665326Y-122522510D01*
X98587351Y-122507000D01*
X98507849Y-122507000D01*
X98429874Y-122522510D01*
X98356424Y-122552934D01*
X98290320Y-122597103D01*
X98234103Y-122653320D01*
X98189934Y-122719424D01*
X98159510Y-122792874D01*
X98144000Y-122870849D01*
X95236200Y-122870849D01*
X95236200Y-122369449D01*
X96407400Y-122369449D01*
X96407400Y-122448951D01*
X96422910Y-122526926D01*
X96453334Y-122600376D01*
X96497503Y-122666480D01*
X96553720Y-122722697D01*
X96619824Y-122766866D01*
X96693274Y-122797290D01*
X96771249Y-122812800D01*
X96850751Y-122812800D01*
X96928726Y-122797290D01*
X97002176Y-122766866D01*
X97068280Y-122722697D01*
X97124497Y-122666480D01*
X97168666Y-122600376D01*
X97199090Y-122526926D01*
X97214600Y-122448951D01*
X97214600Y-122369449D01*
X97199090Y-122291474D01*
X97168666Y-122218024D01*
X97124497Y-122151920D01*
X97068280Y-122095703D01*
X97002176Y-122051534D01*
X96928726Y-122021110D01*
X96850751Y-122005600D01*
X96771249Y-122005600D01*
X96693274Y-122021110D01*
X96619824Y-122051534D01*
X96553720Y-122095703D01*
X96497503Y-122151920D01*
X96453334Y-122218024D01*
X96422910Y-122291474D01*
X96407400Y-122369449D01*
X95236200Y-122369449D01*
X95236200Y-120058049D01*
X98591800Y-120058049D01*
X98591800Y-120137551D01*
X98607310Y-120215526D01*
X98637734Y-120288976D01*
X98681903Y-120355080D01*
X98738120Y-120411297D01*
X98804224Y-120455466D01*
X98877674Y-120485890D01*
X98905878Y-120491500D01*
X98877674Y-120497110D01*
X98804224Y-120527534D01*
X98738120Y-120571703D01*
X98681903Y-120627920D01*
X98637734Y-120694024D01*
X98607310Y-120767474D01*
X98591800Y-120845449D01*
X98591800Y-120924951D01*
X98607310Y-121002926D01*
X98637734Y-121076376D01*
X98681903Y-121142480D01*
X98738120Y-121198697D01*
X98804224Y-121242866D01*
X98877674Y-121273290D01*
X98955649Y-121288800D01*
X99035151Y-121288800D01*
X99113126Y-121273290D01*
X99186576Y-121242866D01*
X99252680Y-121198697D01*
X99308897Y-121142480D01*
X99353066Y-121076376D01*
X99383490Y-121002926D01*
X99399000Y-120924951D01*
X99399000Y-120889649D01*
X100972200Y-120889649D01*
X100972200Y-120969151D01*
X100987710Y-121047126D01*
X101018134Y-121120576D01*
X101062303Y-121186680D01*
X101118520Y-121242897D01*
X101184624Y-121287066D01*
X101258074Y-121317490D01*
X101336049Y-121333000D01*
X101415551Y-121333000D01*
X101493526Y-121317490D01*
X101566976Y-121287066D01*
X101633080Y-121242897D01*
X101689297Y-121186680D01*
X101733466Y-121120576D01*
X101763890Y-121047126D01*
X101779400Y-120969151D01*
X101779400Y-120889649D01*
X101763890Y-120811674D01*
X101733466Y-120738224D01*
X101689297Y-120672120D01*
X101633080Y-120615903D01*
X101566976Y-120571734D01*
X101493526Y-120541310D01*
X101420578Y-120526800D01*
X101422751Y-120526800D01*
X101500726Y-120511290D01*
X101574176Y-120480866D01*
X101640280Y-120436697D01*
X101696497Y-120380480D01*
X101740666Y-120314376D01*
X101771090Y-120240926D01*
X101786600Y-120162951D01*
X101786600Y-120083449D01*
X101771090Y-120005474D01*
X101740666Y-119932024D01*
X101696497Y-119865920D01*
X101640280Y-119809703D01*
X101574176Y-119765534D01*
X101500726Y-119735110D01*
X101422751Y-119719600D01*
X101343249Y-119719600D01*
X101265274Y-119735110D01*
X101191824Y-119765534D01*
X101125720Y-119809703D01*
X101069503Y-119865920D01*
X101025334Y-119932024D01*
X100994910Y-120005474D01*
X100979400Y-120083449D01*
X100979400Y-120162951D01*
X100994910Y-120240926D01*
X101025334Y-120314376D01*
X101069503Y-120380480D01*
X101125720Y-120436697D01*
X101191824Y-120480866D01*
X101265274Y-120511290D01*
X101338222Y-120525800D01*
X101336049Y-120525800D01*
X101258074Y-120541310D01*
X101184624Y-120571734D01*
X101118520Y-120615903D01*
X101062303Y-120672120D01*
X101018134Y-120738224D01*
X100987710Y-120811674D01*
X100972200Y-120889649D01*
X99399000Y-120889649D01*
X99399000Y-120845449D01*
X99383490Y-120767474D01*
X99353066Y-120694024D01*
X99308897Y-120627920D01*
X99252680Y-120571703D01*
X99186576Y-120527534D01*
X99113126Y-120497110D01*
X99084922Y-120491500D01*
X99113126Y-120485890D01*
X99186576Y-120455466D01*
X99252680Y-120411297D01*
X99308897Y-120355080D01*
X99353066Y-120288976D01*
X99383490Y-120215526D01*
X99399000Y-120137551D01*
X99399000Y-120058049D01*
X99383490Y-119980074D01*
X99353066Y-119906624D01*
X99308897Y-119840520D01*
X99252680Y-119784303D01*
X99186576Y-119740134D01*
X99113126Y-119709710D01*
X99035151Y-119694200D01*
X98955649Y-119694200D01*
X98877674Y-119709710D01*
X98804224Y-119740134D01*
X98738120Y-119784303D01*
X98681903Y-119840520D01*
X98637734Y-119906624D01*
X98607310Y-119980074D01*
X98591800Y-120058049D01*
X95236200Y-120058049D01*
X95236200Y-118870449D01*
X98161600Y-118870449D01*
X98161600Y-118949951D01*
X98177110Y-119027926D01*
X98207534Y-119101376D01*
X98251703Y-119167480D01*
X98307920Y-119223697D01*
X98374024Y-119267866D01*
X98447474Y-119298290D01*
X98525449Y-119313800D01*
X98604951Y-119313800D01*
X98642600Y-119306311D01*
X98642600Y-119324751D01*
X98658110Y-119402726D01*
X98688534Y-119476176D01*
X98732703Y-119542280D01*
X98788920Y-119598497D01*
X98855024Y-119642666D01*
X98928474Y-119673090D01*
X99006449Y-119688600D01*
X99085951Y-119688600D01*
X99163926Y-119673090D01*
X99237376Y-119642666D01*
X99303480Y-119598497D01*
X99359697Y-119542280D01*
X99403866Y-119476176D01*
X99409240Y-119463202D01*
X99425134Y-119501574D01*
X99469303Y-119567678D01*
X99525520Y-119623895D01*
X99591624Y-119668064D01*
X99665074Y-119698488D01*
X99743049Y-119713998D01*
X99822551Y-119713998D01*
X99900526Y-119698488D01*
X99973976Y-119668064D01*
X100040080Y-119623895D01*
X100096297Y-119567678D01*
X100140466Y-119501574D01*
X100170890Y-119428124D01*
X100186400Y-119350149D01*
X100186400Y-119270647D01*
X100170890Y-119192672D01*
X100140466Y-119119222D01*
X100096297Y-119053118D01*
X100040080Y-118996901D01*
X99973976Y-118952732D01*
X99900526Y-118922308D01*
X99822551Y-118906798D01*
X99743049Y-118906798D01*
X99665074Y-118922308D01*
X99591624Y-118952732D01*
X99525520Y-118996901D01*
X99469303Y-119053118D01*
X99425134Y-119119222D01*
X99419760Y-119132196D01*
X99403866Y-119093824D01*
X99359697Y-119027720D01*
X99303480Y-118971503D01*
X99237376Y-118927334D01*
X99163926Y-118896910D01*
X99085951Y-118881400D01*
X99006449Y-118881400D01*
X98968800Y-118888889D01*
X98968800Y-118870449D01*
X98953290Y-118792474D01*
X98922866Y-118719024D01*
X98878697Y-118652920D01*
X98822480Y-118596703D01*
X98756376Y-118552534D01*
X98682926Y-118522110D01*
X98604951Y-118506600D01*
X98525449Y-118506600D01*
X98447474Y-118522110D01*
X98374024Y-118552534D01*
X98307920Y-118596703D01*
X98251703Y-118652920D01*
X98207534Y-118719024D01*
X98177110Y-118792474D01*
X98161600Y-118870449D01*
X95236200Y-118870449D01*
X95236200Y-118102249D01*
X96534400Y-118102249D01*
X96534400Y-118181751D01*
X96549910Y-118259726D01*
X96580334Y-118333176D01*
X96624503Y-118399280D01*
X96680720Y-118455497D01*
X96746824Y-118499666D01*
X96820274Y-118530090D01*
X96898249Y-118545600D01*
X96977751Y-118545600D01*
X97055726Y-118530090D01*
X97129176Y-118499666D01*
X97195280Y-118455497D01*
X97251497Y-118399280D01*
X97295666Y-118333176D01*
X97326090Y-118259726D01*
X97341600Y-118181751D01*
X97341600Y-118102249D01*
X97335275Y-118070449D01*
X98961600Y-118070449D01*
X98961600Y-118149951D01*
X98977110Y-118227926D01*
X99007534Y-118301376D01*
X99051703Y-118367480D01*
X99107920Y-118423697D01*
X99174024Y-118467866D01*
X99247474Y-118498290D01*
X99325449Y-118513800D01*
X99404951Y-118513800D01*
X99482926Y-118498290D01*
X99556376Y-118467866D01*
X99622480Y-118423697D01*
X99678697Y-118367480D01*
X99722866Y-118301376D01*
X99753290Y-118227926D01*
X99764500Y-118171569D01*
X99775710Y-118227926D01*
X99806134Y-118301376D01*
X99850303Y-118367480D01*
X99906520Y-118423697D01*
X99972624Y-118467866D01*
X100046074Y-118498290D01*
X100115800Y-118512159D01*
X100115800Y-118588151D01*
X100131310Y-118666126D01*
X100161734Y-118739576D01*
X100205903Y-118805680D01*
X100262120Y-118861897D01*
X100328224Y-118906066D01*
X100401674Y-118936490D01*
X100479649Y-118952000D01*
X100559151Y-118952000D01*
X100637126Y-118936490D01*
X100710576Y-118906066D01*
X100776680Y-118861897D01*
X100832897Y-118805680D01*
X100877066Y-118739576D01*
X100907490Y-118666126D01*
X100923000Y-118588151D01*
X100923000Y-118508649D01*
X101004800Y-118508649D01*
X101004800Y-118588151D01*
X101020310Y-118666126D01*
X101050734Y-118739576D01*
X101094903Y-118805680D01*
X101151120Y-118861897D01*
X101217224Y-118906066D01*
X101290674Y-118936490D01*
X101368649Y-118952000D01*
X101448151Y-118952000D01*
X101526126Y-118936490D01*
X101599576Y-118906066D01*
X101665680Y-118861897D01*
X101721897Y-118805680D01*
X101766066Y-118739576D01*
X101796490Y-118666126D01*
X101812000Y-118588151D01*
X101812000Y-118508649D01*
X101796490Y-118430674D01*
X101766066Y-118357224D01*
X101721897Y-118291120D01*
X101665680Y-118234903D01*
X101599576Y-118190734D01*
X101526126Y-118160310D01*
X101448151Y-118144800D01*
X101368649Y-118144800D01*
X101290674Y-118160310D01*
X101217224Y-118190734D01*
X101151120Y-118234903D01*
X101094903Y-118291120D01*
X101050734Y-118357224D01*
X101020310Y-118430674D01*
X101004800Y-118508649D01*
X100923000Y-118508649D01*
X100907490Y-118430674D01*
X100877066Y-118357224D01*
X100832897Y-118291120D01*
X100776680Y-118234903D01*
X100710576Y-118190734D01*
X100637126Y-118160310D01*
X100567400Y-118146441D01*
X100567400Y-118070449D01*
X100551890Y-117992474D01*
X100521466Y-117919024D01*
X100477297Y-117852920D01*
X100421080Y-117796703D01*
X100354976Y-117752534D01*
X100281526Y-117722110D01*
X100203551Y-117706600D01*
X100124049Y-117706600D01*
X100046074Y-117722110D01*
X99972624Y-117752534D01*
X99906520Y-117796703D01*
X99850303Y-117852920D01*
X99806134Y-117919024D01*
X99775710Y-117992474D01*
X99764500Y-118048831D01*
X99753290Y-117992474D01*
X99722866Y-117919024D01*
X99678697Y-117852920D01*
X99622480Y-117796703D01*
X99556376Y-117752534D01*
X99482926Y-117722110D01*
X99404951Y-117706600D01*
X99325449Y-117706600D01*
X99247474Y-117722110D01*
X99174024Y-117752534D01*
X99107920Y-117796703D01*
X99051703Y-117852920D01*
X99007534Y-117919024D01*
X98977110Y-117992474D01*
X98961600Y-118070449D01*
X97335275Y-118070449D01*
X97326090Y-118024274D01*
X97295666Y-117950824D01*
X97251497Y-117884720D01*
X97195280Y-117828503D01*
X97129176Y-117784334D01*
X97055726Y-117753910D01*
X96977751Y-117738400D01*
X96898249Y-117738400D01*
X96820274Y-117753910D01*
X96746824Y-117784334D01*
X96680720Y-117828503D01*
X96624503Y-117884720D01*
X96580334Y-117950824D01*
X96549910Y-118024274D01*
X96534400Y-118102249D01*
X95236200Y-118102249D01*
X95236200Y-117518049D01*
X95239000Y-117518049D01*
X95239000Y-117597551D01*
X95254510Y-117675526D01*
X95284934Y-117748976D01*
X95329103Y-117815080D01*
X95385320Y-117871297D01*
X95451424Y-117915466D01*
X95524874Y-117945890D01*
X95602849Y-117961400D01*
X95682351Y-117961400D01*
X95760326Y-117945890D01*
X95833776Y-117915466D01*
X95899880Y-117871297D01*
X95956097Y-117815080D01*
X96000266Y-117748976D01*
X96030690Y-117675526D01*
X96046200Y-117597551D01*
X96046200Y-117518049D01*
X96030690Y-117440074D01*
X96000266Y-117366624D01*
X95956097Y-117300520D01*
X95899880Y-117244303D01*
X95833776Y-117200134D01*
X95760326Y-117169710D01*
X95682351Y-117154200D01*
X95602849Y-117154200D01*
X95524874Y-117169710D01*
X95451424Y-117200134D01*
X95385320Y-117244303D01*
X95329103Y-117300520D01*
X95284934Y-117366624D01*
X95254510Y-117440074D01*
X95239000Y-117518049D01*
X95236200Y-117518049D01*
X95236200Y-115039650D01*
X95307274Y-115069090D01*
X95385249Y-115084600D01*
X95464751Y-115084600D01*
X95542726Y-115069090D01*
X95616176Y-115038666D01*
X95682280Y-114994497D01*
X95738497Y-114938280D01*
X95762839Y-114901849D01*
X98950190Y-114901849D01*
X98950190Y-114981351D01*
X98965700Y-115059326D01*
X98996124Y-115132776D01*
X99040293Y-115198880D01*
X99096510Y-115255097D01*
X99162614Y-115299266D01*
X99236064Y-115329690D01*
X99314039Y-115345200D01*
X99393541Y-115345200D01*
X99471516Y-115329690D01*
X99544966Y-115299266D01*
X99611070Y-115255097D01*
X99667287Y-115198880D01*
X99711456Y-115132776D01*
X99741880Y-115059326D01*
X99742889Y-115054249D01*
X102630400Y-115054249D01*
X102630400Y-115133751D01*
X102645910Y-115211726D01*
X102676334Y-115285176D01*
X102720503Y-115351280D01*
X102776720Y-115407497D01*
X102842824Y-115451666D01*
X102916274Y-115482090D01*
X102994249Y-115497600D01*
X103073751Y-115497600D01*
X103151726Y-115482090D01*
X103225176Y-115451666D01*
X103291280Y-115407497D01*
X103347497Y-115351280D01*
X103391666Y-115285176D01*
X103422090Y-115211726D01*
X103437600Y-115133751D01*
X103437600Y-115054249D01*
X103422090Y-114976274D01*
X103391666Y-114902824D01*
X103347497Y-114836720D01*
X103291280Y-114780503D01*
X103225176Y-114736334D01*
X103151726Y-114705910D01*
X103073751Y-114690400D01*
X102994249Y-114690400D01*
X102916274Y-114705910D01*
X102842824Y-114736334D01*
X102776720Y-114780503D01*
X102720503Y-114836720D01*
X102676334Y-114902824D01*
X102645910Y-114976274D01*
X102630400Y-115054249D01*
X99742889Y-115054249D01*
X99757390Y-114981351D01*
X99757390Y-114901849D01*
X99741880Y-114823874D01*
X99711456Y-114750424D01*
X99667287Y-114684320D01*
X99611070Y-114628103D01*
X99544966Y-114583934D01*
X99471516Y-114553510D01*
X99393541Y-114538000D01*
X99314039Y-114538000D01*
X99236064Y-114553510D01*
X99162614Y-114583934D01*
X99096510Y-114628103D01*
X99040293Y-114684320D01*
X98996124Y-114750424D01*
X98965700Y-114823874D01*
X98950190Y-114901849D01*
X95762839Y-114901849D01*
X95782666Y-114872176D01*
X95813090Y-114798726D01*
X95828600Y-114720751D01*
X95828600Y-114641249D01*
X95813090Y-114563274D01*
X95782666Y-114489824D01*
X95738497Y-114423720D01*
X95682280Y-114367503D01*
X95645682Y-114343049D01*
X100595610Y-114343049D01*
X100595610Y-114422551D01*
X100611120Y-114500526D01*
X100641544Y-114573976D01*
X100685713Y-114640080D01*
X100741930Y-114696297D01*
X100808034Y-114740466D01*
X100881484Y-114770890D01*
X100959459Y-114786400D01*
X101038961Y-114786400D01*
X101116936Y-114770890D01*
X101190386Y-114740466D01*
X101256490Y-114696297D01*
X101312707Y-114640080D01*
X101356876Y-114573976D01*
X101387300Y-114500526D01*
X101402810Y-114422551D01*
X101402810Y-114343049D01*
X101387300Y-114265074D01*
X101356876Y-114191624D01*
X101312707Y-114125520D01*
X101256490Y-114069303D01*
X101190386Y-114025134D01*
X101116936Y-113994710D01*
X101038961Y-113979200D01*
X100959459Y-113979200D01*
X100881484Y-113994710D01*
X100808034Y-114025134D01*
X100741930Y-114069303D01*
X100685713Y-114125520D01*
X100641544Y-114191624D01*
X100611120Y-114265074D01*
X100595610Y-114343049D01*
X95645682Y-114343049D01*
X95616176Y-114323334D01*
X95542726Y-114292910D01*
X95464751Y-114277400D01*
X95385249Y-114277400D01*
X95307274Y-114292910D01*
X95236200Y-114322350D01*
X95236200Y-114134964D01*
X95637715Y-113733449D01*
X98464800Y-113733449D01*
X98464800Y-113812951D01*
X98480310Y-113890926D01*
X98510734Y-113964376D01*
X98554903Y-114030480D01*
X98611120Y-114086697D01*
X98677224Y-114130866D01*
X98750674Y-114161290D01*
X98828649Y-114176800D01*
X98908151Y-114176800D01*
X98986126Y-114161290D01*
X99059576Y-114130866D01*
X99125680Y-114086697D01*
X99181897Y-114030480D01*
X99199164Y-114004637D01*
X99236024Y-114029266D01*
X99309474Y-114059690D01*
X99387449Y-114075200D01*
X99466951Y-114075200D01*
X99544926Y-114059690D01*
X99618376Y-114029266D01*
X99684480Y-113985097D01*
X99740697Y-113928880D01*
X99784866Y-113862776D01*
X99813461Y-113793743D01*
X99831534Y-113837376D01*
X99875703Y-113903480D01*
X99931920Y-113959697D01*
X99998024Y-114003866D01*
X100071474Y-114034290D01*
X100149449Y-114049800D01*
X100228951Y-114049800D01*
X100306926Y-114034290D01*
X100380376Y-114003866D01*
X100446480Y-113959697D01*
X100502697Y-113903480D01*
X100546866Y-113837376D01*
X100577290Y-113763926D01*
X100592800Y-113685951D01*
X100592800Y-113606449D01*
X100577290Y-113528474D01*
X100546866Y-113455024D01*
X100502697Y-113388920D01*
X100446480Y-113332703D01*
X100428141Y-113320449D01*
X101501200Y-113320449D01*
X101501200Y-113399951D01*
X101516710Y-113477926D01*
X101547134Y-113551376D01*
X101591303Y-113617480D01*
X101647520Y-113673697D01*
X101713624Y-113717866D01*
X101787074Y-113748290D01*
X101865049Y-113763800D01*
X101944551Y-113763800D01*
X102022526Y-113748290D01*
X102095976Y-113717866D01*
X102158148Y-113676325D01*
X102206320Y-113724497D01*
X102272424Y-113768666D01*
X102345874Y-113799090D01*
X102423849Y-113814600D01*
X102503351Y-113814600D01*
X102581326Y-113799090D01*
X102654776Y-113768666D01*
X102720880Y-113724497D01*
X102777097Y-113668280D01*
X102821266Y-113602176D01*
X102851690Y-113528726D01*
X102867200Y-113450751D01*
X102867200Y-113371249D01*
X102851690Y-113293274D01*
X102821266Y-113219824D01*
X102777097Y-113153720D01*
X102720880Y-113097503D01*
X102654776Y-113053334D01*
X102581326Y-113022910D01*
X102503351Y-113007400D01*
X102423849Y-113007400D01*
X102345874Y-113022910D01*
X102272424Y-113053334D01*
X102210252Y-113094875D01*
X102162080Y-113046703D01*
X102095976Y-113002534D01*
X102022526Y-112972110D01*
X101944551Y-112956600D01*
X101865049Y-112956600D01*
X101787074Y-112972110D01*
X101713624Y-113002534D01*
X101647520Y-113046703D01*
X101591303Y-113102920D01*
X101547134Y-113169024D01*
X101516710Y-113242474D01*
X101501200Y-113320449D01*
X100428141Y-113320449D01*
X100380376Y-113288534D01*
X100306926Y-113258110D01*
X100228951Y-113242600D01*
X100149449Y-113242600D01*
X100071474Y-113258110D01*
X99998024Y-113288534D01*
X99931920Y-113332703D01*
X99875703Y-113388920D01*
X99831534Y-113455024D01*
X99802939Y-113524057D01*
X99784866Y-113480424D01*
X99740697Y-113414320D01*
X99684480Y-113358103D01*
X99618376Y-113313934D01*
X99544926Y-113283510D01*
X99466951Y-113268000D01*
X99387449Y-113268000D01*
X99309474Y-113283510D01*
X99236024Y-113313934D01*
X99169920Y-113358103D01*
X99113703Y-113414320D01*
X99096436Y-113440163D01*
X99059576Y-113415534D01*
X98986126Y-113385110D01*
X98908151Y-113369600D01*
X98828649Y-113369600D01*
X98750674Y-113385110D01*
X98677224Y-113415534D01*
X98611120Y-113459703D01*
X98554903Y-113515920D01*
X98510734Y-113582024D01*
X98480310Y-113655474D01*
X98464800Y-113733449D01*
X95637715Y-113733449D01*
X96740964Y-112630200D01*
X103913227Y-112630200D01*
X104356030Y-113073003D01*
G37*
X104356030Y-113073003D02*
X104352474Y-113073710D01*
X104279024Y-113104134D01*
X104212920Y-113148303D01*
X104156703Y-113204520D01*
X104155499Y-113206322D01*
X104104080Y-113154903D01*
X104037976Y-113110734D01*
X103964526Y-113080310D01*
X103886551Y-113064800D01*
X103807049Y-113064800D01*
X103729074Y-113080310D01*
X103655624Y-113110734D01*
X103589520Y-113154903D01*
X103533303Y-113211120D01*
X103489134Y-113277224D01*
X103458710Y-113350674D01*
X103443200Y-113428649D01*
X103443200Y-113508151D01*
X103458710Y-113586126D01*
X103489134Y-113659576D01*
X103533303Y-113725680D01*
X103589520Y-113781897D01*
X103655624Y-113826066D01*
X103729074Y-113856490D01*
X103807049Y-113872000D01*
X103886551Y-113872000D01*
X103964526Y-113856490D01*
X104037976Y-113826066D01*
X104104080Y-113781897D01*
X104160297Y-113725680D01*
X104161501Y-113723878D01*
X104212920Y-113775297D01*
X104279024Y-113819466D01*
X104352474Y-113849890D01*
X104430449Y-113865400D01*
X104509951Y-113865400D01*
X104587926Y-113849890D01*
X104661376Y-113819466D01*
X104727480Y-113775297D01*
X104783697Y-113719080D01*
X104827866Y-113652976D01*
X104858290Y-113579526D01*
X104858997Y-113575970D01*
X106014845Y-114731818D01*
X106025184Y-114744416D01*
X106057443Y-114770890D01*
X106075463Y-114785679D01*
X106132827Y-114816340D01*
X106195070Y-114835222D01*
X106259800Y-114841597D01*
X106276015Y-114840000D01*
X107767925Y-114840000D01*
X107775200Y-116586000D01*
X107513759Y-116586000D01*
X107515400Y-116577751D01*
X107515400Y-116498249D01*
X107499890Y-116420274D01*
X107469466Y-116346824D01*
X107425297Y-116280720D01*
X107369080Y-116224503D01*
X107302976Y-116180334D01*
X107229526Y-116149910D01*
X107151551Y-116134400D01*
X107072049Y-116134400D01*
X106994074Y-116149910D01*
X106920624Y-116180334D01*
X106854520Y-116224503D01*
X106798303Y-116280720D01*
X106754134Y-116346824D01*
X106723710Y-116420274D01*
X106708200Y-116498249D01*
X106708200Y-116577751D01*
X106709841Y-116586000D01*
X105566082Y-116586000D01*
X105524976Y-116558534D01*
X105451526Y-116528110D01*
X105448722Y-116527552D01*
X105502326Y-116516890D01*
X105575776Y-116486466D01*
X105641880Y-116442297D01*
X105698097Y-116386080D01*
X105742266Y-116319976D01*
X105772690Y-116246526D01*
X105783352Y-116192922D01*
X105783910Y-116195726D01*
X105814334Y-116269176D01*
X105858503Y-116335280D01*
X105914720Y-116391497D01*
X105980824Y-116435666D01*
X106054274Y-116466090D01*
X106132249Y-116481600D01*
X106211751Y-116481600D01*
X106289726Y-116466090D01*
X106363176Y-116435666D01*
X106429280Y-116391497D01*
X106485497Y-116335280D01*
X106529666Y-116269176D01*
X106560090Y-116195726D01*
X106573959Y-116126000D01*
X106592751Y-116126000D01*
X106670726Y-116110490D01*
X106744176Y-116080066D01*
X106810280Y-116035897D01*
X106866497Y-115979680D01*
X106910666Y-115913576D01*
X106941090Y-115840126D01*
X106956600Y-115762151D01*
X106956600Y-115682649D01*
X106941090Y-115604674D01*
X106910666Y-115531224D01*
X106866497Y-115465120D01*
X106810280Y-115408903D01*
X106744176Y-115364734D01*
X106670726Y-115334310D01*
X106592751Y-115318800D01*
X106513249Y-115318800D01*
X106435274Y-115334310D01*
X106361824Y-115364734D01*
X106295720Y-115408903D01*
X106239503Y-115465120D01*
X106195334Y-115531224D01*
X106164910Y-115604674D01*
X106151041Y-115674400D01*
X106132249Y-115674400D01*
X106054274Y-115689910D01*
X105980824Y-115720334D01*
X105914720Y-115764503D01*
X105858503Y-115820720D01*
X105814334Y-115886824D01*
X105783910Y-115960274D01*
X105773248Y-116013878D01*
X105772690Y-116011074D01*
X105742266Y-115937624D01*
X105698097Y-115871520D01*
X105641880Y-115815303D01*
X105575776Y-115771134D01*
X105502326Y-115740710D01*
X105424351Y-115725200D01*
X105344849Y-115725200D01*
X105266874Y-115740710D01*
X105193424Y-115771134D01*
X105127320Y-115815303D01*
X105071103Y-115871520D01*
X105026934Y-115937624D01*
X104996510Y-116011074D01*
X104981000Y-116089049D01*
X104981000Y-116168551D01*
X104996510Y-116246526D01*
X105026934Y-116319976D01*
X105071103Y-116386080D01*
X105127320Y-116442297D01*
X105193424Y-116486466D01*
X105266874Y-116516890D01*
X105269678Y-116517448D01*
X105216074Y-116528110D01*
X105142624Y-116558534D01*
X105076520Y-116602703D01*
X105020303Y-116658920D01*
X104976134Y-116725024D01*
X104945710Y-116798474D01*
X104937404Y-116840231D01*
X104209973Y-116112801D01*
X104282926Y-116098290D01*
X104356376Y-116067866D01*
X104422480Y-116023697D01*
X104478697Y-115967480D01*
X104522866Y-115901376D01*
X104553290Y-115827926D01*
X104568800Y-115749951D01*
X104568800Y-115670449D01*
X104553290Y-115592474D01*
X104522866Y-115519024D01*
X104478697Y-115452920D01*
X104422480Y-115396703D01*
X104356376Y-115352534D01*
X104282926Y-115322110D01*
X104204951Y-115306600D01*
X104125449Y-115306600D01*
X104047474Y-115322110D01*
X103974024Y-115352534D01*
X103907920Y-115396703D01*
X103851703Y-115452920D01*
X103807534Y-115519024D01*
X103777110Y-115592474D01*
X103761600Y-115670449D01*
X103761600Y-115749951D01*
X103766906Y-115776625D01*
X103692074Y-115791510D01*
X103618624Y-115821934D01*
X103552520Y-115866103D01*
X103496303Y-115922320D01*
X103452134Y-115988424D01*
X103421710Y-116061874D01*
X103406200Y-116139849D01*
X103406200Y-116219351D01*
X103421710Y-116297326D01*
X103452134Y-116370776D01*
X103496303Y-116436880D01*
X103552520Y-116493097D01*
X103618624Y-116537266D01*
X103652466Y-116551284D01*
X103641274Y-116553510D01*
X103567824Y-116583934D01*
X103501720Y-116628103D01*
X103445503Y-116684320D01*
X103401334Y-116750424D01*
X103370910Y-116823874D01*
X103358390Y-116886817D01*
X103318535Y-116846962D01*
X103308890Y-116798474D01*
X103278466Y-116725024D01*
X103234297Y-116658920D01*
X103178080Y-116602703D01*
X103111976Y-116558534D01*
X103038526Y-116528110D01*
X102960551Y-116512600D01*
X102881049Y-116512600D01*
X102803074Y-116528110D01*
X102729624Y-116558534D01*
X102663520Y-116602703D01*
X102607303Y-116658920D01*
X102563134Y-116725024D01*
X102532710Y-116798474D01*
X102517200Y-116876449D01*
X102517200Y-116955951D01*
X102532710Y-117033926D01*
X102563134Y-117107376D01*
X102607303Y-117173480D01*
X102663520Y-117229697D01*
X102729624Y-117273866D01*
X102803074Y-117304290D01*
X102851562Y-117313935D01*
X102874445Y-117336818D01*
X102853874Y-117340910D01*
X102780424Y-117371334D01*
X102714320Y-117415503D01*
X102658103Y-117471720D01*
X102613934Y-117537824D01*
X102583510Y-117611274D01*
X102573865Y-117659761D01*
X102514400Y-117719227D01*
X102514400Y-116361082D01*
X102541866Y-116319976D01*
X102572290Y-116246526D01*
X102587800Y-116168551D01*
X102587800Y-116089049D01*
X102572290Y-116011074D01*
X102541866Y-115937624D01*
X102497697Y-115871520D01*
X102441480Y-115815303D01*
X102375376Y-115771134D01*
X102301926Y-115740710D01*
X102223951Y-115725200D01*
X102168800Y-115725200D01*
X102168800Y-115670449D01*
X102153290Y-115592474D01*
X102122866Y-115519024D01*
X102078697Y-115452920D01*
X102022480Y-115396703D01*
X101956376Y-115352534D01*
X101882926Y-115322110D01*
X101804951Y-115306600D01*
X101725449Y-115306600D01*
X101647474Y-115322110D01*
X101574024Y-115352534D01*
X101507920Y-115396703D01*
X101451703Y-115452920D01*
X101407534Y-115519024D01*
X101377110Y-115592474D01*
X101361600Y-115670449D01*
X101361600Y-115749951D01*
X101377110Y-115827926D01*
X101407534Y-115901376D01*
X101451703Y-115967480D01*
X101507920Y-116023697D01*
X101574024Y-116067866D01*
X101647474Y-116098290D01*
X101725449Y-116113800D01*
X101780600Y-116113800D01*
X101780600Y-116168551D01*
X101796110Y-116246526D01*
X101826534Y-116319976D01*
X101854000Y-116361082D01*
X101854001Y-120735377D01*
X101852403Y-120751600D01*
X101855498Y-120783016D01*
X101858779Y-120816330D01*
X101870492Y-120854940D01*
X101877661Y-120878573D01*
X101908321Y-120935937D01*
X101932242Y-120965084D01*
X101949585Y-120986216D01*
X101962182Y-120996554D01*
X103310850Y-122345224D01*
X103321184Y-122357816D01*
X103333776Y-122368150D01*
X103333778Y-122368152D01*
X103358659Y-122388571D01*
X103371463Y-122399079D01*
X103428827Y-122429740D01*
X103491070Y-122448622D01*
X103539585Y-122453400D01*
X103539594Y-122453400D01*
X103555799Y-122454996D01*
X103572004Y-122453400D01*
X107189987Y-122453400D01*
X107206200Y-122454997D01*
X107222413Y-122453400D01*
X107222415Y-122453400D01*
X107270930Y-122448622D01*
X107333173Y-122429740D01*
X107390537Y-122399079D01*
X107440816Y-122357816D01*
X107451159Y-122345213D01*
X107488772Y-122307600D01*
X107782791Y-122307600D01*
X107759396Y-124085600D01*
X107392193Y-124085600D01*
X107400000Y-124046351D01*
X107400000Y-123966849D01*
X107384490Y-123888874D01*
X107354066Y-123815424D01*
X107309897Y-123749320D01*
X107253680Y-123693103D01*
X107187576Y-123648934D01*
X107114126Y-123618510D01*
X107036151Y-123603000D01*
X106956649Y-123603000D01*
X106878674Y-123618510D01*
X106805224Y-123648934D01*
X106739120Y-123693103D01*
X106682903Y-123749320D01*
X106638734Y-123815424D01*
X106608310Y-123888874D01*
X106598665Y-123937361D01*
X106583745Y-123952281D01*
X106571690Y-123891674D01*
X106541266Y-123818224D01*
X106497097Y-123752120D01*
X106440880Y-123695903D01*
X106374776Y-123651734D01*
X106301326Y-123621310D01*
X106223351Y-123605800D01*
X106143849Y-123605800D01*
X106065874Y-123621310D01*
X105992424Y-123651734D01*
X105951318Y-123679200D01*
X104491573Y-123679200D01*
X104348558Y-123536186D01*
X104338215Y-123523583D01*
X104287936Y-123482320D01*
X104230572Y-123451659D01*
X104168329Y-123432777D01*
X104119814Y-123427999D01*
X104119812Y-123427999D01*
X104103599Y-123426402D01*
X104087386Y-123427999D01*
X103346403Y-123427999D01*
X103371290Y-123367916D01*
X103386800Y-123289941D01*
X103386800Y-123210439D01*
X103371290Y-123132464D01*
X103340866Y-123059014D01*
X103296697Y-122992910D01*
X103240480Y-122936693D01*
X103174376Y-122892524D01*
X103100926Y-122862100D01*
X103022951Y-122846590D01*
X102943449Y-122846590D01*
X102865474Y-122862100D01*
X102792024Y-122892524D01*
X102725920Y-122936693D01*
X102669703Y-122992910D01*
X102625534Y-123059014D01*
X102595110Y-123132464D01*
X102579600Y-123210439D01*
X102579600Y-123289941D01*
X102595110Y-123367916D01*
X102619997Y-123427999D01*
X102457403Y-123427999D01*
X102482290Y-123367916D01*
X102497800Y-123289941D01*
X102497800Y-123210439D01*
X102482290Y-123132464D01*
X102451866Y-123059014D01*
X102407697Y-122992910D01*
X102351480Y-122936693D01*
X102285376Y-122892524D01*
X102211926Y-122862100D01*
X102133951Y-122846590D01*
X102054449Y-122846590D01*
X101976474Y-122862100D01*
X101903024Y-122892524D01*
X101836920Y-122936693D01*
X101780703Y-122992910D01*
X101736534Y-123059014D01*
X101706110Y-123132464D01*
X101700845Y-123158931D01*
X101689866Y-123132424D01*
X101645697Y-123066320D01*
X101589480Y-123010103D01*
X101523376Y-122965934D01*
X101449926Y-122935510D01*
X101371951Y-122920000D01*
X101292449Y-122920000D01*
X101214474Y-122935510D01*
X101141024Y-122965934D01*
X101074920Y-123010103D01*
X101018703Y-123066320D01*
X100974534Y-123132424D01*
X100944110Y-123205874D01*
X100928600Y-123283849D01*
X100928600Y-123363351D01*
X100941459Y-123427999D01*
X100177213Y-123427999D01*
X100161000Y-123426402D01*
X100144787Y-123427999D01*
X100144786Y-123427999D01*
X100096271Y-123432777D01*
X100034028Y-123451659D01*
X100007324Y-123465932D01*
X99976663Y-123482320D01*
X99938979Y-123513247D01*
X99926385Y-123523583D01*
X99916051Y-123536176D01*
X99768800Y-123683427D01*
X99768800Y-123670449D01*
X99753290Y-123592474D01*
X99722866Y-123519024D01*
X99678697Y-123452920D01*
X99622480Y-123396703D01*
X99556376Y-123352534D01*
X99482926Y-123322110D01*
X99423050Y-123310200D01*
X99482926Y-123298290D01*
X99556376Y-123267866D01*
X99622480Y-123223697D01*
X99678697Y-123167480D01*
X99722866Y-123101376D01*
X99753290Y-123027926D01*
X99768800Y-122949951D01*
X99768800Y-122870449D01*
X99767438Y-122863600D01*
X99771751Y-122863600D01*
X99849726Y-122848090D01*
X99923176Y-122817666D01*
X99989280Y-122773497D01*
X100045497Y-122717280D01*
X100089666Y-122651176D01*
X100120090Y-122577726D01*
X100135600Y-122499751D01*
X100135600Y-122420249D01*
X100120090Y-122342274D01*
X100089666Y-122268824D01*
X100045497Y-122202720D01*
X99989280Y-122146503D01*
X99923176Y-122102334D01*
X99910207Y-122096962D01*
X99948584Y-122081066D01*
X99964473Y-122070449D01*
X101361600Y-122070449D01*
X101361600Y-122149951D01*
X101377110Y-122227926D01*
X101407534Y-122301376D01*
X101451703Y-122367480D01*
X101507920Y-122423697D01*
X101574024Y-122467866D01*
X101647474Y-122498290D01*
X101725449Y-122513800D01*
X101804951Y-122513800D01*
X101882926Y-122498290D01*
X101956376Y-122467866D01*
X102022480Y-122423697D01*
X102078697Y-122367480D01*
X102122866Y-122301376D01*
X102153290Y-122227926D01*
X102168800Y-122149951D01*
X102168800Y-122070449D01*
X102153290Y-121992474D01*
X102122866Y-121919024D01*
X102078697Y-121852920D01*
X102022480Y-121796703D01*
X101956376Y-121752534D01*
X101882926Y-121722110D01*
X101804951Y-121706600D01*
X101725449Y-121706600D01*
X101647474Y-121722110D01*
X101574024Y-121752534D01*
X101507920Y-121796703D01*
X101451703Y-121852920D01*
X101407534Y-121919024D01*
X101377110Y-121992474D01*
X101361600Y-122070449D01*
X99964473Y-122070449D01*
X100014688Y-122036897D01*
X100070905Y-121980680D01*
X100115074Y-121914576D01*
X100145498Y-121841126D01*
X100161008Y-121763151D01*
X100161008Y-121683649D01*
X100145498Y-121605674D01*
X100115074Y-121532224D01*
X100070905Y-121466120D01*
X100014688Y-121409903D01*
X99948584Y-121365734D01*
X99875134Y-121335310D01*
X99797159Y-121319800D01*
X99717657Y-121319800D01*
X99639682Y-121335310D01*
X99566232Y-121365734D01*
X99500128Y-121409903D01*
X99443911Y-121466120D01*
X99399742Y-121532224D01*
X99369318Y-121605674D01*
X99353808Y-121683649D01*
X99353808Y-121763151D01*
X99369318Y-121841126D01*
X99399742Y-121914576D01*
X99443911Y-121980680D01*
X99500128Y-122036897D01*
X99566232Y-122081066D01*
X99579201Y-122086438D01*
X99540824Y-122102334D01*
X99474720Y-122146503D01*
X99418503Y-122202720D01*
X99374334Y-122268824D01*
X99343910Y-122342274D01*
X99328400Y-122420249D01*
X99328400Y-122499751D01*
X99329762Y-122506600D01*
X99325449Y-122506600D01*
X99247474Y-122522110D01*
X99174024Y-122552534D01*
X99107920Y-122596703D01*
X99051703Y-122652920D01*
X99007534Y-122719024D01*
X98977110Y-122792474D01*
X98961600Y-122870449D01*
X98961600Y-122949951D01*
X98977110Y-123027926D01*
X99007534Y-123101376D01*
X99051703Y-123167480D01*
X99107920Y-123223697D01*
X99174024Y-123267866D01*
X99247474Y-123298290D01*
X99307350Y-123310200D01*
X99247474Y-123322110D01*
X99174024Y-123352534D01*
X99107920Y-123396703D01*
X99051703Y-123452920D01*
X99007534Y-123519024D01*
X98977110Y-123592474D01*
X98961600Y-123670449D01*
X98961600Y-123749951D01*
X98977110Y-123827926D01*
X99007534Y-123901376D01*
X99045770Y-123958600D01*
X95236200Y-123958600D01*
X95236200Y-122870849D01*
X98144000Y-122870849D01*
X98144000Y-122950351D01*
X98159510Y-123028326D01*
X98189934Y-123101776D01*
X98234103Y-123167880D01*
X98290320Y-123224097D01*
X98356424Y-123268266D01*
X98429874Y-123298690D01*
X98507849Y-123314200D01*
X98587351Y-123314200D01*
X98665326Y-123298690D01*
X98738776Y-123268266D01*
X98804880Y-123224097D01*
X98861097Y-123167880D01*
X98905266Y-123101776D01*
X98935690Y-123028326D01*
X98951200Y-122950351D01*
X98951200Y-122870849D01*
X98935690Y-122792874D01*
X98905266Y-122719424D01*
X98861097Y-122653320D01*
X98804880Y-122597103D01*
X98738776Y-122552934D01*
X98665326Y-122522510D01*
X98587351Y-122507000D01*
X98507849Y-122507000D01*
X98429874Y-122522510D01*
X98356424Y-122552934D01*
X98290320Y-122597103D01*
X98234103Y-122653320D01*
X98189934Y-122719424D01*
X98159510Y-122792874D01*
X98144000Y-122870849D01*
X95236200Y-122870849D01*
X95236200Y-122369449D01*
X96407400Y-122369449D01*
X96407400Y-122448951D01*
X96422910Y-122526926D01*
X96453334Y-122600376D01*
X96497503Y-122666480D01*
X96553720Y-122722697D01*
X96619824Y-122766866D01*
X96693274Y-122797290D01*
X96771249Y-122812800D01*
X96850751Y-122812800D01*
X96928726Y-122797290D01*
X97002176Y-122766866D01*
X97068280Y-122722697D01*
X97124497Y-122666480D01*
X97168666Y-122600376D01*
X97199090Y-122526926D01*
X97214600Y-122448951D01*
X97214600Y-122369449D01*
X97199090Y-122291474D01*
X97168666Y-122218024D01*
X97124497Y-122151920D01*
X97068280Y-122095703D01*
X97002176Y-122051534D01*
X96928726Y-122021110D01*
X96850751Y-122005600D01*
X96771249Y-122005600D01*
X96693274Y-122021110D01*
X96619824Y-122051534D01*
X96553720Y-122095703D01*
X96497503Y-122151920D01*
X96453334Y-122218024D01*
X96422910Y-122291474D01*
X96407400Y-122369449D01*
X95236200Y-122369449D01*
X95236200Y-120058049D01*
X98591800Y-120058049D01*
X98591800Y-120137551D01*
X98607310Y-120215526D01*
X98637734Y-120288976D01*
X98681903Y-120355080D01*
X98738120Y-120411297D01*
X98804224Y-120455466D01*
X98877674Y-120485890D01*
X98905878Y-120491500D01*
X98877674Y-120497110D01*
X98804224Y-120527534D01*
X98738120Y-120571703D01*
X98681903Y-120627920D01*
X98637734Y-120694024D01*
X98607310Y-120767474D01*
X98591800Y-120845449D01*
X98591800Y-120924951D01*
X98607310Y-121002926D01*
X98637734Y-121076376D01*
X98681903Y-121142480D01*
X98738120Y-121198697D01*
X98804224Y-121242866D01*
X98877674Y-121273290D01*
X98955649Y-121288800D01*
X99035151Y-121288800D01*
X99113126Y-121273290D01*
X99186576Y-121242866D01*
X99252680Y-121198697D01*
X99308897Y-121142480D01*
X99353066Y-121076376D01*
X99383490Y-121002926D01*
X99399000Y-120924951D01*
X99399000Y-120889649D01*
X100972200Y-120889649D01*
X100972200Y-120969151D01*
X100987710Y-121047126D01*
X101018134Y-121120576D01*
X101062303Y-121186680D01*
X101118520Y-121242897D01*
X101184624Y-121287066D01*
X101258074Y-121317490D01*
X101336049Y-121333000D01*
X101415551Y-121333000D01*
X101493526Y-121317490D01*
X101566976Y-121287066D01*
X101633080Y-121242897D01*
X101689297Y-121186680D01*
X101733466Y-121120576D01*
X101763890Y-121047126D01*
X101779400Y-120969151D01*
X101779400Y-120889649D01*
X101763890Y-120811674D01*
X101733466Y-120738224D01*
X101689297Y-120672120D01*
X101633080Y-120615903D01*
X101566976Y-120571734D01*
X101493526Y-120541310D01*
X101420578Y-120526800D01*
X101422751Y-120526800D01*
X101500726Y-120511290D01*
X101574176Y-120480866D01*
X101640280Y-120436697D01*
X101696497Y-120380480D01*
X101740666Y-120314376D01*
X101771090Y-120240926D01*
X101786600Y-120162951D01*
X101786600Y-120083449D01*
X101771090Y-120005474D01*
X101740666Y-119932024D01*
X101696497Y-119865920D01*
X101640280Y-119809703D01*
X101574176Y-119765534D01*
X101500726Y-119735110D01*
X101422751Y-119719600D01*
X101343249Y-119719600D01*
X101265274Y-119735110D01*
X101191824Y-119765534D01*
X101125720Y-119809703D01*
X101069503Y-119865920D01*
X101025334Y-119932024D01*
X100994910Y-120005474D01*
X100979400Y-120083449D01*
X100979400Y-120162951D01*
X100994910Y-120240926D01*
X101025334Y-120314376D01*
X101069503Y-120380480D01*
X101125720Y-120436697D01*
X101191824Y-120480866D01*
X101265274Y-120511290D01*
X101338222Y-120525800D01*
X101336049Y-120525800D01*
X101258074Y-120541310D01*
X101184624Y-120571734D01*
X101118520Y-120615903D01*
X101062303Y-120672120D01*
X101018134Y-120738224D01*
X100987710Y-120811674D01*
X100972200Y-120889649D01*
X99399000Y-120889649D01*
X99399000Y-120845449D01*
X99383490Y-120767474D01*
X99353066Y-120694024D01*
X99308897Y-120627920D01*
X99252680Y-120571703D01*
X99186576Y-120527534D01*
X99113126Y-120497110D01*
X99084922Y-120491500D01*
X99113126Y-120485890D01*
X99186576Y-120455466D01*
X99252680Y-120411297D01*
X99308897Y-120355080D01*
X99353066Y-120288976D01*
X99383490Y-120215526D01*
X99399000Y-120137551D01*
X99399000Y-120058049D01*
X99383490Y-119980074D01*
X99353066Y-119906624D01*
X99308897Y-119840520D01*
X99252680Y-119784303D01*
X99186576Y-119740134D01*
X99113126Y-119709710D01*
X99035151Y-119694200D01*
X98955649Y-119694200D01*
X98877674Y-119709710D01*
X98804224Y-119740134D01*
X98738120Y-119784303D01*
X98681903Y-119840520D01*
X98637734Y-119906624D01*
X98607310Y-119980074D01*
X98591800Y-120058049D01*
X95236200Y-120058049D01*
X95236200Y-118870449D01*
X98161600Y-118870449D01*
X98161600Y-118949951D01*
X98177110Y-119027926D01*
X98207534Y-119101376D01*
X98251703Y-119167480D01*
X98307920Y-119223697D01*
X98374024Y-119267866D01*
X98447474Y-119298290D01*
X98525449Y-119313800D01*
X98604951Y-119313800D01*
X98642600Y-119306311D01*
X98642600Y-119324751D01*
X98658110Y-119402726D01*
X98688534Y-119476176D01*
X98732703Y-119542280D01*
X98788920Y-119598497D01*
X98855024Y-119642666D01*
X98928474Y-119673090D01*
X99006449Y-119688600D01*
X99085951Y-119688600D01*
X99163926Y-119673090D01*
X99237376Y-119642666D01*
X99303480Y-119598497D01*
X99359697Y-119542280D01*
X99403866Y-119476176D01*
X99409240Y-119463202D01*
X99425134Y-119501574D01*
X99469303Y-119567678D01*
X99525520Y-119623895D01*
X99591624Y-119668064D01*
X99665074Y-119698488D01*
X99743049Y-119713998D01*
X99822551Y-119713998D01*
X99900526Y-119698488D01*
X99973976Y-119668064D01*
X100040080Y-119623895D01*
X100096297Y-119567678D01*
X100140466Y-119501574D01*
X100170890Y-119428124D01*
X100186400Y-119350149D01*
X100186400Y-119270647D01*
X100170890Y-119192672D01*
X100140466Y-119119222D01*
X100096297Y-119053118D01*
X100040080Y-118996901D01*
X99973976Y-118952732D01*
X99900526Y-118922308D01*
X99822551Y-118906798D01*
X99743049Y-118906798D01*
X99665074Y-118922308D01*
X99591624Y-118952732D01*
X99525520Y-118996901D01*
X99469303Y-119053118D01*
X99425134Y-119119222D01*
X99419760Y-119132196D01*
X99403866Y-119093824D01*
X99359697Y-119027720D01*
X99303480Y-118971503D01*
X99237376Y-118927334D01*
X99163926Y-118896910D01*
X99085951Y-118881400D01*
X99006449Y-118881400D01*
X98968800Y-118888889D01*
X98968800Y-118870449D01*
X98953290Y-118792474D01*
X98922866Y-118719024D01*
X98878697Y-118652920D01*
X98822480Y-118596703D01*
X98756376Y-118552534D01*
X98682926Y-118522110D01*
X98604951Y-118506600D01*
X98525449Y-118506600D01*
X98447474Y-118522110D01*
X98374024Y-118552534D01*
X98307920Y-118596703D01*
X98251703Y-118652920D01*
X98207534Y-118719024D01*
X98177110Y-118792474D01*
X98161600Y-118870449D01*
X95236200Y-118870449D01*
X95236200Y-118102249D01*
X96534400Y-118102249D01*
X96534400Y-118181751D01*
X96549910Y-118259726D01*
X96580334Y-118333176D01*
X96624503Y-118399280D01*
X96680720Y-118455497D01*
X96746824Y-118499666D01*
X96820274Y-118530090D01*
X96898249Y-118545600D01*
X96977751Y-118545600D01*
X97055726Y-118530090D01*
X97129176Y-118499666D01*
X97195280Y-118455497D01*
X97251497Y-118399280D01*
X97295666Y-118333176D01*
X97326090Y-118259726D01*
X97341600Y-118181751D01*
X97341600Y-118102249D01*
X97335275Y-118070449D01*
X98961600Y-118070449D01*
X98961600Y-118149951D01*
X98977110Y-118227926D01*
X99007534Y-118301376D01*
X99051703Y-118367480D01*
X99107920Y-118423697D01*
X99174024Y-118467866D01*
X99247474Y-118498290D01*
X99325449Y-118513800D01*
X99404951Y-118513800D01*
X99482926Y-118498290D01*
X99556376Y-118467866D01*
X99622480Y-118423697D01*
X99678697Y-118367480D01*
X99722866Y-118301376D01*
X99753290Y-118227926D01*
X99764500Y-118171569D01*
X99775710Y-118227926D01*
X99806134Y-118301376D01*
X99850303Y-118367480D01*
X99906520Y-118423697D01*
X99972624Y-118467866D01*
X100046074Y-118498290D01*
X100115800Y-118512159D01*
X100115800Y-118588151D01*
X100131310Y-118666126D01*
X100161734Y-118739576D01*
X100205903Y-118805680D01*
X100262120Y-118861897D01*
X100328224Y-118906066D01*
X100401674Y-118936490D01*
X100479649Y-118952000D01*
X100559151Y-118952000D01*
X100637126Y-118936490D01*
X100710576Y-118906066D01*
X100776680Y-118861897D01*
X100832897Y-118805680D01*
X100877066Y-118739576D01*
X100907490Y-118666126D01*
X100923000Y-118588151D01*
X100923000Y-118508649D01*
X101004800Y-118508649D01*
X101004800Y-118588151D01*
X101020310Y-118666126D01*
X101050734Y-118739576D01*
X101094903Y-118805680D01*
X101151120Y-118861897D01*
X101217224Y-118906066D01*
X101290674Y-118936490D01*
X101368649Y-118952000D01*
X101448151Y-118952000D01*
X101526126Y-118936490D01*
X101599576Y-118906066D01*
X101665680Y-118861897D01*
X101721897Y-118805680D01*
X101766066Y-118739576D01*
X101796490Y-118666126D01*
X101812000Y-118588151D01*
X101812000Y-118508649D01*
X101796490Y-118430674D01*
X101766066Y-118357224D01*
X101721897Y-118291120D01*
X101665680Y-118234903D01*
X101599576Y-118190734D01*
X101526126Y-118160310D01*
X101448151Y-118144800D01*
X101368649Y-118144800D01*
X101290674Y-118160310D01*
X101217224Y-118190734D01*
X101151120Y-118234903D01*
X101094903Y-118291120D01*
X101050734Y-118357224D01*
X101020310Y-118430674D01*
X101004800Y-118508649D01*
X100923000Y-118508649D01*
X100907490Y-118430674D01*
X100877066Y-118357224D01*
X100832897Y-118291120D01*
X100776680Y-118234903D01*
X100710576Y-118190734D01*
X100637126Y-118160310D01*
X100567400Y-118146441D01*
X100567400Y-118070449D01*
X100551890Y-117992474D01*
X100521466Y-117919024D01*
X100477297Y-117852920D01*
X100421080Y-117796703D01*
X100354976Y-117752534D01*
X100281526Y-117722110D01*
X100203551Y-117706600D01*
X100124049Y-117706600D01*
X100046074Y-117722110D01*
X99972624Y-117752534D01*
X99906520Y-117796703D01*
X99850303Y-117852920D01*
X99806134Y-117919024D01*
X99775710Y-117992474D01*
X99764500Y-118048831D01*
X99753290Y-117992474D01*
X99722866Y-117919024D01*
X99678697Y-117852920D01*
X99622480Y-117796703D01*
X99556376Y-117752534D01*
X99482926Y-117722110D01*
X99404951Y-117706600D01*
X99325449Y-117706600D01*
X99247474Y-117722110D01*
X99174024Y-117752534D01*
X99107920Y-117796703D01*
X99051703Y-117852920D01*
X99007534Y-117919024D01*
X98977110Y-117992474D01*
X98961600Y-118070449D01*
X97335275Y-118070449D01*
X97326090Y-118024274D01*
X97295666Y-117950824D01*
X97251497Y-117884720D01*
X97195280Y-117828503D01*
X97129176Y-117784334D01*
X97055726Y-117753910D01*
X96977751Y-117738400D01*
X96898249Y-117738400D01*
X96820274Y-117753910D01*
X96746824Y-117784334D01*
X96680720Y-117828503D01*
X96624503Y-117884720D01*
X96580334Y-117950824D01*
X96549910Y-118024274D01*
X96534400Y-118102249D01*
X95236200Y-118102249D01*
X95236200Y-117518049D01*
X95239000Y-117518049D01*
X95239000Y-117597551D01*
X95254510Y-117675526D01*
X95284934Y-117748976D01*
X95329103Y-117815080D01*
X95385320Y-117871297D01*
X95451424Y-117915466D01*
X95524874Y-117945890D01*
X95602849Y-117961400D01*
X95682351Y-117961400D01*
X95760326Y-117945890D01*
X95833776Y-117915466D01*
X95899880Y-117871297D01*
X95956097Y-117815080D01*
X96000266Y-117748976D01*
X96030690Y-117675526D01*
X96046200Y-117597551D01*
X96046200Y-117518049D01*
X96030690Y-117440074D01*
X96000266Y-117366624D01*
X95956097Y-117300520D01*
X95899880Y-117244303D01*
X95833776Y-117200134D01*
X95760326Y-117169710D01*
X95682351Y-117154200D01*
X95602849Y-117154200D01*
X95524874Y-117169710D01*
X95451424Y-117200134D01*
X95385320Y-117244303D01*
X95329103Y-117300520D01*
X95284934Y-117366624D01*
X95254510Y-117440074D01*
X95239000Y-117518049D01*
X95236200Y-117518049D01*
X95236200Y-115039650D01*
X95307274Y-115069090D01*
X95385249Y-115084600D01*
X95464751Y-115084600D01*
X95542726Y-115069090D01*
X95616176Y-115038666D01*
X95682280Y-114994497D01*
X95738497Y-114938280D01*
X95762839Y-114901849D01*
X98950190Y-114901849D01*
X98950190Y-114981351D01*
X98965700Y-115059326D01*
X98996124Y-115132776D01*
X99040293Y-115198880D01*
X99096510Y-115255097D01*
X99162614Y-115299266D01*
X99236064Y-115329690D01*
X99314039Y-115345200D01*
X99393541Y-115345200D01*
X99471516Y-115329690D01*
X99544966Y-115299266D01*
X99611070Y-115255097D01*
X99667287Y-115198880D01*
X99711456Y-115132776D01*
X99741880Y-115059326D01*
X99742889Y-115054249D01*
X102630400Y-115054249D01*
X102630400Y-115133751D01*
X102645910Y-115211726D01*
X102676334Y-115285176D01*
X102720503Y-115351280D01*
X102776720Y-115407497D01*
X102842824Y-115451666D01*
X102916274Y-115482090D01*
X102994249Y-115497600D01*
X103073751Y-115497600D01*
X103151726Y-115482090D01*
X103225176Y-115451666D01*
X103291280Y-115407497D01*
X103347497Y-115351280D01*
X103391666Y-115285176D01*
X103422090Y-115211726D01*
X103437600Y-115133751D01*
X103437600Y-115054249D01*
X103422090Y-114976274D01*
X103391666Y-114902824D01*
X103347497Y-114836720D01*
X103291280Y-114780503D01*
X103225176Y-114736334D01*
X103151726Y-114705910D01*
X103073751Y-114690400D01*
X102994249Y-114690400D01*
X102916274Y-114705910D01*
X102842824Y-114736334D01*
X102776720Y-114780503D01*
X102720503Y-114836720D01*
X102676334Y-114902824D01*
X102645910Y-114976274D01*
X102630400Y-115054249D01*
X99742889Y-115054249D01*
X99757390Y-114981351D01*
X99757390Y-114901849D01*
X99741880Y-114823874D01*
X99711456Y-114750424D01*
X99667287Y-114684320D01*
X99611070Y-114628103D01*
X99544966Y-114583934D01*
X99471516Y-114553510D01*
X99393541Y-114538000D01*
X99314039Y-114538000D01*
X99236064Y-114553510D01*
X99162614Y-114583934D01*
X99096510Y-114628103D01*
X99040293Y-114684320D01*
X98996124Y-114750424D01*
X98965700Y-114823874D01*
X98950190Y-114901849D01*
X95762839Y-114901849D01*
X95782666Y-114872176D01*
X95813090Y-114798726D01*
X95828600Y-114720751D01*
X95828600Y-114641249D01*
X95813090Y-114563274D01*
X95782666Y-114489824D01*
X95738497Y-114423720D01*
X95682280Y-114367503D01*
X95645682Y-114343049D01*
X100595610Y-114343049D01*
X100595610Y-114422551D01*
X100611120Y-114500526D01*
X100641544Y-114573976D01*
X100685713Y-114640080D01*
X100741930Y-114696297D01*
X100808034Y-114740466D01*
X100881484Y-114770890D01*
X100959459Y-114786400D01*
X101038961Y-114786400D01*
X101116936Y-114770890D01*
X101190386Y-114740466D01*
X101256490Y-114696297D01*
X101312707Y-114640080D01*
X101356876Y-114573976D01*
X101387300Y-114500526D01*
X101402810Y-114422551D01*
X101402810Y-114343049D01*
X101387300Y-114265074D01*
X101356876Y-114191624D01*
X101312707Y-114125520D01*
X101256490Y-114069303D01*
X101190386Y-114025134D01*
X101116936Y-113994710D01*
X101038961Y-113979200D01*
X100959459Y-113979200D01*
X100881484Y-113994710D01*
X100808034Y-114025134D01*
X100741930Y-114069303D01*
X100685713Y-114125520D01*
X100641544Y-114191624D01*
X100611120Y-114265074D01*
X100595610Y-114343049D01*
X95645682Y-114343049D01*
X95616176Y-114323334D01*
X95542726Y-114292910D01*
X95464751Y-114277400D01*
X95385249Y-114277400D01*
X95307274Y-114292910D01*
X95236200Y-114322350D01*
X95236200Y-114134964D01*
X95637715Y-113733449D01*
X98464800Y-113733449D01*
X98464800Y-113812951D01*
X98480310Y-113890926D01*
X98510734Y-113964376D01*
X98554903Y-114030480D01*
X98611120Y-114086697D01*
X98677224Y-114130866D01*
X98750674Y-114161290D01*
X98828649Y-114176800D01*
X98908151Y-114176800D01*
X98986126Y-114161290D01*
X99059576Y-114130866D01*
X99125680Y-114086697D01*
X99181897Y-114030480D01*
X99199164Y-114004637D01*
X99236024Y-114029266D01*
X99309474Y-114059690D01*
X99387449Y-114075200D01*
X99466951Y-114075200D01*
X99544926Y-114059690D01*
X99618376Y-114029266D01*
X99684480Y-113985097D01*
X99740697Y-113928880D01*
X99784866Y-113862776D01*
X99813461Y-113793743D01*
X99831534Y-113837376D01*
X99875703Y-113903480D01*
X99931920Y-113959697D01*
X99998024Y-114003866D01*
X100071474Y-114034290D01*
X100149449Y-114049800D01*
X100228951Y-114049800D01*
X100306926Y-114034290D01*
X100380376Y-114003866D01*
X100446480Y-113959697D01*
X100502697Y-113903480D01*
X100546866Y-113837376D01*
X100577290Y-113763926D01*
X100592800Y-113685951D01*
X100592800Y-113606449D01*
X100577290Y-113528474D01*
X100546866Y-113455024D01*
X100502697Y-113388920D01*
X100446480Y-113332703D01*
X100428141Y-113320449D01*
X101501200Y-113320449D01*
X101501200Y-113399951D01*
X101516710Y-113477926D01*
X101547134Y-113551376D01*
X101591303Y-113617480D01*
X101647520Y-113673697D01*
X101713624Y-113717866D01*
X101787074Y-113748290D01*
X101865049Y-113763800D01*
X101944551Y-113763800D01*
X102022526Y-113748290D01*
X102095976Y-113717866D01*
X102158148Y-113676325D01*
X102206320Y-113724497D01*
X102272424Y-113768666D01*
X102345874Y-113799090D01*
X102423849Y-113814600D01*
X102503351Y-113814600D01*
X102581326Y-113799090D01*
X102654776Y-113768666D01*
X102720880Y-113724497D01*
X102777097Y-113668280D01*
X102821266Y-113602176D01*
X102851690Y-113528726D01*
X102867200Y-113450751D01*
X102867200Y-113371249D01*
X102851690Y-113293274D01*
X102821266Y-113219824D01*
X102777097Y-113153720D01*
X102720880Y-113097503D01*
X102654776Y-113053334D01*
X102581326Y-113022910D01*
X102503351Y-113007400D01*
X102423849Y-113007400D01*
X102345874Y-113022910D01*
X102272424Y-113053334D01*
X102210252Y-113094875D01*
X102162080Y-113046703D01*
X102095976Y-113002534D01*
X102022526Y-112972110D01*
X101944551Y-112956600D01*
X101865049Y-112956600D01*
X101787074Y-112972110D01*
X101713624Y-113002534D01*
X101647520Y-113046703D01*
X101591303Y-113102920D01*
X101547134Y-113169024D01*
X101516710Y-113242474D01*
X101501200Y-113320449D01*
X100428141Y-113320449D01*
X100380376Y-113288534D01*
X100306926Y-113258110D01*
X100228951Y-113242600D01*
X100149449Y-113242600D01*
X100071474Y-113258110D01*
X99998024Y-113288534D01*
X99931920Y-113332703D01*
X99875703Y-113388920D01*
X99831534Y-113455024D01*
X99802939Y-113524057D01*
X99784866Y-113480424D01*
X99740697Y-113414320D01*
X99684480Y-113358103D01*
X99618376Y-113313934D01*
X99544926Y-113283510D01*
X99466951Y-113268000D01*
X99387449Y-113268000D01*
X99309474Y-113283510D01*
X99236024Y-113313934D01*
X99169920Y-113358103D01*
X99113703Y-113414320D01*
X99096436Y-113440163D01*
X99059576Y-113415534D01*
X98986126Y-113385110D01*
X98908151Y-113369600D01*
X98828649Y-113369600D01*
X98750674Y-113385110D01*
X98677224Y-113415534D01*
X98611120Y-113459703D01*
X98554903Y-113515920D01*
X98510734Y-113582024D01*
X98480310Y-113655474D01*
X98464800Y-113733449D01*
X95637715Y-113733449D01*
X96740964Y-112630200D01*
X103913227Y-112630200D01*
X104356030Y-113073003D01*
M02*
