G04 #@! TF.GenerationSoftware,KiCad,Pcbnew,(5.1.6)-1*
G04 #@! TF.CreationDate,2020-09-01T21:00:33-07:00*
G04 #@! TF.ProjectId,MiniDAQ,4d696e69-4441-4512-9e6b-696361645f70,rev?*
G04 #@! TF.SameCoordinates,Original*
G04 #@! TF.FileFunction,Legend,Top*
G04 #@! TF.FilePolarity,Positive*
%FSLAX46Y46*%
G04 Gerber Fmt 4.6, Leading zero omitted, Abs format (unit mm)*
G04 Created by KiCad (PCBNEW (5.1.6)-1) date 2020-09-01 21:00:33*
%MOMM*%
%LPD*%
G01*
G04 APERTURE LIST*
%ADD10C,0.150000*%
%ADD11C,0.200000*%
%ADD12C,0.203200*%
%ADD13C,0.120000*%
%ADD14C,0.100000*%
%ADD15C,0.152400*%
%ADD16C,0.080000*%
G04 APERTURE END LIST*
D10*
X114513590Y-113684300D02*
X114453114Y-113654061D01*
X114362400Y-113654061D01*
X114271685Y-113684300D01*
X114211209Y-113744776D01*
X114180971Y-113805252D01*
X114150733Y-113926204D01*
X114150733Y-114016919D01*
X114180971Y-114137871D01*
X114211209Y-114198347D01*
X114271685Y-114258823D01*
X114362400Y-114289061D01*
X114422876Y-114289061D01*
X114513590Y-114258823D01*
X114543828Y-114228585D01*
X114543828Y-114016919D01*
X114422876Y-114016919D01*
X114815971Y-114289061D02*
X114815971Y-113654061D01*
X115178828Y-114289061D01*
X115178828Y-113654061D01*
X115481209Y-114289061D02*
X115481209Y-113654061D01*
X115632400Y-113654061D01*
X115723114Y-113684300D01*
X115783590Y-113744776D01*
X115813828Y-113805252D01*
X115844066Y-113926204D01*
X115844066Y-114016919D01*
X115813828Y-114137871D01*
X115783590Y-114198347D01*
X115723114Y-114258823D01*
X115632400Y-114289061D01*
X115481209Y-114289061D01*
X112438047Y-114746261D02*
X112135666Y-114746261D01*
X112105428Y-115048642D01*
X112135666Y-115018404D01*
X112196142Y-114988166D01*
X112347333Y-114988166D01*
X112407809Y-115018404D01*
X112438047Y-115048642D01*
X112468285Y-115109119D01*
X112468285Y-115260309D01*
X112438047Y-115320785D01*
X112407809Y-115351023D01*
X112347333Y-115381261D01*
X112196142Y-115381261D01*
X112135666Y-115351023D01*
X112105428Y-115320785D01*
X112649714Y-114746261D02*
X112861380Y-115381261D01*
X113073047Y-114746261D01*
X109931914Y-115381261D02*
X109569057Y-115381261D01*
X109750485Y-115381261D02*
X109750485Y-114746261D01*
X109690009Y-114836976D01*
X109629533Y-114897452D01*
X109569057Y-114927690D01*
X110204057Y-115320785D02*
X110234295Y-115351023D01*
X110204057Y-115381261D01*
X110173819Y-115351023D01*
X110204057Y-115320785D01*
X110204057Y-115381261D01*
X110597152Y-115018404D02*
X110536676Y-114988166D01*
X110506438Y-114957928D01*
X110476200Y-114897452D01*
X110476200Y-114867214D01*
X110506438Y-114806738D01*
X110536676Y-114776500D01*
X110597152Y-114746261D01*
X110718104Y-114746261D01*
X110778580Y-114776500D01*
X110808819Y-114806738D01*
X110839057Y-114867214D01*
X110839057Y-114897452D01*
X110808819Y-114957928D01*
X110778580Y-114988166D01*
X110718104Y-115018404D01*
X110597152Y-115018404D01*
X110536676Y-115048642D01*
X110506438Y-115078880D01*
X110476200Y-115139357D01*
X110476200Y-115260309D01*
X110506438Y-115320785D01*
X110536676Y-115351023D01*
X110597152Y-115381261D01*
X110718104Y-115381261D01*
X110778580Y-115351023D01*
X110808819Y-115320785D01*
X110839057Y-115260309D01*
X110839057Y-115139357D01*
X110808819Y-115078880D01*
X110778580Y-115048642D01*
X110718104Y-115018404D01*
X111020485Y-114746261D02*
X111232152Y-115381261D01*
X111443819Y-114746261D01*
X107747514Y-114289061D02*
X107384657Y-114289061D01*
X107566085Y-114289061D02*
X107566085Y-113654061D01*
X107505609Y-113744776D01*
X107445133Y-113805252D01*
X107384657Y-113835490D01*
X108019657Y-114228585D02*
X108049895Y-114258823D01*
X108019657Y-114289061D01*
X107989419Y-114258823D01*
X108019657Y-114228585D01*
X108019657Y-114289061D01*
X108291800Y-113714538D02*
X108322038Y-113684300D01*
X108382514Y-113654061D01*
X108533704Y-113654061D01*
X108594180Y-113684300D01*
X108624419Y-113714538D01*
X108654657Y-113775014D01*
X108654657Y-113835490D01*
X108624419Y-113926204D01*
X108261561Y-114289061D01*
X108654657Y-114289061D01*
X108836085Y-113654061D02*
X109047752Y-114289061D01*
X109259419Y-113654061D01*
X109739571Y-123355304D02*
X109282428Y-123355304D01*
X109511000Y-123355304D02*
X109511000Y-122555304D01*
X109434809Y-122669590D01*
X109358619Y-122745780D01*
X109282428Y-122783876D01*
X109472904Y-123596704D02*
X109549095Y-123596704D01*
X109625285Y-123634800D01*
X109663380Y-123672895D01*
X109701476Y-123749085D01*
X109739571Y-123901466D01*
X109739571Y-124091942D01*
X109701476Y-124244323D01*
X109663380Y-124320514D01*
X109625285Y-124358609D01*
X109549095Y-124396704D01*
X109472904Y-124396704D01*
X109396714Y-124358609D01*
X109358619Y-124320514D01*
X109320523Y-124244323D01*
X109282428Y-124091942D01*
X109282428Y-123901466D01*
X109320523Y-123749085D01*
X109358619Y-123672895D01*
X109396714Y-123634800D01*
X109472904Y-123596704D01*
D11*
X94259914Y-116217771D02*
X94926580Y-115979676D01*
X94259914Y-115741580D01*
X94926580Y-114836819D02*
X94926580Y-115408247D01*
X94926580Y-115122533D02*
X93926580Y-115122533D01*
X94069438Y-115217771D01*
X94164676Y-115313009D01*
X94212295Y-115408247D01*
X94831342Y-114408247D02*
X94878961Y-114360628D01*
X94926580Y-114408247D01*
X94878961Y-114455866D01*
X94831342Y-114408247D01*
X94926580Y-114408247D01*
X93926580Y-113741580D02*
X93926580Y-113646342D01*
X93974200Y-113551104D01*
X94021819Y-113503485D01*
X94117057Y-113455866D01*
X94307533Y-113408247D01*
X94545628Y-113408247D01*
X94736104Y-113455866D01*
X94831342Y-113503485D01*
X94878961Y-113551104D01*
X94926580Y-113646342D01*
X94926580Y-113741580D01*
X94878961Y-113836819D01*
X94831342Y-113884438D01*
X94736104Y-113932057D01*
X94545628Y-113979676D01*
X94307533Y-113979676D01*
X94117057Y-113932057D01*
X94021819Y-113884438D01*
X93974200Y-113836819D01*
X93926580Y-113741580D01*
X95160000Y-112528600D02*
X95160000Y-111461800D01*
X95160000Y-111461800D02*
X95160000Y-110395000D01*
X93712200Y-111461800D02*
X94017000Y-111741200D01*
X93712200Y-111461800D02*
X94017000Y-111182400D01*
X95160000Y-111461800D02*
X93712200Y-111461800D01*
D12*
X93411028Y-121618171D02*
X91887028Y-121618171D01*
X92975600Y-121110171D01*
X91887028Y-120602171D01*
X93411028Y-120602171D01*
X93411028Y-119876457D02*
X92395028Y-119876457D01*
X91887028Y-119876457D02*
X91959600Y-119949028D01*
X92032171Y-119876457D01*
X91959600Y-119803885D01*
X91887028Y-119876457D01*
X92032171Y-119876457D01*
X92395028Y-119150742D02*
X93411028Y-119150742D01*
X92540171Y-119150742D02*
X92467600Y-119078171D01*
X92395028Y-118933028D01*
X92395028Y-118715314D01*
X92467600Y-118570171D01*
X92612742Y-118497600D01*
X93411028Y-118497600D01*
X93411028Y-117771885D02*
X92395028Y-117771885D01*
X91887028Y-117771885D02*
X91959600Y-117844457D01*
X92032171Y-117771885D01*
X91959600Y-117699314D01*
X91887028Y-117771885D01*
X92032171Y-117771885D01*
X93411028Y-117046171D02*
X91887028Y-117046171D01*
X91887028Y-116683314D01*
X91959600Y-116465600D01*
X92104742Y-116320457D01*
X92249885Y-116247885D01*
X92540171Y-116175314D01*
X92757885Y-116175314D01*
X93048171Y-116247885D01*
X93193314Y-116320457D01*
X93338457Y-116465600D01*
X93411028Y-116683314D01*
X93411028Y-117046171D01*
X92975600Y-115594742D02*
X92975600Y-114869028D01*
X93411028Y-115739885D02*
X91887028Y-115231885D01*
X93411028Y-114723885D01*
X93556171Y-113199885D02*
X93483600Y-113345028D01*
X93338457Y-113490171D01*
X93120742Y-113707885D01*
X93048171Y-113853028D01*
X93048171Y-113998171D01*
X93411028Y-113925600D02*
X93338457Y-114070742D01*
X93193314Y-114215885D01*
X92903028Y-114288457D01*
X92395028Y-114288457D01*
X92104742Y-114215885D01*
X91959600Y-114070742D01*
X91887028Y-113925600D01*
X91887028Y-113635314D01*
X91959600Y-113490171D01*
X92104742Y-113345028D01*
X92395028Y-113272457D01*
X92903028Y-113272457D01*
X93193314Y-113345028D01*
X93338457Y-113490171D01*
X93411028Y-113635314D01*
X93411028Y-113925600D01*
D11*
X95582076Y-110374504D02*
X95582076Y-111022123D01*
X95620171Y-111098314D01*
X95658266Y-111136409D01*
X95734457Y-111174504D01*
X95886838Y-111174504D01*
X95963028Y-111136409D01*
X96001123Y-111098314D01*
X96039219Y-111022123D01*
X96039219Y-110374504D01*
X96382076Y-111136409D02*
X96496361Y-111174504D01*
X96686838Y-111174504D01*
X96763028Y-111136409D01*
X96801123Y-111098314D01*
X96839219Y-111022123D01*
X96839219Y-110945933D01*
X96801123Y-110869742D01*
X96763028Y-110831647D01*
X96686838Y-110793552D01*
X96534457Y-110755457D01*
X96458266Y-110717361D01*
X96420171Y-110679266D01*
X96382076Y-110603076D01*
X96382076Y-110526885D01*
X96420171Y-110450695D01*
X96458266Y-110412600D01*
X96534457Y-110374504D01*
X96724933Y-110374504D01*
X96839219Y-110412600D01*
X97448742Y-110755457D02*
X97563028Y-110793552D01*
X97601123Y-110831647D01*
X97639219Y-110907838D01*
X97639219Y-111022123D01*
X97601123Y-111098314D01*
X97563028Y-111136409D01*
X97486838Y-111174504D01*
X97182076Y-111174504D01*
X97182076Y-110374504D01*
X97448742Y-110374504D01*
X97524933Y-110412600D01*
X97563028Y-110450695D01*
X97601123Y-110526885D01*
X97601123Y-110603076D01*
X97563028Y-110679266D01*
X97524933Y-110717361D01*
X97448742Y-110755457D01*
X97182076Y-110755457D01*
X95848742Y-112155457D02*
X95963028Y-112193552D01*
X96001123Y-112231647D01*
X96039219Y-112307838D01*
X96039219Y-112422123D01*
X96001123Y-112498314D01*
X95963028Y-112536409D01*
X95886838Y-112574504D01*
X95582076Y-112574504D01*
X95582076Y-111774504D01*
X95848742Y-111774504D01*
X95924933Y-111812600D01*
X95963028Y-111850695D01*
X96001123Y-111926885D01*
X96001123Y-112003076D01*
X95963028Y-112079266D01*
X95924933Y-112117361D01*
X95848742Y-112155457D01*
X95582076Y-112155457D01*
X96496361Y-112574504D02*
X96420171Y-112536409D01*
X96382076Y-112498314D01*
X96343980Y-112422123D01*
X96343980Y-112193552D01*
X96382076Y-112117361D01*
X96420171Y-112079266D01*
X96496361Y-112041171D01*
X96610647Y-112041171D01*
X96686838Y-112079266D01*
X96724933Y-112117361D01*
X96763028Y-112193552D01*
X96763028Y-112422123D01*
X96724933Y-112498314D01*
X96686838Y-112536409D01*
X96610647Y-112574504D01*
X96496361Y-112574504D01*
X97220171Y-112574504D02*
X97143980Y-112536409D01*
X97105885Y-112498314D01*
X97067790Y-112422123D01*
X97067790Y-112193552D01*
X97105885Y-112117361D01*
X97143980Y-112079266D01*
X97220171Y-112041171D01*
X97334457Y-112041171D01*
X97410647Y-112079266D01*
X97448742Y-112117361D01*
X97486838Y-112193552D01*
X97486838Y-112422123D01*
X97448742Y-112498314D01*
X97410647Y-112536409D01*
X97334457Y-112574504D01*
X97220171Y-112574504D01*
X97715409Y-112041171D02*
X98020171Y-112041171D01*
X97829695Y-111774504D02*
X97829695Y-112460219D01*
X97867790Y-112536409D01*
X97943980Y-112574504D01*
X98020171Y-112574504D01*
D13*
X94559600Y-124713000D02*
X94559600Y-123910530D01*
X94559600Y-123295470D02*
X94559600Y-122493000D01*
X92084600Y-124713000D02*
X94559600Y-124713000D01*
X92084600Y-122493000D02*
X94559600Y-122493000D01*
X92084600Y-124713000D02*
X92084600Y-124166471D01*
X92084600Y-123039529D02*
X92084600Y-122493000D01*
X91324600Y-124713000D02*
X90564600Y-124713000D01*
X90564600Y-124713000D02*
X90564600Y-123603000D01*
X90629600Y-110326400D02*
X90629600Y-111128870D01*
X90629600Y-111743930D02*
X90629600Y-112546400D01*
X91834600Y-110326400D02*
X90629600Y-110326400D01*
X91834600Y-112546400D02*
X90629600Y-112546400D01*
X91834600Y-110326400D02*
X91834600Y-110872929D01*
X91834600Y-111999871D02*
X91834600Y-112546400D01*
X92594600Y-110326400D02*
X93354600Y-110326400D01*
X93354600Y-110326400D02*
X93354600Y-111436400D01*
X100065200Y-124710200D02*
X97565200Y-124710200D01*
X97565200Y-124710200D02*
X97565200Y-122210200D01*
X105065200Y-124710200D02*
X107565200Y-124710200D01*
X107565200Y-124710200D02*
X107565200Y-122210200D01*
X105065200Y-114710200D02*
X107565200Y-114710200D01*
X107565200Y-114710200D02*
X107565200Y-117210200D01*
X100065200Y-114710200D02*
X97565200Y-114710200D01*
X97565200Y-114710200D02*
X97565200Y-117210200D01*
D14*
G36*
X98165200Y-123710200D02*
G01*
X98165200Y-124710200D01*
X97565200Y-124710200D01*
X97565200Y-123710200D01*
X98165200Y-123710200D01*
G37*
X98165200Y-123710200D02*
X98165200Y-124710200D01*
X97565200Y-124710200D01*
X97565200Y-123710200D01*
X98165200Y-123710200D01*
D13*
X120124800Y-116728000D02*
X119244800Y-116728000D01*
X119244800Y-116728000D02*
X119244800Y-115428000D01*
X119244800Y-115428000D02*
X120124800Y-115428000D01*
X120124800Y-115428000D02*
X120124800Y-116728000D01*
X120124800Y-118302800D02*
X119244800Y-118302800D01*
X119244800Y-118302800D02*
X119244800Y-117002800D01*
X119244800Y-117002800D02*
X120124800Y-117002800D01*
X120124800Y-117002800D02*
X120124800Y-118302800D01*
X123977200Y-113216600D02*
X120777200Y-113216600D01*
X123977200Y-110506600D02*
X120777200Y-110506600D01*
X123977200Y-113216600D02*
X124472200Y-113216600D01*
D14*
X111361400Y-111541600D02*
X111361400Y-112181600D01*
X109161400Y-111541600D02*
X109161400Y-112181600D01*
D15*
X119138600Y-110344459D02*
X119138600Y-110179400D01*
X115887400Y-113265541D02*
X115887400Y-113430600D01*
X115887400Y-110179400D02*
X115887400Y-110344459D01*
X119138600Y-110179400D02*
X115887400Y-110179400D01*
X119138600Y-113430600D02*
X119138600Y-113265541D01*
X115887400Y-113430600D02*
X119138600Y-113430600D01*
D14*
G36*
X116522400Y-110535000D02*
G01*
X115684200Y-110535000D01*
X115684200Y-110179400D01*
X116522400Y-110179400D01*
X116522400Y-110535000D01*
G37*
X116522400Y-110535000D02*
X115684200Y-110535000D01*
X115684200Y-110179400D01*
X116522400Y-110179400D01*
X116522400Y-110535000D01*
D10*
X95089600Y-119501600D02*
X94089600Y-119501600D01*
X94089600Y-122001600D02*
X95089600Y-122001600D01*
X94089600Y-120001600D02*
X94589600Y-120001600D01*
X94589600Y-120001600D02*
X94589600Y-119501600D01*
D13*
X98446600Y-112579800D02*
X101146600Y-112579800D01*
X98446600Y-110279800D02*
X98446600Y-112579800D01*
D10*
X101699600Y-110277400D02*
X101699600Y-112277400D01*
X101699600Y-112277400D02*
X105259600Y-112277400D01*
X105259600Y-112277400D02*
X105259600Y-110277400D01*
X105259600Y-110277400D02*
X101699600Y-110277400D01*
D14*
G36*
X102079600Y-112277400D02*
G01*
X101779600Y-112277400D01*
X101779600Y-111877400D01*
X102079600Y-111877400D01*
X102079600Y-112277400D01*
G37*
X102079600Y-112277400D02*
X101779600Y-112277400D01*
X101779600Y-111877400D01*
X102079600Y-111877400D01*
X102079600Y-112277400D01*
X114588000Y-110522800D02*
X114588000Y-110252800D01*
X114588000Y-110252800D02*
X112488000Y-110252800D01*
X112488000Y-110252800D02*
X112488000Y-110522800D01*
X114588000Y-112082800D02*
X114588000Y-112352800D01*
X114588000Y-112352800D02*
X112488000Y-112352800D01*
X112488000Y-112352800D02*
X112488000Y-112082800D01*
G36*
X114588000Y-112082800D02*
G01*
X114588000Y-112352800D01*
X114238000Y-112344200D01*
X114238000Y-112090200D01*
X114588000Y-112082800D01*
G37*
X114588000Y-112082800D02*
X114588000Y-112352800D01*
X114238000Y-112344200D01*
X114238000Y-112090200D01*
X114588000Y-112082800D01*
X106111800Y-110277400D02*
X108111800Y-110277400D01*
X106111800Y-112277400D02*
X108111800Y-112277400D01*
D10*
X105811800Y-110877400D02*
X105811800Y-110377400D01*
D13*
X116598000Y-116028600D02*
X117118000Y-116028600D01*
X117118000Y-116028600D02*
X117118000Y-116548600D01*
X110478000Y-116028600D02*
X109958000Y-116028600D01*
X109958000Y-116028600D02*
X109958000Y-116548600D01*
X110478000Y-123188600D02*
X109958000Y-123188600D01*
X109958000Y-123188600D02*
X109958000Y-122668600D01*
X116598000Y-123188600D02*
X117118000Y-123188600D01*
X117118000Y-123188600D02*
X117118000Y-122668600D01*
D10*
G36*
X117038000Y-116508600D02*
G01*
X116638000Y-116508600D01*
X116638000Y-116108600D01*
X117038000Y-116108600D01*
X117038000Y-116508600D01*
G37*
X117038000Y-116508600D02*
X116638000Y-116508600D01*
X116638000Y-116108600D01*
X117038000Y-116108600D01*
X117038000Y-116508600D01*
D14*
X121665800Y-121890800D02*
X123545800Y-121890800D01*
X121665800Y-124590800D02*
X123545800Y-124590800D01*
D13*
X120125200Y-117750400D02*
X120625200Y-117500400D01*
X120125200Y-117250400D02*
X120125200Y-117750400D01*
X120625200Y-117500400D02*
X120125200Y-117250400D01*
X89766200Y-122110000D02*
X89766200Y-122790000D01*
X85026200Y-123560000D02*
X85426200Y-123560000D01*
X85026200Y-111440000D02*
X85426200Y-111440000D01*
X89766200Y-112890000D02*
X89766200Y-112210000D01*
X91276200Y-120200000D02*
X91276200Y-120800000D01*
D16*
X121780771Y-112013980D02*
X121780771Y-111709219D01*
X122880771Y-112013980D02*
X122880771Y-111709219D01*
X123033152Y-111861600D02*
X122728390Y-111861600D01*
M02*
