G04 #@! TF.GenerationSoftware,KiCad,Pcbnew,(5.1.6)-1*
G04 #@! TF.CreationDate,2020-09-09T10:35:32-07:00*
G04 #@! TF.ProjectId,MiniDAQ,4d696e69-4441-4512-9e6b-696361645f70,rev?*
G04 #@! TF.SameCoordinates,Original*
G04 #@! TF.FileFunction,Paste,Top*
G04 #@! TF.FilePolarity,Positive*
%FSLAX46Y46*%
G04 Gerber Fmt 4.6, Leading zero omitted, Abs format (unit mm)*
G04 Created by KiCad (PCBNEW (5.1.6)-1) date 2020-09-09 10:35:32*
%MOMM*%
%LPD*%
G01*
G04 APERTURE LIST*
%ADD10C,0.250000*%
%ADD11R,0.520000X0.280000*%
%ADD12R,0.170000X0.280000*%
%ADD13R,1.130000X0.970000*%
%ADD14R,2.120000X1.090000*%
%ADD15R,0.812800X0.355600*%
%ADD16R,1.600200X2.489200*%
%ADD17R,0.775000X0.400000*%
%ADD18R,0.675000X0.200000*%
%ADD19R,0.900000X0.800000*%
%ADD20C,0.270000*%
%ADD21R,0.800000X1.700000*%
%ADD22R,0.560000X0.260000*%
%ADD23R,0.900000X1.600000*%
%ADD24R,0.510000X0.320000*%
%ADD25R,1.170000X1.170000*%
%ADD26R,0.780000X0.260000*%
%ADD27R,0.260000X0.780000*%
%ADD28R,0.870000X2.620000*%
%ADD29R,3.600000X1.270000*%
%ADD30R,4.200000X1.350000*%
%ADD31R,1.800000X0.700000*%
G04 APERTURE END LIST*
G36*
G01*
X94282400Y-110531100D02*
X94282400Y-110716100D01*
G75*
G02*
X94204900Y-110793600I-77500J0D01*
G01*
X94049900Y-110793600D01*
G75*
G02*
X93972400Y-110716100I0J77500D01*
G01*
X93972400Y-110531100D01*
G75*
G02*
X94049900Y-110453600I77500J0D01*
G01*
X94204900Y-110453600D01*
G75*
G02*
X94282400Y-110531100I0J-77500D01*
G01*
G37*
G36*
G01*
X94832400Y-110531100D02*
X94832400Y-110716100D01*
G75*
G02*
X94754900Y-110793600I-77500J0D01*
G01*
X94599900Y-110793600D01*
G75*
G02*
X94522400Y-110716100I0J77500D01*
G01*
X94522400Y-110531100D01*
G75*
G02*
X94599900Y-110453600I77500J0D01*
G01*
X94754900Y-110453600D01*
G75*
G02*
X94832400Y-110531100I0J-77500D01*
G01*
G37*
D10*
X106565200Y-115710200D03*
X106565200Y-116510200D03*
X106565200Y-117310200D03*
X106565200Y-118110200D03*
X106565200Y-118910200D03*
X106565200Y-119710200D03*
X106565200Y-120510200D03*
X106565200Y-121310200D03*
X106565200Y-122110200D03*
X106565200Y-122910200D03*
X106565200Y-123710200D03*
X105765200Y-115710200D03*
X105765200Y-116510200D03*
X105765200Y-117310200D03*
X105765200Y-118110200D03*
X105765200Y-118910200D03*
X105765200Y-119710200D03*
X105765200Y-120510200D03*
X105765200Y-121310200D03*
X105765200Y-122110200D03*
X105765200Y-122910200D03*
X105765200Y-123710200D03*
X104965200Y-115710200D03*
X104965200Y-116510200D03*
X104965200Y-117310200D03*
X104965200Y-118110200D03*
X104965200Y-118910200D03*
X104965200Y-119710200D03*
X104965200Y-120510200D03*
X104965200Y-121310200D03*
X104965200Y-122110200D03*
X104965200Y-122910200D03*
X104965200Y-123710200D03*
X104165200Y-115710200D03*
X104165200Y-116510200D03*
X104165200Y-117310200D03*
X104165200Y-118110200D03*
X104165200Y-118910200D03*
X104165200Y-119710200D03*
X104165200Y-120510200D03*
X104165200Y-121310200D03*
X104165200Y-122110200D03*
X104165200Y-122910200D03*
X104165200Y-123710200D03*
X103365200Y-115710200D03*
X103365200Y-116510200D03*
X103365200Y-117310200D03*
X103365200Y-118110200D03*
X103365200Y-118910200D03*
X103365200Y-119710200D03*
X103365200Y-120510200D03*
X103365200Y-121310200D03*
X103365200Y-122110200D03*
X103365200Y-122910200D03*
X103365200Y-123710200D03*
X102565200Y-115710200D03*
X102565200Y-116510200D03*
X102565200Y-117310200D03*
X102565200Y-118110200D03*
X102565200Y-118910200D03*
X102565200Y-119710200D03*
X102565200Y-120510200D03*
X102565200Y-121310200D03*
X102565200Y-122110200D03*
X102565200Y-122910200D03*
X102565200Y-123710200D03*
X101765200Y-115710200D03*
X101765200Y-116510200D03*
X101765200Y-117310200D03*
X101765200Y-118110200D03*
X101765200Y-118910200D03*
X101765200Y-119710200D03*
X101765200Y-120510200D03*
X101765200Y-121310200D03*
X101765200Y-122110200D03*
X101765200Y-122910200D03*
X101765200Y-123710200D03*
X100965200Y-115710200D03*
X100965200Y-116510200D03*
X100965200Y-117310200D03*
X100965200Y-118110200D03*
X100965200Y-118910200D03*
X100965200Y-119710200D03*
X100965200Y-120510200D03*
X100965200Y-121310200D03*
X100965200Y-122110200D03*
X100965200Y-122910200D03*
X100965200Y-123710200D03*
X100165200Y-115710200D03*
X100165200Y-116510200D03*
X100165200Y-117310200D03*
X100165200Y-118110200D03*
X100165200Y-118910200D03*
X100165200Y-119710200D03*
X100165200Y-120510200D03*
X100165200Y-121310200D03*
X100165200Y-122110200D03*
X100165200Y-122910200D03*
X100165200Y-123710200D03*
X99365200Y-115710200D03*
X99365200Y-116510200D03*
X99365200Y-117310200D03*
X99365200Y-118110200D03*
X99365200Y-118910200D03*
X99365200Y-119710200D03*
X99365200Y-120510200D03*
X99365200Y-121310200D03*
X99365200Y-122110200D03*
X99365200Y-122910200D03*
X99365200Y-123710200D03*
X98565200Y-115710200D03*
X98565200Y-116510200D03*
X98565200Y-117310200D03*
X98565200Y-118110200D03*
X98565200Y-118910200D03*
X98565200Y-119710200D03*
X98565200Y-120510200D03*
X98565200Y-121310200D03*
X98565200Y-122110200D03*
X98565200Y-122910200D03*
X98565200Y-123710200D03*
G36*
G01*
X118421800Y-116315700D02*
X118421800Y-116500700D01*
G75*
G02*
X118344300Y-116578200I-77500J0D01*
G01*
X118189300Y-116578200D01*
G75*
G02*
X118111800Y-116500700I0J77500D01*
G01*
X118111800Y-116315700D01*
G75*
G02*
X118189300Y-116238200I77500J0D01*
G01*
X118344300Y-116238200D01*
G75*
G02*
X118421800Y-116315700I0J-77500D01*
G01*
G37*
G36*
G01*
X118971800Y-116315700D02*
X118971800Y-116500700D01*
G75*
G02*
X118894300Y-116578200I-77500J0D01*
G01*
X118739300Y-116578200D01*
G75*
G02*
X118661800Y-116500700I0J77500D01*
G01*
X118661800Y-116315700D01*
G75*
G02*
X118739300Y-116238200I77500J0D01*
G01*
X118894300Y-116238200D01*
G75*
G02*
X118971800Y-116315700I0J-77500D01*
G01*
G37*
G36*
G01*
X118421800Y-117890500D02*
X118421800Y-118075500D01*
G75*
G02*
X118344300Y-118153000I-77500J0D01*
G01*
X118189300Y-118153000D01*
G75*
G02*
X118111800Y-118075500I0J77500D01*
G01*
X118111800Y-117890500D01*
G75*
G02*
X118189300Y-117813000I77500J0D01*
G01*
X118344300Y-117813000D01*
G75*
G02*
X118421800Y-117890500I0J-77500D01*
G01*
G37*
G36*
G01*
X118971800Y-117890500D02*
X118971800Y-118075500D01*
G75*
G02*
X118894300Y-118153000I-77500J0D01*
G01*
X118739300Y-118153000D01*
G75*
G02*
X118661800Y-118075500I0J77500D01*
G01*
X118661800Y-117890500D01*
G75*
G02*
X118739300Y-117813000I77500J0D01*
G01*
X118894300Y-117813000D01*
G75*
G02*
X118971800Y-117890500I0J-77500D01*
G01*
G37*
G36*
G01*
X118661800Y-115840300D02*
X118661800Y-115655300D01*
G75*
G02*
X118739300Y-115577800I77500J0D01*
G01*
X118894300Y-115577800D01*
G75*
G02*
X118971800Y-115655300I0J-77500D01*
G01*
X118971800Y-115840300D01*
G75*
G02*
X118894300Y-115917800I-77500J0D01*
G01*
X118739300Y-115917800D01*
G75*
G02*
X118661800Y-115840300I0J77500D01*
G01*
G37*
G36*
G01*
X118111800Y-115840300D02*
X118111800Y-115655300D01*
G75*
G02*
X118189300Y-115577800I77500J0D01*
G01*
X118344300Y-115577800D01*
G75*
G02*
X118421800Y-115655300I0J-77500D01*
G01*
X118421800Y-115840300D01*
G75*
G02*
X118344300Y-115917800I-77500J0D01*
G01*
X118189300Y-115917800D01*
G75*
G02*
X118111800Y-115840300I0J77500D01*
G01*
G37*
G36*
G01*
X118661800Y-117415100D02*
X118661800Y-117230100D01*
G75*
G02*
X118739300Y-117152600I77500J0D01*
G01*
X118894300Y-117152600D01*
G75*
G02*
X118971800Y-117230100I0J-77500D01*
G01*
X118971800Y-117415100D01*
G75*
G02*
X118894300Y-117492600I-77500J0D01*
G01*
X118739300Y-117492600D01*
G75*
G02*
X118661800Y-117415100I0J77500D01*
G01*
G37*
G36*
G01*
X118111800Y-117415100D02*
X118111800Y-117230100D01*
G75*
G02*
X118189300Y-117152600I77500J0D01*
G01*
X118344300Y-117152600D01*
G75*
G02*
X118421800Y-117230100I0J-77500D01*
G01*
X118421800Y-117415100D01*
G75*
G02*
X118344300Y-117492600I-77500J0D01*
G01*
X118189300Y-117492600D01*
G75*
G02*
X118111800Y-117415100I0J77500D01*
G01*
G37*
D11*
X119684800Y-115753000D03*
D12*
X119859800Y-116403000D03*
X119509800Y-116403000D03*
D11*
X119684800Y-117327800D03*
D12*
X119859800Y-117977800D03*
X119509800Y-117977800D03*
D13*
X120787200Y-112551600D03*
X120787200Y-111171600D03*
X123967200Y-111171600D03*
X123967200Y-112551600D03*
D14*
X110261400Y-112876600D03*
X110261400Y-110846600D03*
D15*
X116116000Y-110854999D03*
X116116000Y-111805000D03*
X116116000Y-112755001D03*
X118910000Y-112755001D03*
X118910000Y-111805000D03*
X118910000Y-110854999D03*
D16*
X117513000Y-111805000D03*
D17*
X94202100Y-120751600D03*
D18*
X94152600Y-121251600D03*
X94152600Y-121751600D03*
X95027100Y-121251600D03*
X95027100Y-121751600D03*
X95027100Y-119751600D03*
X95027100Y-120251600D03*
D17*
X94977100Y-120751600D03*
D18*
X94152600Y-120251600D03*
X94152600Y-119751600D03*
D19*
X99096600Y-111979800D03*
X100496600Y-111979800D03*
X100496600Y-110879800D03*
X99096600Y-110879800D03*
D20*
X104029600Y-111977400D03*
X104529600Y-111777400D03*
X104529600Y-110777400D03*
X104079600Y-110577400D03*
X102929600Y-110577400D03*
X102429600Y-110777400D03*
X102929600Y-111777400D03*
X102429600Y-111777400D03*
D21*
X113538000Y-111302800D03*
D22*
X112658000Y-111802800D03*
X112658000Y-111302800D03*
X112658000Y-110802800D03*
X114418000Y-110802800D03*
X114418000Y-111302800D03*
X114418000Y-111802800D03*
D23*
X107111800Y-111277400D03*
D24*
X108016800Y-110627400D03*
X108016800Y-111277400D03*
X108016800Y-111927400D03*
X106206800Y-111927400D03*
X106206800Y-111277400D03*
X106206800Y-110627400D03*
D25*
X113538000Y-120978600D03*
X112168000Y-120978600D03*
X114908000Y-120978600D03*
X112168000Y-119608600D03*
X114908000Y-119608600D03*
X114908000Y-118238600D03*
X113538000Y-119608600D03*
X113538000Y-118238600D03*
X112168000Y-118238600D03*
D26*
X116923000Y-116858600D03*
X116923000Y-117358600D03*
X116923000Y-117858600D03*
X116923000Y-118358600D03*
X116923000Y-118858600D03*
X116923000Y-119358600D03*
X116923000Y-119858600D03*
X116923000Y-120358600D03*
X116923000Y-120858600D03*
X116923000Y-121358600D03*
X116923000Y-121858600D03*
X116923000Y-122358600D03*
D27*
X116288000Y-122993600D03*
X115788000Y-122993600D03*
X115288000Y-122993600D03*
X114788000Y-122993600D03*
X114288000Y-122993600D03*
X113788000Y-122993600D03*
X113288000Y-122993600D03*
X112788000Y-122993600D03*
X112288000Y-122993600D03*
X111788000Y-122993600D03*
X111288000Y-122993600D03*
X110788000Y-122993600D03*
D26*
X110153000Y-122358600D03*
X110153000Y-121858600D03*
X110153000Y-121358600D03*
X110153000Y-120858600D03*
X110153000Y-120358600D03*
X110153000Y-119858600D03*
X110153000Y-119358600D03*
X110153000Y-118858600D03*
X110153000Y-118358600D03*
X110153000Y-117858600D03*
X110153000Y-117358600D03*
X110153000Y-116858600D03*
D27*
X110788000Y-116223600D03*
X111288000Y-116223600D03*
X111788000Y-116223600D03*
X112288000Y-116223600D03*
X112788000Y-116223600D03*
X113288000Y-116223600D03*
X113788000Y-116223600D03*
X114288000Y-116223600D03*
X114788000Y-116223600D03*
X115288000Y-116223600D03*
X115788000Y-116223600D03*
X116288000Y-116223600D03*
G36*
G01*
X108769800Y-115731500D02*
X108769800Y-115916500D01*
G75*
G02*
X108692300Y-115994000I-77500J0D01*
G01*
X108537300Y-115994000D01*
G75*
G02*
X108459800Y-115916500I0J77500D01*
G01*
X108459800Y-115731500D01*
G75*
G02*
X108537300Y-115654000I77500J0D01*
G01*
X108692300Y-115654000D01*
G75*
G02*
X108769800Y-115731500I0J-77500D01*
G01*
G37*
G36*
G01*
X109319800Y-115731500D02*
X109319800Y-115916500D01*
G75*
G02*
X109242300Y-115994000I-77500J0D01*
G01*
X109087300Y-115994000D01*
G75*
G02*
X109009800Y-115916500I0J77500D01*
G01*
X109009800Y-115731500D01*
G75*
G02*
X109087300Y-115654000I77500J0D01*
G01*
X109242300Y-115654000D01*
G75*
G02*
X109319800Y-115731500I0J-77500D01*
G01*
G37*
G36*
G01*
X108774200Y-116341100D02*
X108774200Y-116526100D01*
G75*
G02*
X108696700Y-116603600I-77500J0D01*
G01*
X108541700Y-116603600D01*
G75*
G02*
X108464200Y-116526100I0J77500D01*
G01*
X108464200Y-116341100D01*
G75*
G02*
X108541700Y-116263600I77500J0D01*
G01*
X108696700Y-116263600D01*
G75*
G02*
X108774200Y-116341100I0J-77500D01*
G01*
G37*
G36*
G01*
X109324200Y-116341100D02*
X109324200Y-116526100D01*
G75*
G02*
X109246700Y-116603600I-77500J0D01*
G01*
X109091700Y-116603600D01*
G75*
G02*
X109014200Y-116526100I0J77500D01*
G01*
X109014200Y-116341100D01*
G75*
G02*
X109091700Y-116263600I77500J0D01*
G01*
X109246700Y-116263600D01*
G75*
G02*
X109324200Y-116341100I0J-77500D01*
G01*
G37*
G36*
G01*
X108769800Y-115121900D02*
X108769800Y-115306900D01*
G75*
G02*
X108692300Y-115384400I-77500J0D01*
G01*
X108537300Y-115384400D01*
G75*
G02*
X108459800Y-115306900I0J77500D01*
G01*
X108459800Y-115121900D01*
G75*
G02*
X108537300Y-115044400I77500J0D01*
G01*
X108692300Y-115044400D01*
G75*
G02*
X108769800Y-115121900I0J-77500D01*
G01*
G37*
G36*
G01*
X109319800Y-115121900D02*
X109319800Y-115306900D01*
G75*
G02*
X109242300Y-115384400I-77500J0D01*
G01*
X109087300Y-115384400D01*
G75*
G02*
X109009800Y-115306900I0J77500D01*
G01*
X109009800Y-115121900D01*
G75*
G02*
X109087300Y-115044400I77500J0D01*
G01*
X109242300Y-115044400D01*
G75*
G02*
X109319800Y-115121900I0J-77500D01*
G01*
G37*
G36*
G01*
X104865200Y-112919300D02*
X104865200Y-112734300D01*
G75*
G02*
X104942700Y-112656800I77500J0D01*
G01*
X105097700Y-112656800D01*
G75*
G02*
X105175200Y-112734300I0J-77500D01*
G01*
X105175200Y-112919300D01*
G75*
G02*
X105097700Y-112996800I-77500J0D01*
G01*
X104942700Y-112996800D01*
G75*
G02*
X104865200Y-112919300I0J77500D01*
G01*
G37*
G36*
G01*
X104315200Y-112919300D02*
X104315200Y-112734300D01*
G75*
G02*
X104392700Y-112656800I77500J0D01*
G01*
X104547700Y-112656800D01*
G75*
G02*
X104625200Y-112734300I0J-77500D01*
G01*
X104625200Y-112919300D01*
G75*
G02*
X104547700Y-112996800I-77500J0D01*
G01*
X104392700Y-112996800D01*
G75*
G02*
X104315200Y-112919300I0J77500D01*
G01*
G37*
G36*
G01*
X103359600Y-112734300D02*
X103359600Y-112919300D01*
G75*
G02*
X103282100Y-112996800I-77500J0D01*
G01*
X103127100Y-112996800D01*
G75*
G02*
X103049600Y-112919300I0J77500D01*
G01*
X103049600Y-112734300D01*
G75*
G02*
X103127100Y-112656800I77500J0D01*
G01*
X103282100Y-112656800D01*
G75*
G02*
X103359600Y-112734300I0J-77500D01*
G01*
G37*
G36*
G01*
X103909600Y-112734300D02*
X103909600Y-112919300D01*
G75*
G02*
X103832100Y-112996800I-77500J0D01*
G01*
X103677100Y-112996800D01*
G75*
G02*
X103599600Y-112919300I0J77500D01*
G01*
X103599600Y-112734300D01*
G75*
G02*
X103677100Y-112656800I77500J0D01*
G01*
X103832100Y-112656800D01*
G75*
G02*
X103909600Y-112734300I0J-77500D01*
G01*
G37*
G36*
G01*
X108769800Y-116950700D02*
X108769800Y-117135700D01*
G75*
G02*
X108692300Y-117213200I-77500J0D01*
G01*
X108537300Y-117213200D01*
G75*
G02*
X108459800Y-117135700I0J77500D01*
G01*
X108459800Y-116950700D01*
G75*
G02*
X108537300Y-116873200I77500J0D01*
G01*
X108692300Y-116873200D01*
G75*
G02*
X108769800Y-116950700I0J-77500D01*
G01*
G37*
G36*
G01*
X109319800Y-116950700D02*
X109319800Y-117135700D01*
G75*
G02*
X109242300Y-117213200I-77500J0D01*
G01*
X109087300Y-117213200D01*
G75*
G02*
X109009800Y-117135700I0J77500D01*
G01*
X109009800Y-116950700D01*
G75*
G02*
X109087300Y-116873200I77500J0D01*
G01*
X109242300Y-116873200D01*
G75*
G02*
X109319800Y-116950700I0J-77500D01*
G01*
G37*
G36*
G01*
X108769800Y-117560300D02*
X108769800Y-117745300D01*
G75*
G02*
X108692300Y-117822800I-77500J0D01*
G01*
X108537300Y-117822800D01*
G75*
G02*
X108459800Y-117745300I0J77500D01*
G01*
X108459800Y-117560300D01*
G75*
G02*
X108537300Y-117482800I77500J0D01*
G01*
X108692300Y-117482800D01*
G75*
G02*
X108769800Y-117560300I0J-77500D01*
G01*
G37*
G36*
G01*
X109319800Y-117560300D02*
X109319800Y-117745300D01*
G75*
G02*
X109242300Y-117822800I-77500J0D01*
G01*
X109087300Y-117822800D01*
G75*
G02*
X109009800Y-117745300I0J77500D01*
G01*
X109009800Y-117560300D01*
G75*
G02*
X109087300Y-117482800I77500J0D01*
G01*
X109242300Y-117482800D01*
G75*
G02*
X109319800Y-117560300I0J-77500D01*
G01*
G37*
G36*
G01*
X108769800Y-118169900D02*
X108769800Y-118354900D01*
G75*
G02*
X108692300Y-118432400I-77500J0D01*
G01*
X108537300Y-118432400D01*
G75*
G02*
X108459800Y-118354900I0J77500D01*
G01*
X108459800Y-118169900D01*
G75*
G02*
X108537300Y-118092400I77500J0D01*
G01*
X108692300Y-118092400D01*
G75*
G02*
X108769800Y-118169900I0J-77500D01*
G01*
G37*
G36*
G01*
X109319800Y-118169900D02*
X109319800Y-118354900D01*
G75*
G02*
X109242300Y-118432400I-77500J0D01*
G01*
X109087300Y-118432400D01*
G75*
G02*
X109009800Y-118354900I0J77500D01*
G01*
X109009800Y-118169900D01*
G75*
G02*
X109087300Y-118092400I77500J0D01*
G01*
X109242300Y-118092400D01*
G75*
G02*
X109319800Y-118169900I0J-77500D01*
G01*
G37*
G36*
G01*
X108774200Y-118804900D02*
X108774200Y-118989900D01*
G75*
G02*
X108696700Y-119067400I-77500J0D01*
G01*
X108541700Y-119067400D01*
G75*
G02*
X108464200Y-118989900I0J77500D01*
G01*
X108464200Y-118804900D01*
G75*
G02*
X108541700Y-118727400I77500J0D01*
G01*
X108696700Y-118727400D01*
G75*
G02*
X108774200Y-118804900I0J-77500D01*
G01*
G37*
G36*
G01*
X109324200Y-118804900D02*
X109324200Y-118989900D01*
G75*
G02*
X109246700Y-119067400I-77500J0D01*
G01*
X109091700Y-119067400D01*
G75*
G02*
X109014200Y-118989900I0J77500D01*
G01*
X109014200Y-118804900D01*
G75*
G02*
X109091700Y-118727400I77500J0D01*
G01*
X109246700Y-118727400D01*
G75*
G02*
X109324200Y-118804900I0J-77500D01*
G01*
G37*
G36*
G01*
X108769800Y-119414500D02*
X108769800Y-119599500D01*
G75*
G02*
X108692300Y-119677000I-77500J0D01*
G01*
X108537300Y-119677000D01*
G75*
G02*
X108459800Y-119599500I0J77500D01*
G01*
X108459800Y-119414500D01*
G75*
G02*
X108537300Y-119337000I77500J0D01*
G01*
X108692300Y-119337000D01*
G75*
G02*
X108769800Y-119414500I0J-77500D01*
G01*
G37*
G36*
G01*
X109319800Y-119414500D02*
X109319800Y-119599500D01*
G75*
G02*
X109242300Y-119677000I-77500J0D01*
G01*
X109087300Y-119677000D01*
G75*
G02*
X109009800Y-119599500I0J77500D01*
G01*
X109009800Y-119414500D01*
G75*
G02*
X109087300Y-119337000I77500J0D01*
G01*
X109242300Y-119337000D01*
G75*
G02*
X109319800Y-119414500I0J-77500D01*
G01*
G37*
G36*
G01*
X108769800Y-120024100D02*
X108769800Y-120209100D01*
G75*
G02*
X108692300Y-120286600I-77500J0D01*
G01*
X108537300Y-120286600D01*
G75*
G02*
X108459800Y-120209100I0J77500D01*
G01*
X108459800Y-120024100D01*
G75*
G02*
X108537300Y-119946600I77500J0D01*
G01*
X108692300Y-119946600D01*
G75*
G02*
X108769800Y-120024100I0J-77500D01*
G01*
G37*
G36*
G01*
X109319800Y-120024100D02*
X109319800Y-120209100D01*
G75*
G02*
X109242300Y-120286600I-77500J0D01*
G01*
X109087300Y-120286600D01*
G75*
G02*
X109009800Y-120209100I0J77500D01*
G01*
X109009800Y-120024100D01*
G75*
G02*
X109087300Y-119946600I77500J0D01*
G01*
X109242300Y-119946600D01*
G75*
G02*
X109319800Y-120024100I0J-77500D01*
G01*
G37*
G36*
G01*
X108769800Y-120659100D02*
X108769800Y-120844100D01*
G75*
G02*
X108692300Y-120921600I-77500J0D01*
G01*
X108537300Y-120921600D01*
G75*
G02*
X108459800Y-120844100I0J77500D01*
G01*
X108459800Y-120659100D01*
G75*
G02*
X108537300Y-120581600I77500J0D01*
G01*
X108692300Y-120581600D01*
G75*
G02*
X108769800Y-120659100I0J-77500D01*
G01*
G37*
G36*
G01*
X109319800Y-120659100D02*
X109319800Y-120844100D01*
G75*
G02*
X109242300Y-120921600I-77500J0D01*
G01*
X109087300Y-120921600D01*
G75*
G02*
X109009800Y-120844100I0J77500D01*
G01*
X109009800Y-120659100D01*
G75*
G02*
X109087300Y-120581600I77500J0D01*
G01*
X109242300Y-120581600D01*
G75*
G02*
X109319800Y-120659100I0J-77500D01*
G01*
G37*
G36*
G01*
X108774200Y-121319500D02*
X108774200Y-121504500D01*
G75*
G02*
X108696700Y-121582000I-77500J0D01*
G01*
X108541700Y-121582000D01*
G75*
G02*
X108464200Y-121504500I0J77500D01*
G01*
X108464200Y-121319500D01*
G75*
G02*
X108541700Y-121242000I77500J0D01*
G01*
X108696700Y-121242000D01*
G75*
G02*
X108774200Y-121319500I0J-77500D01*
G01*
G37*
G36*
G01*
X109324200Y-121319500D02*
X109324200Y-121504500D01*
G75*
G02*
X109246700Y-121582000I-77500J0D01*
G01*
X109091700Y-121582000D01*
G75*
G02*
X109014200Y-121504500I0J77500D01*
G01*
X109014200Y-121319500D01*
G75*
G02*
X109091700Y-121242000I77500J0D01*
G01*
X109246700Y-121242000D01*
G75*
G02*
X109324200Y-121319500I0J-77500D01*
G01*
G37*
G36*
G01*
X115018200Y-124418300D02*
X115018200Y-124603300D01*
G75*
G02*
X114940700Y-124680800I-77500J0D01*
G01*
X114785700Y-124680800D01*
G75*
G02*
X114708200Y-124603300I0J77500D01*
G01*
X114708200Y-124418300D01*
G75*
G02*
X114785700Y-124340800I77500J0D01*
G01*
X114940700Y-124340800D01*
G75*
G02*
X115018200Y-124418300I0J-77500D01*
G01*
G37*
G36*
G01*
X115568200Y-124418300D02*
X115568200Y-124603300D01*
G75*
G02*
X115490700Y-124680800I-77500J0D01*
G01*
X115335700Y-124680800D01*
G75*
G02*
X115258200Y-124603300I0J77500D01*
G01*
X115258200Y-124418300D01*
G75*
G02*
X115335700Y-124340800I77500J0D01*
G01*
X115490700Y-124340800D01*
G75*
G02*
X115568200Y-124418300I0J-77500D01*
G01*
G37*
G36*
G01*
X119218500Y-119412400D02*
X119033500Y-119412400D01*
G75*
G02*
X118956000Y-119334900I0J77500D01*
G01*
X118956000Y-119179900D01*
G75*
G02*
X119033500Y-119102400I77500J0D01*
G01*
X119218500Y-119102400D01*
G75*
G02*
X119296000Y-119179900I0J-77500D01*
G01*
X119296000Y-119334900D01*
G75*
G02*
X119218500Y-119412400I-77500J0D01*
G01*
G37*
G36*
G01*
X119218500Y-119962400D02*
X119033500Y-119962400D01*
G75*
G02*
X118956000Y-119884900I0J77500D01*
G01*
X118956000Y-119729900D01*
G75*
G02*
X119033500Y-119652400I77500J0D01*
G01*
X119218500Y-119652400D01*
G75*
G02*
X119296000Y-119729900I0J-77500D01*
G01*
X119296000Y-119884900D01*
G75*
G02*
X119218500Y-119962400I-77500J0D01*
G01*
G37*
G36*
G01*
X116161200Y-123808700D02*
X116161200Y-123993700D01*
G75*
G02*
X116083700Y-124071200I-77500J0D01*
G01*
X115928700Y-124071200D01*
G75*
G02*
X115851200Y-123993700I0J77500D01*
G01*
X115851200Y-123808700D01*
G75*
G02*
X115928700Y-123731200I77500J0D01*
G01*
X116083700Y-123731200D01*
G75*
G02*
X116161200Y-123808700I0J-77500D01*
G01*
G37*
G36*
G01*
X116711200Y-123808700D02*
X116711200Y-123993700D01*
G75*
G02*
X116633700Y-124071200I-77500J0D01*
G01*
X116478700Y-124071200D01*
G75*
G02*
X116401200Y-123993700I0J77500D01*
G01*
X116401200Y-123808700D01*
G75*
G02*
X116478700Y-123731200I77500J0D01*
G01*
X116633700Y-123731200D01*
G75*
G02*
X116711200Y-123808700I0J-77500D01*
G01*
G37*
G36*
G01*
X117544200Y-124603300D02*
X117544200Y-124418300D01*
G75*
G02*
X117621700Y-124340800I77500J0D01*
G01*
X117776700Y-124340800D01*
G75*
G02*
X117854200Y-124418300I0J-77500D01*
G01*
X117854200Y-124603300D01*
G75*
G02*
X117776700Y-124680800I-77500J0D01*
G01*
X117621700Y-124680800D01*
G75*
G02*
X117544200Y-124603300I0J77500D01*
G01*
G37*
G36*
G01*
X116994200Y-124603300D02*
X116994200Y-124418300D01*
G75*
G02*
X117071700Y-124340800I77500J0D01*
G01*
X117226700Y-124340800D01*
G75*
G02*
X117304200Y-124418300I0J-77500D01*
G01*
X117304200Y-124603300D01*
G75*
G02*
X117226700Y-124680800I-77500J0D01*
G01*
X117071700Y-124680800D01*
G75*
G02*
X116994200Y-124603300I0J77500D01*
G01*
G37*
G36*
G01*
X116405600Y-124603300D02*
X116405600Y-124418300D01*
G75*
G02*
X116483100Y-124340800I77500J0D01*
G01*
X116638100Y-124340800D01*
G75*
G02*
X116715600Y-124418300I0J-77500D01*
G01*
X116715600Y-124603300D01*
G75*
G02*
X116638100Y-124680800I-77500J0D01*
G01*
X116483100Y-124680800D01*
G75*
G02*
X116405600Y-124603300I0J77500D01*
G01*
G37*
G36*
G01*
X115855600Y-124603300D02*
X115855600Y-124418300D01*
G75*
G02*
X115933100Y-124340800I77500J0D01*
G01*
X116088100Y-124340800D01*
G75*
G02*
X116165600Y-124418300I0J-77500D01*
G01*
X116165600Y-124603300D01*
G75*
G02*
X116088100Y-124680800I-77500J0D01*
G01*
X115933100Y-124680800D01*
G75*
G02*
X115855600Y-124603300I0J77500D01*
G01*
G37*
G36*
G01*
X115018200Y-115147300D02*
X115018200Y-115332300D01*
G75*
G02*
X114940700Y-115409800I-77500J0D01*
G01*
X114785700Y-115409800D01*
G75*
G02*
X114708200Y-115332300I0J77500D01*
G01*
X114708200Y-115147300D01*
G75*
G02*
X114785700Y-115069800I77500J0D01*
G01*
X114940700Y-115069800D01*
G75*
G02*
X115018200Y-115147300I0J-77500D01*
G01*
G37*
G36*
G01*
X115568200Y-115147300D02*
X115568200Y-115332300D01*
G75*
G02*
X115490700Y-115409800I-77500J0D01*
G01*
X115335700Y-115409800D01*
G75*
G02*
X115258200Y-115332300I0J77500D01*
G01*
X115258200Y-115147300D01*
G75*
G02*
X115335700Y-115069800I77500J0D01*
G01*
X115490700Y-115069800D01*
G75*
G02*
X115568200Y-115147300I0J-77500D01*
G01*
G37*
G36*
G01*
X114120000Y-115342500D02*
X114120000Y-115157500D01*
G75*
G02*
X114197500Y-115080000I77500J0D01*
G01*
X114352500Y-115080000D01*
G75*
G02*
X114430000Y-115157500I0J-77500D01*
G01*
X114430000Y-115342500D01*
G75*
G02*
X114352500Y-115420000I-77500J0D01*
G01*
X114197500Y-115420000D01*
G75*
G02*
X114120000Y-115342500I0J77500D01*
G01*
G37*
G36*
G01*
X113570000Y-115342500D02*
X113570000Y-115157500D01*
G75*
G02*
X113647500Y-115080000I77500J0D01*
G01*
X113802500Y-115080000D01*
G75*
G02*
X113880000Y-115157500I0J-77500D01*
G01*
X113880000Y-115342500D01*
G75*
G02*
X113802500Y-115420000I-77500J0D01*
G01*
X113647500Y-115420000D01*
G75*
G02*
X113570000Y-115342500I0J77500D01*
G01*
G37*
G36*
G01*
X112337200Y-123993700D02*
X112337200Y-123808700D01*
G75*
G02*
X112414700Y-123731200I77500J0D01*
G01*
X112569700Y-123731200D01*
G75*
G02*
X112647200Y-123808700I0J-77500D01*
G01*
X112647200Y-123993700D01*
G75*
G02*
X112569700Y-124071200I-77500J0D01*
G01*
X112414700Y-124071200D01*
G75*
G02*
X112337200Y-123993700I0J77500D01*
G01*
G37*
G36*
G01*
X111787200Y-123993700D02*
X111787200Y-123808700D01*
G75*
G02*
X111864700Y-123731200I77500J0D01*
G01*
X112019700Y-123731200D01*
G75*
G02*
X112097200Y-123808700I0J-77500D01*
G01*
X112097200Y-123993700D01*
G75*
G02*
X112019700Y-124071200I-77500J0D01*
G01*
X111864700Y-124071200D01*
G75*
G02*
X111787200Y-123993700I0J77500D01*
G01*
G37*
D28*
X124130800Y-123240800D03*
X121080800Y-123240800D03*
G36*
G01*
X119218700Y-121581200D02*
X119693700Y-121581200D01*
G75*
G02*
X119916200Y-121803700I0J-222500D01*
G01*
X119916200Y-122248700D01*
G75*
G02*
X119693700Y-122471200I-222500J0D01*
G01*
X119218700Y-122471200D01*
G75*
G02*
X118996200Y-122248700I0J222500D01*
G01*
X118996200Y-121803700D01*
G75*
G02*
X119218700Y-121581200I222500J0D01*
G01*
G37*
G36*
G01*
X119218700Y-120251200D02*
X119693700Y-120251200D01*
G75*
G02*
X119916200Y-120473700I0J-222500D01*
G01*
X119916200Y-120918700D01*
G75*
G02*
X119693700Y-121141200I-222500J0D01*
G01*
X119218700Y-121141200D01*
G75*
G02*
X118996200Y-120918700I0J222500D01*
G01*
X118996200Y-120473700D01*
G75*
G02*
X119218700Y-120251200I222500J0D01*
G01*
G37*
D29*
X123085200Y-117500400D03*
D30*
X122885200Y-114675400D03*
X122885200Y-120325400D03*
D31*
X90116200Y-121500000D03*
X90116200Y-120500000D03*
X90116200Y-119500000D03*
X90116200Y-118500000D03*
X90116200Y-117500000D03*
X90116200Y-116500000D03*
X90116200Y-115500000D03*
X90116200Y-114500000D03*
X90116200Y-113500000D03*
G36*
G01*
X118244000Y-114004300D02*
X118244000Y-114189300D01*
G75*
G02*
X118166500Y-114266800I-77500J0D01*
G01*
X118011500Y-114266800D01*
G75*
G02*
X117934000Y-114189300I0J77500D01*
G01*
X117934000Y-114004300D01*
G75*
G02*
X118011500Y-113926800I77500J0D01*
G01*
X118166500Y-113926800D01*
G75*
G02*
X118244000Y-114004300I0J-77500D01*
G01*
G37*
G36*
G01*
X118794000Y-114004300D02*
X118794000Y-114189300D01*
G75*
G02*
X118716500Y-114266800I-77500J0D01*
G01*
X118561500Y-114266800D01*
G75*
G02*
X118484000Y-114189300I0J77500D01*
G01*
X118484000Y-114004300D01*
G75*
G02*
X118561500Y-113926800I77500J0D01*
G01*
X118716500Y-113926800D01*
G75*
G02*
X118794000Y-114004300I0J-77500D01*
G01*
G37*
G36*
G01*
X116731400Y-114189300D02*
X116731400Y-114004300D01*
G75*
G02*
X116808900Y-113926800I77500J0D01*
G01*
X116963900Y-113926800D01*
G75*
G02*
X117041400Y-114004300I0J-77500D01*
G01*
X117041400Y-114189300D01*
G75*
G02*
X116963900Y-114266800I-77500J0D01*
G01*
X116808900Y-114266800D01*
G75*
G02*
X116731400Y-114189300I0J77500D01*
G01*
G37*
G36*
G01*
X116181400Y-114189300D02*
X116181400Y-114004300D01*
G75*
G02*
X116258900Y-113926800I77500J0D01*
G01*
X116413900Y-113926800D01*
G75*
G02*
X116491400Y-114004300I0J-77500D01*
G01*
X116491400Y-114189300D01*
G75*
G02*
X116413900Y-114266800I-77500J0D01*
G01*
X116258900Y-114266800D01*
G75*
G02*
X116181400Y-114189300I0J77500D01*
G01*
G37*
G36*
G01*
X112778600Y-113163400D02*
X112778600Y-112823400D01*
G75*
G02*
X112923600Y-112678400I145000J0D01*
G01*
X113213600Y-112678400D01*
G75*
G02*
X113358600Y-112823400I0J-145000D01*
G01*
X113358600Y-113163400D01*
G75*
G02*
X113213600Y-113308400I-145000J0D01*
G01*
X112923600Y-113308400D01*
G75*
G02*
X112778600Y-113163400I0J145000D01*
G01*
G37*
G36*
G01*
X111888600Y-113163400D02*
X111888600Y-112823400D01*
G75*
G02*
X112033600Y-112678400I145000J0D01*
G01*
X112323600Y-112678400D01*
G75*
G02*
X112468600Y-112823400I0J-145000D01*
G01*
X112468600Y-113163400D01*
G75*
G02*
X112323600Y-113308400I-145000J0D01*
G01*
X112033600Y-113308400D01*
G75*
G02*
X111888600Y-113163400I0J145000D01*
G01*
G37*
G36*
G01*
X114246600Y-112834600D02*
X114246600Y-113174600D01*
G75*
G02*
X114101600Y-113319600I-145000J0D01*
G01*
X113811600Y-113319600D01*
G75*
G02*
X113666600Y-113174600I0J145000D01*
G01*
X113666600Y-112834600D01*
G75*
G02*
X113811600Y-112689600I145000J0D01*
G01*
X114101600Y-112689600D01*
G75*
G02*
X114246600Y-112834600I0J-145000D01*
G01*
G37*
G36*
G01*
X115136600Y-112834600D02*
X115136600Y-113174600D01*
G75*
G02*
X114991600Y-113319600I-145000J0D01*
G01*
X114701600Y-113319600D01*
G75*
G02*
X114556600Y-113174600I0J145000D01*
G01*
X114556600Y-112834600D01*
G75*
G02*
X114701600Y-112689600I145000J0D01*
G01*
X114991600Y-112689600D01*
G75*
G02*
X115136600Y-112834600I0J-145000D01*
G01*
G37*
G36*
G01*
X102304200Y-112919300D02*
X102304200Y-112734300D01*
G75*
G02*
X102381700Y-112656800I77500J0D01*
G01*
X102536700Y-112656800D01*
G75*
G02*
X102614200Y-112734300I0J-77500D01*
G01*
X102614200Y-112919300D01*
G75*
G02*
X102536700Y-112996800I-77500J0D01*
G01*
X102381700Y-112996800D01*
G75*
G02*
X102304200Y-112919300I0J77500D01*
G01*
G37*
G36*
G01*
X101754200Y-112919300D02*
X101754200Y-112734300D01*
G75*
G02*
X101831700Y-112656800I77500J0D01*
G01*
X101986700Y-112656800D01*
G75*
G02*
X102064200Y-112734300I0J-77500D01*
G01*
X102064200Y-112919300D01*
G75*
G02*
X101986700Y-112996800I-77500J0D01*
G01*
X101831700Y-112996800D01*
G75*
G02*
X101754200Y-112919300I0J77500D01*
G01*
G37*
G36*
G01*
X98990800Y-113039100D02*
X98990800Y-113224100D01*
G75*
G02*
X98913300Y-113301600I-77500J0D01*
G01*
X98758300Y-113301600D01*
G75*
G02*
X98680800Y-113224100I0J77500D01*
G01*
X98680800Y-113039100D01*
G75*
G02*
X98758300Y-112961600I77500J0D01*
G01*
X98913300Y-112961600D01*
G75*
G02*
X98990800Y-113039100I0J-77500D01*
G01*
G37*
G36*
G01*
X99540800Y-113039100D02*
X99540800Y-113224100D01*
G75*
G02*
X99463300Y-113301600I-77500J0D01*
G01*
X99308300Y-113301600D01*
G75*
G02*
X99230800Y-113224100I0J77500D01*
G01*
X99230800Y-113039100D01*
G75*
G02*
X99308300Y-112961600I77500J0D01*
G01*
X99463300Y-112961600D01*
G75*
G02*
X99540800Y-113039100I0J-77500D01*
G01*
G37*
G36*
G01*
X100577000Y-113198700D02*
X100577000Y-113013700D01*
G75*
G02*
X100654500Y-112936200I77500J0D01*
G01*
X100809500Y-112936200D01*
G75*
G02*
X100887000Y-113013700I0J-77500D01*
G01*
X100887000Y-113198700D01*
G75*
G02*
X100809500Y-113276200I-77500J0D01*
G01*
X100654500Y-113276200D01*
G75*
G02*
X100577000Y-113198700I0J77500D01*
G01*
G37*
G36*
G01*
X100027000Y-113198700D02*
X100027000Y-113013700D01*
G75*
G02*
X100104500Y-112936200I77500J0D01*
G01*
X100259500Y-112936200D01*
G75*
G02*
X100337000Y-113013700I0J-77500D01*
G01*
X100337000Y-113198700D01*
G75*
G02*
X100259500Y-113276200I-77500J0D01*
G01*
X100104500Y-113276200D01*
G75*
G02*
X100027000Y-113198700I0J77500D01*
G01*
G37*
G36*
G01*
X96480600Y-120252700D02*
X96480600Y-120437700D01*
G75*
G02*
X96403100Y-120515200I-77500J0D01*
G01*
X96248100Y-120515200D01*
G75*
G02*
X96170600Y-120437700I0J77500D01*
G01*
X96170600Y-120252700D01*
G75*
G02*
X96248100Y-120175200I77500J0D01*
G01*
X96403100Y-120175200D01*
G75*
G02*
X96480600Y-120252700I0J-77500D01*
G01*
G37*
G36*
G01*
X97030600Y-120252700D02*
X97030600Y-120437700D01*
G75*
G02*
X96953100Y-120515200I-77500J0D01*
G01*
X96798100Y-120515200D01*
G75*
G02*
X96720600Y-120437700I0J77500D01*
G01*
X96720600Y-120252700D01*
G75*
G02*
X96798100Y-120175200I77500J0D01*
G01*
X96953100Y-120175200D01*
G75*
G02*
X97030600Y-120252700I0J-77500D01*
G01*
G37*
G36*
G01*
X96455200Y-119617700D02*
X96455200Y-119802700D01*
G75*
G02*
X96377700Y-119880200I-77500J0D01*
G01*
X96222700Y-119880200D01*
G75*
G02*
X96145200Y-119802700I0J77500D01*
G01*
X96145200Y-119617700D01*
G75*
G02*
X96222700Y-119540200I77500J0D01*
G01*
X96377700Y-119540200D01*
G75*
G02*
X96455200Y-119617700I0J-77500D01*
G01*
G37*
G36*
G01*
X97005200Y-119617700D02*
X97005200Y-119802700D01*
G75*
G02*
X96927700Y-119880200I-77500J0D01*
G01*
X96772700Y-119880200D01*
G75*
G02*
X96695200Y-119802700I0J77500D01*
G01*
X96695200Y-119617700D01*
G75*
G02*
X96772700Y-119540200I77500J0D01*
G01*
X96927700Y-119540200D01*
G75*
G02*
X97005200Y-119617700I0J-77500D01*
G01*
G37*
G36*
G01*
X107626800Y-112734300D02*
X107626800Y-112919300D01*
G75*
G02*
X107549300Y-112996800I-77500J0D01*
G01*
X107394300Y-112996800D01*
G75*
G02*
X107316800Y-112919300I0J77500D01*
G01*
X107316800Y-112734300D01*
G75*
G02*
X107394300Y-112656800I77500J0D01*
G01*
X107549300Y-112656800D01*
G75*
G02*
X107626800Y-112734300I0J-77500D01*
G01*
G37*
G36*
G01*
X108176800Y-112734300D02*
X108176800Y-112919300D01*
G75*
G02*
X108099300Y-112996800I-77500J0D01*
G01*
X107944300Y-112996800D01*
G75*
G02*
X107866800Y-112919300I0J77500D01*
G01*
X107866800Y-112734300D01*
G75*
G02*
X107944300Y-112656800I77500J0D01*
G01*
X108099300Y-112656800D01*
G75*
G02*
X108176800Y-112734300I0J-77500D01*
G01*
G37*
G36*
G01*
X106647600Y-112893900D02*
X106647600Y-112708900D01*
G75*
G02*
X106725100Y-112631400I77500J0D01*
G01*
X106880100Y-112631400D01*
G75*
G02*
X106957600Y-112708900I0J-77500D01*
G01*
X106957600Y-112893900D01*
G75*
G02*
X106880100Y-112971400I-77500J0D01*
G01*
X106725100Y-112971400D01*
G75*
G02*
X106647600Y-112893900I0J77500D01*
G01*
G37*
G36*
G01*
X106097600Y-112893900D02*
X106097600Y-112708900D01*
G75*
G02*
X106175100Y-112631400I77500J0D01*
G01*
X106330100Y-112631400D01*
G75*
G02*
X106407600Y-112708900I0J-77500D01*
G01*
X106407600Y-112893900D01*
G75*
G02*
X106330100Y-112971400I-77500J0D01*
G01*
X106175100Y-112971400D01*
G75*
G02*
X106097600Y-112893900I0J77500D01*
G01*
G37*
G36*
G01*
X115258200Y-123993700D02*
X115258200Y-123808700D01*
G75*
G02*
X115335700Y-123731200I77500J0D01*
G01*
X115490700Y-123731200D01*
G75*
G02*
X115568200Y-123808700I0J-77500D01*
G01*
X115568200Y-123993700D01*
G75*
G02*
X115490700Y-124071200I-77500J0D01*
G01*
X115335700Y-124071200D01*
G75*
G02*
X115258200Y-123993700I0J77500D01*
G01*
G37*
G36*
G01*
X114708200Y-123993700D02*
X114708200Y-123808700D01*
G75*
G02*
X114785700Y-123731200I77500J0D01*
G01*
X114940700Y-123731200D01*
G75*
G02*
X115018200Y-123808700I0J-77500D01*
G01*
X115018200Y-123993700D01*
G75*
G02*
X114940700Y-124071200I-77500J0D01*
G01*
X114785700Y-124071200D01*
G75*
G02*
X114708200Y-123993700I0J77500D01*
G01*
G37*
G36*
G01*
X118357000Y-119904300D02*
X118357000Y-119719300D01*
G75*
G02*
X118434500Y-119641800I77500J0D01*
G01*
X118589500Y-119641800D01*
G75*
G02*
X118667000Y-119719300I0J-77500D01*
G01*
X118667000Y-119904300D01*
G75*
G02*
X118589500Y-119981800I-77500J0D01*
G01*
X118434500Y-119981800D01*
G75*
G02*
X118357000Y-119904300I0J77500D01*
G01*
G37*
G36*
G01*
X117807000Y-119904300D02*
X117807000Y-119719300D01*
G75*
G02*
X117884500Y-119641800I77500J0D01*
G01*
X118039500Y-119641800D01*
G75*
G02*
X118117000Y-119719300I0J-77500D01*
G01*
X118117000Y-119904300D01*
G75*
G02*
X118039500Y-119981800I-77500J0D01*
G01*
X117884500Y-119981800D01*
G75*
G02*
X117807000Y-119904300I0J77500D01*
G01*
G37*
G36*
G01*
X118357000Y-120513900D02*
X118357000Y-120328900D01*
G75*
G02*
X118434500Y-120251400I77500J0D01*
G01*
X118589500Y-120251400D01*
G75*
G02*
X118667000Y-120328900I0J-77500D01*
G01*
X118667000Y-120513900D01*
G75*
G02*
X118589500Y-120591400I-77500J0D01*
G01*
X118434500Y-120591400D01*
G75*
G02*
X118357000Y-120513900I0J77500D01*
G01*
G37*
G36*
G01*
X117807000Y-120513900D02*
X117807000Y-120328900D01*
G75*
G02*
X117884500Y-120251400I77500J0D01*
G01*
X118039500Y-120251400D01*
G75*
G02*
X118117000Y-120328900I0J-77500D01*
G01*
X118117000Y-120513900D01*
G75*
G02*
X118039500Y-120591400I-77500J0D01*
G01*
X117884500Y-120591400D01*
G75*
G02*
X117807000Y-120513900I0J77500D01*
G01*
G37*
G36*
G01*
X117304200Y-123808700D02*
X117304200Y-123993700D01*
G75*
G02*
X117226700Y-124071200I-77500J0D01*
G01*
X117071700Y-124071200D01*
G75*
G02*
X116994200Y-123993700I0J77500D01*
G01*
X116994200Y-123808700D01*
G75*
G02*
X117071700Y-123731200I77500J0D01*
G01*
X117226700Y-123731200D01*
G75*
G02*
X117304200Y-123808700I0J-77500D01*
G01*
G37*
G36*
G01*
X117854200Y-123808700D02*
X117854200Y-123993700D01*
G75*
G02*
X117776700Y-124071200I-77500J0D01*
G01*
X117621700Y-124071200D01*
G75*
G02*
X117544200Y-123993700I0J77500D01*
G01*
X117544200Y-123808700D01*
G75*
G02*
X117621700Y-123731200I77500J0D01*
G01*
X117776700Y-123731200D01*
G75*
G02*
X117854200Y-123808700I0J-77500D01*
G01*
G37*
G36*
G01*
X113510000Y-124061400D02*
X113510000Y-124401400D01*
G75*
G02*
X113365000Y-124546400I-145000J0D01*
G01*
X113075000Y-124546400D01*
G75*
G02*
X112930000Y-124401400I0J145000D01*
G01*
X112930000Y-124061400D01*
G75*
G02*
X113075000Y-123916400I145000J0D01*
G01*
X113365000Y-123916400D01*
G75*
G02*
X113510000Y-124061400I0J-145000D01*
G01*
G37*
G36*
G01*
X114400000Y-124061400D02*
X114400000Y-124401400D01*
G75*
G02*
X114255000Y-124546400I-145000J0D01*
G01*
X113965000Y-124546400D01*
G75*
G02*
X113820000Y-124401400I0J145000D01*
G01*
X113820000Y-124061400D01*
G75*
G02*
X113965000Y-123916400I145000J0D01*
G01*
X114255000Y-123916400D01*
G75*
G02*
X114400000Y-124061400I0J-145000D01*
G01*
G37*
M02*
