G04 #@! TF.GenerationSoftware,KiCad,Pcbnew,(5.1.6)-1*
G04 #@! TF.CreationDate,2020-09-09T10:35:32-07:00*
G04 #@! TF.ProjectId,MiniDAQ,4d696e69-4441-4512-9e6b-696361645f70,rev?*
G04 #@! TF.SameCoordinates,Original*
G04 #@! TF.FileFunction,Copper,L4,Inr*
G04 #@! TF.FilePolarity,Positive*
%FSLAX46Y46*%
G04 Gerber Fmt 4.6, Leading zero omitted, Abs format (unit mm)*
G04 Created by KiCad (PCBNEW (5.1.6)-1) date 2020-09-09 10:35:32*
%MOMM*%
%LPD*%
G01*
G04 APERTURE LIST*
G04 #@! TA.AperFunction,ViaPad*
%ADD10O,1.000000X1.000000*%
G04 #@! TD*
G04 #@! TA.AperFunction,ViaPad*
%ADD11R,1.000000X1.000000*%
G04 #@! TD*
G04 #@! TA.AperFunction,ViaPad*
%ADD12O,4.000000X1.600000*%
G04 #@! TD*
G04 #@! TA.AperFunction,ViaPad*
%ADD13C,0.350000*%
G04 #@! TD*
G04 #@! TA.AperFunction,ViaPad*
%ADD14C,0.762000*%
G04 #@! TD*
G04 #@! TA.AperFunction,Conductor*
%ADD15C,0.203200*%
G04 #@! TD*
G04 #@! TA.AperFunction,Conductor*
%ADD16C,0.762000*%
G04 #@! TD*
G04 APERTURE END LIST*
D10*
X93864600Y-123603000D03*
X92594600Y-123603000D03*
D11*
X91324600Y-123603000D03*
D10*
X91324600Y-111436400D03*
D11*
X92594600Y-111436400D03*
D12*
X87666200Y-123350000D03*
X87666200Y-111650000D03*
D13*
X114884200Y-122047000D03*
X111709200Y-119634000D03*
X115341400Y-117779800D03*
X113690400Y-117805200D03*
X111734600Y-117754400D03*
X113944400Y-112979200D03*
X113055400Y-112979200D03*
X107111800Y-110871000D03*
X107086400Y-111709200D03*
X113538000Y-111404400D03*
X113538000Y-111963200D03*
X117500400Y-112699800D03*
X117525800Y-110871000D03*
D14*
X122885200Y-114675400D03*
X122885200Y-120325400D03*
X105435400Y-110947200D03*
D13*
X98882200Y-110718600D03*
X100736400Y-112141000D03*
X102463600Y-113411000D03*
D14*
X87706200Y-116636800D03*
D13*
X117678200Y-123190000D03*
X111328200Y-124383800D03*
X113157000Y-122047000D03*
X114858800Y-124510800D03*
X115786400Y-122059200D03*
X119126000Y-118643400D03*
X117500400Y-114071400D03*
X117906800Y-118592600D03*
X113728500Y-119418100D03*
X115362800Y-119358600D03*
X113868200Y-117017800D03*
X106553000Y-115722400D03*
X109846828Y-116414800D03*
X106209000Y-121745000D03*
X107123400Y-120123200D03*
X106922651Y-118519200D03*
X103846800Y-113468400D03*
X103034000Y-115094000D03*
X101408400Y-118548400D03*
X98868400Y-113773200D03*
X99365200Y-118110200D03*
X96938000Y-118142000D03*
X96811000Y-122409200D03*
X99732000Y-122460000D03*
X108698200Y-122180600D03*
X102094200Y-123250190D03*
X103923000Y-124161800D03*
X92010400Y-119767600D03*
X114286200Y-113773200D03*
X100999210Y-114382800D03*
X115290600Y-116967000D03*
X110972600Y-120345200D03*
D14*
X118897400Y-113411000D03*
D13*
X101904800Y-113360200D03*
X111328200Y-123901200D03*
X118237000Y-122402600D03*
X113284000Y-117017800D03*
X117449600Y-114884200D03*
X104470200Y-113461800D03*
X105701000Y-112808000D03*
X112482800Y-121935212D03*
X111072996Y-120978996D03*
X106996400Y-117735600D03*
X104165200Y-115710200D03*
X99353790Y-114941600D03*
X95642600Y-117557800D03*
X101765200Y-122110200D03*
X99365200Y-123710200D03*
X102983200Y-123250190D03*
X112355800Y-116973600D03*
X118401000Y-124136400D03*
X94677410Y-111334800D03*
X116738400Y-123291600D03*
X116128800Y-118364000D03*
X113856000Y-122047000D03*
X116027200Y-120853200D03*
X116556200Y-123901200D03*
X110998000Y-118846600D03*
D14*
X105537000Y-112090200D03*
D13*
X118922800Y-110845600D03*
D14*
X123190000Y-123190000D03*
X108788200Y-111912400D03*
X122377200Y-111836200D03*
X115214400Y-111226600D03*
D13*
X101765200Y-115710200D03*
X98565200Y-118910200D03*
X98547600Y-122910600D03*
X98995400Y-120885200D03*
X98995400Y-120097800D03*
X100519400Y-118548400D03*
X100189200Y-113646200D03*
X99427200Y-113671600D03*
X99782800Y-119310398D03*
X101375800Y-120929400D03*
D14*
X111785400Y-112115600D03*
D13*
X106971000Y-120926600D03*
X107000800Y-119310400D03*
X104939000Y-115094000D03*
X101357600Y-117659400D03*
X99353790Y-116516400D03*
X97090400Y-116160800D03*
X100544800Y-122536200D03*
X103821400Y-123250190D03*
X102551400Y-115094000D03*
X107656800Y-124006600D03*
X96734798Y-122968000D03*
D14*
X97500000Y-112958765D03*
X87706200Y-118364000D03*
D13*
X121080800Y-123240800D03*
X116115000Y-117126000D03*
X106132800Y-120932200D03*
X99757408Y-121723400D03*
X100163800Y-118110200D03*
X99365200Y-122910200D03*
X108619200Y-121412000D03*
X102184200Y-116128800D03*
X102971600Y-117729000D03*
X108614800Y-120751600D03*
X102971600Y-119303800D03*
X108614800Y-120116600D03*
X102920800Y-116916200D03*
X108614800Y-119507000D03*
X103759000Y-116941600D03*
X108619200Y-118897400D03*
X104546400Y-117729000D03*
X108614800Y-118262400D03*
X103809800Y-116179600D03*
X108610400Y-117652800D03*
X105333800Y-116916200D03*
X108614800Y-117043200D03*
X116230400Y-115392200D03*
X103592800Y-111360200D03*
X116789200Y-115392200D03*
X104177000Y-111334800D03*
X105333800Y-119329200D03*
X108614800Y-115214400D03*
X112635200Y-115043200D03*
X105359200Y-120926600D03*
X108619200Y-116433600D03*
X104597200Y-120142000D03*
X108614800Y-115824000D03*
X111099600Y-117043200D03*
X111734600Y-117043200D03*
X104597200Y-120926600D03*
X103733600Y-120932200D03*
X99046200Y-119285000D03*
X90119200Y-118516400D03*
X95425000Y-114681000D03*
X90119200Y-116484400D03*
X94871800Y-114681000D03*
X118262400Y-117983000D03*
X103784400Y-120091200D03*
X118262400Y-116408200D03*
X104608800Y-119310400D03*
X105384600Y-116128800D03*
X106146600Y-118513600D03*
X108000800Y-113715800D03*
X108610400Y-113715788D03*
X109245400Y-113715800D03*
X106172000Y-116078000D03*
X107111800Y-116538000D03*
X105359200Y-118513600D03*
X103756200Y-117729000D03*
X111484393Y-122080837D03*
X101383000Y-120123200D03*
X110474295Y-124108210D03*
X101357600Y-124136400D03*
X101332200Y-123323600D03*
X111985821Y-122005050D03*
X105345400Y-120123200D03*
X106183600Y-124009400D03*
X106158200Y-119301000D03*
X106996400Y-124006600D03*
D15*
X100519400Y-113976400D02*
X100189200Y-113646200D01*
X100519400Y-117684800D02*
X100519400Y-113976400D01*
X100519400Y-118548400D02*
X100621000Y-118446800D01*
X100621000Y-117786400D02*
X100519400Y-117684800D01*
X100621000Y-118446800D02*
X100621000Y-117786400D01*
X99757400Y-119284998D02*
X99782800Y-119310398D01*
X99427200Y-113671600D02*
X99757400Y-114001800D01*
X99757400Y-114001800D02*
X99757400Y-119284998D01*
D16*
X105980400Y-114205000D02*
X101769260Y-114205000D01*
X110842813Y-113058187D02*
X107127213Y-113058187D01*
X101769260Y-114205000D02*
X100523025Y-112958765D01*
X107127213Y-113058187D02*
X105980400Y-114205000D01*
X100523025Y-112958765D02*
X97500000Y-112958765D01*
X111785400Y-112115600D02*
X110842813Y-113058187D01*
D15*
X116115000Y-117126000D02*
X115844999Y-117396001D01*
X113194937Y-117396001D02*
X108800737Y-121790201D01*
X108800737Y-121790201D02*
X106990801Y-121790201D01*
X115844999Y-117396001D02*
X113194937Y-117396001D01*
X106990801Y-121790201D02*
X106132800Y-120932200D01*
X107518200Y-116311000D02*
X108614800Y-115214400D01*
X107180800Y-118922800D02*
X107518200Y-118585400D01*
X105333800Y-119329200D02*
X105740200Y-118922800D01*
X107518200Y-118585400D02*
X107518200Y-116311000D01*
X105740200Y-118922800D02*
X107180800Y-118922800D01*
X108153200Y-116899600D02*
X108619200Y-116433600D01*
X108153200Y-119938800D02*
X108153200Y-116899600D01*
X105536999Y-120751601D02*
X105765600Y-120523000D01*
X105534199Y-120751601D02*
X105536999Y-120751601D01*
X105359200Y-120926600D02*
X105534199Y-120751601D01*
X107569000Y-120523000D02*
X108153200Y-119938800D01*
X105765600Y-120523000D02*
X107569000Y-120523000D01*
X107492800Y-119710200D02*
X107848400Y-119354600D01*
X107848400Y-116590400D02*
X108614800Y-115824000D01*
X107848400Y-119354600D02*
X107848400Y-116590400D01*
X104597200Y-120142000D02*
X105029000Y-119710200D01*
X105029000Y-119710200D02*
X107492800Y-119710200D01*
X99046200Y-118675400D02*
X99046200Y-119285000D01*
X98563600Y-118192800D02*
X99046200Y-118675400D01*
X98563600Y-116702200D02*
X98563600Y-118192800D01*
X92594600Y-111436400D02*
X93297800Y-111436400D01*
X93297800Y-111436400D02*
X98563600Y-116702200D01*
X118014913Y-117983000D02*
X118262400Y-117983000D01*
X117956662Y-117983000D02*
X118014913Y-117983000D01*
X112894728Y-120123200D02*
X115816462Y-120123200D01*
X103355399Y-120520201D02*
X103355399Y-121113737D01*
X103784400Y-120091200D02*
X103355399Y-120520201D01*
X105158862Y-122917200D02*
X110100728Y-122917200D01*
X103355399Y-121113737D02*
X105158862Y-122917200D01*
X115816462Y-120123200D02*
X117956662Y-117983000D01*
X110100728Y-122917200D02*
X112894728Y-120123200D01*
X118014913Y-116408200D02*
X118262400Y-116408200D01*
X117524862Y-116408200D02*
X118014913Y-116408200D01*
X115775061Y-118158001D02*
X117524862Y-116408200D01*
X104218999Y-119700201D02*
X104218999Y-121108137D01*
X104218999Y-121108137D02*
X105672462Y-122561600D01*
X114428861Y-118158001D02*
X115775061Y-118158001D01*
X104608800Y-119310400D02*
X104218999Y-119700201D01*
X105672462Y-122561600D02*
X110025262Y-122561600D01*
X110025262Y-122561600D02*
X114428861Y-118158001D01*
X108000800Y-115011200D02*
X108000800Y-113963287D01*
X106146600Y-116865400D02*
X108000800Y-115011200D01*
X106146600Y-118513600D02*
X106146600Y-116865400D01*
X108000800Y-113963287D02*
X108000800Y-113715800D01*
X101557999Y-120298199D02*
X101383000Y-120123200D01*
X104532600Y-123272800D02*
X101557999Y-120298199D01*
X111484393Y-122080837D02*
X110292430Y-123272800D01*
X110292430Y-123272800D02*
X104532600Y-123272800D01*
X109938105Y-124644400D02*
X110474295Y-124108210D01*
X101357600Y-124136400D02*
X101865600Y-124644400D01*
X101865600Y-124644400D02*
X109938105Y-124644400D01*
X101507199Y-123498599D02*
X101332200Y-123323600D01*
X101637000Y-123628400D02*
X101507199Y-123498599D01*
X111985821Y-122005050D02*
X111985821Y-122252537D01*
X111985821Y-122252537D02*
X110609958Y-123628400D01*
X110609958Y-123628400D02*
X101637000Y-123628400D01*
M02*
