M48
; DRILL file {KiCad (5.1.6)-1} date 09/09/20 10:35:42
; FORMAT={-:-/ absolute / inch / decimal}
; #@! TF.CreationDate,2020-09-09T10:35:42-07:00
; #@! TF.GenerationSoftware,Kicad,Pcbnew,(5.1.6)-1
; #@! TF.FileFunction,Plated,1,6,PTH
FMAT,2
INCH
T1C0.0059
T2C0.0150
T3C0.0256
T4C0.0394
%
G90
G05
T1
X3.548Y-4.586
X3.548Y-4.666
X3.6225Y-4.7153
X3.7275Y-4.3833
X3.7351Y-4.515
X3.7569Y-4.515
X3.7655Y-4.6283
X3.8085Y-4.8413
X3.8115Y-4.8193
X3.8165Y-4.6513
X3.8225Y-4.5733
X3.8798Y-4.839
X3.8805Y-4.6815
X3.8925Y-4.4793
X3.893Y-4.359
X3.8975Y-4.7283
X3.8975Y-4.7593
X3.8995Y-4.6963
X3.9116Y-4.5253
X3.9116Y-4.5873
X3.912Y-4.65
X3.912Y-4.839
X3.912Y-4.8705
X3.9145Y-4.4753
X3.9265Y-4.8213
X3.9275Y-4.7923
X3.9285Y-4.6973
X3.9435Y-4.65
X3.9445Y-4.4743
X3.9575Y-4.6673
X3.9585Y-4.8243
X3.966Y-4.415
X3.9763Y-4.5033
X3.9895Y-4.8553
X3.9905Y-4.6323
X3.9905Y-4.8873
X3.9912Y-4.761
X3.9915Y-4.7293
X3.9925Y-4.6673
X4.0065Y-4.5555
X4.0065Y-4.8075
X4.012Y-4.463
X4.0195Y-4.8524
X4.023Y-4.572
X4.034Y-4.465
X4.0375Y-4.5313
X4.052Y-4.603
X4.054Y-4.635
X4.054Y-4.697
X4.0545Y-4.8524
X4.0565Y-4.5313
X4.0785Y-4.3843
X4.084Y-4.7611
X4.0849Y-4.635
X4.085Y-4.604
X4.086Y-4.728
X4.087Y-4.574
X4.0875Y-4.8524
X4.0885Y-4.4673
X4.0915Y-4.8883
X4.101Y-4.5555
X4.1015Y-4.3833
X4.113Y-4.467
X4.116Y-4.635
X4.118Y-4.73
X4.118Y-4.7609
X4.1185Y-4.6973
X4.1315Y-4.5313
X4.147Y-4.603
X4.147Y-4.698
X4.1475Y-4.7293
X4.148Y-4.6659
X4.148Y-4.7609
X4.149Y-4.572
X4.1615Y-4.4413
X4.1785Y-4.7611
X4.179Y-4.6659
X4.1795Y-4.6969
X4.18Y-4.57
X4.1805Y-4.8823
X4.1815Y-4.7931
X4.195Y-4.556
X4.2096Y-4.6661
X4.2115Y-4.7609
X4.2125Y-4.6353
X4.2125Y-4.8821
X4.2126Y-4.6973
X4.216Y-4.398
X4.217Y-4.365
X4.217Y-4.5881
X4.2175Y-4.7293
X4.2385Y-4.8821
X4.252Y-4.477
X4.276Y-4.477
X4.276Y-4.632
X4.2762Y-4.536
X4.2762Y-4.56
X4.2762Y-4.608
X4.2762Y-4.656
X4.2762Y-4.705
X4.2762Y-4.729
X4.2762Y-4.754
X4.2763Y-4.584
X4.2763Y-4.681
X4.2763Y-4.78
X4.2795Y-4.8103
X4.301Y-4.477
X4.3247Y-4.5833
X4.3494Y-4.8861
X4.369Y-4.738
X4.37Y-4.679
X4.373Y-4.763
X4.374Y-4.608
X4.383Y-4.878
X4.383Y-4.897
X4.3891Y-4.8063
X4.398Y-4.71
X4.399Y-4.608
X4.399Y-4.636
X4.4089Y-4.8033
X4.4235Y-4.6053
X4.4285Y-4.8006
X4.4345Y-4.5293
X4.451Y-4.448
X4.455Y-4.805
X4.46Y-4.607
X4.47Y-4.386
X4.47Y-4.408
X4.476Y-4.638
X4.4775Y-4.7015
X4.4825Y-4.805
X4.483Y-4.607
X4.486Y-4.448
X4.4995Y-4.4793
X4.522Y-4.902
X4.523Y-4.805
X4.539Y-4.605
X4.541Y-4.637
X4.5418Y-4.6992
X4.5585Y-4.8055
X4.568Y-4.758
X4.5715Y-4.6113
X4.572Y-4.66
X4.576Y-4.543
X4.5888Y-4.878
X4.596Y-4.854
X4.598Y-4.543
X4.624Y-4.523
X4.626Y-4.437
X4.626Y-4.491
X4.627Y-4.365
X4.633Y-4.85
X4.642Y-4.669
X4.655Y-4.819
X4.656Y-4.583
X4.656Y-4.645
X4.6615Y-4.8873
X4.682Y-4.364
X4.69Y-4.671
X4.767Y-4.852
T2
X3.453Y-4.592
X3.453Y-4.66
X3.8386Y-4.4472
X4.151Y-4.368
X4.155Y-4.413
X4.283Y-4.406
X4.401Y-4.414
X4.536Y-4.379
X4.681Y-4.465
X4.818Y-4.403
X4.838Y-4.5148
X4.838Y-4.7372
X4.85Y-4.85
T3
X3.5955Y-4.3873
X3.6455Y-4.3873
X3.5955Y-4.8663
X3.6455Y-4.8663
X3.6955Y-4.8663
T4
G00X3.481Y-4.3957
M15
G01X3.4219Y-4.3957
M16
G05
G00X3.481Y-4.8563
M15
G01X3.4219Y-4.8563
M16
G05
T0
M30
